<svg id="coaworld_province_prov_1_riverside_marches_riverside_marches_s1" width="500" height="500" viewBox="0 10 200 200" xmlns="http://www.w3.org/2000/svg" xmlns:x="http://www.w3.org/1999/xlink"><defs><clipPath id="heater_coaworld_province_prov_1_riverside_marches_riverside_marches_s1"><path d="m25,25 h150 v50 a150,150,0,0,1,-75,125 a150,150,0,0,1,-75,-125 z"/></clipPath><g id="crossFourchy_coaworld_province_prov_1_riverside_marches_riverside_marches_s1" stroke-width=".5"><path d="M95 105H76c-1 0-3 0-4 1l-7 5-3-5 9-6-9-6 3-5 7 5c1 1 3 1 4 1h19V75c0-1 0-3-1-4l-5-8 5-3 6 9 6-9 5 4-5 8c-1 1-1 3-1 4v20h20c1 0 3 0 4-1l7-5 3 5-9 6 9 6-3 5-7-5c-1-1-3-1-4-1h-20v18c0 1 0 3 1 4l5 8-5 4-6-9-6 9-5-4 5-8c1-1 1-3 1-4z"/></g><radialGradient id="backlight" cx="100%" cy="100%" r="150%"><stop stop-color="#fff" stop-opacity=".3" offset="0"/><stop stop-color="#fff" stop-opacity=".15" offset=".25"/><stop stop-color="#000" stop-opacity="0" offset="1"/></radialGradient></defs><g clip-path="url(#heater_coaworld_province_prov_1_riverside_marches_riverside_marches_s1)"><rect x="0" y="0" width="200" height="200" fill="#333333"/><g fill="#ffe066" stroke="none"><polygon points="200,200 200,144 25,25 145,200"/></g><g fill="#26c061" stroke="#000"><style>
      g.secondary,path.secondary {fill: #26c061;}
      g.tertiary,path.tertiary {fill: #26c061;}
    </style><use x:href="#crossFourchy_coaworld_province_prov_1_riverside_marches_riverside_marches_s1" transform="translate(50 50) scale(0.5)"/><use x:href="#crossFourchy_coaworld_province_prov_1_riverside_marches_riverside_marches_s1" transform="translate(80 80) scale(0.5)"/></g></g><path d="m25,25 h150 v50 a150,150,0,0,1,-75,125 a150,150,0,0,1,-75,-125 z" fill="url(#backlight)" stroke="#333"/></svg>