<svg id="coaworld_province_prov_12_cliffwatch_cliffwatch_s12" width="500" height="500" viewBox="0 10 200 200" xmlns="http://www.w3.org/2000/svg" xmlns:x="http://www.w3.org/1999/xlink"><defs><clipPath id="heater_coaworld_province_prov_12_cliffwatch_cliffwatch_s12"><path d="m25,25 h150 v50 a150,150,0,0,1,-75,125 a150,150,0,0,1,-75,-125 z"/></clipPath><clipPath id="divisionClip_coaworld_province_prov_12_cliffwatch_cliffwatch_s12"><path d="m 0,115 v -15 l 2,-3.5 -2,0.5 4,-7 l 4,7 -2,-0.5 4,7 -2,-0.5 4,7 4,-7 -2,0.5 4,-7 -2,0.5 4,-7l 4,7 -2,-0.5 4,7 -2,-0.5 4,7 4,-7 -2,0.5 4,-7 -2,0.5 4,-7l 4,7 -2,-0.5 4,7 -2,-0.5 4,7 4,-7 -2,0.5 4,-7 -2,0.5 4,-7l 4,7 -2,-0.5 4,7 -2,-0.5 4,7 4,-7 -2,0.5 4,-7 -2,0.5 4,-7l 4,7 -2,-0.5 4,7 -2,-0.5 4,7 4,-7 -2,0.5 4,-7 -2,0.5 4,-7l 4,7 -2,-0.5 4,7 -2,-0.5 4,7 4,-7 -2,0.5 4,-7 -2,0.5 4,-7l 4,7 -2,-0.5 4,7 -2,-0.5 4,7 4,-7 -2,0.5 4,-7 -2,0.5 4,-7l 4,7 -2,-0.5 4,7 -2,-0.5 4,7 4,-7 -2,0.5 4,-7 -2,0.5 4,-7l 4,7 -2,-0.5 4,7 -2,-0.5 4,7 4,-7 -2,0.5 4,-7 -2,0.5 4,-7l 4,7 -2,-0.5 4,7 -2,-0.5 4,7 4,-7 -2,0.5 4,-7 -2,0.5 4,-7l 4,7 -2,-0.5 4,7 -2,-0.5 4,7 4,-7 -2,0.5 4,-7 -2,0.5 4,-7l 4,7 -2,-0.5 4,7 -2,-0.5 4,7 4,-7 -2,0.5 4,-7 -2,0.5 4,-7 4,7 -2,-0.5 2,3.5 v 15 V200 H0 Z" transform="rotate(-90 100 100)"/></clipPath><g id="sextifoil_coaworld_province_prov_12_cliffwatch_cliffwatch_s12" stroke-width=".49"><path d="M65.47 119.84c.87 1.5 6.28 1.63 9.86 4.94 3.6 3.33 5.91 2.14 7 1.5 5.49-3.17 3.83-13.37 9.4-16.6.98-.57 2.13-.65 2.83-.27.63.45 1.08 1.44 1.08 2.52 0 6.45-9.67 10.12-9.67 16.45 0 1.25.13 3.86 4.81 5.3 4.67 1.45 7.49 6.09 9.23 6.09s4.55-4.62 9.22-6.09c4.66-1.46 4.81-4.05 4.81-5.3 0-6.33-9.67-10-9.67-16.45 0-1.08.45-2.1 1.08-2.52.7-.38 1.83-.3 2.82.28 5.58 3.22 3.93 13.42 9.42 16.6 1.08.61 3.39 1.8 7-1.51 3.58-3.3 9-3.46 9.85-4.94.87-1.5-1.74-6.25-.66-11.02s-1.1-6.2-2.18-6.8c-5.5-3.19-13.5 3.36-19.08.14-.98-.55-1.61-1.46-1.65-2.25.04-.78.7-1.7 1.65-2.24 5.58-3.23 13.59 3.32 19.08.14 1.08-.61 3.26-2.03 2.18-6.8-1.08-4.77 1.53-9.52.66-11.03-.87-1.5-6.27-1.63-9.86-4.94-3.6-3.32-5.91-2.14-7-1.5-5.48 3.18-3.83 13.38-9.4 16.6-.98.57-2.13.66-2.83.27-.63-.44-1.08-1.44-1.08-2.52 0-6.44 9.67-10.11 9.67-16.45 0-1.25-.13-3.86-4.81-5.3-4.67-1.44-7.49-6.06-9.22-6.06s-4.56 4.6-9.23 6.06c-4.66 1.46-4.8 4.05-4.8 5.3 0 6.34 9.66 10 9.66 16.45 0 1.08-.45 2.1-1.08 2.52-.7.39-1.83.3-2.82-.27-5.58-3.22-3.92-13.42-9.41-16.6-1.09-.62-3.4-1.8-7 1.5-3.58 3.31-9.01 3.46-9.86 4.94-.87 1.51 1.74 6.26.66 11.03s1.1 6.19 2.18 6.8c5.5 3.18 13.5-3.37 19.08-.14.98.55 1.61 1.46 1.66 2.24-.05.79-.7 1.7-1.66 2.25-5.57 3.22-13.59-3.33-19.08-.15-1.08.62-3.26 2.04-2.18 6.8 1.08 4.78-1.5 9.55-.66 11.03zm25.61-19.89a8.9 8.9 0 0 1 17.8 0 8.9 8.9 0 0 1-17.8 0"/><g fill="#000"><polygon points="109.36 104.96 121.97 112.51 109.04 105.51"/><polygon points="90.64 94.89 78.02 87.34 90.95 94.32"/><polygon points="90.95 105.51 78.02 112.51 90.64 104.96"/><polygon points="109.04 94.32 121.97 87.34 109.36 94.89"/><polygon points="100.32 110.53 99.9 125.23 99.69 110.53"/><polygon points="99.67 89.29 100.07 74.6 100.3 89.29"/></g></g><g id="ladder_coaworld_province_prov_12_cliffwatch_cliffwatch_s12" stroke-width=".33"><g><path d="M87.23 61.42c.06-.64 4.15-1.65 4.08-1-.06.64-4.67 75.37-4.74 76-.06.64-5.92 4.01-5.84 3.37.05-.63 6.42-77.73 6.5-78.37z"/><path d="M84.34 126.94h33.3v-3.7h-33.3s-.56.25-.56 1.85.56 1.85.56 1.85zm1.4-17.8h29.95v-3.7H85.73s-.55.25-.55 1.85.55 1.85.55 1.85zm1.5-17.8H112v-3.7H87.25s-.56.25-.56 1.85.56 1.85.56 1.85zm1.63-17.81h22.16v-3.7H88.87s-.55.25-.55 1.85.55 1.85.55 1.85z"/><path d="M112.9 61.08c-.06-.64-4.15-1.3-4.08-.65.06.64 4.68 75.37 4.74 76 .07.65 5.92 4.01 5.84 3.37-.05-.64-6.42-78.08-6.5-78.72z"/></g><path d="M115.77 123.24s.56.26.56 1.86-.56 1.85-.56 1.85m-1.4-21.5s.55.26.55 1.85-.55 1.85-.55 1.85m-1.52-21.52s.56.26.56 1.86-.56 1.85-.56 1.85m-1.3-21.5s.56.25.56 1.85-.56 1.85-.56 1.85"/><path fill="none" d="M115.7 123.24s-.55.26-.55 1.86.56 1.85.56 1.85m-1.43-21.5s-.56.26-.56 1.85.56 1.85.56 1.85m-1.54-21.52s-.55.26-.55 1.86.55 1.85.55 1.85m-1.32-21.5s-.55.25-.55 1.85.55 1.85.55 1.85"/></g><radialGradient id="backlight" cx="100%" cy="100%" r="150%"><stop stop-color="#fff" stop-opacity=".3" offset="0"/><stop stop-color="#fff" stop-opacity=".15" offset=".25"/><stop stop-color="#000" stop-opacity="0" offset="1"/></radialGradient></defs><g clip-path="url(#heater_coaworld_province_prov_12_cliffwatch_cliffwatch_s12)"><rect x="0" y="0" width="200" height="200" fill="#ffe066"/><g clip-path="url(#divisionClip_coaworld_province_prov_12_cliffwatch_cliffwatch_s12)"><rect x="0" y="0" width="200" height="200" fill="#522d5b"/></g><g fill="#d7374a" stroke="#000"><style>
      g.secondary,path.secondary {fill: #d7374a;}
      g.tertiary,path.tertiary {fill: #d7374a;}
    </style><use x:href="#sextifoil_coaworld_province_prov_12_cliffwatch_cliffwatch_s12" transform="translate(-7.5 30) scale(0.7)"/></g><g fill="#fafafa" stroke="#000"><style>
      g.secondary,path.secondary {fill: #fafafa;}
      g.tertiary,path.tertiary {fill: #fafafa;}
    </style><use x:href="#ladder_coaworld_province_prov_12_cliffwatch_cliffwatch_s12" transform="translate(67.5 30) scale(0.7)"/></g></g><path d="m25,25 h150 v50 a150,150,0,0,1,-75,125 a150,150,0,0,1,-75,-125 z" fill="url(#backlight)" stroke="#333"/></svg>