<svg id="coaworld_province_prov_13_cliffward_holds_cliffward_holds_s13" width="500" height="500" viewBox="0 10 200 200" xmlns="http://www.w3.org/2000/svg" xmlns:x="http://www.w3.org/1999/xlink"><defs><clipPath id="heater_coaworld_province_prov_13_cliffward_holds_cliffward_holds_s13"><path d="m25,25 h150 v50 a150,150,0,0,1,-75,125 a150,150,0,0,1,-75,-125 z"/></clipPath><g id="compassRose_coaworld_province_prov_13_cliffward_holds_cliffward_holds_s13" stroke-width=".5"><path d="M100 60l6 28 14-8-8 15 28 5-28 6 8 14-14-8-6 28-6-28-14 8 8-14-28-6 28-6-8-14 14 8z"/><path fill="#000" stroke="#000" fill-opacity=".5" stroke-opacity=".2" d="M100 61v39l7-6 5 1c2.7-5 5.3-10 8-15-4.3 4.3-8.7 9.7-13 14-2.3-10.7-4.7-22.3-7-33zm0 39l7 7c10.7-2.3 21.3-4.7 32-7zm0 0l-7 7c2.3 10.7 4.7 21.3 7 32zm0 0l-7-7-32 7zm-7-7l1-5-14-8zm0 14c-1.7-.3-3.3-.7-5-1-2.7 4.7-5.3 9.3-8 14l13-13zm14 0c-.3 1.7-.7 3.3-1 5 4.7 2.7 9.3 5.3 14 8z"/></g><radialGradient id="backlight" cx="100%" cy="100%" r="150%"><stop stop-color="#fff" stop-opacity=".3" offset="0"/><stop stop-color="#fff" stop-opacity=".15" offset=".25"/><stop stop-color="#000" stop-opacity="0" offset="1"/></radialGradient></defs><g clip-path="url(#heater_coaworld_province_prov_13_cliffward_holds_cliffward_holds_s13)"><rect x="0" y="0" width="200" height="200" fill="#d7374a"/><g fill="#fafafa" stroke="#000"><style>
      g.secondary,path.secondary {fill: #fafafa;}
      g.tertiary,path.tertiary {fill: #fafafa;}
    </style><use x:href="#compassRose_coaworld_province_prov_13_cliffward_holds_cliffward_holds_s13" transform="translate(-50 -50) scale(1.5)"/></g></g><path d="m25,25 h150 v50 a150,150,0,0,1,-75,125 a150,150,0,0,1,-75,-125 z" fill="url(#backlight)" stroke="#333"/></svg>