<svg id="coaworld_province_prov_2_twin_harbors_twin_harbors_s2" width="500" height="500" viewBox="0 10 200 200" xmlns="http://www.w3.org/2000/svg" xmlns:x="http://www.w3.org/1999/xlink"><defs><clipPath id="heater_coaworld_province_prov_2_twin_harbors_twin_harbors_s2"><path d="m25,25 h150 v50 a150,150,0,0,1,-75,125 a150,150,0,0,1,-75,-125 z"/></clipPath><clipPath id="divisionClip_coaworld_province_prov_2_twin_harbors_twin_harbors_s2"><path d="m 0,115 v -25 l 5,5 v 10 l 5,5 5,-5 v -10 l 5,-5l 5,5 v 10 l 5,5 5,-5 v -10 l 5,-5l 5,5 v 10 l 5,5 5,-5 v -10 l 5,-5 l 5,5 v 10 l 5,6 5,-6 v -10 l 5,-5 l 5,5 v 10 l 5,5 5,-5 v -10 l 5,-5l 5,5 v 10 l 5,5 5,-5 v -10 l 5,-5 l 5,5 v 10 l 5,6 5,-6 v -10 l 5,-5 l 5,5 v 10 l 5,5 5,-5 v -10 l 5,-5l 5,5 v 10 l 5,5 5,-5 v -10 l 5,-5l 5,5 v 10 l 5,5 5,-5 v -10 l 5,-5 v 25 V400 H0 Z" transform="translate(0 50) scale(.5)"/><path d="m 0,115 v -25 l 5,5 v 10 l 5,5 5,-5 v -10 l 5,-5l 5,5 v 10 l 5,5 5,-5 v -10 l 5,-5l 5,5 v 10 l 5,5 5,-5 v -10 l 5,-5 l 5,5 v 10 l 5,6 5,-6 v -10 l 5,-5 l 5,5 v 10 l 5,5 5,-5 v -10 l 5,-5l 5,5 v 10 l 5,5 5,-5 v -10 l 5,-5 l 5,5 v 10 l 5,6 5,-6 v -10 l 5,-5 l 5,5 v 10 l 5,5 5,-5 v -10 l 5,-5l 5,5 v 10 l 5,5 5,-5 v -10 l 5,-5l 5,5 v 10 l 5,5 5,-5 v -10 l 5,-5 v 25 V400 H0 Z" transform="translate(200 150) scale(-.5)"/></clipPath><g id="spiral_coaworld_province_prov_2_twin_harbors_twin_harbors_s2" stroke-width=".46"><path d="M123.05 69.88c-21.64-15.51-45.11-5.13-54.44 7.88-16 22.3-6.78 43.54 4.28 52.2 14.91 11.7 39.13 10.79 49.65-3.71 8.51-11.74 8.88-29.46-5.13-39.85-7.71-5.72-22.7-7.56-31.19 4.5-6.1 8.69-1.82 17.66 2.52 21.37 5.43 4.63 12.77 3.72 16.07-.81 5.15-7.06-1.2-13.23-5.71-11.8 1.31 1.29 1.58 4.25-.46 4.8-2.49.69-4.8-3.46-2.68-6.29 3.16-4.2 9.56-3.48 12.66-1.1 6 4.62 6.94 13 1.42 20.12-8.24 10.62-21.14 7.1-26.38 3.01-10.1-7.87-14.39-22.27-4.89-35.08 14.2-19.15 35.64-11.73 43.75-6.06 11.3 7.91 13.52 17.34 16.22 32.28 4.05-17.96-2.71-32.15-15.7-41.46z"/></g><g id="crescent_coaworld_province_prov_2_twin_harbors_twin_harbors_s2" stroke-width=".5"><path d="M84 65c-32 15-24 68 16 68s48-53 16-68c18 20 2 41-16 41S67 85 84 65z"/><path fill="none" d="M84 65c-26 15-14 56 16 56s42-41 16-56"/></g><g id="scissors2_coaworld_province_prov_2_twin_harbors_twin_harbors_s2" stroke-width="3" transform="matrix(0.22,0,0,0.22,67.7,61.2)"><path d="M265.57 1.5l-134 168.56-4.5 24.07c-.1 7.74-8.67 9.17-16.1 11.43-23.53 6.09-39.64 10.36-45.5 37.35-39.23-2.66-60.53 23.02-63.9 59.65-1.88 40.73 33.95 50.18 50.35 47.85 23.18-.38 58.99-57.4 34.28-92.5 2.15-18.1 15.69-19.26 28.93-20.7 27.48-7.19 30.98-23.48 45.72-35.37L263.8 69.78l1.78-68.28zM53.1 267.63c2.8.04 5.54.66 8.1 1.9 11.7 5.7 15.29 22.5 8 37.47-7.3 14.98-22.71 22.5-34.41 16.81-11.7-5.7-15.3-22.49-8-37.47 5.7-11.7 16.35-18.86 26.31-18.71z"/><path d="M23.85 2.22l6.63 73.06 96.1 123c4.83 2.28 8.55 15.82 12.5 27.13 11.14 1.97 9.05 6.63 26.46 9.18 17.61-.64 30.3 2.54 34.25 19.2-24.44 40.19-9.13 75.75 24.63 93.34 28.73 8.28 44.25-2.6 51.78-16.41 21.19-54.1-26.18-92.21-54-87.81-9.78-24.6-19.7-30.42-45.57-36.13-11.29-.48-6.89-10.8-9.71-16.37-.66-16.2-5.32-16.32-8.57-22.13L23.85 2.22zm208.16 266.06c10.17 0 20.73 7.99 25.69 20.4 6.08 15.29 1.4 31.54-10.5 36.29s-26.53-3.8-32.63-19.1c-6.1-15.28-1.37-31.53 10.53-36.28a18.5 18.5 0 016.9-1.3z"/><path d="M161.96 188.4a15.15 15.15 0 11-30.3 0 15.15 15.15 0 1130.3 0z"/><path d="M152.24 188.4a5.43 5.43 0 11-10.86 0 5.43 5.43 0 1110.86 0z"/><path stroke="none" fill="#000" d="M34.55 66.24l4.68 8.38 79.16 101.02 6.31 7.22-3.42-8.4-79.5-101.43c-1.98-1.67-9.31-10.53-7.23-6.8z"/></g><g id="mullet_coaworld_province_prov_2_twin_harbors_twin_harbors_s2"><polygon points="100 60 108.98 87.64 138.04 87.64 114.53 104.72 123.51 132.36 100 115.28 76.49 132.36 85.47 104.72 61.96 87.64 91.02 87.64"/></g><radialGradient id="backlight" cx="100%" cy="100%" r="150%"><stop stop-color="#fff" stop-opacity=".3" offset="0"/><stop stop-color="#fff" stop-opacity=".15" offset=".25"/><stop stop-color="#000" stop-opacity="0" offset="1"/></radialGradient></defs><g clip-path="url(#heater_coaworld_province_prov_2_twin_harbors_twin_harbors_s2)"><rect x="0" y="0" width="200" height="200" fill="#333333"/><g clip-path="url(#divisionClip_coaworld_province_prov_2_twin_harbors_twin_harbors_s2)"><rect x="0" y="0" width="200" height="200" fill="#ffe066"/></g><g fill="#fafafa" stroke="#000"><style>
      g.secondary,path.secondary {fill: #fafafa;}
      g.tertiary,path.tertiary {fill: #fafafa;}
    </style><use x:href="#spiral_coaworld_province_prov_2_twin_harbors_twin_harbors_s2" transform="translate(2.5 2.5) scale(0.6)"/></g><g fill="#377cd7" stroke="#000"><style>
      g.secondary,path.secondary {fill: #377cd7;}
      g.tertiary,path.tertiary {fill: #377cd7;}
    </style><use x:href="#crescent_coaworld_province_prov_2_twin_harbors_twin_harbors_s2" transform="translate(77.5 2.5) scale(0.6)"/></g><g fill="#d7374a" stroke="#000"><style>
      g.secondary,path.secondary {fill: #d7374a;}
      g.tertiary,path.tertiary {fill: #d7374a;}
    </style><use x:href="#scissors2_coaworld_province_prov_2_twin_harbors_twin_harbors_s2" transform="translate(10 70) scale(0.6)"/></g><g fill="#fafafa" stroke="#000"><style>
      g.secondary,path.secondary {fill: #fafafa;}
      g.tertiary,path.tertiary {fill: #fafafa;}
    </style><use x:href="#mullet_coaworld_province_prov_2_twin_harbors_twin_harbors_s2" transform="translate(70 70) scale(0.6)"/></g></g><path d="m25,25 h150 v50 a150,150,0,0,1,-75,125 a150,150,0,0,1,-75,-125 z" fill="url(#backlight)" stroke="#333"/></svg>