<svg id="coaworld_province_prov_6_shipwright_quarter_shipwright_quarter_s6" width="500" height="500" viewBox="0 10 200 200" xmlns="http://www.w3.org/2000/svg" xmlns:x="http://www.w3.org/1999/xlink"><defs><clipPath id="heater_coaworld_province_prov_6_shipwright_quarter_shipwright_quarter_s6"><path d="m25,25 h150 v50 a150,150,0,0,1,-75,125 a150,150,0,0,1,-75,-125 z"/></clipPath><g id="mullet_coaworld_province_prov_6_shipwright_quarter_shipwright_quarter_s6"><polygon points="100 60 108.98 87.64 138.04 87.64 114.53 104.72 123.51 132.36 100 115.28 76.49 132.36 85.47 104.72 61.96 87.64 91.02 87.64"/></g><radialGradient id="backlight" cx="100%" cy="100%" r="150%"><stop stop-color="#fff" stop-opacity=".3" offset="0"/><stop stop-color="#fff" stop-opacity=".15" offset=".25"/><stop stop-color="#000" stop-opacity="0" offset="1"/></radialGradient></defs><g clip-path="url(#heater_coaworld_province_prov_6_shipwright_quarter_shipwright_quarter_s6)"><rect x="0" y="0" width="200" height="200" fill="#fafafa"/><g fill="#d7374a" stroke="none"><path d="m 0,115 v -12.5 a 6.25,6.25 0 0 1 12.5,0a 6.25,6.25 0 0 1 12.5,0a 6.25,6.25 0 0 1 12.5,0a 6.25,6.25 0 0 1 12.5,0a 6.25,6.25 0 0 1 12.5,0a 6.25,6.25 0 0 1 12.5,0a 6.25,6.25 0 0 1 12.5,0a 6.25,6.25 0 0 1 12.5,0a 6.25,6.25 0 0 1 12.5,0a 6.25,6.25 0 0 1 12.5,0a 6.25,6.25 0 0 1 12.5,0a 6.25,6.25 0 0 1 12.5,0a 6.25,6.25 0 0 1 12.5,0a 6.25,6.25 0 0 1 12.5,0a 6.25,6.25 0 0 1 12.5,0a 6.25,6.25 0 0 1 12.5,0 v 12.5" transform="translate(0,-25) rotate(180.00001 100 100)"/><rect width="200" height="62" stroke="none"/></g><g fill="#fafafa" stroke="#000"><style>
      g.secondary,path.secondary {fill: #fafafa;}
      g.tertiary,path.tertiary {fill: #fafafa;}
    </style><use x:href="#mullet_coaworld_province_prov_6_shipwright_quarter_shipwright_quarter_s6" transform="translate(6.25 0) scale(0.5)"/><use x:href="#mullet_coaworld_province_prov_6_shipwright_quarter_shipwright_quarter_s6" transform="translate(50 0) scale(0.5)"/><use x:href="#mullet_coaworld_province_prov_6_shipwright_quarter_shipwright_quarter_s6" transform="translate(93.75 0) scale(0.5)"/></g></g><path d="m25,25 h150 v50 a150,150,0,0,1,-75,125 a150,150,0,0,1,-75,-125 z" fill="url(#backlight)" stroke="#333"/></svg>