<svg id="coaworld_province_prov_16_cape_of_lores_cape_of_lores_s16" width="500" height="500" viewBox="0 10 200 200" xmlns="http://www.w3.org/2000/svg" xmlns:x="http://www.w3.org/1999/xlink"><defs><clipPath id="heater_coaworld_province_prov_16_cape_of_lores_cape_of_lores_s16"><path d="m25,25 h150 v50 a150,150,0,0,1,-75,125 a150,150,0,0,1,-75,-125 z"/></clipPath><g id="crossSaltire_coaworld_province_prov_16_cape_of_lores_cape_of_lores_s16" stroke-width=".5"><path d="m 74,66 -8,8 26,26 -26,26 8,8 26,-26 26,26 8,-8 -26,-26 26,-26 -8,-8 -26,26 z"/></g><radialGradient id="backlight" cx="100%" cy="100%" r="150%"><stop stop-color="#fff" stop-opacity=".3" offset="0"/><stop stop-color="#fff" stop-opacity=".15" offset=".25"/><stop stop-color="#000" stop-opacity="0" offset="1"/></radialGradient></defs><g clip-path="url(#heater_coaworld_province_prov_16_cape_of_lores_cape_of_lores_s16)"><rect x="0" y="0" width="200" height="200" fill="#333333"/><g fill="#fafafa" stroke="#000"><style>
      g.secondary,path.secondary {fill: #fafafa;}
      g.tertiary,path.tertiary {fill: #fafafa;}
    </style><use x:href="#crossSaltire_coaworld_province_prov_16_cape_of_lores_cape_of_lores_s16" transform="translate(-50 -50) scale(1.5)"/></g></g><path d="m25,25 h150 v50 a150,150,0,0,1,-75,125 a150,150,0,0,1,-75,-125 z" fill="url(#backlight)" stroke="#333"/></svg>