<svg id="coaworld_province_prov_6_cliffwatch_cliffwatch_s6" width="500" height="500" viewBox="0 10 200 200" xmlns="http://www.w3.org/2000/svg"><defs><clipPath id="heater_coaworld_province_prov_6_cliffwatch_cliffwatch_s6"><path d="m25,25 h150 v50 a150,150,0,0,1,-75,125 a150,150,0,0,1,-75,-125 z"/></clipPath><clipPath id="divisionClip_coaworld_province_prov_6_cliffwatch_cliffwatch_s6"><rect x="100" y="0" width="100" height="100"/><rect x="0" y="100" width="100" height="100"/></clipPath><pattern id="bendySinister-azure-argent" width="100" height="100" viewBox="0 0 100 100" patternUnits="userSpaceOnUse"><rect width="100" height="100" fill="#fafafa"/><polygon points="0,25 25,0 75,0 0,75" fill="#377cd7"/><polygon points="25,100 100,25 100,75 75,100" fill="#377cd7"/></pattern><radialGradient id="backlight" cx="100%" cy="100%" r="150%"><stop stop-color="#fff" stop-opacity=".3" offset="0"/><stop stop-color="#fff" stop-opacity=".15" offset=".25"/><stop stop-color="#000" stop-opacity="0" offset="1"/></radialGradient></defs><g clip-path="url(#heater_coaworld_province_prov_6_cliffwatch_cliffwatch_s6)"><rect x="0" y="0" width="200" height="200" fill="url(#bendySinister-azure-argent)"/><g clip-path="url(#divisionClip_coaworld_province_prov_6_cliffwatch_cliffwatch_s6)"><rect x="0" y="0" width="200" height="200" fill="#ffe066"/></g><g fill="#fafafa" stroke="none"><path d="M 7 0 L 89 82 L 82 89 L 0 7 L 0 28 L 72 100 L 0 172 L 0 193 L 82 111 L 89 118 L 7 200 L 28 200 L 100 128 L 172 200 L 193 200 L 111 118 L 118 111 L 200 193 L 200 172 L 128 100 L 200 28 L 200 7 L 118 89 L 111 82 L 193 0 L 172 0 L 100 72 L 28 0 L 7 0 z M 100 93 L 107 100 L 100 107 L 93 100 L 100 93 z"/></g></g><path d="m25,25 h150 v50 a150,150,0,0,1,-75,125 a150,150,0,0,1,-75,-125 z" fill="url(#backlight)" stroke="#333"/></svg>