<svg id="coaworld_province_prov_15_salt_flats_of_vell_salt_flats_of_vell_s15" width="500" height="500" viewBox="0 10 200 200" xmlns="http://www.w3.org/2000/svg"><defs><clipPath id="heater_coaworld_province_prov_15_salt_flats_of_vell_salt_flats_of_vell_s15"><path d="m25,25 h150 v50 a150,150,0,0,1,-75,125 a150,150,0,0,1,-75,-125 z"/></clipPath><clipPath id="divisionClip_coaworld_province_prov_15_salt_flats_of_vell_salt_flats_of_vell_s15"><rect x="100" y="0" width="100" height="200"/></clipPath><pattern id="pappellony-argent-sable" width="25" height="25" viewBox="0 0 100 100" patternUnits="userSpaceOnUse"><rect width="100" height="100" fill="#fafafa"/><circle cx="0" cy="51" r="45" stroke="#333333" fill="#fafafa" stroke-width="10"/><circle cx="100" cy="51" r="45" stroke="#333333" fill="#fafafa" stroke-width="10"/><circle cx="50" cy="1" r="45" stroke="#333333" fill="#fafafa" stroke-width="10"/></pattern><radialGradient id="backlight" cx="100%" cy="100%" r="150%"><stop stop-color="#fff" stop-opacity=".3" offset="0"/><stop stop-color="#fff" stop-opacity=".15" offset=".25"/><stop stop-color="#000" stop-opacity="0" offset="1"/></radialGradient></defs><g clip-path="url(#heater_coaworld_province_prov_15_salt_flats_of_vell_salt_flats_of_vell_s15)"><rect x="0" y="0" width="200" height="200" fill="url(#pappellony-argent-sable)"/><g clip-path="url(#divisionClip_coaworld_province_prov_15_salt_flats_of_vell_salt_flats_of_vell_s15)"><rect x="0" y="0" width="200" height="200" fill="#522d5b"/></g><g fill="#377cd7" stroke="none"><rect x="0" y="75" width="200" height="50"/></g></g><path d="m25,25 h150 v50 a150,150,0,0,1,-75,125 a150,150,0,0,1,-75,-125 z" fill="url(#backlight)" stroke="#333"/></svg>