<svg id="coaworld_province_prov_11_estuary_hinter_estuary_hinter_s11" width="500" height="500" viewBox="0 10 200 200" xmlns="http://www.w3.org/2000/svg" xmlns:x="http://www.w3.org/1999/xlink"><defs><clipPath id="heater_coaworld_province_prov_11_estuary_hinter_estuary_hinter_s11"><path d="m25,25 h150 v50 a150,150,0,0,1,-75,125 a150,150,0,0,1,-75,-125 z"/></clipPath><g id="crossArrowed_coaworld_province_prov_11_estuary_hinter_estuary_hinter_s11" stroke-width=".5"><path d="M100 60L84 76h8v16H76v-8l-16 16 16 16v-8h16v16h-8l16 16 16-16h-8v-16h16v8l16-16-16-16v8h-16V76h8l-16-16z"/></g><radialGradient id="backlight" cx="100%" cy="100%" r="150%"><stop stop-color="#fff" stop-opacity=".3" offset="0"/><stop stop-color="#fff" stop-opacity=".15" offset=".25"/><stop stop-color="#000" stop-opacity="0" offset="1"/></radialGradient></defs><g clip-path="url(#heater_coaworld_province_prov_11_estuary_hinter_estuary_hinter_s11)"><rect x="0" y="0" width="200" height="200" fill="#333333"/><g fill="#ffe066" stroke="#000"><style>
      g.secondary,path.secondary {fill: #ffe066;}
      g.tertiary,path.tertiary {fill: #ffe066;}
    </style><use x:href="#crossArrowed_coaworld_province_prov_11_estuary_hinter_estuary_hinter_s11" transform="translate(-50 -50) scale(1.5)"/></g></g><path d="m25,25 h150 v50 a150,150,0,0,1,-75,125 a150,150,0,0,1,-75,-125 z" fill="url(#backlight)" stroke="#333"/></svg>