<svg id="coaworld_province_prov_10_headland_forts_headland_forts_s10" width="500" height="500" viewBox="0 10 200 200" xmlns="http://www.w3.org/2000/svg" xmlns:x="http://www.w3.org/1999/xlink"><defs><clipPath id="heater_coaworld_province_prov_10_headland_forts_headland_forts_s10"><path d="m25,25 h150 v50 a150,150,0,0,1,-75,125 a150,150,0,0,1,-75,-125 z"/></clipPath><g id="mullet6_coaworld_province_prov_10_headland_forts_headland_forts_s10"><polygon points="100 60 107.64 86.77 134.64 80 115.28 100 134.64 120 107.64 113.23 100 140 92.36 113.23 65.36 120 84.72 100 65.36 80 92.36 86.77"/></g><radialGradient id="backlight" cx="100%" cy="100%" r="150%"><stop stop-color="#fff" stop-opacity=".3" offset="0"/><stop stop-color="#fff" stop-opacity=".15" offset=".25"/><stop stop-color="#000" stop-opacity="0" offset="1"/></radialGradient></defs><g clip-path="url(#heater_coaworld_province_prov_10_headland_forts_headland_forts_s10)"><rect x="0" y="0" width="200" height="200" fill="#fafafa"/><g fill="#522d5b" stroke="none"><path d="M0,200 Q80,180 100,135 Q120,180 200,200"/></g><g fill="#522d5b" stroke="#000"><style>
      g.secondary,path.secondary {fill: #522d5b;}
      g.tertiary,path.tertiary {fill: #522d5b;}
    </style><use x:href="#mullet6_coaworld_province_prov_10_headland_forts_headland_forts_s10" transform="translate(50 0) scale(0.5)"/><use x:href="#mullet6_coaworld_province_prov_10_headland_forts_headland_forts_s10" transform="translate(6.25 50) scale(0.5)"/><use x:href="#mullet6_coaworld_province_prov_10_headland_forts_headland_forts_s10" transform="translate(93.75 50) scale(0.5)"/></g></g><path d="m25,25 h150 v50 a150,150,0,0,1,-75,125 a150,150,0,0,1,-75,-125 z" fill="url(#backlight)" stroke="#333"/></svg>