<svg id="coaworld_province_prov_10_estuary_marches_estuary_marches_s10" width="500" height="500" viewBox="0 10 200 200" xmlns="http://www.w3.org/2000/svg" xmlns:x="http://www.w3.org/1999/xlink"><defs><clipPath id="heater_coaworld_province_prov_10_estuary_marches_estuary_marches_s10"><path d="m25,25 h150 v50 a150,150,0,0,1,-75,125 a150,150,0,0,1,-75,-125 z"/></clipPath><g id="column_coaworld_province_prov_10_estuary_marches_estuary_marches_s10" stroke-width=".306"><g stroke-linejoin="round"><polygon points="92.556 128.678 107.519 128.678 111.956 133.472 88.119 133.472"/><rect x="88.119" y="133.472" width="23.837" height="1.54"/><rect x="89.761" y="138.215" width="20.553" height="1.867"/><polygon points="111.956 135.013 88.119 135.013 89.761 136.379 110.314 136.379"/><path d="M110.416 138.215H89.649a.914.914 0 0 1-.918-.918c0-.51.408-.918.918-.918h20.767c.51 0 .918.408.918.918s-.408.918-.918.918z"/></g><path d="M94.096 62.878c0 .439.112 1.449.663 1.449h10.465c.602 0 .755-.929.755-1.449l.204-1.734H93.81l.286 1.734z"/><path stroke-linejoin="round" d="M94.759 64.327h10.465s.796 36.138 1.132 48.388c.306 11.343-.102 16.29-.102 16.29s-.275 1.642-6.222 1.642-6.314-1.642-6.314-1.642-.275-6.753-.102-16.371c.194-10.302 1.143-48.307 1.143-48.307z"/><path stroke-linejoin="round" d="M93.208 128.78c.082-.49.47-.846.602-.673.061.112 1.183 1.224 6.232 1.224s6.161-1.122 6.212-1.224c.133-.183.52.174.602.673.051.276.03.908-.581 1.224-1.194.623-3.448.98-6.233.98-2.794 0-5.059-.357-6.252-.98-.612-.326-.633-.948-.582-1.224z"/><path d="M105.979 62.888c.653 0 1.214-1.111 1.214-1.764 0-.673-14.311-.673-14.311 0 0 .653.561 1.764 1.214 1.764h11.883z"/><rect x="91.403" y="59.951" width="17.34" height="1.561"/></g><radialGradient id="backlight" cx="100%" cy="100%" r="150%"><stop stop-color="#fff" stop-opacity=".3" offset="0"/><stop stop-color="#fff" stop-opacity=".15" offset=".25"/><stop stop-color="#000" stop-opacity="0" offset="1"/></radialGradient></defs><g clip-path="url(#heater_coaworld_province_prov_10_estuary_marches_estuary_marches_s10)"><rect x="0" y="0" width="200" height="200" fill="#d7374a"/><g fill="#fafafa" stroke="none"><polygon points="0,165 165,0 200,0 200,35 35,200 0,200"/></g><g fill="#d7374a" stroke="#000"><style>
      g.secondary,path.secondary {fill: #d7374a;}
      g.tertiary,path.tertiary {fill: #d7374a;}
    </style><use x:href="#column_coaworld_province_prov_10_estuary_marches_estuary_marches_s10" transform="translate(87.5 12.5) scale(0.5)"/><use x:href="#column_coaworld_province_prov_10_estuary_marches_estuary_marches_s10" transform="translate(50 50) scale(0.5)"/><use x:href="#column_coaworld_province_prov_10_estuary_marches_estuary_marches_s10" transform="translate(20 80) scale(0.5)"/></g></g><path d="m25,25 h150 v50 a150,150,0,0,1,-75,125 a150,150,0,0,1,-75,-125 z" fill="url(#backlight)" stroke="#333"/></svg>