<svg id="coaworld_province_prov_1_lowland_delta_lowland_delta_s1" width="500" height="500" viewBox="0 10 200 200" xmlns="http://www.w3.org/2000/svg"><defs><clipPath id="heater_coaworld_province_prov_1_lowland_delta_lowland_delta_s1"><path d="m25,25 h150 v50 a150,150,0,0,1,-75,125 a150,150,0,0,1,-75,-125 z"/></clipPath><pattern id="pally-argent-vert-small" width="80" height="20" viewBox="0 0 100 25" patternUnits="userSpaceOnUse"><rect width="100" height="25" fill="#26c061"/><rect x="25" y="0" width="25" height="25" fill="#fafafa"/><rect x="75" y="0" width="25" height="25" fill="#fafafa"/></pattern><radialGradient id="backlight" cx="100%" cy="100%" r="150%"><stop stop-color="#fff" stop-opacity=".3" offset="0"/><stop stop-color="#fff" stop-opacity=".15" offset=".25"/><stop stop-color="#000" stop-opacity="0" offset="1"/></radialGradient></defs><g clip-path="url(#heater_coaworld_province_prov_1_lowland_delta_lowland_delta_s1)"><rect x="0" y="0" width="200" height="200" fill="url(#pally-argent-vert-small)"/><g fill="#377cd7" stroke="none"><rect x="75" y="0" width="50" height="200"/></g></g><path d="m25,25 h150 v50 a150,150,0,0,1,-75,125 a150,150,0,0,1,-75,-125 z" fill="url(#backlight)" stroke="#333"/></svg>