<svg id="coaworld_province_prov_10_saltflats_of_kera_saltflats_of_kera_s10" width="500" height="500" viewBox="0 10 200 200" xmlns="http://www.w3.org/2000/svg" xmlns:x="http://www.w3.org/1999/xlink"><defs><clipPath id="heater_coaworld_province_prov_10_saltflats_of_kera_saltflats_of_kera_s10"><path d="m25,25 h150 v50 a150,150,0,0,1,-75,125 a150,150,0,0,1,-75,-125 z"/></clipPath><g id="roundel2_coaworld_province_prov_10_saltflats_of_kera_saltflats_of_kera_s10"><circle cx="100" cy="100" r="30"/><path fill="none" stroke-width=".5" d="M124 95a23 23 0 01-25 30"/></g><radialGradient id="backlight" cx="100%" cy="100%" r="150%"><stop stop-color="#fff" stop-opacity=".3" offset="0"/><stop stop-color="#fff" stop-opacity=".15" offset=".25"/><stop stop-color="#000" stop-opacity="0" offset="1"/></radialGradient></defs><g clip-path="url(#heater_coaworld_province_prov_10_saltflats_of_kera_saltflats_of_kera_s10)"><rect x="0" y="0" width="200" height="200" fill="#26c061"/><g fill="#fafafa" stroke="none"><rect x="75" y="0" width="50" height="200"/></g><g fill="#d7374a" stroke="#000"><style>
      g.secondary,path.secondary {fill: #d7374a;}
      g.tertiary,path.tertiary {fill: #d7374a;}
    </style><use x:href="#roundel2_coaworld_province_prov_10_saltflats_of_kera_saltflats_of_kera_s10" transform="translate(30 30) scale(0.7)"/></g></g><path d="m25,25 h150 v50 a150,150,0,0,1,-75,125 a150,150,0,0,1,-75,-125 z" fill="url(#backlight)" stroke="#333"/></svg>