<svg id="coaworld_province_prov_4_old_harbor_quarter_old_harbor_quarter_s4" width="500" height="500" viewBox="0 10 200 200" xmlns="http://www.w3.org/2000/svg" xmlns:x="http://www.w3.org/1999/xlink"><defs><clipPath id="heater_coaworld_province_prov_4_old_harbor_quarter_old_harbor_quarter_s4"><path d="m25,25 h150 v50 a150,150,0,0,1,-75,125 a150,150,0,0,1,-75,-125 z"/></clipPath><g id="inescutcheon_coaworld_province_prov_4_old_harbor_quarter_old_harbor_quarter_s4"><path transform="translate(66 66) scale(.34)" d="m25,25 h150 v50 a150,150,0,0,1,-75,125 a150,150,0,0,1,-75,-125 z"/></g><g id="crossMaltese_coaworld_province_prov_4_old_harbor_quarter_old_harbor_quarter_s4" stroke-width=".5"><path d="M98 98L83 60l17 11 17-11-15 38 38-15-11 17 11 17-38-15 15 38-17-11-17 11 15-38-38 15 11-17-11-17z"/></g><radialGradient id="backlight" cx="100%" cy="100%" r="150%"><stop stop-color="#fff" stop-opacity=".3" offset="0"/><stop stop-color="#fff" stop-opacity=".15" offset=".25"/><stop stop-color="#000" stop-opacity="0" offset="1"/></radialGradient></defs><g clip-path="url(#heater_coaworld_province_prov_4_old_harbor_quarter_old_harbor_quarter_s4)"><rect x="0" y="0" width="200" height="200" fill="#522d5b"/><g fill="#ffe066" stroke="#000"><style>
      g.secondary,path.secondary {fill: #ffe066;}
      g.tertiary,path.tertiary {fill: #ffe066;}
    </style><use x:href="#inescutcheon_coaworld_province_prov_4_old_harbor_quarter_old_harbor_quarter_s4" transform="translate(-50 -50) scale(1.5)"/></g><g fill="#333333" stroke="#000"><style>
      g.secondary,path.secondary {fill: #333333;}
      g.tertiary,path.tertiary {fill: #333333;}
    </style><use x:href="#crossMaltese_coaworld_province_prov_4_old_harbor_quarter_old_harbor_quarter_s4" transform="translate(25 25) scale(0.75)"/></g></g><path d="m25,25 h150 v50 a150,150,0,0,1,-75,125 a150,150,0,0,1,-75,-125 z" fill="url(#backlight)" stroke="#333"/></svg>