<svg id="coaworld_province_prov_6_windward_shoals_windward_shoals_s6" width="500" height="500" viewBox="0 10 200 200" xmlns="http://www.w3.org/2000/svg"><defs><clipPath id="heater_coaworld_province_prov_6_windward_shoals_windward_shoals_s6"><path d="m25,25 h150 v50 a150,150,0,0,1,-75,125 a150,150,0,0,1,-75,-125 z"/></clipPath><clipPath id="divisionClip_coaworld_province_prov_6_windward_shoals_windward_shoals_s6"><rect x="0" y="100" width="200" height="100"/></clipPath><radialGradient id="backlight" cx="100%" cy="100%" r="150%"><stop stop-color="#fff" stop-opacity=".3" offset="0"/><stop stop-color="#fff" stop-opacity=".15" offset=".25"/><stop stop-color="#000" stop-opacity="0" offset="1"/></radialGradient></defs><g clip-path="url(#heater_coaworld_province_prov_6_windward_shoals_windward_shoals_s6)"><rect x="0" y="0" width="200" height="200" fill="#377cd7"/><g clip-path="url(#divisionClip_coaworld_province_prov_6_windward_shoals_windward_shoals_s6)"><rect x="0" y="0" width="200" height="200" fill="#fafafa"/></g><g fill="#ffe066" stroke="none"><path d="m25,25 h150 v50 a150,150,0,0,1,-75,125 a150,150,0,0,1,-75,-125 z" fill="none" stroke="#ffe066" stroke-width="5%" transform="translate(15 15) scale(.85)"/></g></g><path d="m25,25 h150 v50 a150,150,0,0,1,-75,125 a150,150,0,0,1,-75,-125 z" fill="url(#backlight)" stroke="#333"/></svg>