<svg id="coaworld_province_prov_2_reef_isles_reef_isles_s2" width="500" height="500" viewBox="0 10 200 200" xmlns="http://www.w3.org/2000/svg"><defs><clipPath id="heater_coaworld_province_prov_2_reef_isles_reef_isles_s2"><path d="m25,25 h150 v50 a150,150,0,0,1,-75,125 a150,150,0,0,1,-75,-125 z"/></clipPath><clipPath id="divisionClip_coaworld_province_prov_2_reef_isles_reef_isles_s2"><rect x="100" y="0" width="100" height="200"/></clipPath><pattern id="barry-argent-sable" width="25" height="100" viewBox="0 0 25 100" patternUnits="userSpaceOnUse"><rect width="25" height="100" fill="#333333"/><rect x="0" y="25" width="25" height="25" fill="#fafafa"/><rect x="0" y="75" width="25" height="25" fill="#fafafa"/></pattern><radialGradient id="backlight" cx="100%" cy="100%" r="150%"><stop stop-color="#fff" stop-opacity=".3" offset="0"/><stop stop-color="#fff" stop-opacity=".15" offset=".25"/><stop stop-color="#000" stop-opacity="0" offset="1"/></radialGradient></defs><g clip-path="url(#heater_coaworld_province_prov_2_reef_isles_reef_isles_s2)"><rect x="0" y="0" width="200" height="200" fill="url(#barry-argent-sable)"/><g clip-path="url(#divisionClip_coaworld_province_prov_2_reef_isles_reef_isles_s2)"><rect x="0" y="0" width="200" height="200" fill="#26c061"/></g><g fill="#377cd7" stroke="none"><path d="M0,200 Q80,180 100,135 Q120,180 200,200"/></g></g><path d="m25,25 h150 v50 a150,150,0,0,1,-75,125 a150,150,0,0,1,-75,-125 z" fill="url(#backlight)" stroke="#333"/></svg>