<svg id="coaworld_province_prov_12_north_salt_flats_north_salt-flats_s12" width="500" height="500" viewBox="0 10 200 200" xmlns="http://www.w3.org/2000/svg" xmlns:x="http://www.w3.org/1999/xlink"><defs><clipPath id="heater_coaworld_province_prov_12_north_salt_flats_north_salt-flats_s12"><path d="m25,25 h150 v50 a150,150,0,0,1,-75,125 a150,150,0,0,1,-75,-125 z"/></clipPath><g id="crossFormee_coaworld_province_prov_12_north_salt_flats_north_salt-flats_s12" stroke-width=".5"><path d="m 90,60 h 20 c -3,8 -6,30 -5,35 5,1 27,-2 35,-5 v 20 c -8,-3 -30,-6 -35,-5 -1,5 2,27 5,35 H 90 c 3,-8 6,-30 5,-35 -4,-1 -27,2 -35,5 V 90 c 8,3 30,6 35,5 1,-5 -2,-27 -5,-35 z"/></g><radialGradient id="backlight" cx="100%" cy="100%" r="150%"><stop stop-color="#fff" stop-opacity=".3" offset="0"/><stop stop-color="#fff" stop-opacity=".15" offset=".25"/><stop stop-color="#000" stop-opacity="0" offset="1"/></radialGradient></defs><g clip-path="url(#heater_coaworld_province_prov_12_north_salt_flats_north_salt-flats_s12)"><rect x="0" y="0" width="200" height="200" fill="#377cd7"/><g fill="#fafafa" stroke="#000"><style>
      g.secondary,path.secondary {fill: #fafafa;}
      g.tertiary,path.tertiary {fill: #fafafa;}
    </style><use x:href="#crossFormee_coaworld_province_prov_12_north_salt_flats_north_salt-flats_s12" transform="translate(-50 -50) scale(1.5)"/></g></g><path d="m25,25 h150 v50 a150,150,0,0,1,-75,125 a150,150,0,0,1,-75,-125 z" fill="url(#backlight)" stroke="#333"/></svg>