<svg id="coaworld_province_prov_13_fisherstrand_fisherstrand_s13" width="500" height="500" viewBox="0 10 200 200" xmlns="http://www.w3.org/2000/svg" xmlns:x="http://www.w3.org/1999/xlink"><defs><clipPath id="heater_coaworld_province_prov_13_fisherstrand_fisherstrand_s13"><path d="m25,25 h150 v50 a150,150,0,0,1,-75,125 a150,150,0,0,1,-75,-125 z"/></clipPath><g id="comet_coaworld_province_prov_13_fisherstrand_fisherstrand_s13" stroke-width=".5" transform="translate(60 60) scale(0.4)"><path d="M91.05 69.92c-.38-.29-6.94 2.9-14.63 7.26-7.7 4.19-14.06 7.66-14.25 7.48-.1-.1 3.51-5.89 8.17-12.96 4.56-6.95 8.17-13.15 7.88-13.72-.28-.56-7.5-2.63-16.15-4.61-8.75-2.03-15.21-3.89-14.58-4.22.62-.31 6.1-1.67 12.21-3 6.08-1.33 12.92-2.81 15.1-3.3 2.28-.51 4.09-1.29 4.09-1.73 0-.46-3.71-6.53-8.17-13.52-4.47-6.98-7.98-12.83-7.79-13.01.19-.18 6.36 3.16 13.77 7.43 7.41 4.26 13.87 7.73 14.35 7.71.47 0 2.56-6.47 4.65-14.37C97.8 7.46 99.83-.55 100 0l4.3 13.97c2.5 8.1 4 15.31 4.4 15.7.3.38 6.7-2.73 14.3-6.98 7.5-4.23 13.9-7.51 14.2-7.3.1.22-3.5 6.14-8 13.18-4.7 7.03-8.1 13.05-7.7 13.37.4.3 7.6 2.17 16 4.14 8.4 1.97 15.3 3.8 15.3 4.05 0 .26-7.1 2.05-15.7 3.95-10.6 2.31-15.8 3.81-15.8 4.47 0 .66 3.7 6.76 8.1 13.71 4.4 6.89 8 12.77 8 13.06.1.19-6.2-3.19-13.9-7.67-7.7-4.45-14.2-8.11-14.6-8.11-1.5 2.82-4.8 3.85-5.8 24.08-.4 10.08 11.9 21.08 11.4 32.68-.5 16.7-16 23.2-16.7 37.9-.9 20.8 3.7 32.8 2.2 35.8-1.4-2.7-11.99-17.7-12.37-38.6-.29-15.5 13.97-18.1 13.67-35.7-.2-11.1-12.06-23.7-12.44-33.24-.57-19.73 4.09-20.2 2.19-22.54z"/></g><radialGradient id="backlight" cx="100%" cy="100%" r="150%"><stop stop-color="#fff" stop-opacity=".3" offset="0"/><stop stop-color="#fff" stop-opacity=".15" offset=".25"/><stop stop-color="#000" stop-opacity="0" offset="1"/></radialGradient></defs><g clip-path="url(#heater_coaworld_province_prov_13_fisherstrand_fisherstrand_s13)"><rect x="0" y="0" width="200" height="200" fill="#fafafa"/><g fill="#d7374a" stroke="none"><path d="m 0,115 v -10 h 80 c 0,0 0.1,-20.1 20,-20 19.9,0.1 20,20 20,20 h 80 v 10" transform="rotate(-90 100 100) translate(0 -25)"/><path d="m 0,115 v -10 h 80 c 0,0 0.1,-20.1 20,-20 19.9,0.1 20,20 20,20 h 80 v 10" transform="rotate(90 100 100) translate(0 -25)"/><rect x="88" y="0" width="24" height="200" stroke="none"/></g><g fill="#fafafa" stroke="#000"><style>
      g.secondary,path.secondary {fill: #fafafa;}
      g.tertiary,path.tertiary {fill: #fafafa;}
    </style><use x:href="#comet_coaworld_province_prov_13_fisherstrand_fisherstrand_s13" transform="translate(30 30) scale(0.7)"/></g></g><path d="m25,25 h150 v50 a150,150,0,0,1,-75,125 a150,150,0,0,1,-75,-125 z" fill="url(#backlight)" stroke="#333"/></svg>