<svg id="coaworld_province_prov_14_grey_cliffs_grey_cliffs_s14" width="500" height="500" viewBox="0 10 200 200" xmlns="http://www.w3.org/2000/svg" xmlns:x="http://www.w3.org/1999/xlink"><defs><clipPath id="heater_coaworld_province_prov_14_grey_cliffs_grey_cliffs_s14"><path d="m25,25 h150 v50 a150,150,0,0,1,-75,125 a150,150,0,0,1,-75,-125 z"/></clipPath><g id="roundel_coaworld_province_prov_14_grey_cliffs_grey_cliffs_s14"><circle cx="100" cy="100" r="30"/></g><radialGradient id="backlight" cx="100%" cy="100%" r="150%"><stop stop-color="#fff" stop-opacity=".3" offset="0"/><stop stop-color="#fff" stop-opacity=".15" offset=".25"/><stop stop-color="#000" stop-opacity="0" offset="1"/></radialGradient></defs><g clip-path="url(#heater_coaworld_province_prov_14_grey_cliffs_grey_cliffs_s14)"><rect x="0" y="0" width="200" height="200" fill="#522d5b"/><g fill="#ffe066" stroke="none"><path d="M15,0 100,200 60,0Z M80,0 100,200 120,0Z M140,0 100,200 185,0Z"/></g><g fill="#fafafa" stroke="#000"><style>
      g.secondary,path.secondary {fill: #fafafa;}
      g.tertiary,path.tertiary {fill: #fafafa;}
    </style><use x:href="#roundel_coaworld_province_prov_14_grey_cliffs_grey_cliffs_s14" transform="translate(12.5 12.5) scale(0.5)"/><use x:href="#roundel_coaworld_province_prov_14_grey_cliffs_grey_cliffs_s14" transform="translate(50 50) scale(0.5)"/><use x:href="#roundel_coaworld_province_prov_14_grey_cliffs_grey_cliffs_s14" transform="translate(80 80) scale(0.5)"/></g></g><path d="m25,25 h150 v50 a150,150,0,0,1,-75,125 a150,150,0,0,1,-75,-125 z" fill="url(#backlight)" stroke="#333"/></svg>