<svg id="coaworld_province_prov_1_harbor_basin_harbor_basin_s1" width="500" height="500" viewBox="0 10 200 200" xmlns="http://www.w3.org/2000/svg"><defs><clipPath id="heater_coaworld_province_prov_1_harbor_basin_harbor_basin_s1"><path d="m25,25 h150 v50 a150,150,0,0,1,-75,125 a150,150,0,0,1,-75,-125 z"/></clipPath><clipPath id="divisionClip_coaworld_province_prov_1_harbor_basin_harbor_basin_s1"><polygon points="0,0 200,200 0,200"/></clipPath><pattern id="bendySinister-argent-gules-small" width="80" height="80" viewBox="0 0 100 100" patternUnits="userSpaceOnUse"><rect width="100" height="100" fill="#d7374a"/><polygon points="0,25 25,0 75,0 0,75" fill="#fafafa"/><polygon points="25,100 100,25 100,75 75,100" fill="#fafafa"/></pattern><radialGradient id="backlight" cx="100%" cy="100%" r="150%"><stop stop-color="#fff" stop-opacity=".3" offset="0"/><stop stop-color="#fff" stop-opacity=".15" offset=".25"/><stop stop-color="#000" stop-opacity="0" offset="1"/></radialGradient></defs><g clip-path="url(#heater_coaworld_province_prov_1_harbor_basin_harbor_basin_s1)"><rect x="0" y="0" width="200" height="200" fill="url(#bendySinister-argent-gules-small)"/><g clip-path="url(#divisionClip_coaworld_province_prov_1_harbor_basin_harbor_basin_s1)"><rect x="0" y="0" width="200" height="200" fill="#522d5b"/></g><g fill="#333333" stroke="none"><rect x="75" y="0" width="50" height="200"/></g></g><path d="m25,25 h150 v50 a150,150,0,0,1,-75,125 a150,150,0,0,1,-75,-125 z" fill="url(#backlight)" stroke="#333"/></svg>