<svg id="coaworld_province_prov_11_drydock_quarter_drydock_quarter_s11" width="500" height="500" viewBox="0 10 200 200" xmlns="http://www.w3.org/2000/svg"><defs><clipPath id="heater_coaworld_province_prov_11_drydock_quarter_drydock_quarter_s11"><path d="m25,25 h150 v50 a150,150,0,0,1,-75,125 a150,150,0,0,1,-75,-125 z"/></clipPath><pattern id="barry-sable-or" width="25" height="100" viewBox="0 0 25 100" patternUnits="userSpaceOnUse"><rect width="25" height="100" fill="#ffe066"/><rect x="0" y="25" width="25" height="25" fill="#333333"/><rect x="0" y="75" width="25" height="25" fill="#333333"/></pattern><radialGradient id="backlight" cx="100%" cy="100%" r="150%"><stop stop-color="#fff" stop-opacity=".3" offset="0"/><stop stop-color="#fff" stop-opacity=".15" offset=".25"/><stop stop-color="#000" stop-opacity="0" offset="1"/></radialGradient></defs><g clip-path="url(#heater_coaworld_province_prov_11_drydock_quarter_drydock_quarter_s11)"><rect x="0" y="0" width="200" height="200" fill="url(#barry-sable-or)"/><g fill="#fafafa" stroke="none"><polygon points="0,125 100,60 200,125 200,165 100,100 0,165"/></g></g><path d="m25,25 h150 v50 a150,150,0,0,1,-75,125 a150,150,0,0,1,-75,-125 z" fill="url(#backlight)" stroke="#333"/></svg>