<svg id="coaworld_province_prov_1_saltmarsh_flats_saltmarsh_flats_s1" width="500" height="500" viewBox="0 10 200 200" xmlns="http://www.w3.org/2000/svg" xmlns:x="http://www.w3.org/1999/xlink"><defs><clipPath id="heater_coaworld_province_prov_1_saltmarsh_flats_saltmarsh_flats_s1"><path d="m25,25 h150 v50 a150,150,0,0,1,-75,125 a150,150,0,0,1,-75,-125 z"/></clipPath><clipPath id="divisionClip_coaworld_province_prov_1_saltmarsh_flats_saltmarsh_flats_s1"><path d="M0,80 100,-15 200,80 200,120 100,25 0,120z M0,160 100,65 200,160 200,200 100,105 0,200z M0,240 100,145 200,240 0,240z"/></clipPath><g id="crossOrthodox_coaworld_province_prov_1_saltmarsh_flats_saltmarsh_flats_s1" stroke-width=".5"><path d="m 95,60 h 10 v 8 h 10 v 10 h -10 v 7 h 25 v 10 h -25 v 27 l 10,5 v 9 l -10,-5 v 9 H 95 v -14 l -10,-5 v -9 l 10,5 V 95 H 70 V 85 H 95 V 78 H 85 V 68 h 10 z"/></g><radialGradient id="backlight" cx="100%" cy="100%" r="150%"><stop stop-color="#fff" stop-opacity=".3" offset="0"/><stop stop-color="#fff" stop-opacity=".15" offset=".25"/><stop stop-color="#000" stop-opacity="0" offset="1"/></radialGradient></defs><g clip-path="url(#heater_coaworld_province_prov_1_saltmarsh_flats_saltmarsh_flats_s1)"><rect x="0" y="0" width="200" height="200" fill="#fafafa"/><g clip-path="url(#divisionClip_coaworld_province_prov_1_saltmarsh_flats_saltmarsh_flats_s1)"><rect x="0" y="0" width="200" height="200" fill="#d7374a"/></g><g fill="#377cd7" stroke="#000"><style>
      g.secondary,path.secondary {fill: #377cd7;}
      g.tertiary,path.tertiary {fill: #377cd7;}
    </style><use x:href="#crossOrthodox_coaworld_province_prov_1_saltmarsh_flats_saltmarsh_flats_s1" transform="translate(-50 -50) scale(1.5)"/></g></g><path d="m25,25 h150 v50 a150,150,0,0,1,-75,125 a150,150,0,0,1,-75,-125 z" fill="url(#backlight)" stroke="#333"/></svg>