<svg id="coaworld_province_prov_12_estuary_boroughs_estuary_boroughs_s12" width="500" height="500" viewBox="0 10 200 200" xmlns="http://www.w3.org/2000/svg" xmlns:x="http://www.w3.org/1999/xlink"><defs><clipPath id="heater_coaworld_province_prov_12_estuary_boroughs_estuary_boroughs_s12"><path d="m25,25 h150 v50 a150,150,0,0,1,-75,125 a150,150,0,0,1,-75,-125 z"/></clipPath><g id="pincers_coaworld_province_prov_12_estuary_boroughs_estuary_boroughs_s12" stroke-width="3" transform="translate(87.6 60) scale(0.228)"><path d="M1.8 339.79c11.62-19.18 12.5-34.74 15.12-50.89 9.9-57.34 8.83-107.06 11.53-159.4 1.02-24.87 9.13-26.4 15.7-33.03C87.1 62.8 72 22.6 64.53 10.4c-3-8.24 5.66-12.32 9.83-5.33 29.23 52.71 3.88 85.15-21.8 110-7.49 5.96-7.92 7.92-8.15 16.97-2.06 79.66-3.9 159.61-27.82 211.9-3.84 11.54-17.27 9.03-14.79-4.15z"/><path d="M107.13 339.79C95.5 320.6 94.63 305.05 92 288.9c-9.9-57.34-8.83-107.06-11.53-159.4-1.02-24.87-9.13-26.4-15.7-33.03C21.83 62.8 36.94 22.6 44.4 10.4c3-8.24-5.66-12.32-9.83-5.33-29.22 52.71-3.88 85.15 21.8 110 7.49 5.96 7.92 7.92 8.15 16.97 2.07 79.66 3.9 159.61 27.82 211.9 3.84 11.54 17.27 9.03 14.79-4.15z"/><path d="M58.75 99.57a4.29 4.29 0 11-8.57 0 4.29 4.29 0 118.57 0z"/></g><radialGradient id="backlight" cx="100%" cy="100%" r="150%"><stop stop-color="#fff" stop-opacity=".3" offset="0"/><stop stop-color="#fff" stop-opacity=".15" offset=".25"/><stop stop-color="#000" stop-opacity="0" offset="1"/></radialGradient></defs><g clip-path="url(#heater_coaworld_province_prov_12_estuary_boroughs_estuary_boroughs_s12)"><rect x="0" y="0" width="200" height="200" fill="#522d5b"/><g fill="#fafafa" stroke="#000"><style>
      g.secondary,path.secondary {fill: #fafafa;}
      g.tertiary,path.tertiary {fill: #fafafa;}
    </style><use x:href="#pincers_coaworld_province_prov_12_estuary_boroughs_estuary_boroughs_s12" transform="translate(-50 -50) scale(1.5)"/></g></g><path d="m25,25 h150 v50 a150,150,0,0,1,-75,125 a150,150,0,0,1,-75,-125 z" fill="url(#backlight)" stroke="#333"/></svg>