<svg id="coaworld_province_prov_1_clifftop_dominions_clifftop_dominions_s1" width="500" height="500" viewBox="0 10 200 200" xmlns="http://www.w3.org/2000/svg" xmlns:x="http://www.w3.org/1999/xlink"><defs><clipPath id="heater_coaworld_province_prov_1_clifftop_dominions_clifftop_dominions_s1"><path d="m25,25 h150 v50 a150,150,0,0,1,-75,125 a150,150,0,0,1,-75,-125 z"/></clipPath><g id="lozengeFaceted_coaworld_province_prov_1_clifftop_dominions_clifftop_dominions_s1"><polygon points="100 55 130 100 100 145 70 100"/><g fill="#000" stroke="none"><polygon points="100 100 130 100 100 55" opacity=".2"/><polygon points="100 100 70 100 100 145" opacity=".2"/><polygon points="100 100 130 100 100 145" opacity=".3"/></g></g><radialGradient id="backlight" cx="100%" cy="100%" r="150%"><stop stop-color="#fff" stop-opacity=".3" offset="0"/><stop stop-color="#fff" stop-opacity=".15" offset=".25"/><stop stop-color="#000" stop-opacity="0" offset="1"/></radialGradient></defs><g clip-path="url(#heater_coaworld_province_prov_1_clifftop_dominions_clifftop_dominions_s1)"><rect x="0" y="0" width="200" height="200" fill="#377cd7"/><g fill="#fafafa" stroke="none"><rect x="75" y="0" width="50" height="200"/></g><g fill="#377cd7" stroke="#000"><style>
      g.secondary,path.secondary {fill: #377cd7;}
      g.tertiary,path.tertiary {fill: #377cd7;}
    </style><use x:href="#lozengeFaceted_coaworld_province_prov_1_clifftop_dominions_clifftop_dominions_s1" transform="translate(50 0) scale(0.5)"/><use x:href="#lozengeFaceted_coaworld_province_prov_1_clifftop_dominions_clifftop_dominions_s1" transform="translate(50 50) scale(0.5)"/><use x:href="#lozengeFaceted_coaworld_province_prov_1_clifftop_dominions_clifftop_dominions_s1" transform="translate(50 100) scale(0.5)"/></g></g><path d="m25,25 h150 v50 a150,150,0,0,1,-75,125 a150,150,0,0,1,-75,-125 z" fill="url(#backlight)" stroke="#333"/></svg>