<svg id="coaworld_state_16_state_16" width="500" height="500" viewBox="0 10 200 200" xmlns="http://www.w3.org/2000/svg"><defs><clipPath id="heater_coaworld_state_16_state_16"><path d="m25,25 h150 v50 a150,150,0,0,1,-75,125 a150,150,0,0,1,-75,-125 z"/></clipPath><clipPath id="divisionClip_coaworld_state_16_state_16"><polygon points="0,200 100,100 200,200"/></clipPath><radialGradient id="backlight" cx="100%" cy="100%" r="150%"><stop stop-color="#fff" stop-opacity=".3" offset="0"/><stop stop-color="#fff" stop-opacity=".15" offset=".25"/><stop stop-color="#000" stop-opacity="0" offset="1"/></radialGradient></defs><g clip-path="url(#heater_coaworld_state_16_state_16)"><rect x="0" y="0" width="200" height="200" fill="#333333"/><g fill="#fafafa" stroke="none"><path d="M0,200 Q80,180 100,135 Q120,180 200,200"/></g><g clip-path="url(#divisionClip_coaworld_state_16_state_16)"><rect x="0" y="0" width="200" height="200" fill="#fafafa"/><g fill="#333333" stroke="none"><path d="M0,200 Q80,180 100,135 Q120,180 200,200"/></g></g></g><path d="m25,25 h150 v50 a150,150,0,0,1,-75,125 a150,150,0,0,1,-75,-125 z" fill="url(#backlight)" stroke="#333"/></svg>