<svg id="coaworld_burg_110_burg_110_s0" width="500" height="500" viewBox="0 10 200 200" xmlns="http://www.w3.org/2000/svg"><defs><clipPath id="heater_coaworld_burg_110_burg_110_s0"><path d="m25,25 h150 v50 a150,150,0,0,1,-75,125 a150,150,0,0,1,-75,-125 z"/></clipPath><clipPath id="divisionClip_coaworld_burg_110_burg_110_s0"><rect x="100" y="0" width="100" height="100"/><rect x="0" y="100" width="100" height="100"/></clipPath><pattern id="fretty-argent-purpure" width="40" height="40" viewBox="0 0 140 140" patternUnits="userSpaceOnUse" stroke="#000" stroke-width="2"><rect width="140" height="140" fill="#fafafa" stroke="none"/><path d="m-15 5 150 150 20-20-150-150z" fill="#522d5b"/><path d="m10 150 140-140-20-20-140 140z" fill="#522d5b" stroke="none"/><path d="m0 120 20 20 120-120-20-20z" fill="none"/></pattern><radialGradient id="backlight" cx="100%" cy="100%" r="150%"><stop stop-color="#fff" stop-opacity=".3" offset="0"/><stop stop-color="#fff" stop-opacity=".15" offset=".25"/><stop stop-color="#000" stop-opacity="0" offset="1"/></radialGradient></defs><g clip-path="url(#heater_coaworld_burg_110_burg_110_s0)"><rect x="0" y="0" width="200" height="200" fill="#ffe066"/><g clip-path="url(#divisionClip_coaworld_burg_110_burg_110_s0)"><rect x="0" y="0" width="200" height="200" fill="url(#fretty-argent-purpure)"/></g></g><path d="m25,25 h150 v50 a150,150,0,0,1,-75,125 a150,150,0,0,1,-75,-125 z" fill="url(#backlight)" stroke="#333"/></svg>