<svg id="coaworld_burg_128_burg_128_s-1" width="500" height="500" viewBox="0 10 200 200" xmlns="http://www.w3.org/2000/svg" xmlns:x="http://www.w3.org/1999/xlink"><defs><clipPath id="heater_coaworld_burg_128_burg_128_s-1"><path d="m25,25 h150 v50 a150,150,0,0,1,-75,125 a150,150,0,0,1,-75,-125 z"/></clipPath><g id="trefoil_coaworld_burg_128_burg_128_s-1" stroke-width=".711"><path stroke-linejoin="round" d="M139.08 128.138c-2.322 4.242-4.313.284-17.23 6.707-5.498 2.726-8.579 3.46-12.323 1.422-4.338-2.37-3.413-6.944-3.887-11.02-.332-4.314-2.82-6.92-5.64-6.944-2.798.023-5.31 2.63-5.642 6.944-.474 4.076.45 8.65-3.886 11.02-3.721 2.038-6.826 1.304-12.324-1.422-12.917-6.423-14.908-2.465-17.23-6.707s2.014-3.91 3.602-18.249c.664-6.09 1.73-9.1 5.451-11.139 4.077-2.228 7.11.284 10.357 2.157 3.745 2.228 7.252 2.393 8.911.095 1.636-2.3.119-6.044-2.986-8.272-3.365-2.393-7.845-3.744-7.845-8.721 0-4.243 2.133-6.613 7.158-10.12 11.826-8.248 9.598-11.59 14.433-11.59s2.607 3.342 14.433 11.59c5.025 3.507 7.158 5.877 7.158 10.12 0 4.977-4.48 6.328-7.845 8.721-3.128 2.228-4.645 5.973-2.986 8.272 1.635 2.298 5.143 2.133 8.911-.095 3.247-1.849 6.28-4.385 10.357-2.157 3.72 2.038 4.787 5.048 5.451 11.139 1.564 14.339 5.901 14.007 3.602 18.249zm-46.546-22.207a7.465 7.465 0 0 0 14.93 0 7.465 7.465 0 0 0-14.93 0"/><g fill="#000"><polygon points="100.355 95.835 99.999 75.903 99.644 95.835"/><polygon points="91.206 112.093 72.839 122.663 91.562 112.709"/><polygon points="107.986 112.449 127.159 122.663 108.341 111.832"/></g></g><radialGradient id="backlight" cx="100%" cy="100%" r="150%"><stop stop-color="#fff" stop-opacity=".3" offset="0"/><stop stop-color="#fff" stop-opacity=".15" offset=".25"/><stop stop-color="#000" stop-opacity="0" offset="1"/></radialGradient></defs><g clip-path="url(#heater_coaworld_burg_128_burg_128_s-1)"><rect x="0" y="0" width="200" height="200" fill="#333333"/><g fill="#fafafa" stroke="#000"><style>
      g.secondary,path.secondary {fill: #fafafa;}
      g.tertiary,path.tertiary {fill: #fafafa;}
    </style><use x:href="#trefoil_coaworld_burg_128_burg_128_s-1" transform="translate(-7.5 -7.5) scale(0.7)"/><use x:href="#trefoil_coaworld_burg_128_burg_128_s-1" transform="translate(67.5 -7.5) scale(0.7)"/><use x:href="#trefoil_coaworld_burg_128_burg_128_s-1" transform="translate(30 80) scale(0.7)"/></g></g><path d="m25,25 h150 v50 a150,150,0,0,1,-75,125 a150,150,0,0,1,-75,-125 z" fill="url(#backlight)" stroke="#333"/></svg>