<svg id="coaworld_burg_130_burg_130_s0" width="500" height="500" viewBox="0 10 200 200" xmlns="http://www.w3.org/2000/svg"><defs><clipPath id="heater_coaworld_burg_130_burg_130_s0"><path d="m25,25 h150 v50 a150,150,0,0,1,-75,125 a150,150,0,0,1,-75,-125 z"/></clipPath><pattern id="bendy-argent-azure-small" width="80" height="80" viewBox="0 0 100 100" patternUnits="userSpaceOnUse"><rect width="100" height="100" fill="#fafafa"/><polygon points="0,25 75,100 25,100 0,75" fill="#377cd7"/><polygon points="25,0 75,0 100,25 100,75" fill="#377cd7"/></pattern><radialGradient id="backlight" cx="100%" cy="100%" r="150%"><stop stop-color="#fff" stop-opacity=".3" offset="0"/><stop stop-color="#fff" stop-opacity=".15" offset=".25"/><stop stop-color="#000" stop-opacity="0" offset="1"/></radialGradient></defs><g clip-path="url(#heater_coaworld_burg_130_burg_130_s0)"><rect x="0" y="0" width="200" height="200" fill="url(#bendy-argent-azure-small)"/><g fill="#333333" stroke="none"><polygon points="200,200 200,144 25,25 145,200"/></g></g><path d="m25,25 h150 v50 a150,150,0,0,1,-75,125 a150,150,0,0,1,-75,-125 z" fill="url(#backlight)" stroke="#333"/></svg>