<svg id="coaworld_burg_134_burg_134_s0" width="500" height="500" viewBox="0 10 200 200" xmlns="http://www.w3.org/2000/svg" xmlns:x="http://www.w3.org/1999/xlink"><defs><clipPath id="heater_coaworld_burg_134_burg_134_s0"><path d="m25,25 h150 v50 a150,150,0,0,1,-75,125 a150,150,0,0,1,-75,-125 z"/></clipPath><g id="mallet_coaworld_burg_134_burg_134_s0" stroke-width="3"><g stroke-width=".583"><path d="M104.072 111.666V87.927h-7.906v23.74c0 6.06-2.251 17.022-2.251 21.5 0 4.477 2.779 6.851 6.184 6.851 3.425 0 6.184-2.374 6.184-6.851.04-4.497-2.211-15.44-2.211-21.5zm-8.415-49.215c0-1.833 2.192-2.393 4.481-2.393 2.29 0 4.482.54 4.482 2.393l-.744 9.901H96.42Z"/><path class="secondary" d="M100.119 66.041c-9.08 0-27.105 1.892-26.518 8.318.372 4.111 1.703 17.467 1.703 17.467.763 4.535.215 7.122 5.088 7.122 0 0 13.543-.58 19.746-.58 6.184 0 19.746.58 19.746.58 4.873 0 4.306-2.587 5.089-7.122 0 0 1.33-13.336 1.702-17.467.568-6.427-17.476-8.318-26.556-8.318z"/></g><path fill="#000" stroke="none" d="M77.1 71.8c14-4.1 33.1-4 46.7 0-13.5-3.2-32.9-3-46.7 0z"/></g><radialGradient id="backlight" cx="100%" cy="100%" r="150%"><stop stop-color="#fff" stop-opacity=".3" offset="0"/><stop stop-color="#fff" stop-opacity=".15" offset=".25"/><stop stop-color="#000" stop-opacity="0" offset="1"/></radialGradient></defs><g clip-path="url(#heater_coaworld_burg_134_burg_134_s0)"><rect x="0" y="0" width="200" height="200" fill="#d7374a"/><g fill="#ffe066" stroke="#000"><style>
      g.secondary,path.secondary {fill: #ffe066;}
      g.tertiary,path.tertiary {fill: #ffe066;}
    </style><use x:href="#mallet_coaworld_burg_134_burg_134_s0" transform="translate(-7.5 -7.5) scale(0.7)"/><use x:href="#mallet_coaworld_burg_134_burg_134_s0" transform="translate(67.5 -7.5) scale(0.7)"/><use x:href="#mallet_coaworld_burg_134_burg_134_s0" transform="translate(30 72.5) scale(0.7)"/></g></g><path d="m25,25 h150 v50 a150,150,0,0,1,-75,125 a150,150,0,0,1,-75,-125 z" fill="url(#backlight)" stroke="#333"/></svg>