<svg id="coaworld_burg_135_burg_135_s0" width="500" height="500" viewBox="0 10 200 200" xmlns="http://www.w3.org/2000/svg" xmlns:x="http://www.w3.org/1999/xlink"><defs><clipPath id="heater_coaworld_burg_135_burg_135_s0"><path d="m25,25 h150 v50 a150,150,0,0,1,-75,125 a150,150,0,0,1,-75,-125 z"/></clipPath><clipPath id="divisionClip_coaworld_burg_135_burg_135_s0"><path d="m 0,115 v -20 h 80 c 0,0 0.1,20.1 20,20 19.9,-0.1 20,-20 20,-20 h 80 v 20 L100,200 Z" transform="translate(129 71) rotate(-45 -100 100) scale(-1 1)"/><path d="m 0,115 v -20 h 80 c 0,0 0.1,20.1 20,20 19.9,-0.1 20,-20 20,-20 h 80 v 20 L100,200 Z" transform="translate(71 71) rotate(45 100 100)"/></clipPath><g id="crossPotent_coaworld_burg_135_burg_135_s0" stroke-width=".5"><path d="M83 60v10h12v25H70V83H60v34h10v-12h25v25H83v10h34v-10h-12v-25h25v12h10V83h-10v12h-25V70h12V60z"/></g><radialGradient id="backlight" cx="100%" cy="100%" r="150%"><stop stop-color="#fff" stop-opacity=".3" offset="0"/><stop stop-color="#fff" stop-opacity=".15" offset=".25"/><stop stop-color="#000" stop-opacity="0" offset="1"/></radialGradient></defs><g clip-path="url(#heater_coaworld_burg_135_burg_135_s0)"><rect x="0" y="0" width="200" height="200" fill="#ffe066"/><g fill="#d7374a" stroke="#000"><style>
      g.secondary,path.secondary {fill: #d7374a;}
      g.tertiary,path.tertiary {fill: #d7374a;}
    </style><use x:href="#crossPotent_coaworld_burg_135_burg_135_s0" transform="translate(6.25 50) scale(0.5)"/><use x:href="#crossPotent_coaworld_burg_135_burg_135_s0" transform="translate(93.75 50) scale(0.5)"/><use x:href="#crossPotent_coaworld_burg_135_burg_135_s0" transform="translate(50 12.5) scale(0.5)"/></g><g clip-path="url(#divisionClip_coaworld_burg_135_burg_135_s0)"><rect x="0" y="0" width="200" height="200" fill="#d7374a"/><g fill="#ffe066" stroke="#000"><style>
      g.secondary,path.secondary {fill: #ffe066;}
      g.tertiary,path.tertiary {fill: #ffe066;}
    </style><use x:href="#crossPotent_coaworld_burg_135_burg_135_s0" transform="translate(6.25 50) scale(0.5)"/><use x:href="#crossPotent_coaworld_burg_135_burg_135_s0" transform="translate(93.75 50) scale(0.5)"/><use x:href="#crossPotent_coaworld_burg_135_burg_135_s0" transform="translate(50 12.5) scale(0.5)"/></g></g></g><path d="m25,25 h150 v50 a150,150,0,0,1,-75,125 a150,150,0,0,1,-75,-125 z" fill="url(#backlight)" stroke="#333"/></svg>