<svg id="coaworld_burg_140_burg_140_s-1" width="500" height="500" viewBox="0 10 200 200" xmlns="http://www.w3.org/2000/svg" xmlns:x="http://www.w3.org/1999/xlink"><defs><clipPath id="heater_coaworld_burg_140_burg_140_s-1"><path d="m25,25 h150 v50 a150,150,0,0,1,-75,125 a150,150,0,0,1,-75,-125 z"/></clipPath><clipPath id="divisionClip_coaworld_burg_140_burg_140_s-1"><path d="M0,80 100,-15 200,80 200,120 100,25 0,120z M0,160 100,65 200,160 200,200 100,105 0,200z M0,240 100,145 200,240 0,240z"/></clipPath><g id="mulletFaceted_coaworld_burg_140_burg_140_s-1"><path d="M100 60l8.98 27.64h29.06l-23.51 17.08 8.98 27.64L100 115.28l-23.51 17.08 8.98-27.64-23.51-17.08h29.06z"/><path fill="#000" fill-opacity=".2" stroke-width=".2" d="M100 100V60l8.98 27.64L100 100l38.04-12.36-23.51 17.08L100 100l23.51 32.36L100 115.28V100l-23.51 32.36 8.98-27.64L100 100 61.96 87.64h29.06z"/></g><radialGradient id="backlight" cx="100%" cy="100%" r="150%"><stop stop-color="#fff" stop-opacity=".3" offset="0"/><stop stop-color="#fff" stop-opacity=".15" offset=".25"/><stop stop-color="#000" stop-opacity="0" offset="1"/></radialGradient></defs><g clip-path="url(#heater_coaworld_burg_140_burg_140_s-1)"><rect x="0" y="0" width="200" height="200" fill="#522d5b"/><g fill="#fafafa" stroke="#000"><style>
      g.secondary,path.secondary {fill: #fafafa;}
      g.tertiary,path.tertiary {fill: #fafafa;}
    </style><use x:href="#mulletFaceted_coaworld_burg_140_burg_140_s-1" transform="translate(30 -7.5) scale(0.7)"/><use x:href="#mulletFaceted_coaworld_burg_140_burg_140_s-1" transform="translate(30 72.5) scale(0.7)"/></g><g clip-path="url(#divisionClip_coaworld_burg_140_burg_140_s-1)"><rect x="0" y="0" width="200" height="200" fill="#fafafa"/><g fill="#522d5b" stroke="#000"><style>
      g.secondary,path.secondary {fill: #522d5b;}
      g.tertiary,path.tertiary {fill: #522d5b;}
    </style><use x:href="#mulletFaceted_coaworld_burg_140_burg_140_s-1" transform="translate(30 -7.5) scale(0.7)"/><use x:href="#mulletFaceted_coaworld_burg_140_burg_140_s-1" transform="translate(30 72.5) scale(0.7)"/></g></g></g><path d="m25,25 h150 v50 a150,150,0,0,1,-75,125 a150,150,0,0,1,-75,-125 z" fill="url(#backlight)" stroke="#333"/></svg>