<svg id="coaworld_burg_17_burg_17_s0" width="500" height="500" viewBox="0 10 200 200" xmlns="http://www.w3.org/2000/svg" xmlns:x="http://www.w3.org/1999/xlink"><defs><clipPath id="heater_coaworld_burg_17_burg_17_s0"><path d="m25,25 h150 v50 a150,150,0,0,1,-75,125 a150,150,0,0,1,-75,-125 z"/></clipPath><clipPath id="divisionClip_coaworld_burg_17_burg_17_s0"><path d="m 0,115 v -10 l 10,-15 l 15,20 15,-20l 15,20 15,-20l 15,20 15,-20l 15,20 15,-20l 15,20 15,-20l 15,20 15,-20 l 10,15 v 10 V200 H0 Z"/></clipPath><g id="pillar_coaworld_burg_17_burg_17_s0" stroke-width=".8" transform="translate(43.8 45) scale(0.54)"><path d="M81.85 34.07c.35 1.43 1.05 2.52 2.7 2.75-.41.63-.1 1.88.52 2.75 2.32 1.12 3.73 4.25 4.98 7.73 1.93 5.4.21 11.05 2.62 15.43l3.13 2.65-1.23 4.14-2.92 82c-1.3.84-2 2.1-1.98 3.83-1.32 1.42-.04 1.88.78 2.35.82.47.23 1.92-.35 2.3-1.04.67-1.95.86-1.6 2.52-2.32 1.92-3.09 4.05-2.98 6.86h36.95c.12-2.81-.65-4.94-2.97-6.86.35-1.66-.54-1.85-1.58-2.52-.58-.38-1.17-1.83-.35-2.3s2.07-.93.75-2.35a4.2 4.2 0 00-1.97-3.83l-2.93-82-1.2-4.15 3.13-2.64c2.41-4.38.66-10.03 2.6-15.43 1.25-3.48 2.66-6.6 4.97-7.73.63-.87.94-2.12.53-2.75 1.65-.23 2.35-1.32 2.7-2.75zm0 0"/><path d="M94.82 66.6c-1.03 0-1.87.67-1.87 1.5s.84 1.5 1.87 1.5h18.36c1.03 0 1.87-.66 1.87-1.5s-.84-1.5-1.87-1.5zm0 0"/><path d="M85.08 39.57h37.84"/><path fill="#000" fill-opacity=".3" stroke="none" d="M88.77 39.62h30.45v2.63H88.77z"/><path stroke="none" d="M88.05 42.68c.78 1.46-.89 2.14-1.82 1.98-.82-.14-1.8-.38-1.7-1.71.1-1.33 1.35-2.02 2.5-1.93 1.14.07 3.33 1.23 2.8 3.36-.54 2.14-2.07 2.57-3.8 2.5-1.72-.1-3.68-1.38-3.73-3.44-.05-2.06.9-3.45 2.77-4.07 1.86-.61 5.72.23 6.65 3.06a53.43 53.43 0 011.55 7.62"/><path stroke="none" d="M119.95 42.68c-.79 1.46.88 2.14 1.82 1.98.81-.14 1.8-.38 1.69-1.71-.1-1.33-1.35-2.02-2.49-1.93-1.14.07-3.33 1.23-2.8 3.36.54 2.14 2.07 2.57 3.79 2.5 1.73-.1 3.69-1.38 3.74-3.44.05-2.06-.91-3.45-2.77-4.07-1.87-.61-5.72.23-6.65 3.06-.93 2.82-1.55 7.62-1.55 7.62"/><g fill="#000" stroke="none"><path d="M97.33 64.86a13.31 13.31 0 001.39-9.73c.27-1.02.51-2.18.46-2.9a2.08 2.08 0 00-1.93.57A6.25 6.25 0 0096 49.91c-1.02.56-1.09 1.38-1.14 1.71-.59-.4-1.39-.76-2.09-.43-.39.91-.29 1.8.3 2.53-.87.14-1.1.58-1.48 1.42.33.71.35 1.03 1.05 1.3-.43.58-.7 1.35-.44 2.05 1.3.2 2.32.17 2.94 1.37.77 1.48.28 3.14-.34 4.62-.16.17-.06.14.17.04.94-1.73 1.23-4.14.37-5.46-.73-1.11-1.79-.89-2.75-1.08-.1-.83.42-1.21.73-1.8-.89-.07-1.14-.53-1.33-1.07.82-1.07 1.27-.96 2.04-1.1-1-.65-1.18-1.8-.97-2.45.84-.25 1.68.38 2.25.93-.07-1 .26-1.97.64-2 .7.65 1.04 2.18 1.07 3.23.28-.5.96-1.4 1.88-1.12.02.77-.22 1.76-.58 2.62a15.36 15.36 0 01-1.2 9.64c-.04.27.08.39.19.15z"/><path d="M96.22 64.8c-.04.29.14.28.23 0 2.05-4.85 1.33-9.26-1.95-11.85 2.48 2.6 3.8 7.18 1.71 11.86z"/><path d="M87.48 43.1c.54.33.2 1.17-.39 1.27-.71.13-1.59.1-2.07-.47-.63-.72-.12-1.87.66-2.32 1.61-.95 4 .35 4 2.22a2.88 2.88 0 01-2.4 2.79c-1.55.22-3.37-.15-4.25-1.53-.86-1.35-.44-3.19.6-4.33a3.69 3.69 0 013.12-1.16c1.63.11 3.36.82 4.2 2.27.64 1.1.78 2.4.8 3.66l.86.03a11.42 11.42 0 00-.56-3.02 5.18 5.18 0 00-2.73-3.04c-1.34-.55-3.27-1-4.63-.38-1.66.76-2.98 2.35-2.7 4.97.18 1.6 1.48 2.74 3 3.09 1.1.24 2.19.26 3.22-.2a3.2 3.2 0 001.81-3.52c-.41-2-2.93-3.08-4.5-2.14-.88.52-1.46 2.03-.85 2.9a2.3 2.3 0 001.73.9c.66.03 1.54-.25 1.74-1.07.18-.74-.61-.9-.66-.92z"/><path d="M96.47 41.84c-.6.2-.76 1.06-.85 1.61-.58-.44-1.22-1.11-2.11-.97-.65.86-.31 1.93-.08 2.84-.8-.2-1.92-.21-2.54.12-.28 1.04.59 1.96 1.07 2.65-.84.1-.78.97-.84 1.57.3 1.02.8 1.61 1.72 1.95l.1.1c0-.1 0-.17.03-.28.12-.04.25-.06.39-.06l-.2-.22c-.93-.37-1.17-.53-1.55-1.62.23-.51.05-.86.54-.85 1.14.05 2.47.9 3.49 1.82l.18-.25c-.91-1.1-2.13-2.03-3.24-2.24-.77-.79-1.43-1.75-1.1-2.2 2.24-.37 3.8 1.1 4.9 3.31-.05-1.26-1.37-3.1-2.28-3.61-.47-.94-.42-2.12-.2-2.5 2.16.65 3.43 3.34 4.01 5.33.27-.77-.94-3.5-1.6-4.24-.03-.64.08-1.4.27-1.52 1.97 1.63 2.78 4.31 2.64 7.3.48-1.7.15-4.04-.55-5.4 0-.45.31-.84.51-.93 2.62 5 2.34 12 1.15 16.56-.32 1.2-.76 2.39-1.26 3.53l.35.02a27.82 27.82 0 002.35-13.08 17.82 17.82 0 00-2.43-7.54c-.45-.17-.86.4-.96.78-.46-.79-1.04-1.64-1.91-1.98zm-.03 9.25l.2.46.22.29c-.12-.25-.26-.5-.42-.75z"/><path d="M110.67 64.86a13.28 13.28 0 01-1.38-9.73 10.37 10.37 0 01-.47-2.9c.67-.17 1.46.08 1.93.57a6.28 6.28 0 011.25-2.89c1.02.56 1.09 1.38 1.14 1.71.59-.4 1.39-.76 2.09-.43.39.91.29 1.8-.29 2.53.86.14 1.1.58 1.47 1.42-.33.71-.36 1.03-1.05 1.3.43.58.71 1.35.44 2.05-1.31.2-2.32.17-2.94 1.37-.77 1.48-.28 3.14.34 4.62.16.17.06.14-.17.04-.94-1.73-1.23-4.14-.37-5.46.73-1.11 1.79-.89 2.75-1.08.09-.83-.42-1.21-.73-1.8.89-.07 1.14-.53 1.33-1.07-.82-1.07-1.27-.96-2.04-1.1a2.24 2.24 0 00.97-2.45c-.83-.25-1.68.38-2.25.93.07-1-.26-1.97-.64-2-.69.65-1.04 2.18-1.07 3.23-.28-.5-.96-1.4-1.88-1.12-.02.77.22 1.76.58 2.62a15.32 15.32 0 001.2 9.64c.04.27-.08.39-.19.15z"/><path d="M111.79 64.8c.03.29-.15.28-.24 0-2.05-4.85-1.33-9.26 1.95-11.85-2.48 2.6-3.8 7.18-1.71 11.86z"/><path d="M120.52 43.1c-.54.33-.21 1.17.38 1.27.72.13 1.6.1 2.08-.47.63-.72.11-1.87-.66-2.32-1.61-.95-4 .35-3.99 2.22a2.87 2.87 0 002.39 2.79c1.55.22 3.37-.15 4.24-1.53.87-1.35.45-3.19-.58-4.33a3.69 3.69 0 00-3.13-1.16c-1.63.11-3.36.82-4.2 2.27a7.53 7.53 0 00-.81 3.66l-.85.03c.07-1.03.22-2.03.56-3.02a5.16 5.16 0 012.73-3.04c1.34-.55 3.27-1 4.63-.38 1.66.76 2.98 2.35 2.69 4.97-.17 1.6-1.47 2.74-3 3.09a5.01 5.01 0 01-3.21-.2 3.18 3.18 0 01-1.81-3.52c.41-2 2.93-3.08 4.51-2.14.87.52 1.45 2.03.84 2.9-.36.53-1.07.88-1.74.9-.65.03-1.54-.25-1.73-1.07-.18-.74.61-.9.66-.92z"/><path d="M111.53 41.84c.6.2.75 1.06.85 1.61.57-.44 1.21-1.11 2.1-.97.65.86.31 1.93.08 2.84.81-.2 1.92-.21 2.55.12.27 1.04-.59 1.96-1.08 2.65.85.1.79.97.84 1.57-.3 1.02-.8 1.61-1.71 1.95l-.1.1-.04-.28a1.23 1.23 0 00-.38-.06l.2-.22c.93-.37 1.16-.53 1.55-1.62-.24-.51-.06-.86-.55-.85-1.14.05-2.47.9-3.48 1.82l-.19-.25c.91-1.1 2.13-2.03 3.24-2.24.78-.79 1.43-1.75 1.1-2.2-2.24-.37-3.79 1.1-4.9 3.31.05-1.26 1.37-3.1 2.28-3.61.47-.94.42-2.12.21-2.5-2.17.65-3.44 3.34-4.02 5.33-.27-.77.94-3.5 1.6-4.24.03-.64-.07-1.4-.27-1.52-1.96 1.63-2.78 4.31-2.64 7.3a8.35 8.35 0 01.55-5.4c0-.45-.31-.84-.51-.93-2.62 5-2.34 12-1.15 16.56.32 1.2.76 2.39 1.26 3.53l-.35.02a27.8 27.8 0 01-2.35-13.08 17.89 17.89 0 012.44-7.54c.44-.17.85.4.95.78.46-.79 1.04-1.64 1.92-1.98zm.02 9.25l-.2.46-.21.29c.11-.25.25-.5.41-.75z"/></g><path d="M93.53 63.57c-1.04 0-1.85.67-1.85 1.5s.81 1.53 1.85 1.53h20.95c1.04 0 1.85-.69 1.85-1.53s-.81-1.5-1.85-1.5zm0 0"/><g fill="none"><path d="M91.65 151.53h24.71"/><path d="M88.5 162.52h31"/><path d="M123.45 36.83h-38.9"/><path d="M118.33 155.34H89.68"/></g><g fill="#000" fill-opacity=".3" stroke-width=".5"><path d="M96.8 74.47c.6 0 1.13 1.88 1.08 4.21l-1.4 65.85c-.06 2.34-.6 4.22-1.34 4.22-.74 0-1.4-1.88-1.33-4.22l1.9-65.85c.08-2.33.49-4.21 1.1-4.21z"/><path d="M101.6 74.47c.6 0 1.09 1.88 1.08 4.21l-.3 65.85c-.01 2.34-.59 4.22-1.33 4.22s-1.36-1.88-1.33-4.22l.8-65.85c.03-2.33.48-4.21 1.08-4.21z"/><path d="M106.4 74.47c.6 0 1.05 1.88 1.08 4.21l.81 65.85c.02 2.34-.6 4.22-1.34 4.22s-1.32-1.88-1.33-4.22l-.3-65.85c-.02-2.33.48-4.21 1.08-4.21z"/><path d="M111.2 74.47c.6 0 1.01 1.88 1.08 4.21l1.91 65.85c.07 2.34-.59 4.22-1.33 4.22s-1.28-1.88-1.33-4.22l-1.41-65.85c-.05-2.33.48-4.21 1.08-4.21z"/></g><g fill="#000" fill-opacity=".3" stroke="none"><path d="M91.67 65.07c0 .84.82 1.53 1.85 1.53h20.95c1.04 0 1.85-.69 1.85-1.53z"/><path d="M92.95 68.1c0 .84.84 1.5 1.88 1.5h18.35c1.03 0 1.87-.66 1.87-1.5z"/><path d="M94.57 69.6l-.1 2.63h19.05l-.09-2.63z"/><path d="M82.4 35.48c.44.7 1.1 1.2 2.15 1.34v.01h38.9a2.85 2.85 0 002.15-1.35zm2.07 2.79a4 4 0 00.6 1.3l.09.05h37.68l.09-.05c.28-.39.49-.85.61-1.3z"/><path d="M89.86 157.37l.59.33c.82.47.23 1.92-.35 2.3h27.82c-.58-.38-1.17-1.83-.35-2.3l.59-.33z"/><path d="M88.5 162.52c-.32.27-.6.53-.86.8h32.72c-.27-.27-.55-.53-.86-.8z"/><path d="M82.66 42l-.4 1.2c-.14.71.01 1.38.46 2l.9 1.1 1.43.46 1.61.17 1.75-.46 1.14-1.2c-2.22 2.2-7.29.68-6.79-3.23zm2.13.43l-.06.18-.2.98.7.78 1.25.31 1.03-.24.54-.44c-.21-.3-.08-.7-.56-.9-.74 1.34-2.86.62-2.7-.67zm6.49 7.15A2.16 2.16 0 0092.7 52l.09.58.02-.92.03-.32-.9-.73zm1.52 3v.07zm0 .07l.07.46.58.74-.24.1.44-.05zm.41 1.3l-.34.04-.85.56-.19.6.04.06.17-.48.63-.55zm-1.34 1.26l-.05.16-.24.44c.19.5.53.81 1.06.9l-.1.45.51-.85-.8-.45zm.68 1.95l-.14.24.03.3zm-.11.55l-.07.34.23.4c2.8 1.19 2.63 2.62 2.47 5.04l.32-.06.27-1.55.02-1.63-1.26-1.66-1.94-.48zm2.07-4.73c3.49 5.2 2.58 8.16 2.1 10.54l.26-.08.5-2.2-.03-3.12-.37-1.55-1.24-2.3c-.4-.42-.8-.98-1.22-1.3z"/><path d="M125.34 42l.4 1.2c.14.71-.01 1.38-.47 2l-.9 1.1-1.42.46-1.62.17-1.75-.46-1.13-1.2c2.22 2.2 7.28.68 6.78-3.23zm-2.14.43l.07.18.2.98-.7.78-1.25.31-1.04-.24-.54-.44c.22-.3.08-.7.57-.9.73 1.34 2.86.62 2.69-.67zm-6.48 7.15a2.17 2.17 0 01-1.43 2.41l-.09.58-.02-.92-.04-.32.91-.73zm-1.52 3v.05l-.01.02zm-.01.07l-.07.46-.57.74.24.1-.44-.05zm-.4 1.3l.34.04.84.56.19.6-.04.06-.16-.48-.64-.55zm1.33 1.26l.06.16.24.44c-.19.5-.54.81-1.06.9l.09.45-.5-.85.79-.45zm-.67 1.95l.14.24-.04.3zm.1.55l.07.34-.23.4c-2.8 1.19-2.63 2.62-2.46 5.04l-.32-.06-.27-1.55-.02-1.63 1.26-1.66 1.94-.48zm-2.07-4.73c-3.48 5.2-2.57 8.16-2.1 10.54l-.26-.08-.49-2.2.03-3.12.37-1.55 1.23-2.3c.4-.42.8-.98 1.22-1.3z"/></g></g><g id="head_coaworld_burg_17_burg_17_s0" stroke-width=".375"><path d="M86.68 124.55c1.65 3.68.67 5.1.9 6.94.35 3.12 1.37 2.52 2.06 5.9.72 2.94-1.69 5.45.32 5.26 4.08-.93 6.2-3.27 13.72-5.11 7.52-1.84 10.7-.88 12.96-1.98 1.96-.9 2.97-2.01 2.77-3.2-.47-3.02-1.96-4.29-2.87-10.47-.5-4.41-.41-6.4 1.45-9.59l6.55-12.54c.26-4.53-1.65-7.45-4.75-10.77-3.1-3.31-6.89-5.9-10.24-8.98-1-.91-1.96-1.87-3.05-2.68a24.43 24.43 0 00-5.51-2.9c-8.88-3.65-14.69-9.32-24.15-7.7-.14.23-3.26 3.45-3.91 5.27C71.8 75.45 69 79.75 69 82.45c0 3.89 2.25 3.59 2.25 5.71 0 0 0 4.1-2.06 6.89-1.74 2.35-5.04 3.03-5.04 5.6 0 3.33 3.86 2.56 3.86 4.23 0 1.32-.53 1.47-1.18 2.2-.57.66-1.04 1.12-1.1 1.43-.14.94.33 1.67.76 2.24.89 1.19 2.25 1.68 2.25 1.68s-1.43.3-1.43 1.9c0 .8.74 2.02 1.5 2.57 1.4 1.01 3.19.56 3.19.56.49 1.89-.87 2.6.84 5.57.96 1.52 3.92 2.3 5.8 2.48 1.56.15 2.3-.09 3.89-.37 1.45-.24 4.15-.59 4.15-.59z"/><path d="M129.1 88.41c.31-2.3-.6-3.1-.6-4.46 0-1.35.76-1.9.14-4.3-.63-2.4-1.73-1.56-2.14-3.65-.42-2.09-.02-1.39-.74-3.99-.73-2.61-3.09-3.27-3.83-4-.72-.72-1.36-3.02-3.66-4.06-1.99-.9-3.84-.65-5.19-1.28-1.35-.62-1.1-1.9-4.4-2.98-3.02-1-4.3-.15-5.87-.35-1.56-.22-2.89-1.62-5.51-1.77-2.45-.13-3.14.97-5.02 1.18-1.87.21-2.55-.1-5.3.32-2.17.34-3.48 2.45-5.17 2.98-1.59.49-6.24 2.05-6.11 4.95-.33.7-2.76 1.97-2.41 3.81.18-.4-.42 1.43.44 1.48.68.03 2.8.28 3.43.6 1.99 1.02 2.79-.12 4.98.41.54.13.91.82 1.46.9 2.22.31 5.73.59 6.51 3.4.26.95-.26 1.92-.26 2.9-.02 1.44 2.37 2.69 2.41 4.17.02.98-.11 2.13.64 2.77.63.53.35.4 1.1.78.4.2.7.55 1 .9 1.2 1.34 2.46 2.33 2.07 4.4-.09.47-.27.92-.31 1.4-.06.62.11 1.24.29 1.84.63-.14 1.3-.12 1.92.04.8.21 1.89.92 2.61.24.62-.58.88-2.37 1.18-3.14.22-.58.64-1.03.95-1.64.26-.51.24-1.34.59-1.85s.77-.65 1.25-.92c.62-.38 1.31-.95 2-1.08 1.73-.34 2.52-.3 2.52-.3.3 0 .86.25.86.25 2.68.83 4.7 4.14 3.35 8.48-.95 3.08-2.27 3.51-3.77 4.06-.49.17-.99.4-1.49.66-.02.25-.01.5 0 .74.13 1.82-.51 1.81-.97 2.76-.45.93-.75 1.86.08 2.93.2.25.55.51.77.9.28.52.5 1.32.88 1.61.34.26.78.41 1.12.75.36.37.62.92 1.05 1.12.58.28.97-.02 1.67.07.45.05.45.32.93.5.32.11.9.08 1.11.13.97.2 1.99 1.4 2.96.3.44-.5.56-1.2.99-1.73.55-.69.75-.77 1.41-1.35.9-.8.31-3.19 1.05-3.98 1.11-1.19 1.74-1.3 2.71-2.61a14 14 0 001.15-1.7c.42-.76.64-1.61 1.08-2.36.4-.68.91-1.08 1.02-1.9.22-1.54-.42-3.07-.07-4.58.41-1.8.82-2.46 1.14-4.75z" class="secondary"/><path fill="none" d="M110.96 88.32c2.68.83 4.69 4.14 3.35 8.48-.95 3.09-2.27 3.51-3.77 4.06a9.9 9.9 0 00-3.68 2.25c-1.05 1.16-1.91 1.71-3.39 1.25"/><path fill="#fff" d="M81.61 91.7c-.1-.09-1.51-1.18-2.96-2-1.61-1.11-3.05-1.26-3.05-1.26h0s-.4 1.13-.14 2.31a5 5 0 001.19 2.26c1.71-.27 2.51-.5 3.29-.66.3-.09 1.68-.37 1.67-.65z"/><path d="M72.04 84.92c-.1.03-.19.04-.28.03-.69-.07.06-1.51.29-1.81.47-.6 1.1-1.04 1.82-1.28 1.88-.61 3.63-.01 5.28.86 1.34.77 6.27 4.68 5.35 5.33-.63-.45-4.85-3.03-7.53-3.53a9.73 9.73 0 00-4.16.11c-.2.05-.5.23-.77.3z" class="secondary"/><g fill="#000" stroke="none"><path d="M103.4 104.5c-.83-.36-1.17-1.14-1.34-1.93.27.73.74 1.4 1.47 1.58zm.92-4.69c-.22-.2-.19-.54-.07-.78.77-1.2.4-2.3 0-3.49-.05-.2-.11-.46.05-.63a.6.6 0 00.06.4c.78 1.27 1.11 2.46.19 3.66-.15.22-.32.47-.24.74 0 .03.03.08.01.1zm.96-5c.03.32.09.73.43.86.79.09 1.65-.47 2.32-.13 1.11.66 1.08 1.9.73 2.92a.94.94 0 01-1.07.63c-.31-.02-.68-.2-.96.01-.48.3-.77.83-1.27 1.1-.18.1-.4.16-.6.06.37.09.66-.2.88-.46.38-.4.7-1.02 1.3-1.1.35-.03.72.14 1.06 0 .63-.65.7-2 .15-2.6-.75-.74-1.67-.1-2.46-.24-.33-.06-.5-.4-.5-.7-.01-.12-.03-.26 0-.35zm2.46-3.82c1.47-.28 2.7 1.49 1.62 2.6.4-1.34-.42-2.25-1.62-2.6zm-1.94.83c.3-.84 1.1-1.53 1.91-1.94 1.3-.59 2.84-.2 3.98.59a3.7 3.7 0 011.58 2.94 8.97 8.97 0 01-.64 3.93c-.46 1.13-1.55 1.79-2.62 2.26-1.23.55-2.52 1.03-3.56 1.9-.27.26.28-.34.43-.4 1-.8 2.2-1.3 3.32-1.88.99-.53 1.98-1.29 2.26-2.43.47-1.6.76-3.39.01-4.95-.57-1.06-1.72-1.68-2.85-1.98a3.42 3.42 0 00-3.26 1.14c-.18.25-.55.5-.56.82z"/><path d="M106.54 89.13c.28-.25.63-.45.98-.62a6.08 6.08 0 012.3-.51c.4-.01.8.03 1.2.14l-.13.35a3.9 3.9 0 00-1.09-.21 5.78 5.78 0 00-2.25.32c-.35.12-.7.3-1.01.52z"/><path d="M98.21 82.45c-.95 2.69 1.32 5.57-.13 8.15.88-2.69-1.3-5.53.13-8.15zm14.8 20.8c.62 1.6-.25 5.67-.08 5.97-.82-1.96.38-3.96.08-5.97zm3.03-.66c.02 2.52 3.45 3.4 2.87 6.14-.08.06-.82-3.38-2.3-3.77a2.89 2.89 0 01-.57-2.37zm1.59-6.95c-.64 2.8 2.59 4.1 2.51 6.67.03.81-.5-2.41-1.61-2.69-1.05-1-1.2-2.63-.9-3.98zM93.25 78.31c-1.03 2.71 1.95 4.5 1.54 7.07-.1.82-.1-2.3-1.1-2.76-1.03-1.2-.99-2.91-.44-4.31zm7.47 5.05c2.05 1.72.1 4.54.4 6.75.22 1.86-.61-1.64-.17-2.32.09-1.43.98-3.24-.23-4.43zM90.04 59.81c.84.01 4.77-2.28 2.56-.75-.81.37-1.66.73-2.56.75zm-12.43 7.97c-1.76-.93 2.18-4.57.75-2.54-.55.72-.94 1.63-.75 2.54zm.94.93c.58-1.19 3.56-2.84 3.24-2.22-1.1.72-2.16 1.48-3.24 2.22zm5.04.01c-.69-2.03 2.98-3.14 3.3-2.93-1.2.7-2.94 1.05-3.23 2.68 0-.16-.07.37-.07.25zm5.32 1.69a3.6 3.6 0 014.48-.83 5.98 5.98 0 00-4.48.83zm4.58 1.12c1.6.47 1.7 2.45 1.3 3.78-.05.8.28 1.93-.23.57-.24-1.5.6-3.39-1.07-4.35zm9.82 3.63c1.55-.04 3.1-1.16 4.54-.04 1.5.63 1.62.92-.04.31-1.52-1.03-2.9.16-4.5-.27zm-5.23.7c.54 1 2.08 3.32 2.34 3.5-1.48-.54-1.9-2.2-2.34-3.5zm-1.67-4.87c1.83-.07 2.5 2.04 3.96 2.73-1.72-.22-2.33-2.34-3.96-2.73zm-15.57-6.13c.95-2.1 3.17-3.17 5.31-3.65 2.14-1.06-1.43 1.1-2.34 1.21a8.93 8.93 0 00-2.97 2.44zm15.39 2.49c-.7-.57-4.18-1.03-5.62-1.07 3.74-.63 5.8.9 5.62 1.07zm-8.45-3.69c1.62-2.07 6.27-.57 7.07-.85-2.34.62-4.88-.48-7.07.85zm13.07-3.5c.9-.82 5.33-1.14 2.13-.53-.72.14-1.43.33-2.13.53zm9.03 2.74c1.52.65 3.1-.16 4.67 0-.22.75-1.78.1-2.56.38a4.1 4.1 0 01-2.11-.38zm-3.14 22.52a6.26 6.26 0 016.55 1.61 9.63 9.63 0 00-6.55-1.61zm9.57 6.63c.49-2.02-1.27-4.02-.26-5.99-.5 2 1.27 4.04.26 5.99zm1.65-6.2c1.89.58 2.5 2.52 3.14 4.15 1.19 1.15-1-.38-.87-1.21a6.27 6.27 0 00-2.27-2.94zm-8.42-7.69c1.8.71 2.74 2.5 3.46 4.18 1.23 1.04 3.08 1.4.67.85-1.77-.69-1.68-3.06-3.12-4.15a8.29 8.29 0 00-1.01-.88zm-5.98-.5c2.14.48 3.33 2.52 3.93 4.46.02.64-1.25-2.22-1.9-2.83a7.22 7.22 0 00-2.03-1.63zM99.2 63.55c1.58-1.36 3.75-.99 5.61-.69.6.27-2.53.08-3.34.11-.78.08-1.54.3-2.27.58zm21.65 6.66c-2.67.94-4.08-2.96-6.75-2.53-.73.06 1.24-.47 1.64-.06 1.87.5 3 2.91 5.1 2.59zm-10.4-1.41c-2.18.44-3.84-1.06-5.56-2.06-1.18-.44-2.68-.62-.57-.47 2.05.43 3.42 2.46 5.63 2.46zm-11.42-.67c2.22-.28 3.49 2.22 5.1 3.3 2.6 1.62-1.04-.05-1.63-.95-1.06-.88-1.98-2.28-3.47-2.35zm21.2 13.72c1.02 2.14 4.6 1.42 5.3 3.89.26.91-.92-1.58-1.73-1.38-1.21-.6-3.37-.82-3.56-2.51zm-12.8-10.93c1.32 2.24 5.17 1.1 6.19 3.7.34.92-.7-1.1-1.34-1.06-1.58-.88-4.27-.51-4.84-2.64zm16.67 2.69c1.04 1.22 2.06 2.45 3.19 3.59-1.22-.03-2.16-2.55-3.18-3.59zm2.75 7.09c1.37 1.14 1.3 3.09 2.1 4.55-.79.34-.7-1.56-.99-2.19-.2-.84-.44-1.76-1.11-2.36zm-5.94 13.26c1.58.88 1.91 2.75 2.8 4.15-.2.47-1.65-2.52-2.2-3.35-.19-.28-.39-.55-.6-.8zm3.03-4.82c1.77.85 2.23 2.93 2.3 4.71 1.12 2.4-1.1-1.06-.7-2.15-.26-1-.85-1.87-1.6-2.56zm.53-9.13c-2.18.46-3.85-1.05-5.57-2.06-1.18-.44-2.68-.62-.57-.46 2.05.47 3.48 2.45 5.7 2.5l.22.01.22.02zm-9.2-8.11c1 2.13 4.58 1.43 5.28 3.89.27.92-.9-1.57-1.72-1.38-1.23-.6-3.36-.83-3.56-2.51z"/><path d="M107 110.4c.35 5.1-3.26 9.67-4.35 14.48.71-4.95 4.05-9.5 4.35-14.48zm-8.61 13.8c-1.32 3.65-.92 7.87-1.66 11.49.04-4.05.16-7.9 1.66-11.49zm3.86-12.65c-.51 2.6-1.1 4.94-2.25 7.11-1.4 2.66-4.48 4.15-7.08 5.05-2.08.75-4.23.88-6.26 1.07l-.03-.38 1.57-.14a21.2 21.2 0 007.5-2.11c1.85-.93 3.19-1.83 4.14-3.59a26.38 26.38 0 002.4-7.02zm-25.94-9.54a7.7 7.7 0 00-.01 1.27c.26 2.92 2.75 3.98 4.26 5.94.27.34.48.73.59 1.14l-.05.02c-1.86-2.81-5.93-4.36-4.79-8.36zm11.55 5.77c3.43-1.38 6.86-3.37 8.28-6.83l.06.02c-1.03 3.74-4.8 5.95-8.33 6.82v-.01zm-11.61 4.15c-1.8-.58-3.47-1.74-5.07-2.52-1.6-.7-3.64-1.64-5.24-.68l-.19-.33c1.88-.9 3.9 0 5.55.8 1.73.8 3.15 2.07 4.95 2.73zm-7.4.37a6.29 6.29 0 013.93.55c1.16.67 2.36 1.3 3.62 1.36-1.37.18-2.62-.57-3.75-1.09a6.08 6.08 0 00-3.72-.44zm7.99 3.84c-1.45.4-2.72 1.05-4.05 1.46-.2.06-.43.09-.65.1l-.1-.42a5.6 5.6 0 001.24-.2c.77-.25 1.63-.59 2.33-.8.4-.12.81-.23 1.23-.22zm-4.9-11.79c-.9.48-2.12.41-2.85-.23l.02-.05c1.04.2 1.83.27 2.84.27v.01zm.85-5.3c.6.06 1.19.23 1.72.49.28.14.53.31.75.52.69.75.77 1.71.44 2.65-1.2 3-2.6 1.25-4.5.49a5.97 5.97 0 00-3.44.13l-.02-.05c1.18-.42 2.38-.76 3.56-.38 1.56.54 3.1 2.54 4.08-.3.41-1.13.06-2.35-.97-2.9a5.8 5.8 0 00-1.64-.64h.02zm-.95-4.09c.54-1.31.93-2.5 1.37-3.89-.04 1.35-.53 3.08-1.37 3.9zm9.08-1.87c-.79.54-1.87 1-2.8.74v-.06c.97-.25 1.87-.64 2.81-.68zm-4.16 1.31c.05.23 0 .46-.07.68a4.64 4.64 0 00.01 4.3l-.05.03c-1.3-1.48-1-2.88-.15-4.41.1-.19.2-.39.23-.6zm-.18-7.82c2.7.17 4.28 2.68 5.31 4.71-1.75-2-3.04-4-5.32-4.71zm-3.43 1.38c.8.19 1.73.2 2.49.35l-.16.34c-.72-.31-1.6-.41-2.33-.69zm3.49 5.28l-1.99.29 1.9-.67zm-.11-7.48a9.72 9.72 0 00-2.03-.05c-.7.05-1.25.34-1.89.63l-.03-.05c.48-.57 1.22-.9 1.88-.96.72-.08 1.44.07 2.06.43zm.2 3.08c-.1.06-.47.68-.37 1.49.09.65.39 1.53 1.15 1.93.88.25-.88-1.33.54-2.88-.44-.08-1.11-.54-1.32-.54z"/></g></g><radialGradient id="backlight" cx="100%" cy="100%" r="150%"><stop stop-color="#fff" stop-opacity=".3" offset="0"/><stop stop-color="#fff" stop-opacity=".15" offset=".25"/><stop stop-color="#000" stop-opacity="0" offset="1"/></radialGradient></defs><g clip-path="url(#heater_coaworld_burg_17_burg_17_s0)"><rect x="0" y="0" width="200" height="200" fill="#26c061"/><g clip-path="url(#divisionClip_coaworld_burg_17_burg_17_s0)"><rect x="0" y="0" width="200" height="200" fill="#ffe066"/></g><g fill="#fafafa" stroke="#000"><style>
      g.secondary,path.secondary {fill: #fafafa;}
      g.tertiary,path.tertiary {fill: #fafafa;}
    </style><use x:href="#pillar_coaworld_burg_17_burg_17_s0" transform="translate(30 -7.5) scale(0.7)"/></g><g fill="#d7374a" stroke="#000"><style>
      g.secondary,path.secondary {fill: #d7374a;}
      g.tertiary,path.tertiary {fill: #d7374a;}
    </style><use x:href="#head_coaworld_burg_17_burg_17_s0" transform="translate(30 72.5) scale(0.7)"/></g></g><path d="m25,25 h150 v50 a150,150,0,0,1,-75,125 a150,150,0,0,1,-75,-125 z" fill="url(#backlight)" stroke="#333"/></svg>