<svg id="coaworld_burg_170_burg_170_s0" width="500" height="500" viewBox="0 10 200 200" xmlns="http://www.w3.org/2000/svg"><defs><clipPath id="heater_coaworld_burg_170_burg_170_s0"><path d="m25,25 h150 v50 a150,150,0,0,1,-75,125 a150,150,0,0,1,-75,-125 z"/></clipPath><clipPath id="divisionClip_coaworld_burg_170_burg_170_s0"><rect x="0" y="100" width="200" height="100"/></clipPath><pattern id="bendy-argent-gules" width="100" height="100" viewBox="0 0 100 100" patternUnits="userSpaceOnUse"><rect width="100" height="100" fill="#fafafa"/><polygon points="0,25 75,100 25,100 0,75" fill="#d7374a"/><polygon points="25,0 75,0 100,25 100,75" fill="#d7374a"/></pattern><radialGradient id="backlight" cx="100%" cy="100%" r="150%"><stop stop-color="#fff" stop-opacity=".3" offset="0"/><stop stop-color="#fff" stop-opacity=".15" offset=".25"/><stop stop-color="#000" stop-opacity="0" offset="1"/></radialGradient></defs><g clip-path="url(#heater_coaworld_burg_170_burg_170_s0)"><rect x="0" y="0" width="200" height="200" fill="url(#bendy-argent-gules)"/><g clip-path="url(#divisionClip_coaworld_burg_170_burg_170_s0)"><rect x="0" y="0" width="200" height="200" fill="#333333"/></g><g fill="#26c061" stroke="none"><path d="m25,25 h150 v50 a150,150,0,0,1,-75,125 a150,150,0,0,1,-75,-125 z" fill="none" stroke="#26c061" stroke-width="16.7%"/></g></g><path d="m25,25 h150 v50 a150,150,0,0,1,-75,125 a150,150,0,0,1,-75,-125 z" fill="url(#backlight)" stroke="#333"/></svg>