<svg id="coaworld_burg_19_burg_19_s0" width="500" height="500" viewBox="0 10 200 200" xmlns="http://www.w3.org/2000/svg" xmlns:x="http://www.w3.org/1999/xlink"><defs><clipPath id="heater_coaworld_burg_19_burg_19_s0"><path d="m25,25 h150 v50 a150,150,0,0,1,-75,125 a150,150,0,0,1,-75,-125 z"/></clipPath><clipPath id="divisionClip_coaworld_burg_19_burg_19_s0"><path d="m 0,115 v -15 h 85 v 15 h 30 v -15 h 85 v 15 V200 H0 Z"/></clipPath><g id="trefle_coaworld_burg_19_burg_19_s0"><path stroke-width=".5" d="M100 70c-7.8 0-14.1 6.4-14.1 14.3 0 5.6 3.2 10.5 7.9 12.8 1.4.7-.1 2.5-1.2 1.3-2.6-3-6.4-4.8-10.6-4.8-7.8 0-14.1 6.4-14.1 14.3s6.3 14.3 14.1 14.3c7.7 0 14.1-6.3 14.1-14.1 0-1.4 2.1-1.5 2.1.3 0 2.9-2.8 18.5-4.3 21.5 3.96-.86 8.16-1.15 12 0-1.5-3-4.3-18.6-4.3-21.5 0-1.9 2.1-1.7 2.1-.3.1 7.8 6.4 14.1 14.1 14.1 7.8 0 14.1-6.4 14.1-14.3s-6.3-14.3-14.1-14.3c-4.2 0-8 1.9-10.6 4.8-1 1.2-2.6-.6-1.2-1.3 4.7-2.3 7.9-7.2 7.9-12.8.2-7.9-6.1-14.3-13.9-14.3z"/></g><g id="crossCercelee_coaworld_burg_19_burg_19_s0" stroke-width=".5"><path d="M133 100.05c3.59-.26 6.43-4.77 6.43-10.24 0-5.65-3.02-10.24-6.73-10.24h-5.73c2.36 0 4.28 3.24 4.28 7.26 0 4.03-1.92 7.26-4.28 7.26h-20.94V73.14c0-2.36 3.28-4.29 7.26-4.29s7.26 1.93 7.26 4.29v-5.73c0-3.72-4.59-6.74-10.23-6.74-5.47 0-9.97 2.84-10.23 6.43-.26-3.59-4.77-6.43-10.23-6.43-5.64 0-10.23 3.02-10.23 6.74v5.73c0-2.36 3.24-4.29 7.26-4.29s7.26 1.93 7.26 4.29V94.1H73.19c-2.36 0-4.28-3.28-4.28-7.26s1.92-7.26 4.28-7.26h-5.73c-3.72 0-6.73 4.59-6.73 10.24 0 5.47 2.84 9.98 6.43 10.24-3.59.26-6.43 4.77-6.43 10.24 0 5.65 3.02 10.24 6.73 10.24h5.73c-2.36 0-4.28-3.24-4.28-7.26 0-4.03 1.92-7.26 4.28-7.26h20.94v20.96c0 2.36-3.28 4.29-7.26 4.29s-7.26-1.93-7.26-4.29v5.73c0 3.72 4.59 6.74 10.23 6.74 5.47 0 9.93-2.84 10.23-6.43.26 3.59 4.77 6.43 10.23 6.43 5.64 0 10.23-3.02 10.23-6.74v-5.73c0 2.36-3.24 4.29-7.26 4.29s-7.26-1.93-7.26-4.29v-20.96h20.94c2.36 0 4.28 3.28 4.28 7.26s-1.92 7.26-4.28 7.26h5.73c3.72 0 6.73-4.59 6.73-10.24 0-5.47-2.84-9.98-6.43-10.24z"/></g><radialGradient id="backlight" cx="100%" cy="100%" r="150%"><stop stop-color="#fff" stop-opacity=".3" offset="0"/><stop stop-color="#fff" stop-opacity=".15" offset=".25"/><stop stop-color="#000" stop-opacity="0" offset="1"/></radialGradient></defs><g clip-path="url(#heater_coaworld_burg_19_burg_19_s0)"><rect x="0" y="0" width="200" height="200" fill="#fafafa"/><g clip-path="url(#divisionClip_coaworld_burg_19_burg_19_s0)"><rect x="0" y="0" width="200" height="200" fill="#d7374a"/></g><g fill="#522d5b" stroke="#000"><style>
      g.secondary,path.secondary {fill: #522d5b;}
      g.tertiary,path.tertiary {fill: #522d5b;}
    </style><use x:href="#trefle_coaworld_burg_19_burg_19_s0" transform="translate(30 -7.5) scale(0.7)"/></g><g fill="#ffe066" stroke="#000"><style>
      g.secondary,path.secondary {fill: #ffe066;}
      g.tertiary,path.tertiary {fill: #ffe066;}
    </style><use x:href="#crossCercelee_coaworld_burg_19_burg_19_s0" transform="translate(30 72.5) scale(0.7)"/></g></g><path d="m25,25 h150 v50 a150,150,0,0,1,-75,125 a150,150,0,0,1,-75,-125 z" fill="url(#backlight)" stroke="#333"/></svg>