<svg id="coaworld_burg_211_burg_211_s0" width="500" height="500" viewBox="0 10 200 200" xmlns="http://www.w3.org/2000/svg" xmlns:x="http://www.w3.org/1999/xlink"><defs><clipPath id="heater_coaworld_burg_211_burg_211_s0"><path d="m25,25 h150 v50 a150,150,0,0,1,-75,125 a150,150,0,0,1,-75,-125 z"/></clipPath><g id="sun_coaworld_burg_211_burg_211_s0"><path stroke-width=".5" d="M84.7 63c-1 3.9.1 7.1 2 10.1 1.5 2.3 2.4 4.8 2.4 7.5-.7.4-1.3.8-1.9 1.2L71.8 71.7l10.4 15.2c-.2.3-.4.5-.5.8-2.9-1.3-5.7-1.6-8.3-1.1-3.7.7-6.9-.1-10.2-2 2.1 3.5 5.1 5 8.6 5.7 2.7.6 5.1 1.7 7 3.6-.2.7-.4 1.5-.5 2.2l-18.1 3.7 18.1 3.5c0 .3.1.6.2.9-3 1.1-5.2 2.9-6.6 5.1-2.1 3.1-4.9 4.8-8.6 5.8 3.9 1 7.1-.1 10.1-2 2.3-1.5 4.8-2.4 7.5-2.4.4.7.8 1.3 1.2 1.9l-10.3 15.5 15.3-10.4c.3.2.5.4.8.5-1.3 2.9-1.6 5.7-1.1 8.3.7 3.7-.1 6.8-2 10.1 3.5-2.1 5-5.1 5.7-8.6.6-2.7 1.7-5.1 3.6-7 .7.2 1.5.4 2.2.5l3.7 18.1 3.5-18.1c.3 0 .6-.1.9-.2 1.1 3 2.9 5.2 5.1 6.6 3.1 2.1 4.8 4.9 5.8 8.6 1-3.9-.1-7.1-2-10.1-1.5-2.3-2.4-4.8-2.4-7.5.7-.4 1.3-.8 1.9-1.2l15.4 10.2-10.4-15.3c.2-.3.4-.5.5-.8 2.9 1.3 5.7 1.6 8.3 1.1 3.7-.7 6.8.1 10.1 2-2.1-3.5-5.1-4.9-8.6-5.7-2.7-.6-5.1-1.7-7-3.6.2-.7.4-1.5.5-2.2l18.1-3.7-18.1-3.5c0-.3-.1-.6-.2-.9 3-1.1 5.2-2.9 6.6-5.1 2.1-3.1 4.9-4.8 8.6-5.7-3.9-1-7.1.1-10.1 2-2.3 1.5-4.8 2.4-7.5 2.4-.4-.7-.8-1.3-1.2-1.9L128 71.6l-15.3 10.3c-.3-.2-.5-.4-.8-.5 1.3-2.9 1.6-5.7 1.1-8.3-.7-3.7.1-6.9 2-10.2-3.5 2.1-4.9 5.1-5.7 8.6-.6 2.7-1.7 5.2-3.7 7-.7-.2-1.5-.4-2.2-.5L100 60l-3.5 18.1c-.3 0-.6.1-.9.2-1.1-3-2.9-5.2-5.1-6.6-3.1-2.1-4.8-4.9-5.7-8.6z"/></g><radialGradient id="backlight" cx="100%" cy="100%" r="150%"><stop stop-color="#fff" stop-opacity=".3" offset="0"/><stop stop-color="#fff" stop-opacity=".15" offset=".25"/><stop stop-color="#000" stop-opacity="0" offset="1"/></radialGradient></defs><g clip-path="url(#heater_coaworld_burg_211_burg_211_s0)"><rect x="0" y="0" width="200" height="200" fill="#fafafa"/><g fill="#333333" stroke="#000"><style>
      g.secondary,path.secondary {fill: #333333;}
      g.tertiary,path.tertiary {fill: #333333;}
    </style><use x:href="#sun_coaworld_burg_211_burg_211_s0" transform="translate(26.25 20) scale(0.3)"/><use x:href="#sun_coaworld_burg_211_burg_211_s0" transform="translate(70 20) scale(0.3)"/><use x:href="#sun_coaworld_burg_211_burg_211_s0" transform="translate(113.75 20) scale(0.3)"/><use x:href="#sun_coaworld_burg_211_burg_211_s0" transform="translate(26.25 70) scale(0.3)"/><use x:href="#sun_coaworld_burg_211_burg_211_s0" transform="translate(70 70) scale(0.3)"/><use x:href="#sun_coaworld_burg_211_burg_211_s0" transform="translate(113.75 70) scale(0.3)"/><use x:href="#sun_coaworld_burg_211_burg_211_s0" transform="translate(37.75 107.5) scale(0.3)"/><use x:href="#sun_coaworld_burg_211_burg_211_s0" transform="translate(70 132.5) scale(0.3)"/><use x:href="#sun_coaworld_burg_211_burg_211_s0" transform="translate(102.25 107.5) scale(0.3)"/></g></g><path d="m25,25 h150 v50 a150,150,0,0,1,-75,125 a150,150,0,0,1,-75,-125 z" fill="url(#backlight)" stroke="#333"/></svg>