<svg id="coaworld_burg_214_burg_214_s0" width="500" height="500" viewBox="0 10 200 200" xmlns="http://www.w3.org/2000/svg" xmlns:x="http://www.w3.org/1999/xlink"><defs><clipPath id="heater_coaworld_burg_214_burg_214_s0"><path d="m25,25 h150 v50 a150,150,0,0,1,-75,125 a150,150,0,0,1,-75,-125 z"/></clipPath><g id="mullet10_coaworld_burg_214_burg_214_s0"><polygon points="100 60 104.72 85.47 123.51 67.64 112.36 91.02 138.04 87.64 115.28 100 138.04 112.36 112.36 108.98 123.51 132.36 104.72 114.53 100 140 95.28 114.53 76.49 132.36 87.64 108.98 61.96 112.36 84.72 100 61.96 87.64 87.64 91.02 76.49 67.64 95.28 85.47"/></g><radialGradient id="backlight" cx="100%" cy="100%" r="150%"><stop stop-color="#fff" stop-opacity=".3" offset="0"/><stop stop-color="#fff" stop-opacity=".15" offset=".25"/><stop stop-color="#000" stop-opacity="0" offset="1"/></radialGradient></defs><g clip-path="url(#heater_coaworld_burg_214_burg_214_s0)"><rect x="0" y="0" width="200" height="200" fill="#333333"/><g fill="#fafafa" stroke="none"><path d="m 0,115 v -15 H 85 V 85 h 30 v 15 h 85 v 15" transform="translate(0,50)"/><rect x="0" y="164" width="200" height="36" stroke="none"/></g><g fill="#fafafa" stroke="#000"><style>
      g.secondary,path.secondary {fill: #fafafa;}
      g.tertiary,path.tertiary {fill: #fafafa;}
    </style><use x:href="#mullet10_coaworld_burg_214_burg_214_s0" transform="translate(-50 -50) scale(1.5)"/></g></g><path d="m25,25 h150 v50 a150,150,0,0,1,-75,125 a150,150,0,0,1,-75,-125 z" fill="url(#backlight)" stroke="#333"/></svg>