<svg id="coaworld_burg_216_burg_216_s0" width="500" height="500" viewBox="0 10 200 200" xmlns="http://www.w3.org/2000/svg" xmlns:x="http://www.w3.org/1999/xlink"><defs><clipPath id="heater_coaworld_burg_216_burg_216_s0"><path d="m25,25 h150 v50 a150,150,0,0,1,-75,125 a150,150,0,0,1,-75,-125 z"/></clipPath><clipPath id="divisionClip_coaworld_burg_216_burg_216_s0"><rect x="100" y="0" width="100" height="100"/><rect x="0" y="100" width="100" height="100"/></clipPath><g id="roundel2_coaworld_burg_216_burg_216_s0"><circle cx="100" cy="100" r="30"/><path fill="none" stroke-width=".5" d="M124 95a23 23 0 01-25 30"/></g><g id="billet_coaworld_burg_216_burg_216_s0"><polygon points="80 65 120 65 120 135 80 135"/></g><pattern id="semy_of_billet-argent-azure" width="25" height="25" viewBox="0 0 200 200" patternUnits="userSpaceOnUse" stroke="#000"><rect width="200" height="200" fill="#fafafa" stroke="none"/><g fill="#377cd7"><use transform="translate(-100 -50)" href="#billet_coaworld_burg_216_burg_216_s0"/><use transform="translate(100 -50)" href="#billet_coaworld_burg_216_burg_216_s0"/><use transform="translate(0 50)" href="#billet_coaworld_burg_216_burg_216_s0"/></g></pattern><pattern id="counterPotent-or-gules" width="25" height="25" viewBox="0 0 200 200" patternUnits="userSpaceOnUse" stroke="none"><rect width="200" height="200" fill="#ffe066"/><path d="m25 50h50v-50h50v50h50v100h-50v50h-50v-50h-50v-50z" fill="#d7374a"/><path d="m0 0h200 M0 100h200 M0 200h200"/></pattern><radialGradient id="backlight" cx="100%" cy="100%" r="150%"><stop stop-color="#fff" stop-opacity=".3" offset="0"/><stop stop-color="#fff" stop-opacity=".15" offset=".25"/><stop stop-color="#000" stop-opacity="0" offset="1"/></radialGradient></defs><g clip-path="url(#heater_coaworld_burg_216_burg_216_s0)"><rect x="0" y="0" width="200" height="200" fill="url(#semy_of_billet-argent-azure)"/><g clip-path="url(#divisionClip_coaworld_burg_216_burg_216_s0)"><rect x="0" y="0" width="200" height="200" fill="url(#counterPotent-or-gules)"/></g><g fill="#522d5b" stroke="#000"><style>
      g.secondary,path.secondary {fill: #522d5b;}
      g.tertiary,path.tertiary {fill: #522d5b;}
    </style><use x:href="#roundel2_coaworld_burg_216_burg_216_s0" transform="translate(-7.5 -7.5) scale(0.7)"/><use x:href="#roundel2_coaworld_burg_216_burg_216_s0" transform="translate(60 60) scale(0.7)"/></g></g><path d="m25,25 h150 v50 a150,150,0,0,1,-75,125 a150,150,0,0,1,-75,-125 z" fill="url(#backlight)" stroke="#333"/></svg>