<svg id="coaworld_burg_242_burg_242_s0" width="500" height="500" viewBox="0 10 200 200" xmlns="http://www.w3.org/2000/svg"><defs><clipPath id="heater_coaworld_burg_242_burg_242_s0"><path d="m25,25 h150 v50 a150,150,0,0,1,-75,125 a150,150,0,0,1,-75,-125 z"/></clipPath><clipPath id="divisionClip_coaworld_burg_242_burg_242_s0"><rect x="0" y="100" width="200" height="100"/></clipPath><pattern id="barry-argent-gules" width="25" height="100" viewBox="0 0 25 100" patternUnits="userSpaceOnUse"><rect width="25" height="100" fill="#d7374a"/><rect x="0" y="25" width="25" height="25" fill="#fafafa"/><rect x="0" y="75" width="25" height="25" fill="#fafafa"/></pattern><radialGradient id="backlight" cx="100%" cy="100%" r="150%"><stop stop-color="#fff" stop-opacity=".3" offset="0"/><stop stop-color="#fff" stop-opacity=".15" offset=".25"/><stop stop-color="#000" stop-opacity="0" offset="1"/></radialGradient></defs><g clip-path="url(#heater_coaworld_burg_242_burg_242_s0)"><rect x="0" y="0" width="200" height="200" fill="url(#barry-argent-gules)"/><g clip-path="url(#divisionClip_coaworld_burg_242_burg_242_s0)"><rect x="0" y="0" width="200" height="200" fill="#522d5b"/></g><g fill="#377cd7" stroke="none"><path d="M 80 0 L 80 80 L 0 80 L 0 95 L 80 95 L 80 105 L 0 105 L 0 120 L 80 120 L 80 200 L 95 200 L 95 120 L 105 120 L 105 200 L 120 200 L 120 120 L 200 120 L 200 105 L 120 105 L 120 95 L 200 95 L 200 80 L 120 80 L 120 0 L 105 0 L 105 80 L 95 80 L 95 0 L 80 0 z M 95 95 L 105 95 L 105 105 L 95 105 L 95 95 z"/></g></g><path d="m25,25 h150 v50 a150,150,0,0,1,-75,125 a150,150,0,0,1,-75,-125 z" fill="url(#backlight)" stroke="#333"/></svg>