<svg id="coaworld_burg_250_burg_250_s0" width="500" height="500" viewBox="0 10 200 200" xmlns="http://www.w3.org/2000/svg" xmlns:x="http://www.w3.org/1999/xlink"><defs><clipPath id="heater_coaworld_burg_250_burg_250_s0"><path d="m25,25 h150 v50 a150,150,0,0,1,-75,125 a150,150,0,0,1,-75,-125 z"/></clipPath><clipPath id="divisionClip_coaworld_burg_250_burg_250_s0"><polygon points="0,0 200,200 0,200"/></clipPath><g id="crossLatin_coaworld_burg_250_burg_250_s0" stroke-width=".5"><path d="m 95,60 h 10 v 20 h 25 v 10 h -25 v 50 H 95 V 90 H 70 V 80 h 25 z"/></g><pattern id="chequy-or-gules" width="50" height="50" viewBox="0 0 50 50" patternUnits="userSpaceOnUse" fill="#d7374a"><rect width="50" height="50"/><rect width="25" height="25" fill="#ffe066"/><rect x="25" y="25" width="25" height="25" fill="#ffe066"/></pattern><radialGradient id="backlight" cx="100%" cy="100%" r="150%"><stop stop-color="#fff" stop-opacity=".3" offset="0"/><stop stop-color="#fff" stop-opacity=".15" offset=".25"/><stop stop-color="#000" stop-opacity="0" offset="1"/></radialGradient></defs><g clip-path="url(#heater_coaworld_burg_250_burg_250_s0)"><rect x="0" y="0" width="200" height="200" fill="#fafafa"/><g clip-path="url(#divisionClip_coaworld_burg_250_burg_250_s0)"><rect x="0" y="0" width="200" height="200" fill="url(#chequy-or-gules)"/></g><g fill="#522d5b" stroke="#000"><style>
      g.secondary,path.secondary {fill: #522d5b;}
      g.tertiary,path.tertiary {fill: #522d5b;}
    </style><use x:href="#crossLatin_coaworld_burg_250_burg_250_s0" transform="translate(60 90) scale(0.4 -0.4)"/><use x:href="#crossLatin_coaworld_burg_250_burg_250_s0" transform="translate(103.75 90) scale(0.4 -0.4)"/><use x:href="#crossLatin_coaworld_burg_250_burg_250_s0" transform="translate(103.75 140) scale(0.4 -0.4)"/><use x:href="#crossLatin_coaworld_burg_250_burg_250_s0" transform="translate(16.25 140) scale(0.4 -0.4)"/><use x:href="#crossLatin_coaworld_burg_250_burg_250_s0" transform="translate(27.75 177.5) scale(0.4 -0.4)"/><use x:href="#crossLatin_coaworld_burg_250_burg_250_s0" transform="translate(60 190) scale(0.4 -0.4)"/></g></g><path d="m25,25 h150 v50 a150,150,0,0,1,-75,125 a150,150,0,0,1,-75,-125 z" fill="url(#backlight)" stroke="#333"/></svg>