<svg id="coaworld_burg_251_burg_251_s-1" width="500" height="500" viewBox="0 10 200 200" xmlns="http://www.w3.org/2000/svg" xmlns:x="http://www.w3.org/1999/xlink"><defs><clipPath id="heater_coaworld_burg_251_burg_251_s-1"><path d="m25,25 h150 v50 a150,150,0,0,1,-75,125 a150,150,0,0,1,-75,-125 z"/></clipPath><g id="bookClosed_coaworld_burg_251_burg_251_s-1" stroke-width=".716"><path class="secondary" d="M117.887 60.525H73.669s-2.051 1.86-.573 5.151 4.866 4.389 4.866 4.389h49.465l-9.54-9.54z"/><rect x="77.962" y="70.065" width="50.896" height="69.499"/><rect x="83.066" y="75.264" width="40.736" height="59.1"/><path fill="none" stroke-width=".477" d="M72.858 61.765h46.555M72.715 62.91h47.318M72.62 64.055h48.654m-48.798 1.144h49.704m-48.845 1.145h50.324M74.24 67.537h50.944m-50.133 1.24h51.04"/><path stroke-linejoin="round" d="M71.475 131.502c0 6.297 6.535 8.062 6.535 8.062v-69.5s-3.387-1.096-4.866-4.388.573-5.151.573-5.151-1.718.334-2.051 1.43c-.191.62-.191 2.1-.191 2.1v67.447z"/><g class="tertiary"><polygon points="123.802 85.424 116.79 75.264 123.802 75.264"/><polygon points="83.066 124.204 90.078 134.364 83.066 134.364"/><polygon points="83.066 85.424 90.078 75.264 83.066 75.264"/><polygon points="123.802 124.204 116.79 134.364 123.802 134.364"/><path d="M77.962 129.69c-4.436 0-6.535-3.626-6.535-3.626s-1.193-1.764-1.193-4.054 1.193-3.387 1.193-3.387c0 7.441 6.535 7.728 6.535 7.728v3.339z"/><path d="M77.962 120.15c-4.436 0-6.535-3.626-6.535-3.626s-1.193-1.764-1.193-4.054 1.193-3.387 1.193-3.387c0 7.441 6.535 7.728 6.535 7.728v3.339z"/><path d="M77.962 92.436c-4.436 0-6.535-3.625-6.535-3.625s-1.193-1.765-1.193-4.055 1.193-3.386 1.193-3.386c0 7.44 6.535 7.727 6.535 7.727v3.339z"/><path d="M77.962 82.896c-4.436 0-6.535-3.625-6.535-3.625s-1.193-1.765-1.193-4.055 1.193-3.386 1.193-3.386c0 7.44 6.535 7.727 6.535 7.727v3.339z"/></g></g><radialGradient id="backlight" cx="100%" cy="100%" r="150%"><stop stop-color="#fff" stop-opacity=".3" offset="0"/><stop stop-color="#fff" stop-opacity=".15" offset=".25"/><stop stop-color="#000" stop-opacity="0" offset="1"/></radialGradient></defs><g clip-path="url(#heater_coaworld_burg_251_burg_251_s-1)"><rect x="0" y="0" width="200" height="200" fill="#522d5b"/><g fill="#fafafa" stroke="#000"><style>
      g.secondary,path.secondary {fill: #ffe066;}
      g.tertiary,path.tertiary {fill: #fafafa;}
    </style><use x:href="#bookClosed_coaworld_burg_251_burg_251_s-1" transform="translate(-7.5 -7.5) scale(0.7)"/><use x:href="#bookClosed_coaworld_burg_251_burg_251_s-1" transform="translate(67.5 -7.5) scale(0.7)"/><use x:href="#bookClosed_coaworld_burg_251_burg_251_s-1" transform="translate(30 72.5) scale(0.7)"/></g></g><path d="m25,25 h150 v50 a150,150,0,0,1,-75,125 a150,150,0,0,1,-75,-125 z" fill="url(#backlight)" stroke="#333"/></svg>