<svg id="coaworld_burg_256_burg_256_s-1" width="500" height="500" viewBox="0 10 200 200" xmlns="http://www.w3.org/2000/svg" xmlns:x="http://www.w3.org/1999/xlink"><defs><clipPath id="heater_coaworld_burg_256_burg_256_s-1"><path d="m25,25 h150 v50 a150,150,0,0,1,-75,125 a150,150,0,0,1,-75,-125 z"/></clipPath><g id="mullet8_coaworld_burg_256_burg_256_s-1"><polygon points="100 60 105.85 85.88 128.28 71.72 114.12 94.15 140 100 114.12 105.85 128.28 128.28 105.85 114.12 100 140 94.15 114.12 71.72 128.28 85.88 105.85 60 100 85.88 94.15 71.72 71.72 94.15 85.88"/></g><radialGradient id="backlight" cx="100%" cy="100%" r="150%"><stop stop-color="#fff" stop-opacity=".3" offset="0"/><stop stop-color="#fff" stop-opacity=".15" offset=".25"/><stop stop-color="#000" stop-opacity="0" offset="1"/></radialGradient></defs><g clip-path="url(#heater_coaworld_burg_256_burg_256_s-1)"><rect x="0" y="0" width="200" height="200" fill="#ffe066"/><g fill="#333333" stroke="none"><rect x="0" y="145" width="200" height="55"/></g><g fill="#333333" stroke="#000"><style>
      g.secondary,path.secondary {fill: #333333;}
      g.tertiary,path.tertiary {fill: #333333;}
    </style><use x:href="#mullet8_coaworld_burg_256_burg_256_s-1" transform="translate(50 0) scale(0.5)"/><use x:href="#mullet8_coaworld_burg_256_burg_256_s-1" transform="translate(6.25 50) scale(0.5)"/><use x:href="#mullet8_coaworld_burg_256_burg_256_s-1" transform="translate(93.75 50) scale(0.5)"/></g></g><path d="m25,25 h150 v50 a150,150,0,0,1,-75,125 a150,150,0,0,1,-75,-125 z" fill="url(#backlight)" stroke="#333"/></svg>