<svg id="coaworld_burg_26_burg_26_s0" width="500" height="500" viewBox="0 10 200 200" xmlns="http://www.w3.org/2000/svg" xmlns:x="http://www.w3.org/1999/xlink"><defs><clipPath id="heater_coaworld_burg_26_burg_26_s0"><path d="m25,25 h150 v50 a150,150,0,0,1,-75,125 a150,150,0,0,1,-75,-125 z"/></clipPath><g id="rustre_coaworld_burg_26_burg_26_s0"><path d="M100 55l30 45-30 45-30-45zm-12 45a12 12 0 1024 0 12 12 0 10-24 0"/></g><radialGradient id="backlight" cx="100%" cy="100%" r="150%"><stop stop-color="#fff" stop-opacity=".3" offset="0"/><stop stop-color="#fff" stop-opacity=".15" offset=".25"/><stop stop-color="#000" stop-opacity="0" offset="1"/></radialGradient></defs><g clip-path="url(#heater_coaworld_burg_26_burg_26_s0)"><rect x="0" y="0" width="200" height="200" fill="#fafafa"/><g fill="#26c061" stroke="none"><path d="m25,25 h150 v50 a150,150,0,0,1,-75,125 a150,150,0,0,1,-75,-125 z" fill="none" stroke="#26c061" stroke-width="5%" transform="translate(15 15) scale(.85)"/></g><g fill="#26c061" stroke="#000"><style>
      g.secondary,path.secondary {fill: #26c061;}
      g.tertiary,path.tertiary {fill: #26c061;}
    </style><use x:href="#rustre_coaworld_burg_26_burg_26_s0" transform="translate(-10 -10) scale(1.1)"/></g></g><path d="m25,25 h150 v50 a150,150,0,0,1,-75,125 a150,150,0,0,1,-75,-125 z" fill="url(#backlight)" stroke="#333"/></svg>