<svg id="coaworld_burg_266_burg_266_s0" width="500" height="500" viewBox="0 10 200 200" xmlns="http://www.w3.org/2000/svg" xmlns:x="http://www.w3.org/1999/xlink"><defs><clipPath id="heater_coaworld_burg_266_burg_266_s0"><path d="m25,25 h150 v50 a150,150,0,0,1,-75,125 a150,150,0,0,1,-75,-125 z"/></clipPath><g id="trefle_coaworld_burg_266_burg_266_s0"><path stroke-width=".5" d="M100 70c-7.8 0-14.1 6.4-14.1 14.3 0 5.6 3.2 10.5 7.9 12.8 1.4.7-.1 2.5-1.2 1.3-2.6-3-6.4-4.8-10.6-4.8-7.8 0-14.1 6.4-14.1 14.3s6.3 14.3 14.1 14.3c7.7 0 14.1-6.3 14.1-14.1 0-1.4 2.1-1.5 2.1.3 0 2.9-2.8 18.5-4.3 21.5 3.96-.86 8.16-1.15 12 0-1.5-3-4.3-18.6-4.3-21.5 0-1.9 2.1-1.7 2.1-.3.1 7.8 6.4 14.1 14.1 14.1 7.8 0 14.1-6.4 14.1-14.3s-6.3-14.3-14.1-14.3c-4.2 0-8 1.9-10.6 4.8-1 1.2-2.6-.6-1.2-1.3 4.7-2.3 7.9-7.2 7.9-12.8.2-7.9-6.1-14.3-13.9-14.3z"/></g><radialGradient id="backlight" cx="100%" cy="100%" r="150%"><stop stop-color="#fff" stop-opacity=".3" offset="0"/><stop stop-color="#fff" stop-opacity=".15" offset=".25"/><stop stop-color="#000" stop-opacity="0" offset="1"/></radialGradient></defs><g clip-path="url(#heater_coaworld_burg_266_burg_266_s0)"><rect x="0" y="0" width="200" height="200" fill="#fafafa"/><g fill="#d7374a" stroke="none"><path d="M20,0 Q30,75 100,100 Q80,150 100,200 L0,200 L0,0 Z"/></g><g fill="#522d5b" stroke="#000"><style>
      g.secondary,path.secondary {fill: #522d5b;}
      g.tertiary,path.tertiary {fill: #522d5b;}
    </style><use x:href="#trefle_coaworld_burg_266_burg_266_s0" transform="translate(-50 -50) scale(1.5)"/></g></g><path d="m25,25 h150 v50 a150,150,0,0,1,-75,125 a150,150,0,0,1,-75,-125 z" fill="url(#backlight)" stroke="#333"/></svg>