<svg id="coaworld_burg_27_burg_27_s-1" width="500" height="500" viewBox="0 10 200 200" xmlns="http://www.w3.org/2000/svg" xmlns:x="http://www.w3.org/1999/xlink"><defs><clipPath id="heater_coaworld_burg_27_burg_27_s-1"><path d="m25,25 h150 v50 a150,150,0,0,1,-75,125 a150,150,0,0,1,-75,-125 z"/></clipPath><g id="boat2_coaworld_burg_27_burg_27_s-1" stroke-width=".35"><path d="M133.1 86.6c-.11-2.2-.44-3.64-.98-5.87.98-.79 4.95-2.66 7.17-2.66 1.63 11.04 0 20.14-5.03 27.2-6.69 9.38-19.1 14.75-34.85 14.75-15.76 0-28.04-5.37-34.73-14.76-5-7.06-6.65-16.15-5.02-27.2 2.22 0 6.2 1.87 7.17 2.66-.54 2.24-.98 5.95-.98 5.95s11.9 6.79 33.56 6.79c21.66 0 33.7-6.91 33.7-6.85z"/><path d="M134.47 87.78c.05 5.86-1.17 11.38-4.4 15.98-5.38 7.66-15.78 12.8-30.71 12.8-14.93 0-25.1-5.14-30.46-12.8-3.22-4.58-4.44-10.07-4.4-15.9l8.27 2.66 15.54 3.26 11.2.57 13.09-1.53 11.63-2.54z"/><path d="M135.2 87.39S122.8 95.4 99.35 95.4c-23.46 0-35.67-8.02-35.67-8.02s-.58-.3-.58-1.19c0-.72.58-1.06.58-1.06s12.22 8.02 35.67 8.02c23.44 0 35.87-8.02 35.87-8.02s.41.4.41 1.18c0 .72-.41 1.07-.41 1.07z"/><path d="M113.92 88.98l.53 3c.75-.13 1.49-.26 2.2-.4l-.54-3zm6.05-1.1l-2.18.4.53 2.96c.75-.16 1.48-.32 2.18-.5zm-37.8 3.71l2.2.4.55-3-2.19-.4zm-3.83-.83l2.17.5.54-2.98-2.19-.4z"/><g fill="none"><path d="M64.59 90.62c3.28 2.3 15.1 9.4 34.76 9.4 19.96 0 31.93-7.32 35.05-9.5"/><path d="M65.06 94.51C68.91 97.48 80.54 105 99.33 105c19.08 0 30.86-7.73 34.58-10.62"/><path d="M66.5 99.15c4.83 3.75 15.91 10.56 32.9 10.56 17.17 0 28.43-6.97 33.22-10.7"/><path d="M69.55 104.66c5.79 4.18 15.82 9.38 29.83 9.38a50.78 50.78 0 0030.18-9.6"/><path d="M112.23 108.36l.74 3.98"/><path d="M111.08 108.57l.72 4.02"/><path d="M110.91 99.17l.75 4.7"/><path d="M109.75 99.32l.74 4.74"/><path d="M120.3 93.05l.89 3.73"/><path d="M119.15 93.3l.93 3.8"/><path d="M130.63 92.82l1.2 3.07"/><path d="M129.63 93.33l1.23 3.18"/><path d="M122.95 108.5l.46 1.75"/><path d="M122.24 100.83l.94 3.83"/><path d="M121.17 101.26l.93 3.9"/><path d="M124.02 107.93l.4 1.6"/><path d="M86.57 108.36l-.74 3.98"/><path d="M87.72 108.57L87 112.6"/><path d="M87.89 99.17l-.75 4.7"/><path d="M89.05 99.32l-.73 4.74"/><path d="M78.5 93.05l-.88 3.73"/><path d="M79.65 93.3l-.93 3.8"/><path d="M68.17 92.82l-1.2 3.07"/><path d="M69.17 93.33l-1.23 3.18"/><path d="M75.85 108.5l-.45 1.75"/><path d="M98.81 109.71V105"/><path d="M100 109.71V105"/><path d="M98.81 116.55v-2.51"/><path d="M100 116.55v-2.51"/><path d="M98.81 100.02V95.4"/><path d="M100 100.02V95.4"/><path d="M76.56 100.83l-.94 3.83"/><path d="M77.63 101.26l-.93 3.9"/><path d="M74.78 107.93l-.4 1.6"/></g></g><radialGradient id="backlight" cx="100%" cy="100%" r="150%"><stop stop-color="#fff" stop-opacity=".3" offset="0"/><stop stop-color="#fff" stop-opacity=".15" offset=".25"/><stop stop-color="#000" stop-opacity="0" offset="1"/></radialGradient></defs><g clip-path="url(#heater_coaworld_burg_27_burg_27_s-1)"><rect x="0" y="0" width="200" height="200" fill="#ffe066"/><g fill="#26c061" stroke="#000"><style>
      g.secondary,path.secondary {fill: #26c061;}
      g.tertiary,path.tertiary {fill: #26c061;}
    </style><use x:href="#boat2_coaworld_burg_27_burg_27_s-1" transform="translate(-50 -50) scale(1.5)"/></g></g><path d="m25,25 h150 v50 a150,150,0,0,1,-75,125 a150,150,0,0,1,-75,-125 z" fill="url(#backlight)" stroke="#333"/></svg>