<svg id="coaworld_burg_274_burg_274_s0" width="500" height="500" viewBox="0 10 200 200" xmlns="http://www.w3.org/2000/svg" xmlns:x="http://www.w3.org/1999/xlink"><defs><clipPath id="heater_coaworld_burg_274_burg_274_s0"><path d="m25,25 h150 v50 a150,150,0,0,1,-75,125 a150,150,0,0,1,-75,-125 z"/></clipPath><g id="mullet6Pierced_coaworld_burg_274_burg_274_s0"><path d="M100 60l7.64 26.77 27-6.77-19.36 20 19.36 20-27-6.77L100 140l-7.64-26.77-27 6.77 19.36-20-19.36-20 27 6.77z M 108,100 a 8,8 0 0 0 -8,-8 8,8 0 0 0 -8,8 8,8 0 0 0 8,8 8,8 0 0 0 8,-8 z"/></g><radialGradient id="backlight" cx="100%" cy="100%" r="150%"><stop stop-color="#fff" stop-opacity=".3" offset="0"/><stop stop-color="#fff" stop-opacity=".15" offset=".25"/><stop stop-color="#000" stop-opacity="0" offset="1"/></radialGradient></defs><g clip-path="url(#heater_coaworld_burg_274_burg_274_s0)"><rect x="0" y="0" width="200" height="200" fill="#d7374a"/><g fill="#fafafa" stroke="#000"><style>
      g.secondary,path.secondary {fill: #fafafa;}
      g.tertiary,path.tertiary {fill: #fafafa;}
    </style><use x:href="#mullet6Pierced_coaworld_burg_274_burg_274_s0" transform="translate(50 0) scale(0.5)"/><use x:href="#mullet6Pierced_coaworld_burg_274_burg_274_s0" transform="translate(50 50) scale(0.5)"/><use x:href="#mullet6Pierced_coaworld_burg_274_burg_274_s0" transform="translate(50 100) scale(0.5)"/></g></g><path d="m25,25 h150 v50 a150,150,0,0,1,-75,125 a150,150,0,0,1,-75,-125 z" fill="url(#backlight)" stroke="#333"/></svg>