<svg id="coaworld_burg_277_burg_277_s-1" width="500" height="500" viewBox="0 10 200 200" xmlns="http://www.w3.org/2000/svg" xmlns:x="http://www.w3.org/1999/xlink"><defs><clipPath id="heater_coaworld_burg_277_burg_277_s-1"><path d="m25,25 h150 v50 a150,150,0,0,1,-75,125 a150,150,0,0,1,-75,-125 z"/></clipPath><g id="lozengePloye_coaworld_burg_277_burg_277_s-1"><path stroke-width=".5" d="M100 60q5 35 40 40-35 5-40 40-5-35-40-40 35-5 40-40"/></g><radialGradient id="backlight" cx="100%" cy="100%" r="150%"><stop stop-color="#fff" stop-opacity=".3" offset="0"/><stop stop-color="#fff" stop-opacity=".15" offset=".25"/><stop stop-color="#000" stop-opacity="0" offset="1"/></radialGradient></defs><g clip-path="url(#heater_coaworld_burg_277_burg_277_s-1)"><rect x="0" y="0" width="200" height="200" fill="#333333"/><g fill="#fafafa" stroke="#000"><style>
      g.secondary,path.secondary {fill: #fafafa;}
      g.tertiary,path.tertiary {fill: #fafafa;}
    </style><use x:href="#lozengePloye_coaworld_burg_277_burg_277_s-1" transform="translate(6.25 50) scale(0.5)"/><use x:href="#lozengePloye_coaworld_burg_277_burg_277_s-1" transform="translate(50 50) scale(0.5)"/><use x:href="#lozengePloye_coaworld_burg_277_burg_277_s-1" transform="translate(93.75 50) scale(0.5)"/></g></g><path d="m25,25 h150 v50 a150,150,0,0,1,-75,125 a150,150,0,0,1,-75,-125 z" fill="url(#backlight)" stroke="#333"/></svg>