<svg id="coaworld_burg_287_burg_287_s-1" width="500" height="500" viewBox="0 10 200 200" xmlns="http://www.w3.org/2000/svg" xmlns:x="http://www.w3.org/1999/xlink"><defs><clipPath id="heater_coaworld_burg_287_burg_287_s-1"><path d="m25,25 h150 v50 a150,150,0,0,1,-75,125 a150,150,0,0,1,-75,-125 z"/></clipPath><g id="cinquefoil_coaworld_burg_287_burg_287_s-1" stroke-width=".496"><g><path d="M139.71 89.644c-.532-1.637-6.53-4.768-9.714-9.269-2.963-4.188-5.29-4.576-7.136-3.977-6.556 2.13-7.388 14.31-13.58 16.324-.323.104-.819-.026-.819-.026s-.508-.14-1.014-.465c-.448-.375-.723-.794-.723-.794s-.275-.439-.275-.775c0-6.512 11.327-11.067 11.327-17.96 0-1.942-1.087-4.035-5.987-5.559-5.265-1.637-10.097-6.374-11.817-6.374s-6.987 4.851-11.886 6.374-5.987 3.617-5.987 5.559c0 6.893 11.327 11.448 11.327 17.96 0 .296-.385 1.038-.632 1.292a4.85 4.85 0 0 1-1.261.796c-.272.066-.563.07-.868-.03-6.193-2.01-7.025-14.191-13.58-16.322-1.846-.6-4.173-.21-7.137 3.977-3.184 4.501-9.182 7.634-9.714 9.27-.53 1.635 2.455 8.143 2.39 13.273-.065 5.13 1.59 6.812 3.435 7.412 6.556 2.13 14.388-7.236 20.582-5.223.28.09.87.69 1.038 1.01.313.72.274 1.532.274 1.532s-.023.46-.21.718c-3.826 5.267-15.668 2.294-19.72 7.871-1.14 1.572-1.49 3.904 1.576 8.016 3.298 4.42 4.422 11.093 5.814 12.102 1.39 1.012 8.505.184 13.363 1.83 4.858 1.647 6.969.593 8.11-.977 4.052-5.576-2.434-15.919 1.393-21.188.162-.222.562-.462.562-.462s.514-.195 1.131-.222c.618.027 1.131.222 1.131.222s.4.24.562.462c3.826 5.27-2.66 15.612 1.392 21.188 1.141 1.57 3.251 2.624 8.11.977 4.86-1.646 11.972-.818 13.363-1.829 1.392-1.01 2.517-7.684 5.815-12.102 3.066-4.113 2.716-6.445 1.576-8.017-4.051-5.576-15.893-2.604-19.721-7.871a1.574 1.574 0 0 1-.295-.81s.047-.719.36-1.44a4.006 4.006 0 0 1 .364-.573 1.552 1.552 0 0 1 .674-.437c6.193-2.012 14.025 7.353 20.582 5.223 1.845-.6 3.5-2.282 3.435-7.412-.064-5.13 2.921-11.638 2.39-13.274zm-36.709 3.587a9.803 9.803 0 1 1-6.058 18.646A9.803 9.803 0 0 1 103 93.231z"/><g fill="#000"><path d="m106.759 111.7 8.638 12.069-8.937-11.848z"/><path d="m110.6 98.92 14.441-4.622-14.323 4.975z"/><path d="m93.411 111.92-8.933 11.849 8.633-12.07z"/><path d="m89.193 99.388-14.358-5.09 14.478 4.738z"/><path d="m99.789 91.42.094-15.402.278 15.4z"/></g></g></g><radialGradient id="backlight" cx="100%" cy="100%" r="150%"><stop stop-color="#fff" stop-opacity=".3" offset="0"/><stop stop-color="#fff" stop-opacity=".15" offset=".25"/><stop stop-color="#000" stop-opacity="0" offset="1"/></radialGradient></defs><g clip-path="url(#heater_coaworld_burg_287_burg_287_s-1)"><rect x="0" y="0" width="200" height="200" fill="#ffe066"/><g fill="#333333" stroke="none"><polygon points="0,165 165,0 200,0 200,35 35,200 0,200"/></g><g fill="#fafafa" stroke="#000"><style>
      g.secondary,path.secondary {fill: #fafafa;}
      g.tertiary,path.tertiary {fill: #fafafa;}
    </style><use x:href="#cinquefoil_coaworld_burg_287_burg_287_s-1" transform="translate(30 30) scale(0.7)"/></g></g><path d="m25,25 h150 v50 a150,150,0,0,1,-75,125 a150,150,0,0,1,-75,-125 z" fill="url(#backlight)" stroke="#333"/></svg>