<svg id="coaworld_burg_288_burg_288_s0" width="500" height="500" viewBox="0 10 200 200" xmlns="http://www.w3.org/2000/svg"><defs><clipPath id="heater_coaworld_burg_288_burg_288_s0"><path d="m25,25 h150 v50 a150,150,0,0,1,-75,125 a150,150,0,0,1,-75,-125 z"/></clipPath><clipPath id="divisionClip_coaworld_burg_288_burg_288_s0"><rect x="100" y="0" width="100" height="100"/><rect x="0" y="100" width="100" height="100"/></clipPath><g id="lozenge_coaworld_burg_288_burg_288_s0"><polygon points="100 60 135 100 100 140 65 100"/></g><pattern id="semy_of_lozenge-argent-purpure" width="25" height="25" viewBox="0 0 200 200" patternUnits="userSpaceOnUse" stroke="#000"><rect width="200" height="200" fill="#fafafa" stroke="none"/><g fill="#522d5b"><use transform="translate(-100 -50)" href="#lozenge_coaworld_burg_288_burg_288_s0"/><use transform="translate(100 -50)" href="#lozenge_coaworld_burg_288_burg_288_s0"/><use transform="translate(0 50)" href="#lozenge_coaworld_burg_288_burg_288_s0"/></g></pattern><radialGradient id="backlight" cx="100%" cy="100%" r="150%"><stop stop-color="#fff" stop-opacity=".3" offset="0"/><stop stop-color="#fff" stop-opacity=".15" offset=".25"/><stop stop-color="#000" stop-opacity="0" offset="1"/></radialGradient></defs><g clip-path="url(#heater_coaworld_burg_288_burg_288_s0)"><rect x="0" y="0" width="200" height="200" fill="url(#semy_of_lozenge-argent-purpure)"/><g clip-path="url(#divisionClip_coaworld_burg_288_burg_288_s0)"><rect x="0" y="0" width="200" height="200" fill="#333333"/></g></g><path d="m25,25 h150 v50 a150,150,0,0,1,-75,125 a150,150,0,0,1,-75,-125 z" fill="url(#backlight)" stroke="#333"/></svg>