<svg id="coaworld_burg_291_burg_291_s0" width="500" height="500" viewBox="0 10 200 200" xmlns="http://www.w3.org/2000/svg" xmlns:x="http://www.w3.org/1999/xlink"><defs><clipPath id="heater_coaworld_burg_291_burg_291_s0"><path d="m25,25 h150 v50 a150,150,0,0,1,-75,125 a150,150,0,0,1,-75,-125 z"/></clipPath><clipPath id="divisionClip_coaworld_burg_291_burg_291_s0"><polygon points="0,0 200,200 0,200"/></clipPath><g id="inescutcheon_coaworld_burg_291_burg_291_s0"><path transform="translate(66 66) scale(.34)" d="m25,25 h150 v50 a150,150,0,0,1,-75,125 a150,150,0,0,1,-75,-125 z"/></g><g id="shears_coaworld_burg_291_burg_291_s0" stroke-width="0.8" transform="matrix(0.54,0,0,0.54,13.4,108.7)"><path d="M160.05-84.84a13.07 13.07 0 00-13.06 13.14 13.1 13.1 0 003.85 9.29c1.19 1.18 4.64 3.87 6.57 4.73-4.56 15.47-9.31 28.43 9.85 40.06-26.44 44.8-44.6 75.42-44.6 75.42l28.87-114.34c-.45-.39-.94-.69-1.4-1a17.7 17.7 0 01-7.83-14.72 17.76 17.76 0 1127.67 14.71c-.47.32-.96.62-1.4 1.01L197.43 57.8s-18.15-30.61-44.6-75.42c19.17-11.63 14.42-24.6 9.85-40.06 1.94-.86 5.39-3.55 6.57-4.73a13.1 13.1 0 003.85-9.3c0-7.24-5.8-13.13-13.05-13.13z"/><path d="M160.13-84.84a13.14 13.14 0 00-9.29 22.43c1.19 1.18 4.64 3.87 6.57 4.73-4.56 15.47-9.31 28.43 9.85 40.06-26.44 44.8-44.6 75.42-44.6 75.42l28.87-114.34c-.45-.39-.94-.69-1.4-1a17.7 17.7 0 01-7.83-14.72c-.01-9.81 7.95-17.77 17.75-17.77"/></g><pattern id="bendy-azure-argent-small" width="80" height="80" viewBox="0 0 100 100" patternUnits="userSpaceOnUse"><rect width="100" height="100" fill="#377cd7"/><polygon points="0,25 75,100 25,100 0,75" fill="#fafafa"/><polygon points="25,0 75,0 100,25 100,75" fill="#fafafa"/></pattern><radialGradient id="backlight" cx="100%" cy="100%" r="150%"><stop stop-color="#fff" stop-opacity=".3" offset="0"/><stop stop-color="#fff" stop-opacity=".15" offset=".25"/><stop stop-color="#000" stop-opacity="0" offset="1"/></radialGradient></defs><g clip-path="url(#heater_coaworld_burg_291_burg_291_s0)"><rect x="0" y="0" width="200" height="200" fill="url(#bendy-azure-argent-small)"/><g clip-path="url(#divisionClip_coaworld_burg_291_burg_291_s0)"><rect x="0" y="0" width="200" height="200" fill="#ffe066"/></g><g fill="#ffe066" stroke="#000"><style>
      g.secondary,path.secondary {fill: #ffe066;}
      g.tertiary,path.tertiary {fill: #ffe066;}
    </style><use x:href="#inescutcheon_coaworld_burg_291_burg_291_s0" transform="translate(-50 -50) scale(1.5)"/></g><g fill="#26c061" stroke="#000"><style>
      g.secondary,path.secondary {fill: #26c061;}
      g.tertiary,path.tertiary {fill: #26c061;}
    </style><use x:href="#shears_coaworld_burg_291_burg_291_s0" transform="translate(25 25) scale(0.75)"/></g></g><path d="m25,25 h150 v50 a150,150,0,0,1,-75,125 a150,150,0,0,1,-75,-125 z" fill="url(#backlight)" stroke="#333"/></svg>