<svg id="coaworld_burg_326_burg_326_s0" width="500" height="500" viewBox="0 10 200 200" xmlns="http://www.w3.org/2000/svg" xmlns:x="http://www.w3.org/1999/xlink"><defs><clipPath id="heater_coaworld_burg_326_burg_326_s0"><path d="m25,25 h150 v50 a150,150,0,0,1,-75,125 a150,150,0,0,1,-75,-125 z"/></clipPath><g id="mullet6Faceted_coaworld_burg_326_burg_326_s0"><path d="M100 60l7.64 26.77 26-6.77-18.36 20 19.36 20-27-6.77L100 140l-7.64-26.77-27 6.77 19.36-20-19.36-20 27 6.77z"/><path fill="#000" fill-opacity=".2" stroke-width=".2" d="M100 100l34-20-18.72 20H100l34.64 20-27-6.77L100 100v40l-7.64-26.77L100 100l-34.64 20 19.36-20H100L65.36 80l27 6.77L100 100V60l7.64 26.77z"/></g><radialGradient id="backlight" cx="100%" cy="100%" r="150%"><stop stop-color="#fff" stop-opacity=".3" offset="0"/><stop stop-color="#fff" stop-opacity=".15" offset=".25"/><stop stop-color="#000" stop-opacity="0" offset="1"/></radialGradient></defs><g clip-path="url(#heater_coaworld_burg_326_burg_326_s0)"><rect x="0" y="0" width="200" height="200" fill="#ffe066"/><g fill="#333333" stroke="#000"><style>
      g.secondary,path.secondary {fill: #333333;}
      g.tertiary,path.tertiary {fill: #333333;}
    </style><use x:href="#mullet6Faceted_coaworld_burg_326_burg_326_s0" transform="translate(6.25 0) scale(0.5)"/><use x:href="#mullet6Faceted_coaworld_burg_326_burg_326_s0" transform="translate(50 0) scale(0.5)"/><use x:href="#mullet6Faceted_coaworld_burg_326_burg_326_s0" transform="translate(93.75 0) scale(0.5)"/><use x:href="#mullet6Faceted_coaworld_burg_326_burg_326_s0" transform="translate(12.5 50) scale(0.5)"/><use x:href="#mullet6Faceted_coaworld_burg_326_burg_326_s0" transform="translate(87.5 50) scale(0.5)"/><use x:href="#mullet6Faceted_coaworld_burg_326_burg_326_s0" transform="translate(50 100) scale(0.5)"/></g></g><path d="m25,25 h150 v50 a150,150,0,0,1,-75,125 a150,150,0,0,1,-75,-125 z" fill="url(#backlight)" stroke="#333"/></svg>