<svg id="coaworld_burg_329_burg_329_s0" width="500" height="500" viewBox="0 10 200 200" xmlns="http://www.w3.org/2000/svg" xmlns:x="http://www.w3.org/1999/xlink"><defs><clipPath id="heater_coaworld_burg_329_burg_329_s0"><path d="m25,25 h150 v50 a150,150,0,0,1,-75,125 a150,150,0,0,1,-75,-125 z"/></clipPath><g id="crossedBones_coaworld_burg_329_burg_329_s0" stroke-width=".6"><path d="m 64.5,110 c -3,1 -4,4 -2,6 3,0 2,5 5,6 4,-1 1,-5 10,-8 5,-3 10,-4 15,-6 A 704,704 0 0 0 126,90.6 c 2,-1.2 6,0.4 9,0 3,-0.8 5,-4.4 2,-6 -1,-1.2 1,-4 -1,-5.2 -1,-2.4 -4,-2 -6,0 -3,2 -2,4.4 -9,6.8 C 108,93 85.5,104 71.5,110 c -4,0 -6,-1 -7,0 z"/><path d="m 135,110 c 3,1 4,4 2,6 -3,0 -2,5 -5,6 -4,-1 -1,-5 -10,-8 -5,-3 -10,-4 -15,-6 A 704,704 0 0 1 74.1,90.6 c -2,-1.2 -6.4,0.4 -9.2,0 -2.8,-0.8 -4.4,-4.4 -1.6,-6.1 0.8,-1.2 -0.8,-4 0.8,-5.2 1.2,-2.3 4.4,-1.9 6,0 2.8,2 2.4,4.4 8.8,6.9 C 92.1,93 114,104 128,110 c 4,0 6,-1 7,0 z"/></g><radialGradient id="backlight" cx="100%" cy="100%" r="150%"><stop stop-color="#fff" stop-opacity=".3" offset="0"/><stop stop-color="#fff" stop-opacity=".15" offset=".25"/><stop stop-color="#000" stop-opacity="0" offset="1"/></radialGradient></defs><g clip-path="url(#heater_coaworld_burg_329_burg_329_s0)"><rect x="0" y="0" width="200" height="200" fill="#fafafa"/><g fill="#377cd7" stroke="#000"><style>
      g.secondary,path.secondary {fill: #377cd7;}
      g.tertiary,path.tertiary {fill: #377cd7;}
    </style><use x:href="#crossedBones_coaworld_burg_329_burg_329_s0" transform="translate(-50 -50) scale(1.5)"/></g></g><path d="m25,25 h150 v50 a150,150,0,0,1,-75,125 a150,150,0,0,1,-75,-125 z" fill="url(#backlight)" stroke="#333"/></svg>