<svg id="coaworld_burg_333_burg_333_s-1" width="500" height="500" viewBox="0 10 200 200" xmlns="http://www.w3.org/2000/svg" xmlns:x="http://www.w3.org/1999/xlink"><defs><clipPath id="heater_coaworld_burg_333_burg_333_s-1"><path d="m25,25 h150 v50 a150,150,0,0,1,-75,125 a150,150,0,0,1,-75,-125 z"/></clipPath><clipPath id="divisionClip_coaworld_burg_333_burg_333_s-1"><polygon points="0,0 0,200 200,0 200,200"/></clipPath><g id="drawingCompass_coaworld_burg_333_burg_333_s-1" stroke-width=".5"><path d="m102.48 69.79 21.27 70.2c.98-19.23-12.9-49.16-19.75-77.25-1.08 2.92-.36 4.8-1.52 7.05z"/><path d="M97.2 62.92c-8.52 32.34-23.6 65.9-20.65 76.43 7.33-17.18 12.24-37.8 17.44-52.5l5.07-15.23 3.6-1.16 1.68-5.49c.36-4.7-4.47-7.07-7.15-2.05z"/><path d="M117.92 70.77c-.8-.01-1.63.37-2.37 1.3a16.7 16.7 0 0 1-21.89 8.05c-3.69-.88-5.58 4.17-2.39 6.45a22.32 22.32 0 0 0 8.8 1.96 22.88 22.88 0 0 0 20.43-12.08c1.48-2.69-.38-5.67-2.58-5.68zm.05 2.22c.7.02 1.3.78.8 1.97-3.63 6.54-11.03 11.88-19.2 11.07-2.02-.1-2.97-.36-3.67-.53-1.7-.3-1.02-2.9.44-2.37.92.25 1.72.46 3.63.58 7.71.25 13.1-3.6 16.74-9.6.25-.79.78-1.13 1.26-1.12z"/><circle cx="100.77" cy="63.88" r="3"/><circle cx="92.94" cy="83.29" r=".86"/><circle cx="108.25" cy="83.27" r="2.57"/></g><radialGradient id="backlight" cx="100%" cy="100%" r="150%"><stop stop-color="#fff" stop-opacity=".3" offset="0"/><stop stop-color="#fff" stop-opacity=".15" offset=".25"/><stop stop-color="#000" stop-opacity="0" offset="1"/></radialGradient></defs><g clip-path="url(#heater_coaworld_burg_333_burg_333_s-1)"><rect x="0" y="0" width="200" height="200" fill="#ffe066"/><g clip-path="url(#divisionClip_coaworld_burg_333_burg_333_s-1)"><rect x="0" y="0" width="200" height="200" fill="#522d5b"/></g><g fill="#d7374a" stroke="none"><rect x="75" y="0" width="50" height="200"/></g><g fill="#fafafa" stroke="#000"><style>
      g.secondary,path.secondary {fill: #fafafa;}
      g.tertiary,path.tertiary {fill: #fafafa;}
    </style><use x:href="#drawingCompass_coaworld_burg_333_burg_333_s-1" transform="translate(50 0) scale(0.5)"/><use x:href="#drawingCompass_coaworld_burg_333_burg_333_s-1" transform="translate(50 50) scale(0.5)"/><use x:href="#drawingCompass_coaworld_burg_333_burg_333_s-1" transform="translate(50 100) scale(0.5)"/></g></g><path d="m25,25 h150 v50 a150,150,0,0,1,-75,125 a150,150,0,0,1,-75,-125 z" fill="url(#backlight)" stroke="#333"/></svg>