<svg id="coaworld_burg_335_burg_335_s-1" width="500" height="500" viewBox="0 10 200 200" xmlns="http://www.w3.org/2000/svg" xmlns:x="http://www.w3.org/1999/xlink"><defs><clipPath id="heater_coaworld_burg_335_burg_335_s-1"><path d="m25,25 h150 v50 a150,150,0,0,1,-75,125 a150,150,0,0,1,-75,-125 z"/></clipPath><g id="annulet_coaworld_burg_335_burg_335_s-1"><path d="M70 100c0 16.569 13.431 30 30 30 16.569 0 30-13.431 30-30 0-16.569-13.431-30-30-30-16.569 0-30 13.431-30 30m10 0c0-11.046 8.954-20 20-20s20 8.954 20 20-8.954 20-20 20-20-8.954-20-20"/></g><radialGradient id="backlight" cx="100%" cy="100%" r="150%"><stop stop-color="#fff" stop-opacity=".3" offset="0"/><stop stop-color="#fff" stop-opacity=".15" offset=".25"/><stop stop-color="#000" stop-opacity="0" offset="1"/></radialGradient></defs><g clip-path="url(#heater_coaworld_burg_335_burg_335_s-1)"><rect x="0" y="0" width="200" height="200" fill="#d7374a"/><g fill="#ffe066" stroke="#000"><style>
      g.secondary,path.secondary {fill: #ffe066;}
      g.tertiary,path.tertiary {fill: #ffe066;}
    </style><use x:href="#annulet_coaworld_burg_335_burg_335_s-1" transform="translate(50 0) scale(0.5)"/><use x:href="#annulet_coaworld_burg_335_burg_335_s-1" transform="translate(50 50) scale(0.5)"/><use x:href="#annulet_coaworld_burg_335_burg_335_s-1" transform="translate(50 100) scale(0.5)"/></g></g><path d="m25,25 h150 v50 a150,150,0,0,1,-75,125 a150,150,0,0,1,-75,-125 z" fill="url(#backlight)" stroke="#333"/></svg>