<svg id="coaworld_burg_34_burg_34_s0" width="500" height="500" viewBox="0 10 200 200" xmlns="http://www.w3.org/2000/svg" xmlns:x="http://www.w3.org/1999/xlink"><defs><clipPath id="heater_coaworld_burg_34_burg_34_s0"><path d="m25,25 h150 v50 a150,150,0,0,1,-75,125 a150,150,0,0,1,-75,-125 z"/></clipPath><g id="crossPommy_coaworld_burg_34_burg_34_s0" stroke-width=".5"><path d="M95.8 104.2H76a8.5 8.5 0 110-8.5h19.8V75.9a8.5 8.5 0 118.5 0v19.8H124a8.5 8.5 0 110 8.5h-19.8V124a8.5 8.5 0 11-8.5 0z"/></g><radialGradient id="backlight" cx="100%" cy="100%" r="150%"><stop stop-color="#fff" stop-opacity=".3" offset="0"/><stop stop-color="#fff" stop-opacity=".15" offset=".25"/><stop stop-color="#000" stop-opacity="0" offset="1"/></radialGradient></defs><g clip-path="url(#heater_coaworld_burg_34_burg_34_s0)"><rect x="0" y="0" width="200" height="200" fill="#ffe066"/><g fill="#26c061" stroke="none"><path d="m 0,115 v -20 h 3 v 10 h 10 v -5 h -5 v -5 h 10v 10 h 10 v -5 h -5 v -5 h 10v 10 h 10 v -5 h -5 v -5 h 10v 10 h 10 v -5 h -5 v -5 h 10v 10 h 10 v -5 h -5 v -5 h 10v 10 h 10 v -5 h -5 v -5 h 10v 10 h 10 v -5 h -5 v -5 h 10v 10 h 10 v -5 h -5 v -5 h 10v 10 h 10 v -5 h -5 v -5 h 10v 10 h 10 v -5 h -5 v -5 h 10v 10 h 10 v -5 h -5 v -5 h 10v 10 h 10 v -5 h -5 v -5 h 10v 10 h 10 v -5 h -5 v -5 h 10 v 10 h 2 v 20" transform="translate(0,50)"/><rect x="0" y="164" width="200" height="36" stroke="none"/></g><g fill="#26c061" stroke="#000"><style>
      g.secondary,path.secondary {fill: #26c061;}
      g.tertiary,path.tertiary {fill: #26c061;}
    </style><use x:href="#crossPommy_coaworld_burg_34_burg_34_s0" transform="translate(6.25 50) scale(0.5)"/><use x:href="#crossPommy_coaworld_burg_34_burg_34_s0" transform="translate(50 50) scale(0.5)"/><use x:href="#crossPommy_coaworld_burg_34_burg_34_s0" transform="translate(93.75 50) scale(0.5)"/></g></g><path d="m25,25 h150 v50 a150,150,0,0,1,-75,125 a150,150,0,0,1,-75,-125 z" fill="url(#backlight)" stroke="#333"/></svg>