<svg id="coaworld_burg_367_burg_367_s-1" width="500" height="500" viewBox="0 10 200 200" xmlns="http://www.w3.org/2000/svg" xmlns:x="http://www.w3.org/1999/xlink"><defs><clipPath id="heater_coaworld_burg_367_burg_367_s-1"><path d="m25,25 h150 v50 a150,150,0,0,1,-75,125 a150,150,0,0,1,-75,-125 z"/></clipPath><clipPath id="divisionClip_coaworld_burg_367_burg_367_s-1"><path d="m 0,115 v -20 a 6.25,6.25 0 0 0 12.5,0a 6.25,6.25 0 0 0 12.5,0a 6.25,6.25 0 0 0 12.5,0a 6.25,6.25 0 0 0 12.5,0a 6.25,6.25 0 0 0 12.5,0a 6.25,6.25 0 0 0 12.5,0a 6.25,6.25 0 0 0 12.5,0a 6.25,6.25 0 0 0 12.5,0a 6.25,6.25 0 0 0 12.5,0a 6.25,6.25 0 0 0 12.5,0a 6.25,6.25 0 0 0 12.5,0a 6.25,6.25 0 0 0 12.5,0a 6.25,6.25 0 0 0 12.5,0a 6.25,6.25 0 0 0 12.5,0a 6.25,6.25 0 0 0 12.5,0a 6.25,6.25 0 0 0 12.5,0 v 20 V200 H0 Z" transform="rotate(-90 100 100)"/></clipPath><g id="arrow_coaworld_burg_367_burg_367_s-1" stroke-width="0.33"><path class="tertiary" d="M100.814 137.53a6.6 6.6 0 0 0 2.453.671c1.056 0 2.222-1.056 2.222-2.288 0-3.399-4.675-12.254-4.675-12.254zm-1.65 0s-1.331.671-2.453.671c-1.056 0-2.222-1.056-2.222-2.288 0-3.399 4.675-12.254 4.675-12.254z"/><path d="M99.164 69.286v70.785s.363.132.825.132.825-.209.825-.209V69.209z"/><ellipse cx="99.989" cy="68.923" rx="1.65" ry="0.913"/><path class="secondary" d="m101.023 68.89-.385-5.819 2.398 4.895h3.564l-6.6-7.909-6.6 7.909h3.564l2.398-4.895-.385 5.819s.308.286 1.034.286c.704 0 1.012-.286 1.012-.286z"/><path fill="#000" stroke="none" d="m100.968 126.904 2.035 4.444-2.332-4.301zm-.011 3.652 2.024 3.322-2.299-3.135zm-.011 3.157 2.112 3.212-2.376-3.014zm-1.628-6.666-2.343 4.301 2.046-4.444zm-.011 3.696-2.299 3.135 2.024-3.322zm0 3.168-2.376 3.014 2.101-3.212z"/></g><g id="lochaberAxe_coaworld_burg_367_burg_367_s-1" stroke-width=".5"><path d="M109.5 60.78c0-.72-2.56-.72-2.59-.03l-.03 94.23h0v.08c0 .72 2.73.72 2.73 0z"/><path class="secondary" d="M107.18 91.77a6.08 6.08 0 01-8.37-5.25c0-4.87 2.64-12 2.64-18.22 0-4.56-3.83-7.95-5.5-7.74 1.64 1.68 2.35 3.39 2.35 6.46 0 5.15-8.01 13.14-8.01 27.47 0 14.32 8.01 22.33 8.01 27.48 0 3.07-.72 4.78-2.35 6.46 1.69.21 5.5-3.18 5.5-7.74 0-6.22-2.64-13.35-2.64-18.22a6.08 6.08 0 018.37-5.25z"/><path class="secondary" d="M109.76 90.81c0-.57-3.14-.57-3.14 0 0 .1-.09 8.36-.01 8.44.43.44 2.8.36 3.16 0l-.01-8.44z"/><path fill="#000" stroke="none" d="M139-35.1c-.1 9.6-3.3 19.2-6.1 27.2-7.9 21.2-16 44.2-20.8 64.4-9.9 44.6-6.8 91.2 6.7 134.2 5.8 19.8 13.9 35.4 18.6 54.1.9 4.2 1.8 6.9 1.7 12.9-.3-4.5-1.3-9.1-2.3-12.8-6.8-17.8-14.2-36.3-20.1-53.6-17.6-51.7-17.2-109.8.1-160.3 4.8-14 9.6-25.6 15.2-39.5 3.4-8.8 6.5-17.5 7-26.6z" transform="matrix(.15 0 0 .15 77 77.775)"/></g><radialGradient id="backlight" cx="100%" cy="100%" r="150%"><stop stop-color="#fff" stop-opacity=".3" offset="0"/><stop stop-color="#fff" stop-opacity=".15" offset=".25"/><stop stop-color="#000" stop-opacity="0" offset="1"/></radialGradient></defs><g clip-path="url(#heater_coaworld_burg_367_burg_367_s-1)"><rect x="0" y="0" width="200" height="200" fill="#fafafa"/><g clip-path="url(#divisionClip_coaworld_burg_367_burg_367_s-1)"><rect x="0" y="0" width="200" height="200" fill="#d7374a"/></g><g fill="#377cd7" stroke="#000"><style>
      g.secondary,path.secondary {fill: #377cd7;}
      g.tertiary,path.tertiary {fill: #377cd7;}
    </style><use x:href="#arrow_coaworld_burg_367_burg_367_s-1" transform="translate(-7.5 30) scale(0.7)"/></g><g fill="#ffe066" stroke="#000"><style>
      g.secondary,path.secondary {fill: #ffe066;}
      g.tertiary,path.tertiary {fill: #ffe066;}
    </style><use x:href="#lochaberAxe_coaworld_burg_367_burg_367_s-1" transform="translate(67.5 30) scale(0.7)"/></g></g><path d="m25,25 h150 v50 a150,150,0,0,1,-75,125 a150,150,0,0,1,-75,-125 z" fill="url(#backlight)" stroke="#333"/></svg>