<svg id="coaworld_burg_368_burg_368_s0" width="500" height="500" viewBox="0 10 200 200" xmlns="http://www.w3.org/2000/svg" xmlns:x="http://www.w3.org/1999/xlink"><defs><clipPath id="heater_coaworld_burg_368_burg_368_s0"><path d="m25,25 h150 v50 a150,150,0,0,1,-75,125 a150,150,0,0,1,-75,-125 z"/></clipPath><g id="ploughshare_coaworld_burg_368_burg_368_s0" stroke-width=".8"><path d="M131.1 61.64c.53 18.36-2.27 44.66-18.31 66.8l-11.4-8.9c-1.41-1.1-3.31-1.27-4.57-.01a3.25 3.25 0 00.74 5.13l-14.47 14.47-14.74-14.73zM86 126.92a3.23 3.23 0 00-4.56 4.57 3.23 3.23 0 004.57-4.57z"/></g><radialGradient id="backlight" cx="100%" cy="100%" r="150%"><stop stop-color="#fff" stop-opacity=".3" offset="0"/><stop stop-color="#fff" stop-opacity=".15" offset=".25"/><stop stop-color="#000" stop-opacity="0" offset="1"/></radialGradient></defs><g clip-path="url(#heater_coaworld_burg_368_burg_368_s0)"><rect x="0" y="0" width="200" height="200" fill="#d7374a"/><g fill="#fafafa" stroke="none"><path d="m 0,115 v -20 l 10,10 v -10l 10,10 v -10l 10,10 v -10l 10,10 v -10l 10,10 v -10l 10,10 v -10l 10,10 v -10l 10,10 v -10l 10,10 v -10l 10,10 v -10l 10,10 v -10l 10,10 v -10l 10,10 v -10l 10,10 v -10l 10,10 v -10l 10,10 v -10l 10,10 v -10l 10,10 v -10l 10,10 v -10 l 10,10 v 10" transform="translate(0,-25) rotate(180.00001 100 100)"/><rect width="200" height="62" stroke="none"/></g><g fill="#fafafa" stroke="#000"><style>
      g.secondary,path.secondary {fill: #fafafa;}
      g.tertiary,path.tertiary {fill: #fafafa;}
    </style><use x:href="#ploughshare_coaworld_burg_368_burg_368_s0" transform="translate(50 50) scale(0.5)"/><use x:href="#ploughshare_coaworld_burg_368_burg_368_s0" transform="translate(20 80) scale(0.5)"/><use x:href="#ploughshare_coaworld_burg_368_burg_368_s0" transform="translate(80 80) scale(0.5)"/></g></g><path d="m25,25 h150 v50 a150,150,0,0,1,-75,125 a150,150,0,0,1,-75,-125 z" fill="url(#backlight)" stroke="#333"/></svg>