<svg id="coaworld_burg_371_burg_371_s-1" width="500" height="500" viewBox="0 10 200 200" xmlns="http://www.w3.org/2000/svg"><defs><clipPath id="heater_coaworld_burg_371_burg_371_s-1"><path d="m25,25 h150 v50 a150,150,0,0,1,-75,125 a150,150,0,0,1,-75,-125 z"/></clipPath><clipPath id="divisionClip_coaworld_burg_371_burg_371_s-1"><rect x="0" y="100" width="200" height="100"/></clipPath><radialGradient id="backlight" cx="100%" cy="100%" r="150%"><stop stop-color="#fff" stop-opacity=".3" offset="0"/><stop stop-color="#fff" stop-opacity=".15" offset=".25"/><stop stop-color="#000" stop-opacity="0" offset="1"/></radialGradient></defs><g clip-path="url(#heater_coaworld_burg_371_burg_371_s-1)"><rect x="0" y="0" width="200" height="200" fill="#fafafa"/><g clip-path="url(#divisionClip_coaworld_burg_371_burg_371_s-1)"><rect x="0" y="0" width="200" height="200" fill="#522d5b"/></g><g fill="#d7374a" stroke="none"><path d="M20,0 Q30,75 100,100 Q80,150 100,200 L0,200 L0,0 Z"/></g></g><path d="m25,25 h150 v50 a150,150,0,0,1,-75,125 a150,150,0,0,1,-75,-125 z" fill="url(#backlight)" stroke="#333"/></svg>