<svg id="coaworld_burg_378_burg_378_s-1" width="500" height="500" viewBox="0 10 200 200" xmlns="http://www.w3.org/2000/svg" xmlns:x="http://www.w3.org/1999/xlink"><defs><clipPath id="heater_coaworld_burg_378_burg_378_s-1"><path d="m25,25 h150 v50 a150,150,0,0,1,-75,125 a150,150,0,0,1,-75,-125 z"/></clipPath><g id="plough_coaworld_burg_378_burg_378_s-1" stroke-width=".51"><rect width="1.887" height="6.97" x="62.13" y="97.08" ry="5.55"/><path d="M121.8 79.74c-6.8 2.55-8.5 11.05-11.9 14.79-1.7 3.74-3.4 7.65-1.7 7.82 1.7.34 3.4-2.72 5.1-6.29s3.4-9.69 6.8-13.09c3.4-3.06 9.18-1.87 10.2-2.55s1.19-1.7 0-1.87-5.1.34-8.5 1.19z"/><path d="M125.2 86.88c0 .51-1.7 1.19-1.7 1.87h-6.8c-1.7 0-1.7-.34-1.7-.85 0-.68 0-1.02 1.7-1.02zm-5.1 5.95v1.87h-6.8c-1.7 0-1.7-.34-1.7-.85s0-1.02 1.7-1.02z"/><path d="M130.3 82.12c-6.8 1.7-10.2 9.86-11.9 13.26-3.4 3.4-6.8 6.97-3.4 7.48 1.7.51 3.4-2.38 5.1-5.61 1.7-3.4 5.1-9.18 10.2-11.9 3.4-2.72 9.52-1.36 10.2-1.53s1.02-1.19 0-1.7-6.8-.51-10.2 0z"/><path class="secondary" d="M101.4 99.46c-1.7 16.32-5.1 20.06-10.2 21.59 3.4-3.57 5.1-7.82 5.1-13.6l1.7.34v-8.16z"/><path class="secondary" d="m115 97.25-1.7-1.02c1.7 11.9-5.1 19.04-13.6 25.16 11.9-.34 20.4-5.78 23.8-14.45-3.4 2.04-5.1 1.87-8.5 1.53 1.7-4.42 1.7-7.99 0-11.22z"/><path d="M126.9 99.46c-5.1-1.36-10.2-1.53-15.3-1.7-5.1-.34-10.2 1.19-17 1.19-17 .17-32.3 0-32.3 0-1.7 0-1.7 2.38 0 2.38H98c5.1 0 10.2-.34 15.3 0 3.4.34 8.5 1.36 11.9 2.21 1.7.17 3.4-3.4 1.7-4.08z"/><path fill="#000" stroke="none" d="M119.08 110c-.85 2.72-5.44 6.8-7.65 7.82 3.23-.85 7.65-5.95 7.65-7.82z"/><path fill="#000" stroke="none" d="M98.17 108.47c-.34 4.76-3.4 10.37-5.27 11.56 2.72-1.7 5.61-8.5 5.27-11.56z"/><path fill="none" d="m106.5 115.44 3.4 3.91"/><path fill="none" d="M108.2 116.8c3.4-2.04 5.1-4.59 6.8-8.33"/></g><pattern id="pally-or-azure-small" width="80" height="20" viewBox="0 0 100 25" patternUnits="userSpaceOnUse"><rect width="100" height="25" fill="#377cd7"/><rect x="25" y="0" width="25" height="25" fill="#ffe066"/><rect x="75" y="0" width="25" height="25" fill="#ffe066"/></pattern><radialGradient id="backlight" cx="100%" cy="100%" r="150%"><stop stop-color="#fff" stop-opacity=".3" offset="0"/><stop stop-color="#fff" stop-opacity=".15" offset=".25"/><stop stop-color="#000" stop-opacity="0" offset="1"/></radialGradient></defs><g clip-path="url(#heater_coaworld_burg_378_burg_378_s-1)"><rect x="0" y="0" width="200" height="200" fill="url(#pally-or-azure-small)"/><g fill="#522d5b" stroke="none"><rect x="0" y="75" width="200" height="50"/></g><g fill="#fafafa" stroke="#000"><style>
      g.secondary,path.secondary {fill: #26c061;}
      g.tertiary,path.tertiary {fill: #fafafa;}
    </style><use x:href="#plough_coaworld_burg_378_burg_378_s-1" transform="translate(6.25 50) scale(0.5)"/><use x:href="#plough_coaworld_burg_378_burg_378_s-1" transform="translate(50 50) scale(0.5)"/><use x:href="#plough_coaworld_burg_378_burg_378_s-1" transform="translate(93.75 50) scale(0.5)"/></g></g><path d="m25,25 h150 v50 a150,150,0,0,1,-75,125 a150,150,0,0,1,-75,-125 z" fill="url(#backlight)" stroke="#333"/></svg>