<svg id="coaworld_burg_381_burg_381_s0" width="500" height="500" viewBox="0 10 200 200" xmlns="http://www.w3.org/2000/svg" xmlns:x="http://www.w3.org/1999/xlink"><defs><clipPath id="heater_coaworld_burg_381_burg_381_s0"><path d="m25,25 h150 v50 a150,150,0,0,1,-75,125 a150,150,0,0,1,-75,-125 z"/></clipPath><clipPath id="divisionClip_coaworld_burg_381_burg_381_s0"><path d="M0,80 100,-15 200,80 200,120 100,25 0,120z M0,160 100,65 200,160 200,200 100,105 0,200z M0,240 100,145 200,240 0,240z"/></clipPath><g id="rustre_coaworld_burg_381_burg_381_s0"><path d="M100 55l30 45-30 45-30-45zm-12 45a12 12 0 1024 0 12 12 0 10-24 0"/></g><radialGradient id="backlight" cx="100%" cy="100%" r="150%"><stop stop-color="#fff" stop-opacity=".3" offset="0"/><stop stop-color="#fff" stop-opacity=".15" offset=".25"/><stop stop-color="#000" stop-opacity="0" offset="1"/></radialGradient></defs><g clip-path="url(#heater_coaworld_burg_381_burg_381_s0)"><rect x="0" y="0" width="200" height="200" fill="#ffe066"/><g fill="#522d5b" stroke="#000"><style>
      g.secondary,path.secondary {fill: #522d5b;}
      g.tertiary,path.tertiary {fill: #522d5b;}
    </style><use x:href="#rustre_coaworld_burg_381_burg_381_s0" transform="translate(6.25 0) scale(0.5)"/><use x:href="#rustre_coaworld_burg_381_burg_381_s0" transform="translate(50 0) scale(0.5)"/><use x:href="#rustre_coaworld_burg_381_burg_381_s0" transform="translate(93.75 0) scale(0.5)"/><use x:href="#rustre_coaworld_burg_381_burg_381_s0" transform="translate(12.5 50) scale(0.5)"/><use x:href="#rustre_coaworld_burg_381_burg_381_s0" transform="translate(87.5 50) scale(0.5)"/><use x:href="#rustre_coaworld_burg_381_burg_381_s0" transform="translate(50 100) scale(0.5)"/></g><g clip-path="url(#divisionClip_coaworld_burg_381_burg_381_s0)"><rect x="0" y="0" width="200" height="200" fill="#522d5b"/><g fill="#ffe066" stroke="#000"><style>
      g.secondary,path.secondary {fill: #ffe066;}
      g.tertiary,path.tertiary {fill: #ffe066;}
    </style><use x:href="#rustre_coaworld_burg_381_burg_381_s0" transform="translate(6.25 0) scale(0.5)"/><use x:href="#rustre_coaworld_burg_381_burg_381_s0" transform="translate(50 0) scale(0.5)"/><use x:href="#rustre_coaworld_burg_381_burg_381_s0" transform="translate(93.75 0) scale(0.5)"/><use x:href="#rustre_coaworld_burg_381_burg_381_s0" transform="translate(12.5 50) scale(0.5)"/><use x:href="#rustre_coaworld_burg_381_burg_381_s0" transform="translate(87.5 50) scale(0.5)"/><use x:href="#rustre_coaworld_burg_381_burg_381_s0" transform="translate(50 100) scale(0.5)"/></g></g></g><path d="m25,25 h150 v50 a150,150,0,0,1,-75,125 a150,150,0,0,1,-75,-125 z" fill="url(#backlight)" stroke="#333"/></svg>