<svg id="coaworld_burg_387_burg_387_s-1" width="500" height="500" viewBox="0 10 200 200" xmlns="http://www.w3.org/2000/svg"><defs><clipPath id="heater_coaworld_burg_387_burg_387_s-1"><path d="m25,25 h150 v50 a150,150,0,0,1,-75,125 a150,150,0,0,1,-75,-125 z"/></clipPath><clipPath id="divisionClip_coaworld_burg_387_burg_387_s-1"><polygon points="0,0 0,200 200,0 200,200"/></clipPath><g id="crossBottony_coaworld_burg_387_burg_387_s-1" stroke-width=".5"><path d="M78.7 95.8a5.5 5.5 0 10-9.7-.4 5.5 5.5 0 100 9.3 5.5 5.5 0 109.7-.4h17.1v17.2a5.5 5.5 0 10-.4 9.7 5.5 5.5 0 109.3 0 5.5 5.5 0 10-.4-9.7v-17.2h17.1a5.5 5.5 0 109.7.4 5.5 5.5 0 100-9.3 5.5 5.5 0 10-9.7.4h-17.1V78.7a5.5 5.5 0 10.4-9.7 5.5 5.5 0 10-9.3 0 5.5 5.5 0 10.4 9.7v17.2z"/></g><pattern id="semy_of_crossBottony-or-sable" width="25" height="25" viewBox="0 0 200 200" patternUnits="userSpaceOnUse" stroke="#000"><rect width="200" height="200" fill="#ffe066" stroke="none"/><g fill="#333333"><use transform="translate(-100 -50)" href="#crossBottony_coaworld_burg_387_burg_387_s-1"/><use transform="translate(100 -50)" href="#crossBottony_coaworld_burg_387_burg_387_s-1"/><use transform="translate(0 50)" href="#crossBottony_coaworld_burg_387_burg_387_s-1"/></g></pattern><radialGradient id="backlight" cx="100%" cy="100%" r="150%"><stop stop-color="#fff" stop-opacity=".3" offset="0"/><stop stop-color="#fff" stop-opacity=".15" offset=".25"/><stop stop-color="#000" stop-opacity="0" offset="1"/></radialGradient></defs><g clip-path="url(#heater_coaworld_burg_387_burg_387_s-1)"><rect x="0" y="0" width="200" height="200" fill="url(#semy_of_crossBottony-or-sable)"/><g clip-path="url(#divisionClip_coaworld_burg_387_burg_387_s-1)"><rect x="0" y="0" width="200" height="200" fill="#522d5b"/></g></g><path d="m25,25 h150 v50 a150,150,0,0,1,-75,125 a150,150,0,0,1,-75,-125 z" fill="url(#backlight)" stroke="#333"/></svg>