<svg id="coaworld_burg_402_burg_402_s0" width="500" height="500" viewBox="0 10 200 200" xmlns="http://www.w3.org/2000/svg" xmlns:x="http://www.w3.org/1999/xlink"><defs><clipPath id="heater_coaworld_burg_402_burg_402_s0"><path d="m25,25 h150 v50 a150,150,0,0,1,-75,125 a150,150,0,0,1,-75,-125 z"/></clipPath><clipPath id="divisionClip_coaworld_burg_402_burg_402_s0"><polygon points="0,0 200,200 200,100 0,100"/><polygon points="200,0 0,200 100,200 100,0"/></clipPath><g id="roundel_coaworld_burg_402_burg_402_s0"><circle cx="100" cy="100" r="30"/></g><pattern id="chainy-purpure-argent" width="33.4" height="33.4" viewBox="0 0 200 200" patternUnits="userSpaceOnUse" stroke="#000" stroke-width="2"><rect x="-6.691e-6" width="200" height="200" fill="#522d5b" stroke="none"/><path d="m155-5-20-20-160 160 20 20z" fill="#fafafa"/><path d="m45 205 160-160 20 20-160 160z" fill="#fafafa"/><path d="m45-5 20-20 160 160-20 20-160-160" fill="#fafafa"/><path d="m-5 45-20 20 160 160 20-20-160-160" fill="#fafafa"/></pattern><radialGradient id="backlight" cx="100%" cy="100%" r="150%"><stop stop-color="#fff" stop-opacity=".3" offset="0"/><stop stop-color="#fff" stop-opacity=".15" offset=".25"/><stop stop-color="#000" stop-opacity="0" offset="1"/></radialGradient></defs><g clip-path="url(#heater_coaworld_burg_402_burg_402_s0)"><rect x="0" y="0" width="200" height="200" fill="url(#chainy-purpure-argent)"/><g clip-path="url(#divisionClip_coaworld_burg_402_burg_402_s0)"><rect x="0" y="0" width="200" height="200" fill="#ffe066"/></g><g fill="#fafafa" stroke="#000"><style>
      g.secondary,path.secondary {fill: #fafafa;}
      g.tertiary,path.tertiary {fill: #fafafa;}
    </style><use x:href="#roundel_coaworld_burg_402_burg_402_s0" transform="translate(-50 -50) scale(1.5)"/></g></g><path d="m25,25 h150 v50 a150,150,0,0,1,-75,125 a150,150,0,0,1,-75,-125 z" fill="url(#backlight)" stroke="#333"/></svg>