<svg id="coaworld_burg_409_burg_409_s0" width="500" height="500" viewBox="0 10 200 200" xmlns="http://www.w3.org/2000/svg" xmlns:x="http://www.w3.org/1999/xlink"><defs><clipPath id="heater_coaworld_burg_409_burg_409_s0"><path d="m25,25 h150 v50 a150,150,0,0,1,-75,125 a150,150,0,0,1,-75,-125 z"/></clipPath><clipPath id="divisionClip_coaworld_burg_409_burg_409_s0"><rect x="0" y="100" width="200" height="100"/></clipPath><g id="crossHummetty_coaworld_burg_409_burg_409_s0" stroke-width=".5"><path d="M90 60h20v30h30v20h-30v30H90v-30H60V90h30z"/></g><g id="pique_coaworld_burg_409_burg_409_s0"><path stroke-width=".5" d="M100 70c-5.7 10.3-25.2 19.8-25.2 32.8 0 6.2 5.6 11.1 12.6 11.1 4.4 0 8.4-2 10.6-5.1-.9 8.9-3.5 18.8-12.6 20.7h29.2c-9.2-1.9-11.7-11.8-12.6-20.7 2.2 3.1 6.2 5.1 10.6 5.1 7 0 12.6-5 12.6-11.1 0-13-19.5-22.5-25.2-32.8z"/></g><radialGradient id="backlight" cx="100%" cy="100%" r="150%"><stop stop-color="#fff" stop-opacity=".3" offset="0"/><stop stop-color="#fff" stop-opacity=".15" offset=".25"/><stop stop-color="#000" stop-opacity="0" offset="1"/></radialGradient></defs><g clip-path="url(#heater_coaworld_burg_409_burg_409_s0)"><rect x="0" y="0" width="200" height="200" fill="#377cd7"/><g clip-path="url(#divisionClip_coaworld_burg_409_burg_409_s0)"><rect x="0" y="0" width="200" height="200" fill="#fafafa"/></g><g fill="#ffe066" stroke="#000"><style>
      g.secondary,path.secondary {fill: #ffe066;}
      g.tertiary,path.tertiary {fill: #ffe066;}
    </style><use x:href="#crossHummetty_coaworld_burg_409_burg_409_s0" transform="translate(30 -7.5) scale(0.7)"/></g><g fill="#d7374a" stroke="#000"><style>
      g.secondary,path.secondary {fill: #d7374a;}
      g.tertiary,path.tertiary {fill: #d7374a;}
    </style><use x:href="#pique_coaworld_burg_409_burg_409_s0" transform="translate(30 72.5) scale(0.7)"/></g></g><path d="m25,25 h150 v50 a150,150,0,0,1,-75,125 a150,150,0,0,1,-75,-125 z" fill="url(#backlight)" stroke="#333"/></svg>