<svg id="coaworld_burg_424_burg_424_s-1" width="500" height="500" viewBox="0 10 200 200" xmlns="http://www.w3.org/2000/svg" xmlns:x="http://www.w3.org/1999/xlink"><defs><clipPath id="heater_coaworld_burg_424_burg_424_s-1"><path d="m25,25 h150 v50 a150,150,0,0,1,-75,125 a150,150,0,0,1,-75,-125 z"/></clipPath><g id="anvil_coaworld_burg_424_burg_424_s-1" stroke-width=".5"><path d="m 111,116 6,5 v 9 c 0,0 0,1 -1,1 h -11 v -1 c -1,-1 -5.1,-4 -10,-4 -5,0 -10,3 -11,4 0,1 -0.5,1 -0.5,1 h -10 c -0.5,0 -1,-1 -1,-1 v -9 l 5.1,-5 7.9,-3 c 1.2,-2 1,-3 1,-6 0,-11 -12,-15 -22,-16 C 63,91 62,89.4 62,87.9 v -6.2 c 0,-0.9 0.5,-1.5 1.6,-1.5 H 108 c 1,0 2,0.6 2,1.5 v 0.6 c 0,1 0,1.5 1,1.5 h 2 c 1,0 1,0 1,0.5 v 1 c 4,0 26,0 26,0.6 0,5.6 -7,13 -18,14 -10,2.1 -19,3.1 -19,10.1 0,4 4,4 8,6 z"/><g fill="#000" stroke="none"><path d="m 107,87 c 0,-2.2 -1,-3.6 -3,-3.6 H 86 v 16.5 c -0.6,-1.6 -0.6,-3 -0.6,-4 v -13 H 104 c 3,0.1 3,2 3,4.1 z"/><path d="m113 96c0-3-1-8.3 3-8.7l20-.5-20 1c-3 .2-3 5.2-3 8.2z"/><path d="m105 127c-8-5-14-4-22 0 7-5 16-5 22 0z"/><path d="m 79,118 c 2.8,-2 6.5,-4 7.2,-7 h 0.4 c -0.3,3 -5,6 -7.6,7 z"/><path d="m 110,118 c -4,-2 -6,-4 -7,-7 h 0 c 0,3 3,6 7,7 z"/></g></g><radialGradient id="backlight" cx="100%" cy="100%" r="150%"><stop stop-color="#fff" stop-opacity=".3" offset="0"/><stop stop-color="#fff" stop-opacity=".15" offset=".25"/><stop stop-color="#000" stop-opacity="0" offset="1"/></radialGradient></defs><g clip-path="url(#heater_coaworld_burg_424_burg_424_s-1)"><rect x="0" y="0" width="200" height="200" fill="#fafafa"/><g fill="#d7374a" stroke="none"><path d="m 0,115 v -5.7 c 0,-2.7 2.4,4.2 3.9,5.7 c -1.5,-4.6 -1.9,-10.3 -0.8,-16.2 1.1,-5.9 3.5,-10.7 6.3,-13.8 -1.5,4.6 -1.9,10.3 -0.8,16.2 1.1,5.9 3.5,10.7 6.4,13.8c -1.5,-4.6 -1.9,-10.3 -0.8,-16.2 1.1,-5.9 3.5,-10.7 6.3,-13.8 -1.5,4.6 -1.9,10.3 -0.8,16.2 1.1,5.9 3.5,10.7 6.4,13.8c -1.5,-4.6 -1.9,-10.3 -0.8,-16.2 1.1,-5.9 3.5,-10.7 6.3,-13.8 -1.5,4.6 -1.9,10.3 -0.8,16.2 1.1,5.9 3.5,10.7 6.4,13.8c -1.5,-4.6 -1.9,-10.3 -0.8,-16.2 1.1,-5.9 3.5,-10.7 6.3,-13.8 -1.5,4.6 -1.9,10.3 -0.8,16.2 1.1,5.9 3.5,10.7 6.4,13.8c -1.5,-4.6 -1.9,-10.3 -0.8,-16.2 1.1,-5.9 3.5,-10.7 6.3,-13.8 -1.5,4.6 -1.9,10.3 -0.8,16.2 1.1,5.9 3.5,10.7 6.4,13.8c -1.5,-4.6 -1.9,-10.3 -0.8,-16.2 1.1,-5.9 3.5,-10.7 6.3,-13.8 -1.5,4.6 -1.9,10.3 -0.8,16.2 1.1,5.9 3.5,10.7 6.4,13.8c -1.5,-4.6 -1.9,-10.3 -0.8,-16.2 1.1,-5.9 3.5,-10.7 6.3,-13.8 -1.5,4.6 -1.9,10.3 -0.8,16.2 1.1,5.9 3.5,10.7 6.4,13.8c -1.5,-4.6 -1.9,-10.3 -0.8,-16.2 1.1,-5.9 3.5,-10.7 6.3,-13.8 -1.5,4.6 -1.9,10.3 -0.8,16.2 1.1,5.9 3.5,10.7 6.4,13.8c -1.5,-4.6 -1.9,-10.3 -0.8,-16.2 1.1,-5.9 3.5,-10.7 6.3,-13.8 -1.5,4.6 -1.9,10.3 -0.8,16.2 1.1,5.9 3.5,10.7 6.4,13.8c -1.5,-4.6 -1.9,-10.3 -0.8,-16.2 1.1,-5.9 3.5,-10.7 6.3,-13.8 -1.5,4.6 -1.9,10.3 -0.8,16.2 1.1,5.9 3.5,10.7 6.4,13.8c -1.5,-4.6 -1.9,-10.3 -0.8,-16.2 1.1,-5.9 3.5,-10.7 6.3,-13.8 -1.5,4.6 -1.9,10.3 -0.8,16.2 1.1,5.9 3.5,10.7 6.4,13.8c -1.5,-4.6 -1.9,-10.3 -0.8,-16.2 1.1,-5.9 3.5,-10.7 6.3,-13.8 -1.5,4.6 -1.9,10.3 -0.8,16.2 1.1,5.9 3.5,10.7 6.4,13.8c -1.5,-4.6 -1.9,-10.3 -0.8,-16.2 1.1,-5.9 3.5,-10.7 6.3,-13.8 -1.5,4.6 -1.9,10.3 -0.8,16.2 1.1,5.9 3.5,10.7 6.4,13.8c -1.5,-4.6 -1.9,-10.3 -0.8,-16.2 1.1,-5.9 3.5,-10.7 6.3,-13.8 -1.5,4.6 -1.9,10.3 -0.8,16.2 1.1,5.9 3.5,10.7 6.4,13.8c -1.5,-4.6 -1.9,-10.3 -0.8,-16.2 1.1,-5.9 3.5,-10.7 6.3,-13.8 -1.5,4.6 -1.9,10.3 -0.8,16.2 1.1,5.9 3.5,10.7 6.4,13.8c -1.5,-4.6 -1.9,-10.3 -0.8,-16.2 1.1,-5.9 3.5,-10.7 6.3,-13.8 -1.5,4.6 -1.9,10.3 -0.8,16.2 1.1,5.9 3.5,10.7 6.4,13.8c -1.5,-4.6 -1.9,-10.3 -0.8,-16.2 1.1,-5.9 3.5,-10.7 6.3,-13.8 -1.5,4.6 -1.9,10.3 -0.8,16.2 1.1,5.9 3.5,10.7 6.4,13.8 c -1.5,-4.6 -1.9,-10.3 -0.8,-16.2 1.1,-5.9 3.5,-10.7 6.3,-13.8 -1.5,4.6 -1.9,10.3 -0.8,16.2 0.6,2.9 1.5,5.6 2.7,8 v 5.7" transform="translate(0,-12.5)"/><path d="m 0,115 v -5.7 c 0,-2.7 2.4,4.2 3.9,5.7 c -1.5,-4.6 -1.9,-10.3 -0.8,-16.2 1.1,-5.9 3.5,-10.7 6.3,-13.8 -1.5,4.6 -1.9,10.3 -0.8,16.2 1.1,5.9 3.5,10.7 6.4,13.8c -1.5,-4.6 -1.9,-10.3 -0.8,-16.2 1.1,-5.9 3.5,-10.7 6.3,-13.8 -1.5,4.6 -1.9,10.3 -0.8,16.2 1.1,5.9 3.5,10.7 6.4,13.8c -1.5,-4.6 -1.9,-10.3 -0.8,-16.2 1.1,-5.9 3.5,-10.7 6.3,-13.8 -1.5,4.6 -1.9,10.3 -0.8,16.2 1.1,5.9 3.5,10.7 6.4,13.8c -1.5,-4.6 -1.9,-10.3 -0.8,-16.2 1.1,-5.9 3.5,-10.7 6.3,-13.8 -1.5,4.6 -1.9,10.3 -0.8,16.2 1.1,5.9 3.5,10.7 6.4,13.8c -1.5,-4.6 -1.9,-10.3 -0.8,-16.2 1.1,-5.9 3.5,-10.7 6.3,-13.8 -1.5,4.6 -1.9,10.3 -0.8,16.2 1.1,5.9 3.5,10.7 6.4,13.8c -1.5,-4.6 -1.9,-10.3 -0.8,-16.2 1.1,-5.9 3.5,-10.7 6.3,-13.8 -1.5,4.6 -1.9,10.3 -0.8,16.2 1.1,5.9 3.5,10.7 6.4,13.8c -1.5,-4.6 -1.9,-10.3 -0.8,-16.2 1.1,-5.9 3.5,-10.7 6.3,-13.8 -1.5,4.6 -1.9,10.3 -0.8,16.2 1.1,5.9 3.5,10.7 6.4,13.8c -1.5,-4.6 -1.9,-10.3 -0.8,-16.2 1.1,-5.9 3.5,-10.7 6.3,-13.8 -1.5,4.6 -1.9,10.3 -0.8,16.2 1.1,5.9 3.5,10.7 6.4,13.8c -1.5,-4.6 -1.9,-10.3 -0.8,-16.2 1.1,-5.9 3.5,-10.7 6.3,-13.8 -1.5,4.6 -1.9,10.3 -0.8,16.2 1.1,5.9 3.5,10.7 6.4,13.8c -1.5,-4.6 -1.9,-10.3 -0.8,-16.2 1.1,-5.9 3.5,-10.7 6.3,-13.8 -1.5,4.6 -1.9,10.3 -0.8,16.2 1.1,5.9 3.5,10.7 6.4,13.8c -1.5,-4.6 -1.9,-10.3 -0.8,-16.2 1.1,-5.9 3.5,-10.7 6.3,-13.8 -1.5,4.6 -1.9,10.3 -0.8,16.2 1.1,5.9 3.5,10.7 6.4,13.8c -1.5,-4.6 -1.9,-10.3 -0.8,-16.2 1.1,-5.9 3.5,-10.7 6.3,-13.8 -1.5,4.6 -1.9,10.3 -0.8,16.2 1.1,5.9 3.5,10.7 6.4,13.8c -1.5,-4.6 -1.9,-10.3 -0.8,-16.2 1.1,-5.9 3.5,-10.7 6.3,-13.8 -1.5,4.6 -1.9,10.3 -0.8,16.2 1.1,5.9 3.5,10.7 6.4,13.8c -1.5,-4.6 -1.9,-10.3 -0.8,-16.2 1.1,-5.9 3.5,-10.7 6.3,-13.8 -1.5,4.6 -1.9,10.3 -0.8,16.2 1.1,5.9 3.5,10.7 6.4,13.8c -1.5,-4.6 -1.9,-10.3 -0.8,-16.2 1.1,-5.9 3.5,-10.7 6.3,-13.8 -1.5,4.6 -1.9,10.3 -0.8,16.2 1.1,5.9 3.5,10.7 6.4,13.8c -1.5,-4.6 -1.9,-10.3 -0.8,-16.2 1.1,-5.9 3.5,-10.7 6.3,-13.8 -1.5,4.6 -1.9,10.3 -0.8,16.2 1.1,5.9 3.5,10.7 6.4,13.8c -1.5,-4.6 -1.9,-10.3 -0.8,-16.2 1.1,-5.9 3.5,-10.7 6.3,-13.8 -1.5,4.6 -1.9,10.3 -0.8,16.2 1.1,5.9 3.5,10.7 6.4,13.8 c -1.5,-4.6 -1.9,-10.3 -0.8,-16.2 1.1,-5.9 3.5,-10.7 6.3,-13.8 -1.5,4.6 -1.9,10.3 -0.8,16.2 0.6,2.9 1.5,5.6 2.7,8 v 5.7" transform="translate(0,12.5) rotate(180.00001 100 100)"/><rect x="0" y="94" width="200" height="12" stroke="none"/></g><g fill="#d7374a" stroke="#000"><style>
      g.secondary,path.secondary {fill: #d7374a;}
      g.tertiary,path.tertiary {fill: #d7374a;}
    </style><use x:href="#anvil_coaworld_burg_424_burg_424_s-1" transform="translate(-7.5 -7.5) scale(0.7)"/><use x:href="#anvil_coaworld_burg_424_burg_424_s-1" transform="translate(67.5 -7.5) scale(0.7)"/><use x:href="#anvil_coaworld_burg_424_burg_424_s-1" transform="translate(30 80) scale(0.7)"/></g></g><path d="m25,25 h150 v50 a150,150,0,0,1,-75,125 a150,150,0,0,1,-75,-125 z" fill="url(#backlight)" stroke="#333"/></svg>