<svg id="coaworld_burg_426_burg_426_s-1" width="500" height="500" viewBox="0 10 200 200" xmlns="http://www.w3.org/2000/svg" xmlns:x="http://www.w3.org/1999/xlink"><defs><clipPath id="heater_coaworld_burg_426_burg_426_s-1"><path d="m25,25 h150 v50 a150,150,0,0,1,-75,125 a150,150,0,0,1,-75,-125 z"/></clipPath><g id="triangle_coaworld_burg_426_burg_426_s-1"><polygon points="100 60 135 130 65 130"/></g><radialGradient id="backlight" cx="100%" cy="100%" r="150%"><stop stop-color="#fff" stop-opacity=".3" offset="0"/><stop stop-color="#fff" stop-opacity=".15" offset=".25"/><stop stop-color="#000" stop-opacity="0" offset="1"/></radialGradient></defs><g clip-path="url(#heater_coaworld_burg_426_burg_426_s-1)"><rect x="0" y="0" width="200" height="200" fill="#fafafa"/><g fill="#377cd7" stroke="none"><polygon points="0,200 0,170 78,91 78,0 122,0 122,91 200,170 200,200 170,200 100,130 30,200"/></g><g fill="#ffe066" stroke="#000"><style>
      g.secondary,path.secondary {fill: #ffe066;}
      g.tertiary,path.tertiary {fill: #ffe066;}
    </style><use x:href="#triangle_coaworld_burg_426_burg_426_s-1" transform="translate(50 0) scale(0.5)"/><use x:href="#triangle_coaworld_burg_426_burg_426_s-1" transform="translate(50 50) scale(0.5)"/><use x:href="#triangle_coaworld_burg_426_burg_426_s-1" transform="translate(20 80) scale(0.5)"/><use x:href="#triangle_coaworld_burg_426_burg_426_s-1" transform="translate(80 80) scale(0.5)"/></g></g><path d="m25,25 h150 v50 a150,150,0,0,1,-75,125 a150,150,0,0,1,-75,-125 z" fill="url(#backlight)" stroke="#333"/></svg>