<svg id="coaworld_burg_43_burg_43_s0" width="500" height="500" viewBox="0 10 200 200" xmlns="http://www.w3.org/2000/svg" xmlns:x="http://www.w3.org/1999/xlink"><defs><clipPath id="heater_coaworld_burg_43_burg_43_s0"><path d="m25,25 h150 v50 a150,150,0,0,1,-75,125 a150,150,0,0,1,-75,-125 z"/></clipPath><g id="crossBottony_coaworld_burg_43_burg_43_s0" stroke-width=".5"><path d="M78.7 95.8a5.5 5.5 0 10-9.7-.4 5.5 5.5 0 100 9.3 5.5 5.5 0 109.7-.4h17.1v17.2a5.5 5.5 0 10-.4 9.7 5.5 5.5 0 109.3 0 5.5 5.5 0 10-.4-9.7v-17.2h17.1a5.5 5.5 0 109.7.4 5.5 5.5 0 100-9.3 5.5 5.5 0 10-9.7.4h-17.1V78.7a5.5 5.5 0 10.4-9.7 5.5 5.5 0 10-9.3 0 5.5 5.5 0 10.4 9.7v17.2z"/></g><radialGradient id="backlight" cx="100%" cy="100%" r="150%"><stop stop-color="#fff" stop-opacity=".3" offset="0"/><stop stop-color="#fff" stop-opacity=".15" offset=".25"/><stop stop-color="#000" stop-opacity="0" offset="1"/></radialGradient></defs><g clip-path="url(#heater_coaworld_burg_43_burg_43_s0)"><rect x="0" y="0" width="200" height="200" fill="#d7374a"/><g fill="#fafafa" stroke="none"><polygon points="0,125 100,60 200,125 200,165 100,100 0,165"/></g><g fill="#ffe066" stroke="#000"><style>
      g.secondary,path.secondary {fill: #ffe066;}
      g.tertiary,path.tertiary {fill: #ffe066;}
    </style><use x:href="#crossBottony_coaworld_burg_43_burg_43_s0" transform="translate(-50 -50) scale(1.5)"/></g></g><path d="m25,25 h150 v50 a150,150,0,0,1,-75,125 a150,150,0,0,1,-75,-125 z" fill="url(#backlight)" stroke="#333"/></svg>