<svg id="coaworld_burg_442_burg_442_s-1" width="500" height="500" viewBox="0 10 200 200" xmlns="http://www.w3.org/2000/svg" xmlns:x="http://www.w3.org/1999/xlink"><defs><clipPath id="heater_coaworld_burg_442_burg_442_s-1"><path d="m25,25 h150 v50 a150,150,0,0,1,-75,125 a150,150,0,0,1,-75,-125 z"/></clipPath><clipPath id="divisionClip_coaworld_burg_442_burg_442_s-1"><rect x="100" y="0" width="100" height="200"/></clipPath><g id="annulet_coaworld_burg_442_burg_442_s-1"><path d="M70 100c0 16.569 13.431 30 30 30 16.569 0 30-13.431 30-30 0-16.569-13.431-30-30-30-16.569 0-30 13.431-30 30m10 0c0-11.046 8.954-20 20-20s20 8.954 20 20-8.954 20-20 20-20-8.954-20-20"/></g><radialGradient id="backlight" cx="100%" cy="100%" r="150%"><stop stop-color="#fff" stop-opacity=".3" offset="0"/><stop stop-color="#fff" stop-opacity=".15" offset=".25"/><stop stop-color="#000" stop-opacity="0" offset="1"/></radialGradient></defs><g clip-path="url(#heater_coaworld_burg_442_burg_442_s-1)"><rect x="0" y="0" width="200" height="200" fill="#fafafa"/><g fill="#522d5b" stroke="#000"><style>
      g.secondary,path.secondary {fill: #522d5b;}
      g.tertiary,path.tertiary {fill: #522d5b;}
    </style><use x:href="#annulet_coaworld_burg_442_burg_442_s-1" transform="translate(15.8 15.4) scale(0.18)"/><use x:href="#annulet_coaworld_burg_442_burg_442_s-1" transform="translate(60 15.4) scale(0.18)"/><use x:href="#annulet_coaworld_burg_442_burg_442_s-1" transform="translate(104 15.4) scale(0.18)"/><use x:href="#annulet_coaworld_burg_442_burg_442_s-1" transform="translate(148.2 15.4) scale(0.18)"/><use x:href="#annulet_coaworld_burg_442_burg_442_s-1" transform="translate(148.2 62) scale(0.18)"/><use x:href="#annulet_coaworld_burg_442_burg_442_s-1" transform="translate(137.5 108) scale(0.18)"/><use x:href="#annulet_coaworld_burg_442_burg_442_s-1" transform="translate(115 144) scale(0.18)"/><use x:href="#annulet_coaworld_burg_442_burg_442_s-1" transform="translate(82 171.5) scale(0.18)"/><use x:href="#annulet_coaworld_burg_442_burg_442_s-1" transform="translate(49 144) scale(0.18)"/><use x:href="#annulet_coaworld_burg_442_burg_442_s-1" transform="translate(26.5 108) scale(0.18)"/><use x:href="#annulet_coaworld_burg_442_burg_442_s-1" transform="translate(15.8 62) scale(0.18)"/></g><g clip-path="url(#divisionClip_coaworld_burg_442_burg_442_s-1)"><rect x="0" y="0" width="200" height="200" fill="#522d5b"/><g fill="#fafafa" stroke="#000"><style>
      g.secondary,path.secondary {fill: #fafafa;}
      g.tertiary,path.tertiary {fill: #fafafa;}
    </style><use x:href="#annulet_coaworld_burg_442_burg_442_s-1" transform="translate(15.8 15.4) scale(0.18)"/><use x:href="#annulet_coaworld_burg_442_burg_442_s-1" transform="translate(60 15.4) scale(0.18)"/><use x:href="#annulet_coaworld_burg_442_burg_442_s-1" transform="translate(104 15.4) scale(0.18)"/><use x:href="#annulet_coaworld_burg_442_burg_442_s-1" transform="translate(148.2 15.4) scale(0.18)"/><use x:href="#annulet_coaworld_burg_442_burg_442_s-1" transform="translate(148.2 62) scale(0.18)"/><use x:href="#annulet_coaworld_burg_442_burg_442_s-1" transform="translate(137.5 108) scale(0.18)"/><use x:href="#annulet_coaworld_burg_442_burg_442_s-1" transform="translate(115 144) scale(0.18)"/><use x:href="#annulet_coaworld_burg_442_burg_442_s-1" transform="translate(82 171.5) scale(0.18)"/><use x:href="#annulet_coaworld_burg_442_burg_442_s-1" transform="translate(49 144) scale(0.18)"/><use x:href="#annulet_coaworld_burg_442_burg_442_s-1" transform="translate(26.5 108) scale(0.18)"/><use x:href="#annulet_coaworld_burg_442_burg_442_s-1" transform="translate(15.8 62) scale(0.18)"/></g></g></g><path d="m25,25 h150 v50 a150,150,0,0,1,-75,125 a150,150,0,0,1,-75,-125 z" fill="url(#backlight)" stroke="#333"/></svg>