<svg id="coaworld_burg_446_burg_446_s0" width="500" height="500" viewBox="0 10 200 200" xmlns="http://www.w3.org/2000/svg"><defs><clipPath id="heater_coaworld_burg_446_burg_446_s0"><path d="m25,25 h150 v50 a150,150,0,0,1,-75,125 a150,150,0,0,1,-75,-125 z"/></clipPath><clipPath id="divisionClip_coaworld_burg_446_burg_446_s0"><polygon points="0,0 0,200 200,0 200,200"/></clipPath><pattern id="pally-or-gules" width="100" height="25" viewBox="0 0 100 25" patternUnits="userSpaceOnUse"><rect width="100" height="25" fill="#d7374a"/><rect x="25" y="0" width="25" height="25" fill="#ffe066"/><rect x="75" y="0" width="25" height="25" fill="#ffe066"/></pattern><radialGradient id="backlight" cx="100%" cy="100%" r="150%"><stop stop-color="#fff" stop-opacity=".3" offset="0"/><stop stop-color="#fff" stop-opacity=".15" offset=".25"/><stop stop-color="#000" stop-opacity="0" offset="1"/></radialGradient></defs><g clip-path="url(#heater_coaworld_burg_446_burg_446_s0)"><rect x="0" y="0" width="200" height="200" fill="url(#pally-or-gules)"/><g clip-path="url(#divisionClip_coaworld_burg_446_burg_446_s0)"><rect x="0" y="0" width="200" height="200" fill="#26c061"/></g><g fill="#522d5b" stroke="none"><polygon points="0,0 30,0 100,70 170,0 200,0 200,30 122,109 122,200 78,200 78,109 0,30"/></g></g><path d="m25,25 h150 v50 a150,150,0,0,1,-75,125 a150,150,0,0,1,-75,-125 z" fill="url(#backlight)" stroke="#333"/></svg>