<svg id="coaworld_burg_45_burg_45_s-1" width="500" height="500" viewBox="0 10 200 200" xmlns="http://www.w3.org/2000/svg"><defs><clipPath id="heater_coaworld_burg_45_burg_45_s-1"><path d="m25,25 h150 v50 a150,150,0,0,1,-75,125 a150,150,0,0,1,-75,-125 z"/></clipPath><clipPath id="divisionClip_coaworld_burg_45_burg_45_s-1"><polygon points="0,0 200,200 0,200"/></clipPath><pattern id="bendy-purpure-argent" width="100" height="100" viewBox="0 0 100 100" patternUnits="userSpaceOnUse"><rect width="100" height="100" fill="#522d5b"/><polygon points="0,25 75,100 25,100 0,75" fill="#fafafa"/><polygon points="25,0 75,0 100,25 100,75" fill="#fafafa"/></pattern><radialGradient id="backlight" cx="100%" cy="100%" r="150%"><stop stop-color="#fff" stop-opacity=".3" offset="0"/><stop stop-color="#fff" stop-opacity=".15" offset=".25"/><stop stop-color="#000" stop-opacity="0" offset="1"/></radialGradient></defs><g clip-path="url(#heater_coaworld_burg_45_burg_45_s-1)"><rect x="0" y="0" width="200" height="200" fill="url(#bendy-purpure-argent)"/><g clip-path="url(#divisionClip_coaworld_burg_45_burg_45_s-1)"><rect x="0" y="0" width="200" height="200" fill="#ffe066"/></g><g fill="#fafafa" stroke="none"><polygon points="0,0 30,0 100,70 170,0 200,0 200,30 122,109 122,200 78,200 78,109 0,30"/></g></g><path d="m25,25 h150 v50 a150,150,0,0,1,-75,125 a150,150,0,0,1,-75,-125 z" fill="url(#backlight)" stroke="#333"/></svg>