<svg id="coaworld_burg_452_burg_452_s0" width="500" height="500" viewBox="0 10 200 200" xmlns="http://www.w3.org/2000/svg" xmlns:x="http://www.w3.org/1999/xlink"><defs><clipPath id="heater_coaworld_burg_452_burg_452_s0"><path d="m25,25 h150 v50 a150,150,0,0,1,-75,125 a150,150,0,0,1,-75,-125 z"/></clipPath><g id="rustre_coaworld_burg_452_burg_452_s0"><path d="M100 55l30 45-30 45-30-45zm-12 45a12 12 0 1024 0 12 12 0 10-24 0"/></g><radialGradient id="backlight" cx="100%" cy="100%" r="150%"><stop stop-color="#fff" stop-opacity=".3" offset="0"/><stop stop-color="#fff" stop-opacity=".15" offset=".25"/><stop stop-color="#000" stop-opacity="0" offset="1"/></radialGradient></defs><g clip-path="url(#heater_coaworld_burg_452_burg_452_s0)"><rect x="0" y="0" width="200" height="200" fill="#522d5b"/><g fill="#fafafa" stroke="none"><path d="m 0,115 v -14.89 c 1.59,-2.01 4.5,-5.18 8.74,-5.18 2.26,0 4.12,1.54 4.45,3.55 -0.57,-0.31 -1.23,-0.48 -1.93,-0.48 -2.16,0 -3.91,1.63 -3.91,3.64 0,2.01 1.75,3.64 3.91,3.64 4.25,0 7.16,-3.17 8.74,-5.18c 1.59,-2.01 4.5,-5.18 8.74,-5.18 2.26,0 4.12,1.54 4.45,3.55 -0.57,-0.31 -1.23,-0.48 -1.93,-0.48 -2.16,0 -3.91,1.63 -3.91,3.64 0,2.01 1.75,3.64 3.91,3.64 4.25,0 7.16,-3.17 8.74,-5.18c 1.59,-2.01 4.5,-5.18 8.74,-5.18 2.26,0 4.12,1.54 4.45,3.55 -0.57,-0.31 -1.23,-0.48 -1.93,-0.48 -2.16,0 -3.91,1.63 -3.91,3.64 0,2.01 1.75,3.64 3.91,3.64 4.25,0 7.16,-3.17 8.74,-5.18c 1.59,-2.01 4.5,-5.18 8.74,-5.18 2.26,0 4.12,1.54 4.45,3.55 -0.57,-0.31 -1.23,-0.48 -1.93,-0.48 -2.16,0 -3.91,1.63 -3.91,3.64 0,2.01 1.75,3.64 3.91,3.64 4.25,0 7.16,-3.17 8.74,-5.18c 1.59,-2.01 4.5,-5.18 8.74,-5.18 2.26,0 4.12,1.54 4.45,3.55 -0.57,-0.31 -1.23,-0.48 -1.93,-0.48 -2.16,0 -3.91,1.63 -3.91,3.64 0,2.01 1.75,3.64 3.91,3.64 4.25,0 7.16,-3.17 8.74,-5.18c 1.59,-2.01 4.5,-5.18 8.74,-5.18 2.26,0 4.12,1.54 4.45,3.55 -0.57,-0.31 -1.23,-0.48 -1.93,-0.48 -2.16,0 -3.91,1.63 -3.91,3.64 0,2.01 1.75,3.64 3.91,3.64 4.25,0 7.16,-3.17 8.74,-5.18c 1.59,-2.01 4.5,-5.18 8.74,-5.18 2.26,0 4.12,1.54 4.45,3.55 -0.57,-0.31 -1.23,-0.48 -1.93,-0.48 -2.16,0 -3.91,1.63 -3.91,3.64 0,2.01 1.75,3.64 3.91,3.64 4.25,0 7.16,-3.17 8.74,-5.18c 1.59,-2.01 4.5,-5.18 8.74,-5.18 2.26,0 4.12,1.54 4.45,3.55 -0.57,-0.31 -1.23,-0.48 -1.93,-0.48 -2.16,0 -3.91,1.63 -3.91,3.64 0,2.01 1.75,3.64 3.91,3.64 4.25,0 7.16,-3.17 8.74,-5.18c 1.59,-2.01 4.5,-5.18 8.74,-5.18 2.26,0 4.12,1.54 4.45,3.55 -0.57,-0.31 -1.23,-0.48 -1.93,-0.48 -2.16,0 -3.91,1.63 -3.91,3.64 0,2.01 1.75,3.64 3.91,3.64 4.25,0 7.16,-3.17 8.74,-5.18c 1.59,-2.01 4.5,-5.18 8.74,-5.18 2.26,0 4.12,1.54 4.45,3.55 -0.57,-0.31 -1.23,-0.48 -1.93,-0.48 -2.16,0 -3.91,1.63 -3.91,3.64 0,2.01 1.75,3.64 3.91,3.64 4.25,0 7.16,-3.17 8.74,-5.18 v 14.89" transform="translate(0,-25) rotate(180.00001 100 100)"/><rect width="200" height="62" stroke="none"/></g><g fill="#377cd7" stroke="#000"><style>
      g.secondary,path.secondary {fill: #377cd7;}
      g.tertiary,path.tertiary {fill: #377cd7;}
    </style><use x:href="#rustre_coaworld_burg_452_burg_452_s0" transform="translate(6.25 0) scale(0.5)"/><use x:href="#rustre_coaworld_burg_452_burg_452_s0" transform="translate(50 0) scale(0.5)"/><use x:href="#rustre_coaworld_burg_452_burg_452_s0" transform="translate(93.75 0) scale(0.5)"/></g></g><path d="m25,25 h150 v50 a150,150,0,0,1,-75,125 a150,150,0,0,1,-75,-125 z" fill="url(#backlight)" stroke="#333"/></svg>