<svg id="coaworld_burg_475_burg_475_s-1" width="500" height="500" viewBox="0 10 200 200" xmlns="http://www.w3.org/2000/svg"><defs><clipPath id="heater_coaworld_burg_475_burg_475_s-1"><path d="m25,25 h150 v50 a150,150,0,0,1,-75,125 a150,150,0,0,1,-75,-125 z"/></clipPath><clipPath id="divisionClip_coaworld_burg_475_burg_475_s-1"><rect x="0" y="100" width="200" height="100"/></clipPath><g id="crossAnkh_coaworld_burg_475_burg_475_s-1" stroke-width=".5"><path d="M100 56c-9.32 0-15 9-15 19 0 8 4.01 14.1 10 23l-20-4v14l20-2-3 40h16l-3-40 20 2V94l-20 4c5.99-8.9 10-15 10-23 0-10-5.68-19-15-19zm8.84 20C109 85 104 90 100 96c-4-6-9-11-9-20 0-18 18-18 17.84 0z"/></g><pattern id="semy_of_crossAnkh-vert-argent" width="25" height="25" viewBox="0 0 200 200" patternUnits="userSpaceOnUse" stroke="#000"><rect width="200" height="200" fill="#26c061" stroke="none"/><g fill="#fafafa"><use transform="translate(-100 -50)" href="#crossAnkh_coaworld_burg_475_burg_475_s-1"/><use transform="translate(100 -50)" href="#crossAnkh_coaworld_burg_475_burg_475_s-1"/><use transform="translate(0 50)" href="#crossAnkh_coaworld_burg_475_burg_475_s-1"/></g></pattern><radialGradient id="backlight" cx="100%" cy="100%" r="150%"><stop stop-color="#fff" stop-opacity=".3" offset="0"/><stop stop-color="#fff" stop-opacity=".15" offset=".25"/><stop stop-color="#000" stop-opacity="0" offset="1"/></radialGradient></defs><g clip-path="url(#heater_coaworld_burg_475_burg_475_s-1)"><rect x="0" y="0" width="200" height="200" fill="url(#semy_of_crossAnkh-vert-argent)"/><g clip-path="url(#divisionClip_coaworld_burg_475_burg_475_s-1)"><rect x="0" y="0" width="200" height="200" fill="#ffe066"/></g><g fill="#fafafa" stroke="none"><polygon points="35,0 200,165 200,200 165,200 0,35 0,0"/></g></g><path d="m25,25 h150 v50 a150,150,0,0,1,-75,125 a150,150,0,0,1,-75,-125 z" fill="url(#backlight)" stroke="#333"/></svg>