<svg id="coaworld_burg_51_burg_51_s0" width="500" height="500" viewBox="0 10 200 200" xmlns="http://www.w3.org/2000/svg" xmlns:x="http://www.w3.org/1999/xlink"><defs><clipPath id="heater_coaworld_burg_51_burg_51_s0"><path d="m25,25 h150 v50 a150,150,0,0,1,-75,125 a150,150,0,0,1,-75,-125 z"/></clipPath><clipPath id="divisionClip_coaworld_burg_51_burg_51_s0"><rect x="100" y="0" width="100" height="200"/></clipPath><g id="scissors2_coaworld_burg_51_burg_51_s0" stroke-width="3" transform="matrix(0.22,0,0,0.22,67.7,61.2)"><path d="M265.57 1.5l-134 168.56-4.5 24.07c-.1 7.74-8.67 9.17-16.1 11.43-23.53 6.09-39.64 10.36-45.5 37.35-39.23-2.66-60.53 23.02-63.9 59.65-1.88 40.73 33.95 50.18 50.35 47.85 23.18-.38 58.99-57.4 34.28-92.5 2.15-18.1 15.69-19.26 28.93-20.7 27.48-7.19 30.98-23.48 45.72-35.37L263.8 69.78l1.78-68.28zM53.1 267.63c2.8.04 5.54.66 8.1 1.9 11.7 5.7 15.29 22.5 8 37.47-7.3 14.98-22.71 22.5-34.41 16.81-11.7-5.7-15.3-22.49-8-37.47 5.7-11.7 16.35-18.86 26.31-18.71z"/><path d="M23.85 2.22l6.63 73.06 96.1 123c4.83 2.28 8.55 15.82 12.5 27.13 11.14 1.97 9.05 6.63 26.46 9.18 17.61-.64 30.3 2.54 34.25 19.2-24.44 40.19-9.13 75.75 24.63 93.34 28.73 8.28 44.25-2.6 51.78-16.41 21.19-54.1-26.18-92.21-54-87.81-9.78-24.6-19.7-30.42-45.57-36.13-11.29-.48-6.89-10.8-9.71-16.37-.66-16.2-5.32-16.32-8.57-22.13L23.85 2.22zm208.16 266.06c10.17 0 20.73 7.99 25.69 20.4 6.08 15.29 1.4 31.54-10.5 36.29s-26.53-3.8-32.63-19.1c-6.1-15.28-1.37-31.53 10.53-36.28a18.5 18.5 0 016.9-1.3z"/><path d="M161.96 188.4a15.15 15.15 0 11-30.3 0 15.15 15.15 0 1130.3 0z"/><path d="M152.24 188.4a5.43 5.43 0 11-10.86 0 5.43 5.43 0 1110.86 0z"/><path stroke="none" fill="#000" d="M34.55 66.24l4.68 8.38 79.16 101.02 6.31 7.22-3.42-8.4-79.5-101.43c-1.98-1.67-9.31-10.53-7.23-6.8z"/></g><g id="pike_coaworld_burg_51_burg_51_s0" stroke-width=".32"><path class="secondary" d="M90.4 69.67c-1.34-.1-2.94.3-3.93 1.77-1.14 1.67-.8 4.1-1.95 6.24-.69 1.28-1.97 1.1-2.82 1a.17.17 0 00-.14.27c.58.72 3.03 2.19 4.51-.34 1.06-1.82.34-4.74 1.29-6.52.9-1.68 3.19-1.8 3.19-1.8m1.99-10.02s1.8-1.73 4.15-1.26c2.1.42 3.63 3.15 5.5 3.67 1.51.43 2.24-.34 2.88-.9.11-.1.29-.01.28.13a2.78 2.78 0 01-3.7 2.26c-2.2-.6-3.27-3.67-5.31-4.08-1.65-.32-2.79.47-3.57.73m2.1 24.04c-1.2-.01-3.28-.76-3.86-1.87-.17-.33-.07-.45.25-.67.84-.56 3.97-.41 6.4-1.03.2-.06 1.06-1.23 2-.76.22.12.22.58.03 1.2a5.26 5.26 0 01-1.43 1.94c-1.14 1.01-1.86 1.2-3.4 1.19zm11.97 47.39c-.11-2.31.75-4.78 1.9-6.86l-5.72-1.32c-.32.82-1.35 2.8-2.48 3.8-1.35 1.16-4.47 2.58-6.46 2.4-1.18-.1-2.74-.9-2.83-.9-.12.03.78 2.07 3.41 2.4.99 1.86 4.37 3.8 7.13 3.18.16 2.59 2.35 6.5 4.4 7.53.7 2.99 2.17 3 2.13 2.92-.71-1.24-.8-2.24-.3-4.24.1-.46.27-.9.35-1.37a5.86 5.86 0 00-.41-3.02 13.35 13.35 0 01-1.12-4.52z"/><path class="secondary" d="M115.02 102.5c-.13 9.17 1.19 14.86 1.6 16.9-.75.35-1.76.5-2.6.54a6.48 6.48 0 01-2.9-.46l-5.87-2.97a3.74 3.74 0 01-2.79.02c-.38-.12-1.03-.21-.81-.68.14-.32 4.07-7.72 3.15-12.69l7.43 2.07 2.79-2.73z"/><path fill="none" d="M106.18 142.46c-.15-1.87.44-2.81.55-4.01m-12.07-6.68c1.68.18 3.01-.3 4.1-.8"/><path class="secondary" d="M107.36 72.79c.03-.01 3.69 3.68 6.63 7.97 1.56 2.3 4.03 6.51 4.48 7.25.03.06-.03.06-.08.03-.3-.21-.8-.33-1.15-.2-.58.2-.73.86-.73.86s-.64-.52-1.14-.5c-.67.05-1.07.65-1.07.65s-.45-.75-.93-.7c-.5.06-.96.4-.94.89h-.01c-.06-.3-.13-.53-.4-.66l-3.32-4.47-3.2-7.42.1-1.95"/><path fill="none" d="M116.52 88.68c-.26-.6-2.25-5.42-5.98-10.5m3.76 10.66c-.4-.77-2.2-5.45-3.57-7.87"/><path d="M111.3 79.63c-1.14-2.94-2.08-4.16-3.48-6.37-.72-1.13-1.53-2.44-2.1-3.07a10.94 10.94 0 00-4.97-3.18c-.73-.24-1.27-.66-2.09-1.2-.44-.29-.66-.66-1.15-.82-3.04-2.38-3.63-4.5-4.7-5.52-.02-.49-.85-.83-1.41 0-.9 1.23-.69 3.27-.29 4.53 1.07 3.7 7.8 11.17 7.12 14.19-.13.25-3.47-4.87-5.94-7.49-.23-.24-1.8-1.94-2.54-2.7-.47-.4-.6-.59-.97-.47-.26.21-.03.81.72 1.61a72.9 72.9 0 014.92 6.17c.66 1 1.35 3.16 2.23 3.89a112 112 0 002.45 6.66c1.09 2.82 2.3 5.28 3.35 8.45 1.63 4.92 3.36 12 2.76 19.96-.2 2.78-1.08 7-2.06 9.6-.73 2.34-1.05 5.25.66 5.96 1.69.7 3.71-1.87 4.5-3.46l.56-1.17c.82-1.62 6.39-11.96 6.39-26.83-.02-8.4-1.82-13.26-3.95-18.74z"/><path class="secondary" d="M96.56 86.83c-1.1.43-3.3.52-4.25-.27-.28-.24-.28-.4-.05-.72.56-.84 3.13-1.85 5.56-3.35.03-.03.37-1.23 1.42-1.15.26.02.6.25.58.9-.03.79-.51 1.33-.72 1.78-.26.54-.15 1.03-.4 1.4-.47.68-1.11 1-2.14 1.4z"/><path fill="none" d="M92.8 59.46c-.46.3-1.07 1.8-.83 3.23.48 2.87 5.07 9.41 5.81 10.48"/><g fill="#000" stroke="none"><path d="M105.32 110.69a26.63 26.63 0 01-2.54 5.07 26.38 26.38 0 002.53-5.81l.01.74zm-.06 3.2c-.65 1.06-1.78 2.69-.57.79.14 0 .58-1.5.57-.79zm8.8-3.04a15.3 15.3 0 001.43 7.33 15.4 15.4 0 01-1.73-7.04l.3-.29zm-.99 3.78c.13 1.6 1.47 5.33.26 1.96-.07-.6-.67-1.42-.26-1.96zm-.92 2.87c.6 1.26.07.86 0 0zM97.03 82.33c-.2-.85.37-1.16.38-.82-.12.3-.25.27-.38.82zm-3.35 1.31c.95-.1 1.88-.53 2.72-.86-.58.8-1.8 1.16-2.72.86zm2.78-1.49c-.98.74-2.55 1.11-3.6.57 1.23.06 2.43-.22 3.6-.57zm10.1 56.29c.17-1.38-.33-3.95.22-1.18-.07.32.45 1.43-.22 1.18zm-7.87-7.62c1.2-.48 3.1-1.15.84-.1-.33.06-.74.77-.84.1zm6.66 7.52c-.13-1.75-.96-3.57-.2-5.28-.32 1.77.5 3.51.2 5.28zm-1.65-1.73c-.33-1.35-1.07-2.77-.18-4.12.77-1.79-.4 1.55-.04 2.28.09.6.37 1.25.22 1.84zm-5.93-4.01a23.2 23.2 0 004.12-1.88 5.93 5.93 0 01-4.12 1.88zm2.18 1.02c1.18-.57 2.15-1.89 2.94-2.76-.46 1.17-1.62 2.71-2.94 2.76zm2.15.41c-.1 1.6-.84.9 0 0zm4.68-57.16c0 3.16-3.63 5.77-6.59 4.41a5.4 5.4 0 006.38-3.6c.11-.23.13-.57.21-.81zm1.32 38.12c1.52-9.98.7-20.4-2.9-29.87.19.16 1.1 2.55 1.36 3.48a58.6 58.6 0 011.85 26.45c-.1 0-.2-.06-.31-.06z"/><path d="M106.27 123.18c1.04-2.61 1.47-5.41 1.83-8.19l.31.06c-.39 2.86-1.05 5.9-2.14 8.13zm-8.53-39.46c-.53-1.23.34-1.66.27-1.3-.05.26-.17.28-.25.84-.01.09-.05.38-.02.46zm-1.68 2.52c.57-.35 1.06-.9 1.51-1.33-.08.7-.79 1.47-1.51 1.33zm-1-.25c.83-.46 1.54-1.2 2.18-1.82a2.55 2.55 0 01-2.18 1.82zm2.17-2.49c-.6 1.06-1.95 2-3.13 1.89a11.64 11.64 0 003.13-1.89zm2.37-4.49c-.03 1-1.56 1.3-2.02.56.75.2 1.55.12 2.02-.56zm-1.69-5.93c.63 1.08 1.25 2.5 1 3.71a9.49 9.49 0 00-1.28-3.52l.28-.19zm-5.13-11.66c.62-.55 1.53 1.2.51.9-.97-.7.73.14-.02-.6-.12-.14-.29-.3-.49-.3zm6.86 7.2c.59.18 1.01 1.34.29.56-.03-.2-.3-.4-.29-.56z"/><path fill="#F6F6F6" stroke="#000" d="M101.03 68.85c2.2.14 2.67 3.7 0 2.87-1.16-.46-1.3-2.53 0-2.87z"/><path d="M101.16 69.93c.92-.42 1.09 1.3-.04.9-.27-.22-.28-.73.04-.9zm1.97.22c.46.39 1.57 2.46.43.84-.12-.32-1.05-.52-.43-.84zm-3.3-2.42c.35.51 2.03 1.68.64.91-.27-.25-.58-.52-.64-.91zm-1.21-1.76c-.38-.38-1.74.6-1.34-.01.21-.24 1.7-.75 1.34.01zm-1.15-.83c-.48-.22-1.04 0-1.44.17 0-.58 1.83-.99 1.44-.17z"/></g></g><pattern id="palyBendy-argent-azure" width="125.16" height="71.52" viewBox="0 0 175 100" patternUnits="userSpaceOnUse"><rect y="0" x="0" width="175" height="100" fill="#377cd7"/><g fill="#fafafa"><path d="m0 20 35 30v50l-35-30z"/><path d="m35 0 35 30v50l-35-30z"/><path d="m70 0h23l12 10v50l-35-30z"/><path d="m70 80 23 20h-23z"/><path d="m105 60 35 30v10h-35z"/><path d="m105 0h35v40l-35-30z"/><path d="m 140,40 35,30 v 30 h -23 l -12,-10z"/><path d="M 175,0 V 20 L 152,0 Z"/></g></pattern><radialGradient id="backlight" cx="100%" cy="100%" r="150%"><stop stop-color="#fff" stop-opacity=".3" offset="0"/><stop stop-color="#fff" stop-opacity=".15" offset=".25"/><stop stop-color="#000" stop-opacity="0" offset="1"/></radialGradient></defs><g clip-path="url(#heater_coaworld_burg_51_burg_51_s0)"><rect x="0" y="0" width="200" height="200" fill="url(#palyBendy-argent-azure)"/><g clip-path="url(#divisionClip_coaworld_burg_51_burg_51_s0)"><rect x="0" y="0" width="200" height="200" fill="#d7374a"/></g><g fill="#333333" stroke="#000"><style>
      g.secondary,path.secondary {fill: #333333;}
      g.tertiary,path.tertiary {fill: #333333;}
    </style><use x:href="#scissors2_coaworld_burg_51_burg_51_s0" transform="translate(-7.5 30) scale(0.7)"/></g><g fill="#ffe066" stroke="#000"><style>
      g.secondary,path.secondary {fill: #ffe066;}
      g.tertiary,path.tertiary {fill: #ffe066;}
    </style><use x:href="#pike_coaworld_burg_51_burg_51_s0" transform="translate(67.5 30) scale(0.7)"/></g></g><path d="m25,25 h150 v50 a150,150,0,0,1,-75,125 a150,150,0,0,1,-75,-125 z" fill="url(#backlight)" stroke="#333"/></svg>