<svg id="coaworld_burg_60_burg_60_s0" width="500" height="500" viewBox="0 10 200 200" xmlns="http://www.w3.org/2000/svg" xmlns:x="http://www.w3.org/1999/xlink"><defs><clipPath id="heater_coaworld_burg_60_burg_60_s0"><path d="m25,25 h150 v50 a150,150,0,0,1,-75,125 a150,150,0,0,1,-75,-125 z"/></clipPath><clipPath id="divisionClip_coaworld_burg_60_burg_60_s0"><rect x="100" y="0" width="100" height="200"/></clipPath><g id="triangle_coaworld_burg_60_burg_60_s0"><polygon points="100 60 135 130 65 130"/></g><radialGradient id="backlight" cx="100%" cy="100%" r="150%"><stop stop-color="#fff" stop-opacity=".3" offset="0"/><stop stop-color="#fff" stop-opacity=".15" offset=".25"/><stop stop-color="#000" stop-opacity="0" offset="1"/></radialGradient></defs><g clip-path="url(#heater_coaworld_burg_60_burg_60_s0)"><rect x="0" y="0" width="200" height="200" fill="#26c061"/><g fill="#ffe066" stroke="#000"><style>
      g.secondary,path.secondary {fill: #ffe066;}
      g.tertiary,path.tertiary {fill: #ffe066;}
    </style><use x:href="#triangle_coaworld_burg_60_burg_60_s0" transform="translate(-50 -50) scale(1.5)"/></g><g clip-path="url(#divisionClip_coaworld_burg_60_burg_60_s0)"><rect x="0" y="0" width="200" height="200" fill="#ffe066"/><g fill="#26c061" stroke="#000"><style>
      g.secondary,path.secondary {fill: #26c061;}
      g.tertiary,path.tertiary {fill: #26c061;}
    </style><use x:href="#triangle_coaworld_burg_60_burg_60_s0" transform="translate(-50 -50) scale(1.5)"/></g></g></g><path d="m25,25 h150 v50 a150,150,0,0,1,-75,125 a150,150,0,0,1,-75,-125 z" fill="url(#backlight)" stroke="#333"/></svg>