<svg id="coaworld_burg_73_burg_73_snan" width="500" height="500" viewBox="0 10 200 200" xmlns="http://www.w3.org/2000/svg" xmlns:x="http://www.w3.org/1999/xlink"><defs><clipPath id="heater_coaworld_burg_73_burg_73_snan"><path d="m25,25 h150 v50 a150,150,0,0,1,-75,125 a150,150,0,0,1,-75,-125 z"/></clipPath><g id="crossHummetty_coaworld_burg_73_burg_73_snan" stroke-width=".5"><path d="M90 60h20v30h30v20h-30v30H90v-30H60V90h30z"/></g><radialGradient id="backlight" cx="100%" cy="100%" r="150%"><stop stop-color="#fff" stop-opacity=".3" offset="0"/><stop stop-color="#fff" stop-opacity=".15" offset=".25"/><stop stop-color="#000" stop-opacity="0" offset="1"/></radialGradient></defs><g clip-path="url(#heater_coaworld_burg_73_burg_73_snan)"><rect x="0" y="0" width="200" height="200" fill="#522d5b"/><g fill="#ffe066" stroke="none"><path d="M 0,21 79,100 0,179 0,200 21,200 100,121 179,200 200,200 200,179 121,100 200,21 200,0 179,0 100,79 21,0 0,0 Z"/></g><g fill="#fafafa" stroke="#000"><style>
      g.secondary,path.secondary {fill: #fafafa;}
      g.tertiary,path.tertiary {fill: #fafafa;}
    </style><use x:href="#crossHummetty_coaworld_burg_73_burg_73_snan" transform="translate(-50 -50) scale(1.5)"/></g></g><path d="m25,25 h150 v50 a150,150,0,0,1,-75,125 a150,150,0,0,1,-75,-125 z" fill="url(#backlight)" stroke="#333"/></svg>