<svg id="coaworld_burg_86_burg_86_s0" width="500" height="500" viewBox="0 10 200 200" xmlns="http://www.w3.org/2000/svg" xmlns:x="http://www.w3.org/1999/xlink"><defs><clipPath id="heater_coaworld_burg_86_burg_86_s0"><path d="m25,25 h150 v50 a150,150,0,0,1,-75,125 a150,150,0,0,1,-75,-125 z"/></clipPath><clipPath id="divisionClip_coaworld_burg_86_burg_86_s0"><polygon points="0,0 200,200 0,200"/></clipPath><g id="mulletPierced_coaworld_burg_86_burg_86_s0"><path d="M100 60l8.98 27.64h29.06l-23.51 17.08 8.98 27.64L100 115.28l-23.51 17.08 8.98-27.64-23.51-17.08h29.06z M 108,100 a 8,8 0 0 0 -8,-8 8,8 0 0 0 -8,8 8,8 0 0 0 8,8 8,8 0 0 0 8,-8 z"/></g><g id="mullet_coaworld_burg_86_burg_86_s0"><polygon points="100 60 108.98 87.64 138.04 87.64 114.53 104.72 123.51 132.36 100 115.28 76.49 132.36 85.47 104.72 61.96 87.64 91.02 87.64"/></g><pattern id="semy_of_mullet-argent-sable" width="25" height="25" viewBox="0 0 200 200" patternUnits="userSpaceOnUse" stroke="#000"><rect width="200" height="200" fill="#fafafa" stroke="none"/><g fill="#333333"><use transform="translate(-100 -50)" href="#mullet_coaworld_burg_86_burg_86_s0"/><use transform="translate(100 -50)" href="#mullet_coaworld_burg_86_burg_86_s0"/><use transform="translate(0 50)" href="#mullet_coaworld_burg_86_burg_86_s0"/></g></pattern><radialGradient id="backlight" cx="100%" cy="100%" r="150%"><stop stop-color="#fff" stop-opacity=".3" offset="0"/><stop stop-color="#fff" stop-opacity=".15" offset=".25"/><stop stop-color="#000" stop-opacity="0" offset="1"/></radialGradient></defs><g clip-path="url(#heater_coaworld_burg_86_burg_86_s0)"><rect x="0" y="0" width="200" height="200" fill="#ffe066"/><g clip-path="url(#divisionClip_coaworld_burg_86_burg_86_s0)"><rect x="0" y="0" width="200" height="200" fill="url(#semy_of_mullet-argent-sable)"/></g><g fill="#377cd7" stroke="#000"><style>
      g.secondary,path.secondary {fill: #377cd7;}
      g.tertiary,path.tertiary {fill: #377cd7;}
    </style><use x:href="#mulletPierced_coaworld_burg_86_burg_86_s0" transform="translate(-50 -50) scale(1.5)"/></g></g><path d="m25,25 h150 v50 a150,150,0,0,1,-75,125 a150,150,0,0,1,-75,-125 z" fill="url(#backlight)" stroke="#333"/></svg>