<svg id="coaworld_burg_1_burg_1_s0" width="500" height="500" viewBox="0 10 200 200" xmlns="http://www.w3.org/2000/svg" xmlns:x="http://www.w3.org/1999/xlink"><defs><clipPath id="heater_coaworld_burg_1_burg_1_s0"><path d="m25,25 h150 v50 a150,150,0,0,1,-75,125 a150,150,0,0,1,-75,-125 z"/></clipPath><g id="feather_coaworld_burg_1_burg_1_s0" stroke-width=".5"><path stroke-linejoin="round" d="M109.97 60.12c-15.9 11.2-22.77 46.63-22.44 79.7.94-1.61.95-3.41 2.85-5.34-.42-4.58-.17-9.9.36-13.5.61-1.94 3.68-1.17 4.26.56.4 1.2.1 2.67-2.37 3.92 4.03.27 5.48-2.3 4.92-4.54-.45-1.82-2.28-2.95-4.2-2.8 1.44-1.12 3.5-.93 5.08-1.68 1.41-2.11 2.76-4.56 4.03-7.24-2.37 1.17-5.13 2.22-7.45 1.67 3.44-1.03 6.4-2.2 8.7-4.48 1.67-3.9 3.17-8.2 4.46-12.66-2.28 1.44-4.77 2.67-8.16 2.47 3.4-1.22 5.86-2.06 9.05-5.45 1.34-4.4 2.66-8.12 3.2-12.38-3.09 3-6.21 5.78-9.95 5.79 3.76-2.33 7.5-5.25 10.18-11.17-.15-3.58-.9-7.7-2.52-12.87z"/><path fill="none" d="M109.94 60.2c-12.13 16.34-19 40.79-19.2 60.79"/></g><radialGradient id="backlight" cx="100%" cy="100%" r="150%"><stop stop-color="#fff" stop-opacity=".3" offset="0"/><stop stop-color="#fff" stop-opacity=".15" offset=".25"/><stop stop-color="#000" stop-opacity="0" offset="1"/></radialGradient></defs><g clip-path="url(#heater_coaworld_burg_1_burg_1_s0)"><rect x="0" y="0" width="200" height="200" fill="#377cd7"/><g fill="#ffe066" stroke="#000"><style>
      g.secondary,path.secondary {fill: #ffe066;}
      g.tertiary,path.tertiary {fill: #ffe066;}
    </style><use x:href="#feather_coaworld_burg_1_burg_1_s0" transform="translate(-50 -50) scale(1.5)"/></g></g><path d="m25,25 h150 v50 a150,150,0,0,1,-75,125 a150,150,0,0,1,-75,-125 z" fill="url(#backlight)" stroke="#333"/></svg>