<svg id="coaworld_burg_100_burg_100_s0" width="500" height="500" viewBox="0 10 200 200" xmlns="http://www.w3.org/2000/svg" xmlns:x="http://www.w3.org/1999/xlink"><defs><clipPath id="heater_coaworld_burg_100_burg_100_s0"><path d="m25,25 h150 v50 a150,150,0,0,1,-75,125 a150,150,0,0,1,-75,-125 z"/></clipPath><g id="inescutcheon_coaworld_burg_100_burg_100_s0"><path transform="translate(66 66) scale(.34)" d="m25,25 h150 v50 a150,150,0,0,1,-75,125 a150,150,0,0,1,-75,-125 z"/></g><g id="crossMaltese_coaworld_burg_100_burg_100_s0" stroke-width=".5"><path d="M98 98L83 60l17 11 17-11-15 38 38-15-11 17 11 17-38-15 15 38-17-11-17 11 15-38-38 15 11-17-11-17z"/></g><radialGradient id="backlight" cx="100%" cy="100%" r="150%"><stop stop-color="#fff" stop-opacity=".3" offset="0"/><stop stop-color="#fff" stop-opacity=".15" offset=".25"/><stop stop-color="#000" stop-opacity="0" offset="1"/></radialGradient></defs><g clip-path="url(#heater_coaworld_burg_100_burg_100_s0)"><rect x="0" y="0" width="200" height="200" fill="#fafafa"/><g fill="#333333" stroke="none"><path d="m 0,115 c 0,0 60,-19.8 100,-20 c 40,-0.2 100,20 100,20" transform="translate(0 -14.5)"/><path d="m 0,115 c 0,0 60,-19.8 100,-20 c 40,-0.2 100,20 100,20" transform="rotate(180 100 100) translate(0 -14.5)"/><path d="m 0,115 c 0,0 60,-19.8 100,-20 c 40,-0.2 100,20 100,20" transform="rotate(-90 100 100) translate(0 -14.5)"/><path d="m 0,115 c 0,0 60,-19.8 100,-20 c 40,-0.2 100,20 100,20" transform="rotate(-270 100 100) translate(0 -14.5)"/></g><g fill="#ffe066" stroke="#000"><style>
      g.secondary,path.secondary {fill: #ffe066;}
      g.tertiary,path.tertiary {fill: #ffe066;}
    </style><use x:href="#inescutcheon_coaworld_burg_100_burg_100_s0" transform="translate(70 20) scale(0.3)"/><use x:href="#inescutcheon_coaworld_burg_100_burg_100_s0" transform="translate(70 70) scale(0.3)"/><use x:href="#inescutcheon_coaworld_burg_100_burg_100_s0" transform="translate(70 120) scale(0.3)"/></g><g fill="#d7374a" stroke="#000"><style>
      g.secondary,path.secondary {fill: #d7374a;}
      g.tertiary,path.tertiary {fill: #d7374a;}
    </style><use x:href="#crossMaltese_coaworld_burg_100_burg_100_s0" transform="translate(85 35) scale(0.15)"/><use x:href="#crossMaltese_coaworld_burg_100_burg_100_s0" transform="translate(85 85) scale(0.15)"/><use x:href="#crossMaltese_coaworld_burg_100_burg_100_s0" transform="translate(85 135) scale(0.15)"/></g></g><path d="m25,25 h150 v50 a150,150,0,0,1,-75,125 a150,150,0,0,1,-75,-125 z" fill="url(#backlight)" stroke="#333"/></svg>