<svg id="coaworld_burg_112_burg_112_s0" width="500" height="500" viewBox="0 10 200 200" xmlns="http://www.w3.org/2000/svg" xmlns:x="http://www.w3.org/1999/xlink"><defs><clipPath id="heater_coaworld_burg_112_burg_112_s0"><path d="m25,25 h150 v50 a150,150,0,0,1,-75,125 a150,150,0,0,1,-75,-125 z"/></clipPath><g id="mullet4_coaworld_burg_112_burg_112_s0"><polygon points="100 60 109.9 90.1 140 100 109.9 109.9 100 140 90.1 109.9 60 100 90.1 90.1"/></g><pattern id="potent-argent-azure-small" width="20" height="20" viewBox="0 0 200 200" patternUnits="userSpaceOnUse" stroke="#000"><rect width="200" height="100" fill="#fafafa" stroke="none"/><rect y="100" width="200" height="100" fill="#377cd7" stroke="none"/><path d="m25 50h50v-50h50v50h50v50h-150z" fill="#377cd7"/><path d="m25 100v50h50v50h50v-50h50v-50z" fill="#fafafa"/><path d="m0 0h200 M0 100h200" fill="none"/></pattern><radialGradient id="backlight" cx="100%" cy="100%" r="150%"><stop stop-color="#fff" stop-opacity=".3" offset="0"/><stop stop-color="#fff" stop-opacity=".15" offset=".25"/><stop stop-color="#000" stop-opacity="0" offset="1"/></radialGradient></defs><g clip-path="url(#heater_coaworld_burg_112_burg_112_s0)"><rect x="0" y="0" width="200" height="200" fill="url(#potent-argent-azure-small)"/><g fill="#d7374a" stroke="#000"><style>
      g.secondary,path.secondary {fill: #d7374a;}
      g.tertiary,path.tertiary {fill: #d7374a;}
    </style><use x:href="#mullet4_coaworld_burg_112_burg_112_s0" transform="translate(-50 -50) scale(1.5)"/></g></g><path d="m25,25 h150 v50 a150,150,0,0,1,-75,125 a150,150,0,0,1,-75,-125 z" fill="url(#backlight)" stroke="#333"/></svg>