<svg id="coaworld_burg_127_burg_127_s0" width="500" height="500" viewBox="0 10 200 200" xmlns="http://www.w3.org/2000/svg" xmlns:x="http://www.w3.org/1999/xlink"><defs><clipPath id="heater_coaworld_burg_127_burg_127_s0"><path d="m25,25 h150 v50 a150,150,0,0,1,-75,125 a150,150,0,0,1,-75,-125 z"/></clipPath><clipPath id="divisionClip_coaworld_burg_127_burg_127_s0"><rect x="100" y="0" width="100" height="200"/></clipPath><g id="lighthouse_coaworld_burg_127_burg_127_s0" stroke-width=".516"><path d="M95.275 79.722h9.45l3.663 59.63c-5.525.866-11.122.805-16.776 0z"/><path stroke-linejoin="bevel" d="M105.373 86.815c-3.861.78-6.986.995-10.698.075l.329-3.824-3.489-2.136.006-4.266.769-.002.025 2.824 2.062.01-.024-3.295-.861-.93-.41-1.373 1.533-.046V66.07l-1.073-.048c1.045-1.755 2.863-2.902 5.656-3.544l.025-.299c-.696-.213-.782-.983-.404-1.356.694-.893 1.438-1.145 2.293.055.292.418.223 1.106-.5 1.342l-.014.263c2.71.713 4.561 1.795 5.523 3.62l-.895.008.002 7.808 1.522.011-.436 1.355-.848.96v3.298l2.146.01v-2.928l.835-.001-.066 4.227-3.35 2.25.342 3.714z"/><path class="tertiary" d="M95.415 66.227h4.204v2.572h-4.204zm0 3.37h4.204v4.148h-4.204zm4.956-3.37h3.915v2.572h-3.915zm0 3.37h3.915v4.148h-3.915z"/><line x1="94.377" y1="79.495" x2="105.466" y2="79.543"/><path d="M91.21 74.75h17.58c.095 0 .171.16.171.354v.531c0 .487-.191.885-.426.885h-17.07c-.234 0-.426-.398-.426-.885v-.53c0-.196.076-.355.17-.355z"/><path fill="none" d="M91.825 137h16.333m-16.133-3h15.883m-9.907 3v-3m-4 3v-3m8 3v-3m4 3v-3m-13.776-3h15.533m-15.433-3h15.283m-9.607 3v-3m-4 3v-3m8 3v-3m4 3v-3m-13.442-3h14.833m-14.633-3h14.483M98 125v-3m-4 3v-3m8 3v-3m4 3v-3m-13.116-3h14.133m-13.933-3h13.783M98 119v-3m-4 3v-3m8 3v-3m4 3v-3m-10 18v-3m4 3v-3m4 3v-3m-8-3v-3m4 3v-3m4 3v-3m-8-3v-3m4 3v-3m4 3v-3M93.3 113h13.383m-6.681 3v-3m-4 3v-3m8 3v-3m-10.471-3h12.983m-8.512 3v-3m-4 3v-3m8 3v-3m-8.38-2.996 12.683-.004m-6.303 3v-3m-4 3v-3m8 3v-3m-10.162-3h12.283m-8.121 3v-3m4 3v-3m4 9v-3m-6-6v-3m-4 3v-3m8 3v-3m-9.944 0h11.884m-7.94 0v-3m4 3v-3m-2 0v-3m-4 3v-3m8 3v-3m-9.83 3h11.582M94.38 95h11.283m-7.661 0v-3m4 3v-3m-7.442 0h10.883M100 92v-3m-4 3v-3m8 3v-3m-9.303 0h10.583M98 89v-1.5m4 1.5v-1.5m-6 52.3V137m4 3v-3m4 2.8V137"/><g class="secondary"><path d="M98.799 114.702c0-.671.503-1.074 1.181-1.074.68 0 1.207.425 1.207 1.186V119h-2.388z"/><path d="M98.799 96.702c0-.671.503-1.074 1.181-1.074.68 0 1.207.425 1.207 1.186V101h-2.388z"/><path d="M97.564 133.372c0-1.018 1.019-1.63 2.394-1.63 1.374 0 2.443.646 2.443 1.8v6.345h-4.836z"/></g></g><g id="comet_coaworld_burg_127_burg_127_s0" stroke-width=".5" transform="translate(60 60) scale(0.4)"><path d="M91.05 69.92c-.38-.29-6.94 2.9-14.63 7.26-7.7 4.19-14.06 7.66-14.25 7.48-.1-.1 3.51-5.89 8.17-12.96 4.56-6.95 8.17-13.15 7.88-13.72-.28-.56-7.5-2.63-16.15-4.61-8.75-2.03-15.21-3.89-14.58-4.22.62-.31 6.1-1.67 12.21-3 6.08-1.33 12.92-2.81 15.1-3.3 2.28-.51 4.09-1.29 4.09-1.73 0-.46-3.71-6.53-8.17-13.52-4.47-6.98-7.98-12.83-7.79-13.01.19-.18 6.36 3.16 13.77 7.43 7.41 4.26 13.87 7.73 14.35 7.71.47 0 2.56-6.47 4.65-14.37C97.8 7.46 99.83-.55 100 0l4.3 13.97c2.5 8.1 4 15.31 4.4 15.7.3.38 6.7-2.73 14.3-6.98 7.5-4.23 13.9-7.51 14.2-7.3.1.22-3.5 6.14-8 13.18-4.7 7.03-8.1 13.05-7.7 13.37.4.3 7.6 2.17 16 4.14 8.4 1.97 15.3 3.8 15.3 4.05 0 .26-7.1 2.05-15.7 3.95-10.6 2.31-15.8 3.81-15.8 4.47 0 .66 3.7 6.76 8.1 13.71 4.4 6.89 8 12.77 8 13.06.1.19-6.2-3.19-13.9-7.67-7.7-4.45-14.2-8.11-14.6-8.11-1.5 2.82-4.8 3.85-5.8 24.08-.4 10.08 11.9 21.08 11.4 32.68-.5 16.7-16 23.2-16.7 37.9-.9 20.8 3.7 32.8 2.2 35.8-1.4-2.7-11.99-17.7-12.37-38.6-.29-15.5 13.97-18.1 13.67-35.7-.2-11.1-12.06-23.7-12.44-33.24-.57-19.73 4.09-20.2 2.19-22.54z"/></g><pattern id="chainy-argent-vert-small" width="26.72" height="26.72" viewBox="0 0 200 200" patternUnits="userSpaceOnUse" stroke="#000" stroke-width="2"><rect x="-6.691e-6" width="200" height="200" fill="#fafafa" stroke="none"/><path d="m155-5-20-20-160 160 20 20z" fill="#26c061"/><path d="m45 205 160-160 20 20-160 160z" fill="#26c061"/><path d="m45-5 20-20 160 160-20 20-160-160" fill="#26c061"/><path d="m-5 45-20 20 160 160 20-20-160-160" fill="#26c061"/></pattern><radialGradient id="backlight" cx="100%" cy="100%" r="150%"><stop stop-color="#fff" stop-opacity=".3" offset="0"/><stop stop-color="#fff" stop-opacity=".15" offset=".25"/><stop stop-color="#000" stop-opacity="0" offset="1"/></radialGradient></defs><g clip-path="url(#heater_coaworld_burg_127_burg_127_s0)"><rect x="0" y="0" width="200" height="200" fill="url(#chainy-argent-vert-small)"/><g clip-path="url(#divisionClip_coaworld_burg_127_burg_127_s0)"><rect x="0" y="0" width="200" height="200" fill="#377cd7"/></g><g fill="#d7374a" stroke="#000"><style>
      g.secondary,path.secondary {fill: #522d5b;}
      g.tertiary,path.tertiary {fill: #d7374a;}
    </style><use x:href="#lighthouse_coaworld_burg_127_burg_127_s0" transform="translate(-7.5 30) scale(0.7)"/></g><g fill="#ffe066" stroke="#000"><style>
      g.secondary,path.secondary {fill: #ffe066;}
      g.tertiary,path.tertiary {fill: #ffe066;}
    </style><use x:href="#comet_coaworld_burg_127_burg_127_s0" transform="translate(67.5 30) scale(0.7)"/></g></g><path d="m25,25 h150 v50 a150,150,0,0,1,-75,125 a150,150,0,0,1,-75,-125 z" fill="url(#backlight)" stroke="#333"/></svg>