<svg id="coaworld_burg_13_burg_13_s0" width="500" height="500" viewBox="0 10 200 200" xmlns="http://www.w3.org/2000/svg" xmlns:x="http://www.w3.org/1999/xlink"><defs><clipPath id="heater_coaworld_burg_13_burg_13_s0"><path d="m25,25 h150 v50 a150,150,0,0,1,-75,125 a150,150,0,0,1,-75,-125 z"/></clipPath><g id="sickle_coaworld_burg_13_burg_13_s0" stroke-width=".3"><g><path d="M96.16 137.26c0 1.96 1.7 2.67 3.8 2.67s3.8-.71 3.8-2.67c0-.72-1.05-4.2-1.24-8.37-.1-2.32.8-4.82.57-7.2-.53-5.2-1.47-7.82-3.13-7.82-1.67 0-2.61 2.63-3.14 7.85-.24 2.36.66 4.87.58 7.18-.18 4.16-1.24 7.64-1.24 8.36z"/><line fill="none" x1="103.75" y1="137.26" x2="96.16" y2="137.26"/><line fill="none" x1="103.08" y1="121.69" x2="96.8" y2="121.69"/></g><path class="secondary" stroke-linejoin="round" d="M129.34 88.37a28.21 28.21 0 0 0-28.11-28.3c-13.69 0-23.27 7.31-25.84 19.32a23.3 23.3 0 0 1 18.87-9.93c12.96 0 23.46 9.7 23.46 21.66 0 11.49-9.67 20.88-21.9 21.61v6.22h8.16v-2.41a28.23 28.23 0 0 0 25.36-28.16z"/><path class="secondary" stroke-linejoin="round" d="M101.22 60.07c-13.68 0-23.25 7.31-25.83 19.32l.1-.16.14-.48c3.18-6.37 10.59-10.68 19.32-10.68 13.66 0 24.55 10.43 24.55 23.06 0 12.11-10.6 22.73-23.69 21.6v6.22h8.17v-2.41a28.23 28.23 0 0 0 25.36-28.16 28.21 28.21 0 0 0-28.11-28.3z"/></g><radialGradient id="backlight" cx="100%" cy="100%" r="150%"><stop stop-color="#fff" stop-opacity=".3" offset="0"/><stop stop-color="#fff" stop-opacity=".15" offset=".25"/><stop stop-color="#000" stop-opacity="0" offset="1"/></radialGradient></defs><g clip-path="url(#heater_coaworld_burg_13_burg_13_s0)"><rect x="0" y="0" width="200" height="200" fill="#d7374a"/><g fill="#fafafa" stroke="none"><path d="m25,25 h150 v50 a150,150,0,0,1,-75,125 a150,150,0,0,1,-75,-125 z" fill="none" stroke="#fafafa" stroke-width="16.7%"/></g><g fill="#522d5b" stroke="#000"><style>
      g.secondary,path.secondary {fill: #522d5b;}
      g.tertiary,path.tertiary {fill: #522d5b;}
    </style><use x:href="#sickle_coaworld_burg_13_burg_13_s0" transform="translate(15.8 15.4) scale(0.18)"/><use x:href="#sickle_coaworld_burg_13_burg_13_s0" transform="translate(60 15.4) scale(0.18)"/><use x:href="#sickle_coaworld_burg_13_burg_13_s0" transform="translate(104 15.4) scale(0.18)"/><use x:href="#sickle_coaworld_burg_13_burg_13_s0" transform="translate(148.2 15.4) scale(0.18)"/><use x:href="#sickle_coaworld_burg_13_burg_13_s0" transform="translate(148.2 62) scale(0.18)"/><use x:href="#sickle_coaworld_burg_13_burg_13_s0" transform="translate(137.5 108) scale(0.18)"/><use x:href="#sickle_coaworld_burg_13_burg_13_s0" transform="translate(115 144) scale(0.18)"/><use x:href="#sickle_coaworld_burg_13_burg_13_s0" transform="translate(82 171.5) scale(0.18)"/><use x:href="#sickle_coaworld_burg_13_burg_13_s0" transform="translate(49 144) scale(0.18)"/><use x:href="#sickle_coaworld_burg_13_burg_13_s0" transform="translate(26.5 108) scale(0.18)"/><use x:href="#sickle_coaworld_burg_13_burg_13_s0" transform="translate(15.8 62) scale(0.18)"/></g></g><path d="m25,25 h150 v50 a150,150,0,0,1,-75,125 a150,150,0,0,1,-75,-125 z" fill="url(#backlight)" stroke="#333"/></svg>