<svg id="coaworld_burg_133_burg_133_s-1" width="500" height="500" viewBox="0 10 200 200" xmlns="http://www.w3.org/2000/svg" xmlns:x="http://www.w3.org/1999/xlink"><defs><clipPath id="heater_coaworld_burg_133_burg_133_s-1"><path d="m25,25 h150 v50 a150,150,0,0,1,-75,125 a150,150,0,0,1,-75,-125 z"/></clipPath><g id="chain_coaworld_burg_133_burg_133_s-1" stroke-width=".36"><path d="M99.272 116.408c-2.844 0-5.616-1.416-7.776-3.996-2.508-2.976-3.9-7.032-3.9-11.4s1.38-8.424 3.9-11.4c2.172-2.58 4.932-3.996 7.776-3.996s5.616 1.416 7.776 3.996c2.508 2.976 3.9 7.032 3.9 11.4s-1.38 8.424-3.9 11.4c-2.172 2.58-4.932 3.996-7.776 3.996m0 8.232c10.992 0 19.908-10.584 19.908-23.64s-8.916-23.64-19.908-23.64S79.364 87.944 79.364 101s8.904 23.64 19.908 23.64z"/><path d="M90.236 79.94c-1.716-2.736-2.652-6.108-2.652-9.696 0-2.484.444-4.86 1.284-6.996a44.67 44.67 0 0 1-7.788-2.664 27.298 27.298 0 0 0-1.74 9.66c0 5.88 1.812 11.244 4.8 15.384 1.704-2.34 3.768-4.284 6.096-5.688z"/><path d="M117.44 60.584a45.015 45.015 0 0 1-7.788 2.664c.84 2.136 1.284 4.512 1.284 6.996 0 4.38-1.38 8.424-3.9 11.4-2.172 2.58-4.932 3.996-7.776 3.996-.18 0-.36 0-.528-.012-2.664.168-5.208 1.56-7.248 3.972-.456.54-.864 1.116-1.248 1.716 2.712 1.632 5.772 2.568 9.024 2.568 10.992 0 19.908-10.584 19.908-23.64a27.03 27.03 0 0 0-1.728-9.66z"/><path d="M90.248 122.072c-2.328-1.416-4.404-3.348-6.096-5.688-2.988 4.14-4.8 9.504-4.8 15.384 0 3.444.624 6.708 1.74 9.66a45.015 45.015 0 0 1 7.788-2.664c-.84-2.136-1.284-4.512-1.284-6.996 0-3.588.924-6.948 2.652-9.696z"/><path d="M99.272 108.128c-3.252 0-6.312.924-9.024 2.568.372.6.792 1.176 1.248 1.716 2.028 2.412 4.584 3.816 7.248 3.972.18-.012.348-.012.528-.012 2.844 0 5.616 1.416 7.776 3.996 2.508 2.976 3.9 7.032 3.9 11.4 0 2.484-.444 4.86-1.284 6.996a44.67 44.67 0 0 1 7.788 2.664 27.298 27.298 0 0 0 1.74-9.66c-.012-13.056-8.928-23.64-19.92-23.64z"/></g><radialGradient id="backlight" cx="100%" cy="100%" r="150%"><stop stop-color="#fff" stop-opacity=".3" offset="0"/><stop stop-color="#fff" stop-opacity=".15" offset=".25"/><stop stop-color="#000" stop-opacity="0" offset="1"/></radialGradient></defs><g clip-path="url(#heater_coaworld_burg_133_burg_133_s-1)"><rect x="0" y="0" width="200" height="200" fill="#fafafa"/><g fill="#377cd7" stroke="none"><polygon points="0,0 30,0 100,70 170,0 200,0 200,30 122,109 122,200 78,200 78,109 0,30"/></g><g fill="#522d5b" stroke="#000"><style>
      g.secondary,path.secondary {fill: #522d5b;}
      g.tertiary,path.tertiary {fill: #522d5b;}
    </style><use x:href="#chain_coaworld_burg_133_burg_133_s-1" transform="translate(60 15.4) scale(0.18)"/><use x:href="#chain_coaworld_burg_133_burg_133_s-1" transform="translate(104 15.4) scale(0.18)"/><use x:href="#chain_coaworld_burg_133_burg_133_s-1" transform="translate(15.8 62) scale(0.18)"/><use x:href="#chain_coaworld_burg_133_burg_133_s-1" transform="translate(137.5 108) scale(0.18)"/><use x:href="#chain_coaworld_burg_133_burg_133_s-1" transform="translate(148.2 62) scale(0.18)"/><use x:href="#chain_coaworld_burg_133_burg_133_s-1" transform="translate(49 144) scale(0.18)"/><use x:href="#chain_coaworld_burg_133_burg_133_s-1" transform="translate(115 144) scale(0.18)"/><use x:href="#chain_coaworld_burg_133_burg_133_s-1" transform="translate(26.5 108) scale(0.18)"/><use x:href="#chain_coaworld_burg_133_burg_133_s-1" transform="translate(82 32) scale(0.18)"/><use x:href="#chain_coaworld_burg_133_burg_133_s-1" transform="translate(38.25 82) scale(0.18)"/><use x:href="#chain_coaworld_burg_133_burg_133_s-1" transform="translate(52 112) scale(0.18)"/><use x:href="#chain_coaworld_burg_133_burg_133_s-1" transform="translate(125.75 82) scale(0.18)"/><use x:href="#chain_coaworld_burg_133_burg_133_s-1" transform="translate(112 112) scale(0.18)"/></g></g><path d="m25,25 h150 v50 a150,150,0,0,1,-75,125 a150,150,0,0,1,-75,-125 z" fill="url(#backlight)" stroke="#333"/></svg>