<svg id="coaworld_burg_194_harrow_s_dock_s0" width="500" height="500" viewBox="0 10 200 200" xmlns="http://www.w3.org/2000/svg" xmlns:x="http://www.w3.org/1999/xlink"><defs><clipPath id="heater_coaworld_burg_194_harrow_s_dock_s0"><path d="m25,25 h150 v50 a150,150,0,0,1,-75,125 a150,150,0,0,1,-75,-125 z"/></clipPath><clipPath id="divisionClip_coaworld_burg_194_harrow_s_dock_s0"><polygon points="200,0 0,200 200,200"/></clipPath><g id="mullet6_coaworld_burg_194_harrow_s_dock_s0"><polygon points="100 60 107.64 86.77 134.64 80 115.28 100 134.64 120 107.64 113.23 100 140 92.36 113.23 65.36 120 84.72 100 65.36 80 92.36 86.77"/></g><radialGradient id="backlight" cx="100%" cy="100%" r="150%"><stop stop-color="#fff" stop-opacity=".3" offset="0"/><stop stop-color="#fff" stop-opacity=".15" offset=".25"/><stop stop-color="#000" stop-opacity="0" offset="1"/></radialGradient></defs><g clip-path="url(#heater_coaworld_burg_194_harrow_s_dock_s0)"><rect x="0" y="0" width="200" height="200" fill="#fafafa"/><g fill="#377cd7" stroke="#000"><style>
      g.secondary,path.secondary {fill: #377cd7;}
      g.tertiary,path.tertiary {fill: #377cd7;}
    </style><use x:href="#mullet6_coaworld_burg_194_harrow_s_dock_s0" transform="translate(-7.5 -7.5) scale(0.7)"/><use x:href="#mullet6_coaworld_burg_194_harrow_s_dock_s0" transform="translate(60 60) scale(0.7)"/></g><g clip-path="url(#divisionClip_coaworld_burg_194_harrow_s_dock_s0)"><rect x="0" y="0" width="200" height="200" fill="#377cd7"/><g fill="#fafafa" stroke="#000"><style>
      g.secondary,path.secondary {fill: #fafafa;}
      g.tertiary,path.tertiary {fill: #fafafa;}
    </style><use x:href="#mullet6_coaworld_burg_194_harrow_s_dock_s0" transform="translate(-7.5 -7.5) scale(0.7)"/><use x:href="#mullet6_coaworld_burg_194_harrow_s_dock_s0" transform="translate(60 60) scale(0.7)"/></g></g></g><path d="m25,25 h150 v50 a150,150,0,0,1,-75,125 a150,150,0,0,1,-75,-125 z" fill="url(#backlight)" stroke="#333"/></svg>