<svg id="coaworld_burg_208_burg_208_s-1" width="500" height="500" viewBox="0 10 200 200" xmlns="http://www.w3.org/2000/svg" xmlns:x="http://www.w3.org/1999/xlink"><defs><clipPath id="heater_coaworld_burg_208_burg_208_s-1"><path d="m25,25 h150 v50 a150,150,0,0,1,-75,125 a150,150,0,0,1,-75,-125 z"/></clipPath><g id="lanceWithBanner_coaworld_burg_208_burg_208_s-1" stroke-width="2.5" transform="matrix(0.185,0,0,0.185,140.3,114.6)"><path class="secondary" d="M-249.73-27.31c-6.8-23.97-14.78-27.25-20.1-44.83 19.47-34.63 60.7-23.43 60.7-23.43l.08-151.9c-11 3.58-67.14 22.88-83.09 105.12-15.94 82.25 1.82 116.19 11.8 129.06 3.54 4 6.95 8.28 10.62 12.06-1.65 7.64-7.84 29.4-23.88 33.26 11.67 12.83 31.04 4.67 38.94-2.97 6.3-8.78 12.12-31.02 4.93-56.37z"/><path d="M-200.5-247.46h-8.39l-.28 382.6 8.38.01z"/><path class="tertiary" d="M-204.65-291.64l-12.93 25.9s8.59 7.63 8.58 18.24h8.39c0-10.6 8.84-18.23 8.84-18.23z"/><path fill="none" d="M-269.72-1.23c8.01 8.1 16.19 14.95 15.06 30.3m-25.69-42.36s-7-29.76 10.51-58.85"/></g><radialGradient id="backlight" cx="100%" cy="100%" r="150%"><stop stop-color="#fff" stop-opacity=".3" offset="0"/><stop stop-color="#fff" stop-opacity=".15" offset=".25"/><stop stop-color="#000" stop-opacity="0" offset="1"/></radialGradient></defs><g clip-path="url(#heater_coaworld_burg_208_burg_208_s-1)"><rect x="0" y="0" width="200" height="200" fill="#ffe066"/><g fill="#522d5b" stroke="none"><polygon points="200,200 200,144 25,25 145,200"/></g><g fill="#ffe066" stroke="#000"><style>
      g.secondary,path.secondary {fill: #ffe066;}
      g.tertiary,path.tertiary {fill: #ffe066;}
    </style><use x:href="#lanceWithBanner_coaworld_burg_208_burg_208_s-1" transform="translate(50 50) scale(0.5)"/><use x:href="#lanceWithBanner_coaworld_burg_208_burg_208_s-1" transform="translate(80 80) scale(0.5)"/></g></g><path d="m25,25 h150 v50 a150,150,0,0,1,-75,125 a150,150,0,0,1,-75,-125 z" fill="url(#backlight)" stroke="#333"/></svg>