<svg id="coaworld_burg_209_burg_209_s-1" width="500" height="500" viewBox="0 10 200 200" xmlns="http://www.w3.org/2000/svg" xmlns:x="http://www.w3.org/1999/xlink"><defs><clipPath id="heater_coaworld_burg_209_burg_209_s-1"><path d="m25,25 h150 v50 a150,150,0,0,1,-75,125 a150,150,0,0,1,-75,-125 z"/></clipPath><clipPath id="divisionClip_coaworld_burg_209_burg_209_s-1"><path d="m 0,115 v -20 l 10,10 v -10l 10,10 v -10l 10,10 v -10l 10,10 v -10l 10,10 v -10l 10,10 v -10l 10,10 v -10l 10,10 v -10l 10,10 v -10l 10,10 v -10l 10,10 v -10l 10,10 v -10l 10,10 v -10l 10,10 v -10l 10,10 v -10l 10,10 v -10l 10,10 v -10l 10,10 v -10l 10,10 v -10 l 10,10 v 10 V200 H0 Z"/></clipPath><g id="carreau_coaworld_burg_209_burg_209_s-1"><path stroke-width=".5" d="M100 59.8C94.4 75.1 86.2 88.6 75 100c11.2 11.4 19.4 24.9 25 40.2 5.6-15.3 13.8-28.8 25-40.2-11.2-11.4-19.4-24.9-25-40.2z"/></g><g id="roundel2_coaworld_burg_209_burg_209_s-1"><circle cx="100" cy="100" r="30"/><path fill="none" stroke-width=".5" d="M124 95a23 23 0 01-25 30"/></g><radialGradient id="backlight" cx="100%" cy="100%" r="150%"><stop stop-color="#fff" stop-opacity=".3" offset="0"/><stop stop-color="#fff" stop-opacity=".15" offset=".25"/><stop stop-color="#000" stop-opacity="0" offset="1"/></radialGradient></defs><g clip-path="url(#heater_coaworld_burg_209_burg_209_s-1)"><rect x="0" y="0" width="200" height="200" fill="#fafafa"/><g clip-path="url(#divisionClip_coaworld_burg_209_burg_209_s-1)"><rect x="0" y="0" width="200" height="200" fill="#377cd7"/></g><g fill="#d7374a" stroke="#000"><style>
      g.secondary,path.secondary {fill: #d7374a;}
      g.tertiary,path.tertiary {fill: #d7374a;}
    </style><use x:href="#carreau_coaworld_burg_209_burg_209_s-1" transform="translate(30 -7.5) scale(0.7)"/></g><g fill="#ffe066" stroke="#000"><style>
      g.secondary,path.secondary {fill: #ffe066;}
      g.tertiary,path.tertiary {fill: #ffe066;}
    </style><use x:href="#roundel2_coaworld_burg_209_burg_209_s-1" transform="translate(30 72.5) scale(0.7)"/></g></g><path d="m25,25 h150 v50 a150,150,0,0,1,-75,125 a150,150,0,0,1,-75,-125 z" fill="url(#backlight)" stroke="#333"/></svg>