<svg id="coaworld_burg_219_burg_219_s-1" width="500" height="500" viewBox="0 10 200 200" xmlns="http://www.w3.org/2000/svg" xmlns:x="http://www.w3.org/1999/xlink"><defs><clipPath id="heater_coaworld_burg_219_burg_219_s-1"><path d="m25,25 h150 v50 a150,150,0,0,1,-75,125 a150,150,0,0,1,-75,-125 z"/></clipPath><g id="raft_coaworld_burg_219_burg_219_s-1" stroke-width=".65"><path stroke="none" d="M79.03 70.96c-6.16 17.66-17.98 52.65-17.98 52.65l77.92.33s-11.83-35.16-17.98-52.98z"/><path d="M61.05 123.61l17.82-52.97c1.13-3.89 6.8-3.24 6.96.8m14.1.33v53.95m-6.97-53.95a3.7 3.7 0 00-3.56-3.56 3.34 3.34 0 00-3.4 2.75l-12.32 53.3m26.25-52.49a3.6 3.6 0 00-3.57-3.56 3.48 3.48 0 00-3.4 2.91l-6.16 53.95m52.17-1.46l-17.98-52.97c-1.3-3.4-6.32-2.76-6.8.8m-7.14.33a3.7 3.7 0 013.57-3.56 3.34 3.34 0 013.4 2.75l12.15 53.3M99.93 71.77a3.7 3.7 0 013.56-3.56c1.78-.16 3.24 1.13 3.56 2.91l6 53.95"/><path d="M65.42 109.68h69.01l.97 2.92H64.45zm12.15-34.83h44.87l.98 2.6H76.6z"/><g stroke-width=".4" transform="matrix(1.62 0 0 1.62 31.4 -26.4)"><circle cx="22.3" cy="93.2" r="4"/><circle cx="30.4" cy="93.2" r="4"/><circle cx="38.4" cy="93.2" r="4"/><circle cx="46.4" cy="93.2" r="4"/><circle cx="54.4" cy="93.2" r="4"/><circle cx="62.5" cy="93.2" r="4"/></g></g><radialGradient id="backlight" cx="100%" cy="100%" r="150%"><stop stop-color="#fff" stop-opacity=".3" offset="0"/><stop stop-color="#fff" stop-opacity=".15" offset=".25"/><stop stop-color="#000" stop-opacity="0" offset="1"/></radialGradient></defs><g clip-path="url(#heater_coaworld_burg_219_burg_219_s-1)"><rect x="0" y="0" width="200" height="200" fill="#377cd7"/><g fill="#fafafa" stroke="#000"><style>
      g.secondary,path.secondary {fill: #fafafa;}
      g.tertiary,path.tertiary {fill: #fafafa;}
    </style><use x:href="#raft_coaworld_burg_219_burg_219_s-1" transform="translate(-50 -50) scale(1.5)"/></g></g><path d="m25,25 h150 v50 a150,150,0,0,1,-75,125 a150,150,0,0,1,-75,-125 z" fill="url(#backlight)" stroke="#333"/></svg>