<svg id="coaworld_burg_22_burg_22_s-1" width="500" height="500" viewBox="0 10 200 200" xmlns="http://www.w3.org/2000/svg" xmlns:x="http://www.w3.org/1999/xlink"><defs><clipPath id="heater_coaworld_burg_22_burg_22_s-1"><path d="m25,25 h150 v50 a150,150,0,0,1,-75,125 a150,150,0,0,1,-75,-125 z"/></clipPath><g id="crossHummetty_coaworld_burg_22_burg_22_s-1" stroke-width=".5"><path d="M90 60h20v30h30v20h-30v30H90v-30H60V90h30z"/></g><radialGradient id="backlight" cx="100%" cy="100%" r="150%"><stop stop-color="#fff" stop-opacity=".3" offset="0"/><stop stop-color="#fff" stop-opacity=".15" offset=".25"/><stop stop-color="#000" stop-opacity="0" offset="1"/></radialGradient></defs><g clip-path="url(#heater_coaworld_burg_22_burg_22_s-1)"><rect x="0" y="0" width="200" height="200" fill="#377cd7"/><g fill="#ffe066" stroke="none"><path d="m 0,115 v -10 h 2.5 v -10 h 10 v 5 h -5 v 5 h 10v -10 h 10 v 5 h -5 v 5 h 10v -10 h 10 v 5 h -5 v 5 h 10v -10 h 10 v 5 h -5 v 5 h 10v -10 h 10 v 5 h -5 v 5 h 10v -10 h 10 v 5 h -5 v 5 h 10v -10 h 10 v 5 h -5 v 5 h 10v -10 h 10 v 5 h -5 v 5 h 10v -10 h 10 v 5 h -5 v 5 h 10v -10 h 10 v 5 h -5 v 5 h 10v -10 h 10 v 5 h -5 v 5 h 10v -10 h 10 v 5 h -5 v 5 h 10v -10 h 10 v 5 h -5 v 5 h 10 v -10 h 2.5 v 20" transform="translate(0 -14.5)"/><path d="m 0,115 v -10 h 2.5 v -10 h 10 v 5 h -5 v 5 h 10v -10 h 10 v 5 h -5 v 5 h 10v -10 h 10 v 5 h -5 v 5 h 10v -10 h 10 v 5 h -5 v 5 h 10v -10 h 10 v 5 h -5 v 5 h 10v -10 h 10 v 5 h -5 v 5 h 10v -10 h 10 v 5 h -5 v 5 h 10v -10 h 10 v 5 h -5 v 5 h 10v -10 h 10 v 5 h -5 v 5 h 10v -10 h 10 v 5 h -5 v 5 h 10v -10 h 10 v 5 h -5 v 5 h 10v -10 h 10 v 5 h -5 v 5 h 10v -10 h 10 v 5 h -5 v 5 h 10 v -10 h 2.5 v 20" transform="rotate(180 100 100) translate(0 -14.5)"/><path d="m 0,115 v -10 h 2.5 v -10 h 10 v 5 h -5 v 5 h 10v -10 h 10 v 5 h -5 v 5 h 10v -10 h 10 v 5 h -5 v 5 h 10v -10 h 10 v 5 h -5 v 5 h 10v -10 h 10 v 5 h -5 v 5 h 10v -10 h 10 v 5 h -5 v 5 h 10v -10 h 10 v 5 h -5 v 5 h 10v -10 h 10 v 5 h -5 v 5 h 10v -10 h 10 v 5 h -5 v 5 h 10v -10 h 10 v 5 h -5 v 5 h 10v -10 h 10 v 5 h -5 v 5 h 10v -10 h 10 v 5 h -5 v 5 h 10v -10 h 10 v 5 h -5 v 5 h 10 v -10 h 2.5 v 20" transform="rotate(-90 100 100) translate(0 -14.5)"/><path d="m 0,115 v -10 h 2.5 v -10 h 10 v 5 h -5 v 5 h 10v -10 h 10 v 5 h -5 v 5 h 10v -10 h 10 v 5 h -5 v 5 h 10v -10 h 10 v 5 h -5 v 5 h 10v -10 h 10 v 5 h -5 v 5 h 10v -10 h 10 v 5 h -5 v 5 h 10v -10 h 10 v 5 h -5 v 5 h 10v -10 h 10 v 5 h -5 v 5 h 10v -10 h 10 v 5 h -5 v 5 h 10v -10 h 10 v 5 h -5 v 5 h 10v -10 h 10 v 5 h -5 v 5 h 10v -10 h 10 v 5 h -5 v 5 h 10v -10 h 10 v 5 h -5 v 5 h 10 v -10 h 2.5 v 20" transform="rotate(-270 100 100) translate(0 -14.5)"/></g><g fill="#ffe066" stroke="#000"><style>
      g.secondary,path.secondary {fill: #ffe066;}
      g.tertiary,path.tertiary {fill: #ffe066;}
    </style><use x:href="#crossHummetty_coaworld_burg_22_burg_22_s-1" transform="translate(6.25 0) scale(0.5)"/><use x:href="#crossHummetty_coaworld_burg_22_burg_22_s-1" transform="translate(93.75 0) scale(0.5)"/><use x:href="#crossHummetty_coaworld_burg_22_burg_22_s-1" transform="translate(17.75 87.5) scale(0.5)"/><use x:href="#crossHummetty_coaworld_burg_22_burg_22_s-1" transform="translate(82.25 87.5) scale(0.5)"/></g></g><path d="m25,25 h150 v50 a150,150,0,0,1,-75,125 a150,150,0,0,1,-75,-125 z" fill="url(#backlight)" stroke="#333"/></svg>