<svg id="coaworld_burg_224_burg_224_s0" width="500" height="500" viewBox="0 10 200 200" xmlns="http://www.w3.org/2000/svg" xmlns:x="http://www.w3.org/1999/xlink"><defs><clipPath id="heater_coaworld_burg_224_burg_224_s0"><path d="m25,25 h150 v50 a150,150,0,0,1,-75,125 a150,150,0,0,1,-75,-125 z"/></clipPath><clipPath id="divisionClip_coaworld_burg_224_burg_224_s0"><path d="m 0,115 v -20 h 2.5 v 5 h 5 v 5 h 5 v -5 h 5 v -5 h 2.5h 2.5 v 5 h 5 v 5 h 5 v -5 h 5 v -5 h 2.5h 2.5 v 5 h 5 v 5 h 5 v -5 h 5 v -5 h 2.5h 2.5 v 5 h 5 v 5 h 5 v -5 h 5 v -5 h 2.5h 2.5 v 5 h 5 v 5 h 5 v -5 h 5 v -5 h 2.5h 2.5 v 5 h 5 v 5 h 5 v -5 h 5 v -5 h 2.5h 2.5 v 5 h 5 v 5 h 5 v -5 h 5 v -5 h 2.5h 2.5 v 5 h 5 v 5 h 5 v -5 h 5 v -5 h 2.5h 2.5 v 5 h 5 v 5 h 5 v -5 h 5 v -5 h 2.5h 2.5 v 5 h 5 v 5 h 5 v -5 h 5 v -5 h 2.5 v 20 V400 H0 Z" transform="translate(0 50) scale(.5)"/><path d="m 0,115 v -20 h 2.5 v 5 h 5 v 5 h 5 v -5 h 5 v -5 h 2.5h 2.5 v 5 h 5 v 5 h 5 v -5 h 5 v -5 h 2.5h 2.5 v 5 h 5 v 5 h 5 v -5 h 5 v -5 h 2.5h 2.5 v 5 h 5 v 5 h 5 v -5 h 5 v -5 h 2.5h 2.5 v 5 h 5 v 5 h 5 v -5 h 5 v -5 h 2.5h 2.5 v 5 h 5 v 5 h 5 v -5 h 5 v -5 h 2.5h 2.5 v 5 h 5 v 5 h 5 v -5 h 5 v -5 h 2.5h 2.5 v 5 h 5 v 5 h 5 v -5 h 5 v -5 h 2.5h 2.5 v 5 h 5 v 5 h 5 v -5 h 5 v -5 h 2.5h 2.5 v 5 h 5 v 5 h 5 v -5 h 5 v -5 h 2.5 v 20 V400 H0 Z" transform="translate(200 150) scale(-.5)"/></clipPath><g id="trowel_coaworld_burg_224_burg_224_s0" stroke-width=".56"><path d="m90.26 137.2 1.28-17.3c.1-1.37 1.07-2.5 2.55-2.45 1.48.05 2.33 1.13 2.33 2.51l.07 17.47c0 1.38-1.83 2.36-3.3 2.31-1.49-.05-3.04-1.17-2.93-2.54z"/><path stroke-width=".38" d="M95.6 119.6c-.87.41-2.3.32-3.16-.22-.87-.53-.86-1.3.02-1.72.88-.41 2.3-.32 3.17.22.84.52.86 1.27.04 1.7z"/><g class="secondary"><path d="M101.54 105.1c-.14.68-.49 3.86-1.71 5.26-.96 1.1-3.57 2.96-4.16 4.29-.69 1.58-.15 4.03-.15 4.03-.2.75-3 .28-3.07-.34 0 0 .1-2.45.85-4.57.7-2 2.2-2.09 3.3-3.92a17.13 17.13 0 0 0 1.78-6.66z"/><path d="m85.52 103.73 29.27 4.75-8.04-40.64c-.41-2.94-2.92-7.2-5.84-7.55-2.92-.36-4.73 1.51-5.3 3.94z"/><path stroke-width=".38" d="M99.94 91.15c.9-.09 1.78 8.94 1.52 14.67-2.05.44-3.27-.02-3.15-1.9-.16-6.98.58-13.09 1.63-12.77z"/><path stroke-width=".38" d="M93.52 117.84c.15-1.74-.17-3.5 1.3-4.66 2.63-2.07 3.18-3.05 3.8-6.7"/><path stroke-width=".38" d="m91.8 138.08.93-16.4"/></g></g><radialGradient id="backlight" cx="100%" cy="100%" r="150%"><stop stop-color="#fff" stop-opacity=".3" offset="0"/><stop stop-color="#fff" stop-opacity=".15" offset=".25"/><stop stop-color="#000" stop-opacity="0" offset="1"/></radialGradient></defs><g clip-path="url(#heater_coaworld_burg_224_burg_224_s0)"><rect x="0" y="0" width="200" height="200" fill="#fafafa"/><g fill="#d7374a" stroke="#000"><style>
      g.secondary,path.secondary {fill: #d7374a;}
      g.tertiary,path.tertiary {fill: #d7374a;}
    </style><use x:href="#trowel_coaworld_burg_224_burg_224_s0" transform="translate(2.5 2.5) scale(0.6)"/><use x:href="#trowel_coaworld_burg_224_burg_224_s0" transform="translate(77.5 2.5) scale(0.6)"/><use x:href="#trowel_coaworld_burg_224_burg_224_s0" transform="translate(10 70) scale(0.6)"/><use x:href="#trowel_coaworld_burg_224_burg_224_s0" transform="translate(70 70) scale(0.6)"/></g><g clip-path="url(#divisionClip_coaworld_burg_224_burg_224_s0)"><rect x="0" y="0" width="200" height="200" fill="#d7374a"/><g fill="#fafafa" stroke="#000"><style>
      g.secondary,path.secondary {fill: #fafafa;}
      g.tertiary,path.tertiary {fill: #fafafa;}
    </style><use x:href="#trowel_coaworld_burg_224_burg_224_s0" transform="translate(2.5 2.5) scale(0.6)"/><use x:href="#trowel_coaworld_burg_224_burg_224_s0" transform="translate(77.5 2.5) scale(0.6)"/><use x:href="#trowel_coaworld_burg_224_burg_224_s0" transform="translate(10 70) scale(0.6)"/><use x:href="#trowel_coaworld_burg_224_burg_224_s0" transform="translate(70 70) scale(0.6)"/></g></g></g><path d="m25,25 h150 v50 a150,150,0,0,1,-75,125 a150,150,0,0,1,-75,-125 z" fill="url(#backlight)" stroke="#333"/></svg>