<svg id="coaworld_burg_254_burg_254_s0" width="500" height="500" viewBox="0 10 200 200" xmlns="http://www.w3.org/2000/svg" xmlns:x="http://www.w3.org/1999/xlink"><defs><clipPath id="heater_coaworld_burg_254_burg_254_s0"><path d="m25,25 h150 v50 a150,150,0,0,1,-75,125 a150,150,0,0,1,-75,-125 z"/></clipPath><g id="inescutcheon_coaworld_burg_254_burg_254_s0"><path transform="translate(66 66) scale(.34)" d="m25,25 h150 v50 a150,150,0,0,1,-75,125 a150,150,0,0,1,-75,-125 z"/></g><g id="crossTemplar_coaworld_burg_254_burg_254_s0" stroke-width=".5"><path d="m 90,60 h 20 l -5,5 v 30 h 30 l 5,-5 v 20 l -5,-5 h -30 v 30 l 5,5 H 90 l 5,-5 V 105 H 65 l -5,5 V 90 l 5,5 H 95 V 65 Z"/></g><radialGradient id="backlight" cx="100%" cy="100%" r="150%"><stop stop-color="#fff" stop-opacity=".3" offset="0"/><stop stop-color="#fff" stop-opacity=".15" offset=".25"/><stop stop-color="#000" stop-opacity="0" offset="1"/></radialGradient></defs><g clip-path="url(#heater_coaworld_burg_254_burg_254_s0)"><rect x="0" y="0" width="200" height="200" fill="#ffe066"/><g fill="#333333" stroke="none"><polygon points="85,0 85,85 0,85 0,115 85,115 85,200 115,200 115,115 200,115 200,85 115,85 115,0"/></g><g fill="#377cd7" stroke="#000"><style>
      g.secondary,path.secondary {fill: #377cd7;}
      g.tertiary,path.tertiary {fill: #377cd7;}
    </style><use x:href="#inescutcheon_coaworld_burg_254_burg_254_s0" transform="translate(6.25 0) scale(0.5)"/><use x:href="#inescutcheon_coaworld_burg_254_burg_254_s0" transform="translate(93.75 0) scale(0.5)"/><use x:href="#inescutcheon_coaworld_burg_254_burg_254_s0" transform="translate(17.75 87.5) scale(0.5)"/><use x:href="#inescutcheon_coaworld_burg_254_burg_254_s0" transform="translate(82.25 87.5) scale(0.5)"/></g><g fill="#ffe066" stroke="#000"><style>
      g.secondary,path.secondary {fill: #ffe066;}
      g.tertiary,path.tertiary {fill: #ffe066;}
    </style><use x:href="#crossTemplar_coaworld_burg_254_burg_254_s0" transform="translate(31.25 25) scale(0.25)"/><use x:href="#crossTemplar_coaworld_burg_254_burg_254_s0" transform="translate(118.75 25) scale(0.25)"/><use x:href="#crossTemplar_coaworld_burg_254_burg_254_s0" transform="translate(42.75 112.5) scale(0.25)"/><use x:href="#crossTemplar_coaworld_burg_254_burg_254_s0" transform="translate(107.25 112.5) scale(0.25)"/></g></g><path d="m25,25 h150 v50 a150,150,0,0,1,-75,125 a150,150,0,0,1,-75,-125 z" fill="url(#backlight)" stroke="#333"/></svg>