<svg id="coaworld_burg_257_burg_257_s0" width="500" height="500" viewBox="0 10 200 200" xmlns="http://www.w3.org/2000/svg" xmlns:x="http://www.w3.org/1999/xlink"><defs><clipPath id="heater_coaworld_burg_257_burg_257_s0"><path d="m25,25 h150 v50 a150,150,0,0,1,-75,125 a150,150,0,0,1,-75,-125 z"/></clipPath><clipPath id="divisionClip_coaworld_burg_257_burg_257_s0"><path d="m 0,115 v -10 h 7.5 v -5 h -5 v -5 h 15 v 5 h -5 v 5 h 7.5h 7.5 v -5 h -5 v -5 h 15 v 5 h -5 v 5 h 7.5h 7.5 v -5 h -5 v -5 h 15 v 5 h -5 v 5 h 7.5h 7.5 v -5 h -5 v -5 h 15 v 5 h -5 v 5 h 7.5h 7.5 v -5 h -5 v -5 h 15 v 5 h -5 v 5 h 7.5h 7.5 v -5 h -5 v -5 h 15 v 5 h -5 v 5 h 7.5h 7.5 v -5 h -5 v -5 h 15 v 5 h -5 v 5 h 7.5h 7.5 v -5 h -5 v -5 h 15 v 5 h -5 v 5 h 7.5h 7.5 v -5 h -5 v -5 h 15 v 5 h -5 v 5 h 7.5h 7.5 v -5 h -5 v -5 h 15 v 5 h -5 v 5 h 7.5 v 10 V400 H0 Z" transform="translate(0 50) scale(.5)"/><path d="m 0,115 v -10 h 7.5 v -5 h -5 v -5 h 15 v 5 h -5 v 5 h 7.5h 7.5 v -5 h -5 v -5 h 15 v 5 h -5 v 5 h 7.5h 7.5 v -5 h -5 v -5 h 15 v 5 h -5 v 5 h 7.5h 7.5 v -5 h -5 v -5 h 15 v 5 h -5 v 5 h 7.5h 7.5 v -5 h -5 v -5 h 15 v 5 h -5 v 5 h 7.5h 7.5 v -5 h -5 v -5 h 15 v 5 h -5 v 5 h 7.5h 7.5 v -5 h -5 v -5 h 15 v 5 h -5 v 5 h 7.5h 7.5 v -5 h -5 v -5 h 15 v 5 h -5 v 5 h 7.5h 7.5 v -5 h -5 v -5 h 15 v 5 h -5 v 5 h 7.5h 7.5 v -5 h -5 v -5 h 15 v 5 h -5 v 5 h 7.5 v 10 V400 H0 Z" transform="translate(200 150) scale(-.5)"/></clipPath><g id="shipWheel_coaworld_burg_257_burg_257_s0" stroke-width=".2415"><g id="shipWheel-a"><path d="m98.1358 93.9946.2586-9.9997c-.026-.5373-.6986-1.3079-1.0488-1.9863v-.8584c1.7576-.2648 3.5152-.2328 5.2728 0v.9051c-.3568.6259-1.0548 1.3448-1.0344 1.8678l.158 10.0656"/><path fill="none" d="M97.2881 82.0266c1.7583-.1968 3.5579-.1464 5.3734 0"/><path stroke-width=".4025" d="M97.5454 62.1553c-.1844 1.9172.7565 5.8211.7648 7.2148.0062 1.0503-.8715 1.9378-.9811 2.3395l-.0101 1.3232h5.2275c-.001-.4399.0057-.8884-.0101-1.3232-.1096-.4017-.9873-1.2892-.9811-2.3395.0083-1.3937.8698-5.2821.7597-7.2148-.078-1.3695-1.103-2.1492-2.3848-2.1483-1.3522.0009-2.2624.8759-2.3848 2.1483z"/><path fill="none" d="M97.2909 71.7977c1.7677-.294 3.5354-.302 5.3031 0"/></g><use x:href="#shipWheel-a" transform="rotate(45 100 100)"/><use x:href="#shipWheel-a" transform="rotate(90 100 100)"/><use x:href="#shipWheel-a" transform="rotate(135 100 100)"/><use x:href="#shipWheel-a" transform="rotate(180 100 100)"/><use x:href="#shipWheel-a" transform="rotate(225 100 100)"/><use x:href="#shipWheel-a" transform="rotate(270 100 100)"/><use x:href="#shipWheel-a" transform="rotate(315 100 100)"/><circle fill="none" stroke-width=".2576" cx="100" cy="100" r="2.2127"/><path stroke-width=".483" d="M99.95 72.9825c-14.8936 0-26.9675 12.0739-26.9675 26.9675 0 14.8936 12.0739 26.9675 26.9675 26.9675 14.8936 0 26.9675-12.0739 26.9675-26.9675 0-14.8936-12.0739-26.9675-26.9675-26.9675zm0 7.9293c10.5135 0 19.0383 8.5247 19.0383 19.0383 0 10.5135-8.5247 19.0383-19.0383 19.0383-10.5135 0-19.0383-8.5247-19.0383-19.0383 0-10.5135 8.5247-19.0383 19.0383-19.0383z"/><path fill="none" stroke-width=".2576" d="m98.3317 101.5036-1.788 1.788m7.1318-7.1318-2.2118 2.2117m.1594 3 1.788 1.788m-7.1318-7.1318 2.2117 2.2118m-.7587 1.7105h-2.7317m10.0859 0h-2.9126m-2.2239 2.2341v2.5286m0-10.0859v3.1279"/><circle fill="none" stroke-width=".0805" cx="100" cy="100" r="19.6973"/><path d="M99.95 93.349c-3.6459 0-6.601 2.9551-6.601 6.601s2.9551 6.601 6.601 6.601 6.601-2.9551 6.601-6.601-2.9551-6.601-6.601-6.601zm0 2.1534c2.4564 0 4.4476 1.9912 4.4476 4.4476 0 2.4564-1.9912 4.4476-4.4476 4.4476-2.4564 0-4.4476-1.9912-4.4476-4.4476 0-2.4564 1.9912-4.4476 4.4476-4.4476z"/><circle fill="none" stroke-width=".483" cx="100" cy="100" r="6.601"/></g><g id="chalice_coaworld_burg_257_burg_257_s0" stroke-width=".36"><path d="M104.52 109.64c-1.08-3.84-.84-5.52-.84-12.72h-7.44c.12 7.08.36 8.88-.72 12.72-3 5.76-15.84 8.04-15.84 16.92 0 9.48 9.12 15.24 20.28 15.24s20.4-5.76 20.4-15.24c0-7.32-13.44-11.04-15.84-16.92z"/><path d="M70.44 66.8C72.36 87.44 95.4 87.56 95.4 97.4v4.56h9.24V97.4c0-9.84 22.44-9.96 24.96-30.72z"/><path d="M131.28 65.72c0 2.28-14.04 3.96-31.08 3.96s-30.96-1.92-30.96-4.08c0-.48-.24-2.16.84-2.52 4.2-1.56 17.04-2.64 30.48-2.64 13.08 0 25.2 1.08 29.76 2.64 1.2.36.96 2.16.96 2.64z"/><g class="secondary"><path d="M96.84 101.12c0 2.64-.48 4.2-2.04 4.2s-3.24-1.44-3.24-4.2c0-2.4 1.56-4.2 3.24-4.2s2.04 1.56 2.04 4.2zm6.48 0c0 2.64.48 4.2 2.16 4.2s3.24-1.44 3.24-4.2c0-2.4-1.56-4.2-3.24-4.2-1.56 0-2.16 1.56-2.16 4.2z"/><ellipse cx="100.08" cy="101.84" rx="3.24" ry="4.44"/></g><path fill="none" stroke-width=".42" d="M102.24 95.12c1.32-2.64 2.64-5.16 7.8-7.8m-12.12 7.8c-1.32-2.64-2.64-5.16-7.8-7.8m23.28 33.6c-4.56-4.08-8.4-8.04-8.88-11.64m-18.24 11.64c4.44-2.88 8.28-6 9.36-11.4M81.12 127.4c3.84 15.48 33.6 15.48 37.8.12M120 63.56a190.18 190.18 0 0 0-38.76 0m-7.68 1.32c16.8 3.12 33.6 3.12 53.4-.12"/></g><g id="sabresCrossed_coaworld_burg_257_burg_257_s0" stroke-width=".342"><g transform="translate(200 0) scale(-1 1)"><path class="secondary" d="M132.304 137.367s-12.86-6.794-28.17-25.866C90.66 94.73 83.991 78.6 83.991 78.6l-4.845 3.317c.011 0 20.656 51.334 53.158 55.45z"/><path d="M76.455 66.391c-2.063-.335-2.192-.09-3.135 1.619 0 0 5.5 10.745 5.985 11.879.835 1.858 3.825-.631 3.352-1.722-.315-.466-6.202-11.776-6.202-11.776z"/><path d="M68.988 65.388c-.057-1.049.502-2.223 1.528-2.782.935-.513 2.177-.912 3.1-.41 1.05.57 2.315 3.226 3.033 4.56-1.37-.189-2.6.624-3.158 1.584-.376-.73-1.163-2.302-2.109-2.234-.946.057-.74.73-1.322.707-.513-.034-1.015-.604-1.072-1.425z"/><path d="M82.11 81.336c-1.14.593-4.8 2.417-5.723 2.748-1.756.604-3.534.547-4.344-1.026-.547-1.072-.216-2.04.65-2.485.582-.297 1.254-.308 1.573.319.183.342.103.467.069.718-.046.285-.148.376.011.684.24.467.878.4 1.254.32.445-.092 1.402-.525 2.04-.844 1.449-.719 3.447-2.441 3.447-2.441.57-.297 4.602-2.12 5.514-2.461 1.756-.593 3.534-.548 4.344 1.026.547 1.06.216 2.04-.65 2.485-.582.308-1.254.308-1.573-.32-.171-.341-.103-.467-.069-.718.046-.296.148-.387-.011-.683-.24-.468-.878-.4-1.254-.32-.445.092-1.402.525-2.04.844-1.449.718-3.238 2.154-3.238 2.154z"/><g fill="none"><path d="M132.304 137.367c-5.506-2.2-11.218-5.517-17.317-10.34-9.302-7.364-19.22-19.037-30.324-40.447-.456-.889-1.448-2.781-1.915-3.705"/><line x1="82.771" x2="84.367" y1="82.875" y2="79.82"/><line x1="82.771" x2="79.67" y1="82.875" y2="82.75"/><path d="M81.973 76.936c-1.436-.635-2.94.45-3.272 1.687"/><path d="M80.958 74.952c-1.436-.445-3.008.486-3.272 1.688"/><path d="M79.932 72.98c-1.419-.514-2.956.485-3.272 1.687"/><path d="M78.848 70.997c-1.336-.548-3.022.614-3.203 1.687"/><path d="M77.822 69.041c-1.449-.503-2.898.499-3.116 1.67"/></g></g><g><path class="secondary" d="M132.304 137.367s-12.86-6.794-28.17-25.866C90.66 94.73 83.991 78.6 83.991 78.6l-4.845 3.317c.011 0 20.656 51.334 53.158 55.45z"/><path d="M76.455 66.391c-2.063-.335-2.192-.09-3.135 1.619 0 0 5.5 10.745 5.985 11.879.835 1.858 3.825-.631 3.352-1.722-.315-.466-6.202-11.776-6.202-11.776z"/><path d="M68.988 65.388c-.057-1.049.502-2.223 1.528-2.782.935-.513 2.177-.912 3.1-.41 1.05.57 2.315 3.226 3.033 4.56-1.37-.189-2.6.624-3.158 1.584-.376-.73-1.163-2.302-2.109-2.234-.946.057-.74.73-1.322.707-.513-.034-1.015-.604-1.072-1.425z"/><path d="M82.11 81.336c-1.14.593-4.8 2.417-5.723 2.748-1.756.604-3.534.547-4.344-1.026-.547-1.072-.216-2.04.65-2.485.582-.297 1.254-.308 1.573.319.183.342.103.467.069.718-.046.285-.148.376.011.684.24.467.878.4 1.254.32.445-.092 1.402-.525 2.04-.844 1.449-.719 3.447-2.441 3.447-2.441.57-.297 4.602-2.12 5.514-2.461 1.756-.593 3.534-.548 4.344 1.026.547 1.06.216 2.04-.65 2.485-.582.308-1.254.308-1.573-.32-.171-.341-.103-.467-.069-.718.046-.296.148-.387-.011-.683-.24-.468-.878-.4-1.254-.32-.445.092-1.402.525-2.04.844-1.449.718-3.238 2.154-3.238 2.154z"/><g fill="none"><path d="M132.304 137.367c-5.506-2.2-11.218-5.517-17.317-10.34-9.302-7.364-19.22-19.037-30.324-40.447-.456-.889-1.448-2.781-1.915-3.705"/><line x1="82.771" x2="84.367" y1="82.875" y2="79.82"/><line x1="82.771" x2="79.67" y1="82.875" y2="82.75"/><path d="M81.973 76.936c-1.436-.635-2.94.45-3.272 1.687"/><path d="M80.958 74.952c-1.436-.445-3.008.486-3.272 1.688"/><path d="M79.932 72.98c-1.419-.514-2.956.485-3.272 1.687"/><path d="M78.848 70.997c-1.336-.548-3.022.614-3.203 1.687"/><path d="M77.822 69.041c-1.449-.503-2.898.499-3.116 1.67"/></g></g></g><g id="rapier_coaworld_burg_257_burg_257_s0" stroke-width=".224"><path class="secondary" d="M99.998 59.965c-1.198 5.507-1.14 11.119-1.237 16.754v49.99h2.492l-.01-49.99c-.108-5.635-.016-11.247-1.215-16.754z"/><path d="M100.007 123.23V70.9"/><g><path d="M110.822 127.18a.894.894 0 0 0 .894-.894.894.894 0 0 0-.894-.894.894.894 0 0 0-.821.544 3.195 3.195 0 0 0-.285-.01H90.298c-.121 0-.234.003-.333.016a.894.894 0 0 0-.823-.55.894.894 0 0 0-.894.894.894.894 0 0 0 .894.894.894.894 0 0 0 .802-.502c.104.017.224.019.354.019h19.418c.11 0 .213-.002.306-.012a.894.894 0 0 0 .8.495z"/><circle cx="100.007" cy="138.211" r="1.831"/><path d="M99.05 135.428a.683.683 0 0 0-.682.683.683.683 0 0 0 .683.684h1.911a.683.683 0 0 0 .684-.684.683.683 0 0 0-.684-.683z"/><path d="M98.88 132.736c.295.855.236 1.79.094 2.696a.668.668 0 0 1 .078-.004h1.911c.026 0 .051.002.076.004-.077-.33-.045-.64.096-.906z"/><path d="M98.88 130.487c.314.703.24 1.512 0 2.248l2.255 1.791c-.118-.683-.222-1.38 0-2.044z"/><path d="m98.88 128.278 2.255 2.12c-.15-.543-.181-1.082 0-1.561.014-.608-.003-1.522 0-2.14H98.88z"/><path d="M98.88 128.279c.28.702.24 1.49 0 2.208l2.255 1.995c-.17-.69-.237-1.415 0-2.084z"/></g><g><path d="M99.755 123.226c.066 1.383.147 1.954-1.004 2.724l.024.75h2.464l.024-.75c-1.15-.77-1.07-1.341-1.004-2.724z"/><rect x="98.762" y="125.935" width="2.491" height=".781"/><path d="m100.008 125.54-.371.395v.782h.745v-.772z"/></g><g><path d="M102.588 137.171a.397.397 0 1 0 .279.733 6 6 0 0 0 1.046-11.09l-.628.593a5.226 5.226 0 0 1 3.007 4.06 12.81 12.81 0 0 0-5.379-3.258l-2.196.07a12.083 12.083 0 0 1 7.611 4.185 5.226 5.226 0 0 1-3.74 4.707z"/><path d="M105.239 124.198a5.231 4.15 0 0 0-10.463 0 5.231 4.15 0 0 0 10.463 0zm-.826 0a4.406 3.495 0 0 1-8.812 0 4.406 3.495 0 0 1 8.812 0z"/><path d="M103.878 122.542a3.923 2.528 0 0 0-7.846 0 3.923 2.528 0 0 0 7.846 0zm-.895 0a3.03 1.953 0 0 1-6.055 0 3.032 1.954 0 0 1 6.055 0z"/><path d="M98.868 119.955a.5.5 0 0 0-.5.5.5.5 0 0 0 .5.5h2.28a.5.5 0 0 0 .498-.5.5.5 0 0 0-.499-.5z"/></g></g><radialGradient id="backlight" cx="100%" cy="100%" r="150%"><stop stop-color="#fff" stop-opacity=".3" offset="0"/><stop stop-color="#fff" stop-opacity=".15" offset=".25"/><stop stop-color="#000" stop-opacity="0" offset="1"/></radialGradient></defs><g clip-path="url(#heater_coaworld_burg_257_burg_257_s0)"><rect x="0" y="0" width="200" height="200" fill="#333333"/><g clip-path="url(#divisionClip_coaworld_burg_257_burg_257_s0)"><rect x="0" y="0" width="200" height="200" fill="#fafafa"/></g><g fill="#ffe066" stroke="#000"><style>
      g.secondary,path.secondary {fill: #ffe066;}
      g.tertiary,path.tertiary {fill: #ffe066;}
    </style><use x:href="#shipWheel_coaworld_burg_257_burg_257_s0" transform="translate(2.5 2.5) scale(0.6)"/></g><g fill="#333333" stroke="#000"><style>
      g.secondary,path.secondary {fill: #333333;}
      g.tertiary,path.tertiary {fill: #333333;}
    </style><use x:href="#chalice_coaworld_burg_257_burg_257_s0" transform="translate(77.5 2.5) scale(0.6)"/></g><g fill="#d7374a" stroke="#000"><style>
      g.secondary,path.secondary {fill: #d7374a;}
      g.tertiary,path.tertiary {fill: #d7374a;}
    </style><use x:href="#sabresCrossed_coaworld_burg_257_burg_257_s0" transform="translate(10 70) scale(0.6)"/></g><g fill="#ffe066" stroke="#000"><style>
      g.secondary,path.secondary {fill: #ffe066;}
      g.tertiary,path.tertiary {fill: #ffe066;}
    </style><use x:href="#rapier_coaworld_burg_257_burg_257_s0" transform="translate(70 70) scale(0.6)"/></g></g><path d="m25,25 h150 v50 a150,150,0,0,1,-75,125 a150,150,0,0,1,-75,-125 z" fill="url(#backlight)" stroke="#333"/></svg>