<svg id="coaworld_burg_258_burg_258_s0" width="500" height="500" viewBox="0 10 200 200" xmlns="http://www.w3.org/2000/svg"><defs><clipPath id="heater_coaworld_burg_258_burg_258_s0"><path d="m25,25 h150 v50 a150,150,0,0,1,-75,125 a150,150,0,0,1,-75,-125 z"/></clipPath><pattern id="lozengy-or-azure-smaller" width="12.5" height="12.5" viewBox="0 0 50 50" patternUnits="userSpaceOnUse"><rect width="50" height="50" fill="#ffe066"/><polygon points="25,0 50,25 25,50 0,25" fill="#377cd7"/></pattern><radialGradient id="backlight" cx="100%" cy="100%" r="150%"><stop stop-color="#fff" stop-opacity=".3" offset="0"/><stop stop-color="#fff" stop-opacity=".15" offset=".25"/><stop stop-color="#000" stop-opacity="0" offset="1"/></radialGradient></defs><g clip-path="url(#heater_coaworld_burg_258_burg_258_s0)"><rect x="0" y="0" width="200" height="200" fill="url(#lozengy-or-azure-smaller)"/><g fill="#522d5b" stroke="none"><polygon points="200,200 200,144 25,25 145,200"/></g></g><path d="m25,25 h150 v50 a150,150,0,0,1,-75,125 a150,150,0,0,1,-75,-125 z" fill="url(#backlight)" stroke="#333"/></svg>