<svg id="coaworld_burg_259_burg_259_s0" width="500" height="500" viewBox="0 10 200 200" xmlns="http://www.w3.org/2000/svg" xmlns:x="http://www.w3.org/1999/xlink"><defs><clipPath id="heater_coaworld_burg_259_burg_259_s0"><path d="m25,25 h150 v50 a150,150,0,0,1,-75,125 a150,150,0,0,1,-75,-125 z"/></clipPath><g id="gear_coaworld_burg_259_burg_259_s0" stroke-width=".6" transform="translate(60.5 60.5) scale(1.85)"><path d="M18.47.4l.43 3.2-4.43 1.2-1.24-3-4.82 2.78 1.98 2.57-3.24 3.24L4.58 8.4 1.8 13.23l3 1.24-1.2 4.42-3.2-.42v5.56l3.2-.42 1.2 4.42-3 1.24 2.78 4.82 2.57-1.98 3.24 3.24-1.98 2.57 4.82 2.78 1.24-2.99 4.43 1.19-.43 3.2h5.56l-.42-3.2 4.42-1.19 1.24 3 4.82-2.8-1.98-2.56 3.24-3.24 2.57 1.98 2.78-4.82-2.99-1.24 1.19-4.42 3.2.42v-5.56l-3.2.42-1.19-4.42 3-1.24-2.8-4.82-2.56 1.98-3.24-3.24 1.98-2.57-4.82-2.78-1.24 3-4.42-1.2.42-3.2zm2.78 9.84a11.01 11.01 0 0111.01 11.01 11.01 11.01 0 01-11 11.01 11.01 11.01 0 01-11.02-11 11.01 11.01 0 0111.01-11.02z"/></g><radialGradient id="backlight" cx="100%" cy="100%" r="150%"><stop stop-color="#fff" stop-opacity=".3" offset="0"/><stop stop-color="#fff" stop-opacity=".15" offset=".25"/><stop stop-color="#000" stop-opacity="0" offset="1"/></radialGradient></defs><g clip-path="url(#heater_coaworld_burg_259_burg_259_s0)"><rect x="0" y="0" width="200" height="200" fill="#ffe066"/><g fill="#377cd7" stroke="none"><path d="m 0,115 v -15 c 8.9,-3.5 16,-3.1 25,0 8.9,3.5 16,3.1 25,0 8.9,-3.5 16,-3.2 25,0 8.9,3.5 16,3.2 25,0c 8.9,-3.5 16,-3.1 25,0 8.9,3.5 16,3.1 25,0 8.9,-3.5 16,-3.2 25,0 8.9,3.5 16,3.2 25,0 v 15" transform="translate(0 -14.5)"/><path d="m 0,115 v -15 c 8.9,-3.5 16,-3.1 25,0 8.9,3.5 16,3.1 25,0 8.9,-3.5 16,-3.2 25,0 8.9,3.5 16,3.2 25,0c 8.9,-3.5 16,-3.1 25,0 8.9,3.5 16,3.1 25,0 8.9,-3.5 16,-3.2 25,0 8.9,3.5 16,3.2 25,0 v 15" transform="rotate(180 100 100) translate(0 -14.5)"/><path d="m 0,115 v -15 c 8.9,-3.5 16,-3.1 25,0 8.9,3.5 16,3.1 25,0 8.9,-3.5 16,-3.2 25,0 8.9,3.5 16,3.2 25,0c 8.9,-3.5 16,-3.1 25,0 8.9,3.5 16,3.1 25,0 8.9,-3.5 16,-3.2 25,0 8.9,3.5 16,3.2 25,0 v 15" transform="rotate(-90 100 100) translate(0 -14.5)"/><path d="m 0,115 v -15 c 8.9,-3.5 16,-3.1 25,0 8.9,3.5 16,3.1 25,0 8.9,-3.5 16,-3.2 25,0 8.9,3.5 16,3.2 25,0c 8.9,-3.5 16,-3.1 25,0 8.9,3.5 16,3.1 25,0 8.9,-3.5 16,-3.2 25,0 8.9,3.5 16,3.2 25,0 v 15" transform="rotate(-270 100 100) translate(0 -14.5)"/></g><g fill="#fafafa" stroke="#000"><style>
      g.secondary,path.secondary {fill: #fafafa;}
      g.tertiary,path.tertiary {fill: #fafafa;}
    </style><use x:href="#gear_coaworld_burg_259_burg_259_s0" transform="translate(70 20) scale(0.3)"/><use x:href="#gear_coaworld_burg_259_burg_259_s0" transform="translate(70 70) scale(0.3)"/><use x:href="#gear_coaworld_burg_259_burg_259_s0" transform="translate(70 120) scale(0.3)"/></g></g><path d="m25,25 h150 v50 a150,150,0,0,1,-75,125 a150,150,0,0,1,-75,-125 z" fill="url(#backlight)" stroke="#333"/></svg>