<svg id="coaworld_burg_267_burg_267_s0" width="500" height="500" viewBox="0 10 200 200" xmlns="http://www.w3.org/2000/svg" xmlns:x="http://www.w3.org/1999/xlink"><defs><clipPath id="heater_coaworld_burg_267_burg_267_s0"><path d="m25,25 h150 v50 a150,150,0,0,1,-75,125 a150,150,0,0,1,-75,-125 z"/></clipPath><g id="inescutcheon_coaworld_burg_267_burg_267_s0"><path transform="translate(66 66) scale(.34)" d="m25,25 h150 v50 a150,150,0,0,1,-75,125 a150,150,0,0,1,-75,-125 z"/></g><g id="goutte_coaworld_burg_267_burg_267_s0"><path d="M100 134c17-1 16-19 10-25-1.9-1.8-4.6-5.3-3.9-8.1C108 94 102 90 102 87c-1-7 3-7 3-13-.1-6.2-3.3-8.7-6-12 1.2 3 2 6 1 9-1.5 5.9-6.2 6.9-8 11-2 5 3 11 3 15-.6 9.1-9 13-9 23 .3 11.3 9 14 14 14z"/></g><radialGradient id="backlight" cx="100%" cy="100%" r="150%"><stop stop-color="#fff" stop-opacity=".3" offset="0"/><stop stop-color="#fff" stop-opacity=".15" offset=".25"/><stop stop-color="#000" stop-opacity="0" offset="1"/></radialGradient></defs><g clip-path="url(#heater_coaworld_burg_267_burg_267_s0)"><rect x="0" y="0" width="200" height="200" fill="#d7374a"/><g fill="#fafafa" stroke="none"><polygon points="22,0 200,178 200,200 178,200 0,22 0,0"/></g><g fill="#522d5b" stroke="#000"><style>
      g.secondary,path.secondary {fill: #522d5b;}
      g.tertiary,path.tertiary {fill: #522d5b;}
    </style><use x:href="#inescutcheon_coaworld_burg_267_burg_267_s0" transform="translate(32.5 32.5) scale(0.3)"/><use x:href="#inescutcheon_coaworld_burg_267_burg_267_s0" transform="translate(100 100) scale(0.3)"/><use x:href="#inescutcheon_coaworld_burg_267_burg_267_s0" transform="translate(70 70) scale(0.3)"/></g><g fill="#fafafa" stroke="#000"><style>
      g.secondary,path.secondary {fill: #fafafa;}
      g.tertiary,path.tertiary {fill: #fafafa;}
    </style><use x:href="#goutte_coaworld_burg_267_burg_267_s0" transform="translate(47.5 47.5) scale(0.15)"/><use x:href="#goutte_coaworld_burg_267_burg_267_s0" transform="translate(115 115) scale(0.15)"/><use x:href="#goutte_coaworld_burg_267_burg_267_s0" transform="translate(85 85) scale(0.15)"/></g></g><path d="m25,25 h150 v50 a150,150,0,0,1,-75,125 a150,150,0,0,1,-75,-125 z" fill="url(#backlight)" stroke="#333"/></svg>