<svg id="coaworld_burg_271_burg_271_s0" width="500" height="500" viewBox="0 10 200 200" xmlns="http://www.w3.org/2000/svg" xmlns:x="http://www.w3.org/1999/xlink"><defs><clipPath id="heater_coaworld_burg_271_burg_271_s0"><path d="m25,25 h150 v50 a150,150,0,0,1,-75,125 a150,150,0,0,1,-75,-125 z"/></clipPath><clipPath id="divisionClip_coaworld_burg_271_burg_271_s0"><path d="M0,80 100,-15 200,80 200,120 100,25 0,120z M0,160 100,65 200,160 200,200 100,105 0,200z M0,240 100,145 200,240 0,240z"/></clipPath><g id="spear_coaworld_burg_271_burg_271_s0" stroke-width=".237"><path d="M100.045 139.857c.506 0 .909-.34.909-.758V76.436l-.127-.182-.49-.671-.6-.79-.521 1.998-.095-.11v62.418c.016.418.427.758.924.758z"/><path d="M99.129 77.945v14.133h1.833V77.826a7.95 7.95 0 0 1-1.833.119z"/><g class="secondary"><path d="M101.19 74.169c.34-2.852 2.308-4.385 2.308-4.385-2.758-3.563-3.469-9.78-3.469-9.78s-.703 6.217-3.468 9.788c0 0 1.967 1.533 2.307 4.385h2.323z"/><polygon points="99.374 74.003 100.029 62.437 100.693 74.003"/><path d="M99.303 74.714c0 1.28-.316 3.436-.316 3.436s.253.198 1.043.198c.797 0 1.042-.198 1.042-.198s-.316-2.172-.316-3.436"/><path d="M98.829 74.911h2.401a.538.538 0 0 0 0-1.074H98.83a.538.538 0 0 0-.537.537c0 .292.244.537.537.537z"/></g></g><radialGradient id="backlight" cx="100%" cy="100%" r="150%"><stop stop-color="#fff" stop-opacity=".3" offset="0"/><stop stop-color="#fff" stop-opacity=".15" offset=".25"/><stop stop-color="#000" stop-opacity="0" offset="1"/></radialGradient></defs><g clip-path="url(#heater_coaworld_burg_271_burg_271_s0)"><rect x="0" y="0" width="200" height="200" fill="#ffe066"/><g fill="#fafafa" stroke="#000"><style>
      g.secondary,path.secondary {fill: #fafafa;}
      g.tertiary,path.tertiary {fill: #fafafa;}
    </style><use x:href="#spear_coaworld_burg_271_burg_271_s0" transform="translate(30 -7.5) scale(0.7)"/><use x:href="#spear_coaworld_burg_271_burg_271_s0" transform="translate(30 72.5) scale(0.7)"/></g><g clip-path="url(#divisionClip_coaworld_burg_271_burg_271_s0)"><rect x="0" y="0" width="200" height="200" fill="#fafafa"/><g fill="#ffe066" stroke="#000"><style>
      g.secondary,path.secondary {fill: #ffe066;}
      g.tertiary,path.tertiary {fill: #ffe066;}
    </style><use x:href="#spear_coaworld_burg_271_burg_271_s0" transform="translate(30 -7.5) scale(0.7)"/><use x:href="#spear_coaworld_burg_271_burg_271_s0" transform="translate(30 72.5) scale(0.7)"/></g></g></g><path d="m25,25 h150 v50 a150,150,0,0,1,-75,125 a150,150,0,0,1,-75,-125 z" fill="url(#backlight)" stroke="#333"/></svg>