<svg id="coaworld_burg_281_burg_281_s0" width="500" height="500" viewBox="0 10 200 200" xmlns="http://www.w3.org/2000/svg"><defs><clipPath id="heater_coaworld_burg_281_burg_281_s0"><path d="m25,25 h150 v50 a150,150,0,0,1,-75,125 a150,150,0,0,1,-75,-125 z"/></clipPath><clipPath id="divisionClip_coaworld_burg_281_burg_281_s0"><polygon points="0,0 0,200 200,0 200,200"/></clipPath><pattern id="vair-gules-argent" width="25" height="50" viewBox="0 0 25 50" patternUnits="userSpaceOnUse" stroke="#000" stroke-width=".2"><rect width="25" height="25" fill="#d7374a" stroke="none"/><path d="m12.5,0 l6.25,6.25 v12.5 l6.25,6.25 h-25 l6.25,-6.25 v-12.5 z" fill="#fafafa"/><rect x="0" y="25" width="25" height="25" fill="#fafafa" stroke="none"/><path d="m25,25 l-6.25,6.25 v12.5 l-6.25,6.25 l-6.25,-6.25 v-12.5 l-6.25,-6.25 z" fill="#d7374a"/><path d="M0 50 h25" fill="none"/></pattern><radialGradient id="backlight" cx="100%" cy="100%" r="150%"><stop stop-color="#fff" stop-opacity=".3" offset="0"/><stop stop-color="#fff" stop-opacity=".15" offset=".25"/><stop stop-color="#000" stop-opacity="0" offset="1"/></radialGradient></defs><g clip-path="url(#heater_coaworld_burg_281_burg_281_s0)"><rect x="0" y="0" width="200" height="200" fill="url(#vair-gules-argent)"/><g clip-path="url(#divisionClip_coaworld_burg_281_burg_281_s0)"><rect x="0" y="0" width="200" height="200" fill="#ffe066"/></g><g fill="#ffe066" stroke="none"><path d="m0,250 a100,100,0,0,1,200,0"/></g></g><path d="m25,25 h150 v50 a150,150,0,0,1,-75,125 a150,150,0,0,1,-75,-125 z" fill="url(#backlight)" stroke="#333"/></svg>