<svg id="coaworld_burg_282_burg_282_s-1" width="500" height="500" viewBox="0 10 200 200" xmlns="http://www.w3.org/2000/svg" xmlns:x="http://www.w3.org/1999/xlink"><defs><clipPath id="heater_coaworld_burg_282_burg_282_s-1"><path d="m25,25 h150 v50 a150,150,0,0,1,-75,125 a150,150,0,0,1,-75,-125 z"/></clipPath><g id="crossTau_coaworld_burg_282_burg_282_s-1" stroke-width=".5"><path d="M83.1 140c13.2-23.1 9.8-58.2 9.8-58.2-12-1.7-32.9 8.5-32.9 8.5s7.1-12.7 7.1-30.3c16 10.1 49.8 10.1 65.8 0 0 17.6 7.1 30.3 7.1 30.3s-20.9-10.2-32.9-8.5c0 0-3.4 35.1 9.9 58.2-11.4-5.3-24-4.8-33.9 0z"/></g><pattern id="pappellony2-sable-argent-small" width="20" height="20" viewBox="0 0 100 100" patternUnits="userSpaceOnUse" stroke="#000" stroke-width="2"><rect width="100" height="100" fill="#333333" stroke="none"/><circle cy="50" r="49" fill="#fafafa"/><circle cx="100" cy="50" r="49" fill="#fafafa"/><circle cx="50" cy="0" r="49" fill="#333333"/></pattern><radialGradient id="backlight" cx="100%" cy="100%" r="150%"><stop stop-color="#fff" stop-opacity=".3" offset="0"/><stop stop-color="#fff" stop-opacity=".15" offset=".25"/><stop stop-color="#000" stop-opacity="0" offset="1"/></radialGradient></defs><g clip-path="url(#heater_coaworld_burg_282_burg_282_s-1)"><rect x="0" y="0" width="200" height="200" fill="url(#pappellony2-sable-argent-small)"/><g fill="#ffe066" stroke="#000"><style>
      g.secondary,path.secondary {fill: #ffe066;}
      g.tertiary,path.tertiary {fill: #ffe066;}
    </style><use x:href="#crossTau_coaworld_burg_282_burg_282_s-1" transform="translate(-50 -50) scale(1.5)"/></g></g><path d="m25,25 h150 v50 a150,150,0,0,1,-75,125 a150,150,0,0,1,-75,-125 z" fill="url(#backlight)" stroke="#333"/></svg>