<svg id="coaworld_burg_306_burg_306_s-1" width="500" height="500" viewBox="0 10 200 200" xmlns="http://www.w3.org/2000/svg"><defs><clipPath id="heater_coaworld_burg_306_burg_306_s-1"><path d="m25,25 h150 v50 a150,150,0,0,1,-75,125 a150,150,0,0,1,-75,-125 z"/></clipPath><clipPath id="divisionClip_coaworld_burg_306_burg_306_s-1"><polygon points="0,0 0,200 200,0 200,200"/></clipPath><pattern id="barry-or-gules-smaller" width="12.5" height="50" viewBox="0 0 25 100" patternUnits="userSpaceOnUse"><rect width="25" height="100" fill="#d7374a"/><rect x="0" y="25" width="25" height="25" fill="#ffe066"/><rect x="0" y="75" width="25" height="25" fill="#ffe066"/></pattern><radialGradient id="backlight" cx="100%" cy="100%" r="150%"><stop stop-color="#fff" stop-opacity=".3" offset="0"/><stop stop-color="#fff" stop-opacity=".15" offset=".25"/><stop stop-color="#000" stop-opacity="0" offset="1"/></radialGradient></defs><g clip-path="url(#heater_coaworld_burg_306_burg_306_s-1)"><rect x="0" y="0" width="200" height="200" fill="url(#barry-or-gules-smaller)"/><g clip-path="url(#divisionClip_coaworld_burg_306_burg_306_s-1)"><rect x="0" y="0" width="200" height="200" fill="#522d5b"/></g><g fill="#333333" stroke="none"><rect x="75" y="0" width="50" height="200"/></g></g><path d="m25,25 h150 v50 a150,150,0,0,1,-75,125 a150,150,0,0,1,-75,-125 z" fill="url(#backlight)" stroke="#333"/></svg>