<svg id="coaworld_burg_337_burg_337_s0" width="500" height="500" viewBox="0 10 200 200" xmlns="http://www.w3.org/2000/svg" xmlns:x="http://www.w3.org/1999/xlink"><defs><clipPath id="heater_coaworld_burg_337_burg_337_s0"><path d="m25,25 h150 v50 a150,150,0,0,1,-75,125 a150,150,0,0,1,-75,-125 z"/></clipPath><g id="roundel2_coaworld_burg_337_burg_337_s0"><circle cx="100" cy="100" r="30"/><path fill="none" stroke-width=".5" d="M124 95a23 23 0 01-25 30"/></g><radialGradient id="backlight" cx="100%" cy="100%" r="150%"><stop stop-color="#fff" stop-opacity=".3" offset="0"/><stop stop-color="#fff" stop-opacity=".15" offset=".25"/><stop stop-color="#000" stop-opacity="0" offset="1"/></radialGradient></defs><g clip-path="url(#heater_coaworld_burg_337_burg_337_s0)"><rect x="0" y="0" width="200" height="200" fill="#ffe066"/><g fill="#333333" stroke="none"><polygon points="0,0 30,0 100,70 170,0 200,0 200,30 122,109 122,200 78,200 78,109 0,30"/></g><g fill="#fafafa" stroke="#000"><style>
      g.secondary,path.secondary {fill: #fafafa;}
      g.tertiary,path.tertiary {fill: #fafafa;}
    </style><use x:href="#roundel2_coaworld_burg_337_burg_337_s0" transform="translate(12.5 12.5) scale(0.5)"/><use x:href="#roundel2_coaworld_burg_337_burg_337_s0" transform="translate(87.5 12.5) scale(0.5)"/><use x:href="#roundel2_coaworld_burg_337_burg_337_s0" transform="translate(50 50) scale(0.5)"/><use x:href="#roundel2_coaworld_burg_337_burg_337_s0" transform="translate(50 100) scale(0.5)"/></g></g><path d="m25,25 h150 v50 a150,150,0,0,1,-75,125 a150,150,0,0,1,-75,-125 z" fill="url(#backlight)" stroke="#333"/></svg>