<svg id="coaworld_burg_342_burg_342_s0" width="500" height="500" viewBox="0 10 200 200" xmlns="http://www.w3.org/2000/svg"><defs><clipPath id="heater_coaworld_burg_342_burg_342_s0"><path d="m25,25 h150 v50 a150,150,0,0,1,-75,125 a150,150,0,0,1,-75,-125 z"/></clipPath><clipPath id="divisionClip_coaworld_burg_342_burg_342_s0"><rect x="0" y="100" width="200" height="100"/></clipPath><pattern id="vairEnPointe-argent-azure" width="25" height="50" viewBox="0 0 25 50" patternUnits="userSpaceOnUse"><rect width="25" height="25" fill="#377cd7"/><path d="m12.5,0 l6.25,6.25 v12.5 l6.25,6.25 h-25 l6.25,-6.25 v-12.5 z" fill="#fafafa"/><rect x="0" y="25" width="25" height="25" fill="#fafafa" stroke-width="1" stroke="#fafafa"/><path d="m12.5,25 l6.25,6.25 v12.5 l6.25,6.25 h-25 l6.25,-6.25 v-12.5 z" fill="#377cd7"/></pattern><radialGradient id="backlight" cx="100%" cy="100%" r="150%"><stop stop-color="#fff" stop-opacity=".3" offset="0"/><stop stop-color="#fff" stop-opacity=".15" offset=".25"/><stop stop-color="#000" stop-opacity="0" offset="1"/></radialGradient></defs><g clip-path="url(#heater_coaworld_burg_342_burg_342_s0)"><rect x="0" y="0" width="200" height="200" fill="url(#vairEnPointe-argent-azure)"/><g clip-path="url(#divisionClip_coaworld_burg_342_burg_342_s0)"><rect x="0" y="0" width="200" height="200" fill="#d7374a"/></g></g><path d="m25,25 h150 v50 a150,150,0,0,1,-75,125 a150,150,0,0,1,-75,-125 z" fill="url(#backlight)" stroke="#333"/></svg>