<svg id="coaworld_burg_346_burg_346_s0" width="500" height="500" viewBox="0 10 200 200" xmlns="http://www.w3.org/2000/svg" xmlns:x="http://www.w3.org/1999/xlink"><defs><clipPath id="heater_coaworld_burg_346_burg_346_s0"><path d="m25,25 h150 v50 a150,150,0,0,1,-75,125 a150,150,0,0,1,-75,-125 z"/></clipPath><g id="crossClechy_coaworld_burg_346_burg_346_s0" stroke-width=".5"><path d="M 96.9,103.1 C 97,112 92,122 87,127 c 5.2,2.3 11,8 13,15 2,-7 7.8,-12.7 13,-15 -5,-5 -10,-15 -9.9,-23.9 8.9,-0.1 19.9,4.9 24.9,9.9 2,-5 8,-11 15,-13 -7,-2 -13,-8 -15,-13 -5,5 -16,10 -24.9,9.9 C 103,88 108,78 113,73 108,71 102,65 100,58 98,65 92,71 87,73 92,78 97,88 96.9,96.9 88,97 78,92 73,87 c -2,5 -8,11 -15,13 7,2 13,8 15,13 7,-5 15,-10 23.9,-9.9 z"/></g><radialGradient id="backlight" cx="100%" cy="100%" r="150%"><stop stop-color="#fff" stop-opacity=".3" offset="0"/><stop stop-color="#fff" stop-opacity=".15" offset=".25"/><stop stop-color="#000" stop-opacity="0" offset="1"/></radialGradient></defs><g clip-path="url(#heater_coaworld_burg_346_burg_346_s0)"><rect x="0" y="0" width="200" height="200" fill="#522d5b"/><g fill="#fafafa" stroke="none"><path d="m25,25 h150 v50 a150,150,0,0,1,-75,125 a150,150,0,0,1,-75,-125 z" fill="none" stroke="#fafafa" stroke-width="5%" transform="translate(15 15) scale(.85)"/></g><g fill="#fafafa" stroke="#000"><style>
      g.secondary,path.secondary {fill: #fafafa;}
      g.tertiary,path.tertiary {fill: #fafafa;}
    </style><use x:href="#crossClechy_coaworld_burg_346_burg_346_s0" transform="translate(-10 -10) scale(1.1)"/></g></g><path d="m25,25 h150 v50 a150,150,0,0,1,-75,125 a150,150,0,0,1,-75,-125 z" fill="url(#backlight)" stroke="#333"/></svg>