<svg id="coaworld_burg_349_burg_349_s-1" width="500" height="500" viewBox="0 10 200 200" xmlns="http://www.w3.org/2000/svg" xmlns:x="http://www.w3.org/1999/xlink"><defs><clipPath id="heater_coaworld_burg_349_burg_349_s-1"><path d="m25,25 h150 v50 a150,150,0,0,1,-75,125 a150,150,0,0,1,-75,-125 z"/></clipPath><clipPath id="divisionClip_coaworld_burg_349_burg_349_s-1"><path d="m 0,115 v -20 a 6.25,6.25 0 0 0 12.5,0a 6.25,6.25 0 0 0 12.5,0a 6.25,6.25 0 0 0 12.5,0a 6.25,6.25 0 0 0 12.5,0a 6.25,6.25 0 0 0 12.5,0a 6.25,6.25 0 0 0 12.5,0a 6.25,6.25 0 0 0 12.5,0a 6.25,6.25 0 0 0 12.5,0a 6.25,6.25 0 0 0 12.5,0a 6.25,6.25 0 0 0 12.5,0a 6.25,6.25 0 0 0 12.5,0a 6.25,6.25 0 0 0 12.5,0a 6.25,6.25 0 0 0 12.5,0a 6.25,6.25 0 0 0 12.5,0a 6.25,6.25 0 0 0 12.5,0a 6.25,6.25 0 0 0 12.5,0 v 20 V200 H0 Z" transform="rotate(-90 100 100)"/></clipPath><g id="fusil_coaworld_burg_349_burg_349_s-1"><polygon points="100 55 130 100 100 145 70 100"/></g><radialGradient id="backlight" cx="100%" cy="100%" r="150%"><stop stop-color="#fff" stop-opacity=".3" offset="0"/><stop stop-color="#fff" stop-opacity=".15" offset=".25"/><stop stop-color="#000" stop-opacity="0" offset="1"/></radialGradient></defs><g clip-path="url(#heater_coaworld_burg_349_burg_349_s-1)"><rect x="0" y="0" width="200" height="200" fill="#fafafa"/><g clip-path="url(#divisionClip_coaworld_burg_349_burg_349_s-1)"><rect x="0" y="0" width="200" height="200" fill="#522d5b"/></g><g fill="#26c061" stroke="#000"><style>
      g.secondary,path.secondary {fill: #26c061;}
      g.tertiary,path.tertiary {fill: #26c061;}
    </style><use x:href="#fusil_coaworld_burg_349_burg_349_s-1" transform="translate(-50 -50) scale(1.5)"/></g></g><path d="m25,25 h150 v50 a150,150,0,0,1,-75,125 a150,150,0,0,1,-75,-125 z" fill="url(#backlight)" stroke="#333"/></svg>