<svg id="coaworld_burg_350_burg_350_s0" width="500" height="500" viewBox="0 10 200 200" xmlns="http://www.w3.org/2000/svg" xmlns:x="http://www.w3.org/1999/xlink"><defs><clipPath id="heater_coaworld_burg_350_burg_350_s0"><path d="m25,25 h150 v50 a150,150,0,0,1,-75,125 a150,150,0,0,1,-75,-125 z"/></clipPath><clipPath id="divisionClip_coaworld_burg_350_burg_350_s0"><rect x="100" y="0" width="100" height="100"/><rect x="0" y="100" width="100" height="100"/></clipPath><g id="mascle_coaworld_burg_350_burg_350_s0"><path d="M100 55l30 45-30 45-30-45zm0 15.75L80.5 100l19.5 29.25L119.5 100z"/></g><radialGradient id="backlight" cx="100%" cy="100%" r="150%"><stop stop-color="#fff" stop-opacity=".3" offset="0"/><stop stop-color="#fff" stop-opacity=".15" offset=".25"/><stop stop-color="#000" stop-opacity="0" offset="1"/></radialGradient></defs><g clip-path="url(#heater_coaworld_burg_350_burg_350_s0)"><rect x="0" y="0" width="200" height="200" fill="#fafafa"/><g fill="#522d5b" stroke="#000"><style>
      g.secondary,path.secondary {fill: #522d5b;}
      g.tertiary,path.tertiary {fill: #522d5b;}
    </style><use x:href="#mascle_coaworld_burg_350_burg_350_s0" transform="translate(-50 -50) scale(1.5)"/></g><g clip-path="url(#divisionClip_coaworld_burg_350_burg_350_s0)"><rect x="0" y="0" width="200" height="200" fill="#522d5b"/><g fill="#fafafa" stroke="#000"><style>
      g.secondary,path.secondary {fill: #fafafa;}
      g.tertiary,path.tertiary {fill: #fafafa;}
    </style><use x:href="#mascle_coaworld_burg_350_burg_350_s0" transform="translate(-50 -50) scale(1.5)"/></g></g></g><path d="m25,25 h150 v50 a150,150,0,0,1,-75,125 a150,150,0,0,1,-75,-125 z" fill="url(#backlight)" stroke="#333"/></svg>