<svg id="coaworld_burg_359_burg_359_s0" width="500" height="500" viewBox="0 10 200 200" xmlns="http://www.w3.org/2000/svg" xmlns:x="http://www.w3.org/1999/xlink"><defs><clipPath id="heater_coaworld_burg_359_burg_359_s0"><path d="m25,25 h150 v50 a150,150,0,0,1,-75,125 a150,150,0,0,1,-75,-125 z"/></clipPath><clipPath id="divisionClip_coaworld_burg_359_burg_359_s0"><path d="m 0,115 v -15 h 85 l 15,15 15,-15 h 85 v 15 L100,200 Z" transform="translate(129 71) rotate(-45 -100 100) scale(-1 1)"/><path d="m 0,115 v -15 h 85 l 15,15 15,-15 h 85 v 15 L100,200 Z" transform="translate(71 71) rotate(45 100 100)"/></clipPath><g id="mullet7_coaworld_burg_359_burg_359_s0"><polygon points="100 60 106.63 86.23 131.27 75.06 114.9 96.6 139 108.9 111.95 109.53 117.36 136.04 100 115.28 82.64 136.04 88.05 109.53 61 108.9 85.1 96.6 68.73 75.06 93.37 86.23"/></g><radialGradient id="backlight" cx="100%" cy="100%" r="150%"><stop stop-color="#fff" stop-opacity=".3" offset="0"/><stop stop-color="#fff" stop-opacity=".15" offset=".25"/><stop stop-color="#000" stop-opacity="0" offset="1"/></radialGradient></defs><g clip-path="url(#heater_coaworld_burg_359_burg_359_s0)"><rect x="0" y="0" width="200" height="200" fill="#fafafa"/><g fill="#d7374a" stroke="#000"><style>
      g.secondary,path.secondary {fill: #d7374a;}
      g.tertiary,path.tertiary {fill: #d7374a;}
    </style><use x:href="#mullet7_coaworld_burg_359_burg_359_s0" transform="translate(-7.5 132.5) scale(0.7 -0.7)"/><use x:href="#mullet7_coaworld_burg_359_burg_359_s0" transform="translate(67.5 132.5) scale(0.7 -0.7)"/><use x:href="#mullet7_coaworld_burg_359_burg_359_s0" transform="translate(30 220) scale(0.7 -0.7)"/></g><g clip-path="url(#divisionClip_coaworld_burg_359_burg_359_s0)"><rect x="0" y="0" width="200" height="200" fill="#d7374a"/><g fill="#fafafa" stroke="#000"><style>
      g.secondary,path.secondary {fill: #fafafa;}
      g.tertiary,path.tertiary {fill: #fafafa;}
    </style><use x:href="#mullet7_coaworld_burg_359_burg_359_s0" transform="translate(-7.5 132.5) scale(0.7 -0.7)"/><use x:href="#mullet7_coaworld_burg_359_burg_359_s0" transform="translate(67.5 132.5) scale(0.7 -0.7)"/><use x:href="#mullet7_coaworld_burg_359_burg_359_s0" transform="translate(30 220) scale(0.7 -0.7)"/></g></g></g><path d="m25,25 h150 v50 a150,150,0,0,1,-75,125 a150,150,0,0,1,-75,-125 z" fill="url(#backlight)" stroke="#333"/></svg>