<svg id="coaworld_burg_374_burg_374_s-1" width="500" height="500" viewBox="0 10 200 200" xmlns="http://www.w3.org/2000/svg"><defs><clipPath id="heater_coaworld_burg_374_burg_374_s-1"><path d="m25,25 h150 v50 a150,150,0,0,1,-75,125 a150,150,0,0,1,-75,-125 z"/></clipPath><radialGradient id="backlight" cx="100%" cy="100%" r="150%"><stop stop-color="#fff" stop-opacity=".3" offset="0"/><stop stop-color="#fff" stop-opacity=".15" offset=".25"/><stop stop-color="#000" stop-opacity="0" offset="1"/></radialGradient></defs><g clip-path="url(#heater_coaworld_burg_374_burg_374_s-1)"><rect x="0" y="0" width="200" height="200" fill="#377cd7"/><g fill="#ffe066" stroke="none"><path d="m 0,115 v -5.7 c 0,-2.7 2.4,4.2 3.9,5.7 c -1.5,-4.6 -1.9,-10.3 -0.8,-16.2 1.1,-5.9 3.5,-10.7 6.3,-13.8 -1.5,4.6 -1.9,10.3 -0.8,16.2 1.1,5.9 3.5,10.7 6.4,13.8c -1.5,-4.6 -1.9,-10.3 -0.8,-16.2 1.1,-5.9 3.5,-10.7 6.3,-13.8 -1.5,4.6 -1.9,10.3 -0.8,16.2 1.1,5.9 3.5,10.7 6.4,13.8c -1.5,-4.6 -1.9,-10.3 -0.8,-16.2 1.1,-5.9 3.5,-10.7 6.3,-13.8 -1.5,4.6 -1.9,10.3 -0.8,16.2 1.1,5.9 3.5,10.7 6.4,13.8c -1.5,-4.6 -1.9,-10.3 -0.8,-16.2 1.1,-5.9 3.5,-10.7 6.3,-13.8 -1.5,4.6 -1.9,10.3 -0.8,16.2 1.1,5.9 3.5,10.7 6.4,13.8c -1.5,-4.6 -1.9,-10.3 -0.8,-16.2 1.1,-5.9 3.5,-10.7 6.3,-13.8 -1.5,4.6 -1.9,10.3 -0.8,16.2 1.1,5.9 3.5,10.7 6.4,13.8c -1.5,-4.6 -1.9,-10.3 -0.8,-16.2 1.1,-5.9 3.5,-10.7 6.3,-13.8 -1.5,4.6 -1.9,10.3 -0.8,16.2 1.1,5.9 3.5,10.7 6.4,13.8c -1.5,-4.6 -1.9,-10.3 -0.8,-16.2 1.1,-5.9 3.5,-10.7 6.3,-13.8 -1.5,4.6 -1.9,10.3 -0.8,16.2 1.1,5.9 3.5,10.7 6.4,13.8c -1.5,-4.6 -1.9,-10.3 -0.8,-16.2 1.1,-5.9 3.5,-10.7 6.3,-13.8 -1.5,4.6 -1.9,10.3 -0.8,16.2 1.1,5.9 3.5,10.7 6.4,13.8c -1.5,-4.6 -1.9,-10.3 -0.8,-16.2 1.1,-5.9 3.5,-10.7 6.3,-13.8 -1.5,4.6 -1.9,10.3 -0.8,16.2 1.1,5.9 3.5,10.7 6.4,13.8c -1.5,-4.6 -1.9,-10.3 -0.8,-16.2 1.1,-5.9 3.5,-10.7 6.3,-13.8 -1.5,4.6 -1.9,10.3 -0.8,16.2 1.1,5.9 3.5,10.7 6.4,13.8c -1.5,-4.6 -1.9,-10.3 -0.8,-16.2 1.1,-5.9 3.5,-10.7 6.3,-13.8 -1.5,4.6 -1.9,10.3 -0.8,16.2 1.1,5.9 3.5,10.7 6.4,13.8c -1.5,-4.6 -1.9,-10.3 -0.8,-16.2 1.1,-5.9 3.5,-10.7 6.3,-13.8 -1.5,4.6 -1.9,10.3 -0.8,16.2 1.1,5.9 3.5,10.7 6.4,13.8c -1.5,-4.6 -1.9,-10.3 -0.8,-16.2 1.1,-5.9 3.5,-10.7 6.3,-13.8 -1.5,4.6 -1.9,10.3 -0.8,16.2 1.1,5.9 3.5,10.7 6.4,13.8c -1.5,-4.6 -1.9,-10.3 -0.8,-16.2 1.1,-5.9 3.5,-10.7 6.3,-13.8 -1.5,4.6 -1.9,10.3 -0.8,16.2 1.1,5.9 3.5,10.7 6.4,13.8c -1.5,-4.6 -1.9,-10.3 -0.8,-16.2 1.1,-5.9 3.5,-10.7 6.3,-13.8 -1.5,4.6 -1.9,10.3 -0.8,16.2 1.1,5.9 3.5,10.7 6.4,13.8c -1.5,-4.6 -1.9,-10.3 -0.8,-16.2 1.1,-5.9 3.5,-10.7 6.3,-13.8 -1.5,4.6 -1.9,10.3 -0.8,16.2 1.1,5.9 3.5,10.7 6.4,13.8c -1.5,-4.6 -1.9,-10.3 -0.8,-16.2 1.1,-5.9 3.5,-10.7 6.3,-13.8 -1.5,4.6 -1.9,10.3 -0.8,16.2 1.1,5.9 3.5,10.7 6.4,13.8 c -1.5,-4.6 -1.9,-10.3 -0.8,-16.2 1.1,-5.9 3.5,-10.7 6.3,-13.8 -1.5,4.6 -1.9,10.3 -0.8,16.2 0.6,2.9 1.5,5.6 2.7,8 v 5.7" transform="translate(0,-12.5)"/><path d="m 0,115 v -5.7 c 0,-2.7 2.4,4.2 3.9,5.7 c -1.5,-4.6 -1.9,-10.3 -0.8,-16.2 1.1,-5.9 3.5,-10.7 6.3,-13.8 -1.5,4.6 -1.9,10.3 -0.8,16.2 1.1,5.9 3.5,10.7 6.4,13.8c -1.5,-4.6 -1.9,-10.3 -0.8,-16.2 1.1,-5.9 3.5,-10.7 6.3,-13.8 -1.5,4.6 -1.9,10.3 -0.8,16.2 1.1,5.9 3.5,10.7 6.4,13.8c -1.5,-4.6 -1.9,-10.3 -0.8,-16.2 1.1,-5.9 3.5,-10.7 6.3,-13.8 -1.5,4.6 -1.9,10.3 -0.8,16.2 1.1,5.9 3.5,10.7 6.4,13.8c -1.5,-4.6 -1.9,-10.3 -0.8,-16.2 1.1,-5.9 3.5,-10.7 6.3,-13.8 -1.5,4.6 -1.9,10.3 -0.8,16.2 1.1,5.9 3.5,10.7 6.4,13.8c -1.5,-4.6 -1.9,-10.3 -0.8,-16.2 1.1,-5.9 3.5,-10.7 6.3,-13.8 -1.5,4.6 -1.9,10.3 -0.8,16.2 1.1,5.9 3.5,10.7 6.4,13.8c -1.5,-4.6 -1.9,-10.3 -0.8,-16.2 1.1,-5.9 3.5,-10.7 6.3,-13.8 -1.5,4.6 -1.9,10.3 -0.8,16.2 1.1,5.9 3.5,10.7 6.4,13.8c -1.5,-4.6 -1.9,-10.3 -0.8,-16.2 1.1,-5.9 3.5,-10.7 6.3,-13.8 -1.5,4.6 -1.9,10.3 -0.8,16.2 1.1,5.9 3.5,10.7 6.4,13.8c -1.5,-4.6 -1.9,-10.3 -0.8,-16.2 1.1,-5.9 3.5,-10.7 6.3,-13.8 -1.5,4.6 -1.9,10.3 -0.8,16.2 1.1,5.9 3.5,10.7 6.4,13.8c -1.5,-4.6 -1.9,-10.3 -0.8,-16.2 1.1,-5.9 3.5,-10.7 6.3,-13.8 -1.5,4.6 -1.9,10.3 -0.8,16.2 1.1,5.9 3.5,10.7 6.4,13.8c -1.5,-4.6 -1.9,-10.3 -0.8,-16.2 1.1,-5.9 3.5,-10.7 6.3,-13.8 -1.5,4.6 -1.9,10.3 -0.8,16.2 1.1,5.9 3.5,10.7 6.4,13.8c -1.5,-4.6 -1.9,-10.3 -0.8,-16.2 1.1,-5.9 3.5,-10.7 6.3,-13.8 -1.5,4.6 -1.9,10.3 -0.8,16.2 1.1,5.9 3.5,10.7 6.4,13.8c -1.5,-4.6 -1.9,-10.3 -0.8,-16.2 1.1,-5.9 3.5,-10.7 6.3,-13.8 -1.5,4.6 -1.9,10.3 -0.8,16.2 1.1,5.9 3.5,10.7 6.4,13.8c -1.5,-4.6 -1.9,-10.3 -0.8,-16.2 1.1,-5.9 3.5,-10.7 6.3,-13.8 -1.5,4.6 -1.9,10.3 -0.8,16.2 1.1,5.9 3.5,10.7 6.4,13.8c -1.5,-4.6 -1.9,-10.3 -0.8,-16.2 1.1,-5.9 3.5,-10.7 6.3,-13.8 -1.5,4.6 -1.9,10.3 -0.8,16.2 1.1,5.9 3.5,10.7 6.4,13.8c -1.5,-4.6 -1.9,-10.3 -0.8,-16.2 1.1,-5.9 3.5,-10.7 6.3,-13.8 -1.5,4.6 -1.9,10.3 -0.8,16.2 1.1,5.9 3.5,10.7 6.4,13.8c -1.5,-4.6 -1.9,-10.3 -0.8,-16.2 1.1,-5.9 3.5,-10.7 6.3,-13.8 -1.5,4.6 -1.9,10.3 -0.8,16.2 1.1,5.9 3.5,10.7 6.4,13.8c -1.5,-4.6 -1.9,-10.3 -0.8,-16.2 1.1,-5.9 3.5,-10.7 6.3,-13.8 -1.5,4.6 -1.9,10.3 -0.8,16.2 1.1,5.9 3.5,10.7 6.4,13.8 c -1.5,-4.6 -1.9,-10.3 -0.8,-16.2 1.1,-5.9 3.5,-10.7 6.3,-13.8 -1.5,4.6 -1.9,10.3 -0.8,16.2 0.6,2.9 1.5,5.6 2.7,8 v 5.7" transform="translate(0,12.5) rotate(180.00001 100 100)"/><rect x="0" y="94" width="200" height="12" stroke="none"/></g></g><path d="m25,25 h150 v50 a150,150,0,0,1,-75,125 a150,150,0,0,1,-75,-125 z" fill="url(#backlight)" stroke="#333"/></svg>