<svg id="coaworld_burg_375_burg_375_s0" width="500" height="500" viewBox="0 10 200 200" xmlns="http://www.w3.org/2000/svg" xmlns:x="http://www.w3.org/1999/xlink"><defs><clipPath id="heater_coaworld_burg_375_burg_375_s0"><path d="m25,25 h150 v50 a150,150,0,0,1,-75,125 a150,150,0,0,1,-75,-125 z"/></clipPath><g id="crossDouble_coaworld_burg_375_burg_375_s0" stroke-width=".5"><path d="m 95,60 h 10 v 20 h 20 v 10 h -20 v 20 h 20 v 10 h -20 v 20 H 95 V 120 H 75 V 110 H 95 V 90 H 75 V 80 h 20 z"/></g><pattern id="pappellony-sable-argent" width="25" height="25" viewBox="0 0 100 100" patternUnits="userSpaceOnUse"><rect width="100" height="100" fill="#333333"/><circle cx="0" cy="51" r="45" stroke="#fafafa" fill="#333333" stroke-width="10"/><circle cx="100" cy="51" r="45" stroke="#fafafa" fill="#333333" stroke-width="10"/><circle cx="50" cy="1" r="45" stroke="#fafafa" fill="#333333" stroke-width="10"/></pattern><radialGradient id="backlight" cx="100%" cy="100%" r="150%"><stop stop-color="#fff" stop-opacity=".3" offset="0"/><stop stop-color="#fff" stop-opacity=".15" offset=".25"/><stop stop-color="#000" stop-opacity="0" offset="1"/></radialGradient></defs><g clip-path="url(#heater_coaworld_burg_375_burg_375_s0)"><rect x="0" y="0" width="200" height="200" fill="url(#pappellony-sable-argent)"/><g fill="#ffe066" stroke="#000"><style>
      g.secondary,path.secondary {fill: #ffe066;}
      g.tertiary,path.tertiary {fill: #ffe066;}
    </style><use x:href="#crossDouble_coaworld_burg_375_burg_375_s0" transform="translate(-50 -50) scale(1.5)"/></g></g><path d="m25,25 h150 v50 a150,150,0,0,1,-75,125 a150,150,0,0,1,-75,-125 z" fill="url(#backlight)" stroke="#333"/></svg>