<svg id="coaworld_burg_380_burg_380_s0" width="500" height="500" viewBox="0 10 200 200" xmlns="http://www.w3.org/2000/svg" xmlns:x="http://www.w3.org/1999/xlink"><defs><clipPath id="heater_coaworld_burg_380_burg_380_s0"><path d="m25,25 h150 v50 a150,150,0,0,1,-75,125 a150,150,0,0,1,-75,-125 z"/></clipPath><g id="crossPatriarchal_coaworld_burg_380_burg_380_s0" stroke-width=".5"><path d="M95 60h10v10h10v10h-10v10h20v10h-20v40H95v-40H75V90h20V80H85V70h10z"/></g><radialGradient id="backlight" cx="100%" cy="100%" r="150%"><stop stop-color="#fff" stop-opacity=".3" offset="0"/><stop stop-color="#fff" stop-opacity=".15" offset=".25"/><stop stop-color="#000" stop-opacity="0" offset="1"/></radialGradient></defs><g clip-path="url(#heater_coaworld_burg_380_burg_380_s0)"><rect x="0" y="0" width="200" height="200" fill="#333333"/><g fill="#ffe066" stroke="none"><polygon points="0,178 178,0 200,0 200,22 22,200 0,200"/></g><g fill="#377cd7" stroke="#000"><style>
      g.secondary,path.secondary {fill: #377cd7;}
      g.tertiary,path.tertiary {fill: #377cd7;}
    </style><use x:href="#crossPatriarchal_coaworld_burg_380_burg_380_s0" transform="translate(107.5 32.5) scale(0.3)"/><use x:href="#crossPatriarchal_coaworld_burg_380_burg_380_s0" transform="translate(70 70) scale(0.3)"/><use x:href="#crossPatriarchal_coaworld_burg_380_burg_380_s0" transform="translate(40 100) scale(0.3)"/></g></g><path d="m25,25 h150 v50 a150,150,0,0,1,-75,125 a150,150,0,0,1,-75,-125 z" fill="url(#backlight)" stroke="#333"/></svg>