<svg id="coaworld_burg_383_burg_383_s-1" width="500" height="500" viewBox="0 10 200 200" xmlns="http://www.w3.org/2000/svg" xmlns:x="http://www.w3.org/1999/xlink"><defs><clipPath id="heater_coaworld_burg_383_burg_383_s-1"><path d="m25,25 h150 v50 a150,150,0,0,1,-75,125 a150,150,0,0,1,-75,-125 z"/></clipPath><clipPath id="divisionClip_coaworld_burg_383_burg_383_s-1"><path d="m 0,115 v -15 l 2,-3.5 -2,0.5 4,-7 l 4,7 -2,-0.5 4,7 -2,-0.5 4,7 4,-7 -2,0.5 4,-7 -2,0.5 4,-7l 4,7 -2,-0.5 4,7 -2,-0.5 4,7 4,-7 -2,0.5 4,-7 -2,0.5 4,-7l 4,7 -2,-0.5 4,7 -2,-0.5 4,7 4,-7 -2,0.5 4,-7 -2,0.5 4,-7l 4,7 -2,-0.5 4,7 -2,-0.5 4,7 4,-7 -2,0.5 4,-7 -2,0.5 4,-7l 4,7 -2,-0.5 4,7 -2,-0.5 4,7 4,-7 -2,0.5 4,-7 -2,0.5 4,-7l 4,7 -2,-0.5 4,7 -2,-0.5 4,7 4,-7 -2,0.5 4,-7 -2,0.5 4,-7l 4,7 -2,-0.5 4,7 -2,-0.5 4,7 4,-7 -2,0.5 4,-7 -2,0.5 4,-7l 4,7 -2,-0.5 4,7 -2,-0.5 4,7 4,-7 -2,0.5 4,-7 -2,0.5 4,-7l 4,7 -2,-0.5 4,7 -2,-0.5 4,7 4,-7 -2,0.5 4,-7 -2,0.5 4,-7l 4,7 -2,-0.5 4,7 -2,-0.5 4,7 4,-7 -2,0.5 4,-7 -2,0.5 4,-7l 4,7 -2,-0.5 4,7 -2,-0.5 4,7 4,-7 -2,0.5 4,-7 -2,0.5 4,-7l 4,7 -2,-0.5 4,7 -2,-0.5 4,7 4,-7 -2,0.5 4,-7 -2,0.5 4,-7 4,7 -2,-0.5 2,3.5 v 15 V200 H0 Z" transform="rotate(-90 100 100)"/></clipPath><g id="inescutcheon_coaworld_burg_383_burg_383_s-1"><path transform="translate(66 66) scale(.34)" d="m25,25 h150 v50 a150,150,0,0,1,-75,125 a150,150,0,0,1,-75,-125 z"/></g><g id="mullet6_coaworld_burg_383_burg_383_s-1"><polygon points="100 60 107.64 86.77 134.64 80 115.28 100 134.64 120 107.64 113.23 100 140 92.36 113.23 65.36 120 84.72 100 65.36 80 92.36 86.77"/></g><radialGradient id="backlight" cx="100%" cy="100%" r="150%"><stop stop-color="#fff" stop-opacity=".3" offset="0"/><stop stop-color="#fff" stop-opacity=".15" offset=".25"/><stop stop-color="#000" stop-opacity="0" offset="1"/></radialGradient></defs><g clip-path="url(#heater_coaworld_burg_383_burg_383_s-1)"><rect x="0" y="0" width="200" height="200" fill="#333333"/><g clip-path="url(#divisionClip_coaworld_burg_383_burg_383_s-1)"><rect x="0" y="0" width="200" height="200" fill="#ffe066"/></g><g fill="#fafafa" stroke="#000"><style>
      g.secondary,path.secondary {fill: #fafafa;}
      g.tertiary,path.tertiary {fill: #fafafa;}
    </style><use x:href="#inescutcheon_coaworld_burg_383_burg_383_s-1" transform="translate(-50 -50) scale(1.5)"/></g><g fill="#333333" stroke="#000"><style>
      g.secondary,path.secondary {fill: #333333;}
      g.tertiary,path.tertiary {fill: #333333;}
    </style><use x:href="#mullet6_coaworld_burg_383_burg_383_s-1" transform="translate(25 25) scale(0.75)"/></g></g><path d="m25,25 h150 v50 a150,150,0,0,1,-75,125 a150,150,0,0,1,-75,-125 z" fill="url(#backlight)" stroke="#333"/></svg>