<svg id="coaworld_burg_394_burg_394_s0" width="500" height="500" viewBox="0 10 200 200" xmlns="http://www.w3.org/2000/svg"><defs><clipPath id="heater_coaworld_burg_394_burg_394_s0"><path d="m25,25 h150 v50 a150,150,0,0,1,-75,125 a150,150,0,0,1,-75,-125 z"/></clipPath><clipPath id="divisionClip_coaworld_burg_394_burg_394_s0"><path d="m 0,115 v -20 l 5,10 5,-10l 5,10 5,-10l 5,10 5,-10l 5,10 5,-10l 5,10 5,-10l 5,10 5,-10l 5,10 5,-10l 5,10 5,-10l 5,10 5,-10l 5,10 5,-10l 5,10 5,-10l 5,10 5,-10l 5,10 5,-10l 5,10 5,-10l 5,10 5,-10l 5,10 5,-10l 5,10 5,-10l 5,10 5,-10l 5,10 5,-10l 5,10 5,-10 v 20 L100,200 Z" transform="translate(129 71) rotate(-45 -100 100) scale(-1 1)"/><path d="m 0,115 v -20 l 5,10 5,-10l 5,10 5,-10l 5,10 5,-10l 5,10 5,-10l 5,10 5,-10l 5,10 5,-10l 5,10 5,-10l 5,10 5,-10l 5,10 5,-10l 5,10 5,-10l 5,10 5,-10l 5,10 5,-10l 5,10 5,-10l 5,10 5,-10l 5,10 5,-10l 5,10 5,-10l 5,10 5,-10l 5,10 5,-10l 5,10 5,-10l 5,10 5,-10 v 20 L100,200 Z" transform="translate(71 71) rotate(45 100 100)"/></clipPath><radialGradient id="backlight" cx="100%" cy="100%" r="150%"><stop stop-color="#fff" stop-opacity=".3" offset="0"/><stop stop-color="#fff" stop-opacity=".15" offset=".25"/><stop stop-color="#000" stop-opacity="0" offset="1"/></radialGradient></defs><g clip-path="url(#heater_coaworld_burg_394_burg_394_s0)"><rect x="0" y="0" width="200" height="200" fill="#333333"/><g clip-path="url(#divisionClip_coaworld_burg_394_burg_394_s0)"><rect x="0" y="0" width="200" height="200" fill="#fafafa"/></g></g><path d="m25,25 h150 v50 a150,150,0,0,1,-75,125 a150,150,0,0,1,-75,-125 z" fill="url(#backlight)" stroke="#333"/></svg>