<svg id="coaworld_burg_397_burg_397_s0" width="500" height="500" viewBox="0 10 200 200" xmlns="http://www.w3.org/2000/svg" xmlns:x="http://www.w3.org/1999/xlink"><defs><clipPath id="heater_coaworld_burg_397_burg_397_s0"><path d="m25,25 h150 v50 a150,150,0,0,1,-75,125 a150,150,0,0,1,-75,-125 z"/></clipPath><clipPath id="divisionClip_coaworld_burg_397_burg_397_s0"><path d="m 0,115 v -20 h 3 v 10 h 10 v -5 h -5 v -5 h 10v 10 h 10 v -5 h -5 v -5 h 10v 10 h 10 v -5 h -5 v -5 h 10v 10 h 10 v -5 h -5 v -5 h 10v 10 h 10 v -5 h -5 v -5 h 10v 10 h 10 v -5 h -5 v -5 h 10v 10 h 10 v -5 h -5 v -5 h 10v 10 h 10 v -5 h -5 v -5 h 10v 10 h 10 v -5 h -5 v -5 h 10v 10 h 10 v -5 h -5 v -5 h 10v 10 h 10 v -5 h -5 v -5 h 10v 10 h 10 v -5 h -5 v -5 h 10v 10 h 10 v -5 h -5 v -5 h 10 v 10 h 2 v 20 V200 H0 Z" transform="rotate(-90 100 100)"/></clipPath><g id="crossCercelee_coaworld_burg_397_burg_397_s0" stroke-width=".5"><path d="M133 100.05c3.59-.26 6.43-4.77 6.43-10.24 0-5.65-3.02-10.24-6.73-10.24h-5.73c2.36 0 4.28 3.24 4.28 7.26 0 4.03-1.92 7.26-4.28 7.26h-20.94V73.14c0-2.36 3.28-4.29 7.26-4.29s7.26 1.93 7.26 4.29v-5.73c0-3.72-4.59-6.74-10.23-6.74-5.47 0-9.97 2.84-10.23 6.43-.26-3.59-4.77-6.43-10.23-6.43-5.64 0-10.23 3.02-10.23 6.74v5.73c0-2.36 3.24-4.29 7.26-4.29s7.26 1.93 7.26 4.29V94.1H73.19c-2.36 0-4.28-3.28-4.28-7.26s1.92-7.26 4.28-7.26h-5.73c-3.72 0-6.73 4.59-6.73 10.24 0 5.47 2.84 9.98 6.43 10.24-3.59.26-6.43 4.77-6.43 10.24 0 5.65 3.02 10.24 6.73 10.24h5.73c-2.36 0-4.28-3.24-4.28-7.26 0-4.03 1.92-7.26 4.28-7.26h20.94v20.96c0 2.36-3.28 4.29-7.26 4.29s-7.26-1.93-7.26-4.29v5.73c0 3.72 4.59 6.74 10.23 6.74 5.47 0 9.93-2.84 10.23-6.43.26 3.59 4.77 6.43 10.23 6.43 5.64 0 10.23-3.02 10.23-6.74v-5.73c0 2.36-3.24 4.29-7.26 4.29s-7.26-1.93-7.26-4.29v-20.96h20.94c2.36 0 4.28 3.28 4.28 7.26s-1.92 7.26-4.28 7.26h5.73c3.72 0 6.73-4.59 6.73-10.24 0-5.47-2.84-9.98-6.43-10.24z"/></g><radialGradient id="backlight" cx="100%" cy="100%" r="150%"><stop stop-color="#fff" stop-opacity=".3" offset="0"/><stop stop-color="#fff" stop-opacity=".15" offset=".25"/><stop stop-color="#000" stop-opacity="0" offset="1"/></radialGradient></defs><g clip-path="url(#heater_coaworld_burg_397_burg_397_s0)"><rect x="0" y="0" width="200" height="200" fill="#d7374a"/><g fill="#ffe066" stroke="#000"><style>
      g.secondary,path.secondary {fill: #ffe066;}
      g.tertiary,path.tertiary {fill: #ffe066;}
    </style><use x:href="#crossCercelee_coaworld_burg_397_burg_397_s0" transform="translate(-7.5 -7.5) scale(0.7)"/><use x:href="#crossCercelee_coaworld_burg_397_burg_397_s0" transform="translate(60 60) scale(0.7)"/></g><g clip-path="url(#divisionClip_coaworld_burg_397_burg_397_s0)"><rect x="0" y="0" width="200" height="200" fill="#ffe066"/><g fill="#d7374a" stroke="#000"><style>
      g.secondary,path.secondary {fill: #d7374a;}
      g.tertiary,path.tertiary {fill: #d7374a;}
    </style><use x:href="#crossCercelee_coaworld_burg_397_burg_397_s0" transform="translate(-7.5 -7.5) scale(0.7)"/><use x:href="#crossCercelee_coaworld_burg_397_burg_397_s0" transform="translate(60 60) scale(0.7)"/></g></g></g><path d="m25,25 h150 v50 a150,150,0,0,1,-75,125 a150,150,0,0,1,-75,-125 z" fill="url(#backlight)" stroke="#333"/></svg>