<svg id="coaworld_burg_399_burg_399_s-1" width="500" height="500" viewBox="0 10 200 200" xmlns="http://www.w3.org/2000/svg"><defs><clipPath id="heater_coaworld_burg_399_burg_399_s-1"><path d="m25,25 h150 v50 a150,150,0,0,1,-75,125 a150,150,0,0,1,-75,-125 z"/></clipPath><clipPath id="divisionClip_coaworld_burg_399_burg_399_s-1"><rect x="0" y="100" width="200" height="100"/></clipPath><radialGradient id="backlight" cx="100%" cy="100%" r="150%"><stop stop-color="#fff" stop-opacity=".3" offset="0"/><stop stop-color="#fff" stop-opacity=".15" offset=".25"/><stop stop-color="#000" stop-opacity="0" offset="1"/></radialGradient></defs><g clip-path="url(#heater_coaworld_burg_399_burg_399_s-1)"><rect x="0" y="0" width="200" height="200" fill="#377cd7"/><g clip-path="url(#divisionClip_coaworld_burg_399_burg_399_s-1)"><rect x="0" y="0" width="200" height="200" fill="#fafafa"/></g><g fill="#ffe066" stroke="none"><path d="m 0,115 v -10 h 7.5 v -5 h -5 v -5 h 15 v 5 h -5 v 5 h 7.5h 7.5 v -5 h -5 v -5 h 15 v 5 h -5 v 5 h 7.5h 7.5 v -5 h -5 v -5 h 15 v 5 h -5 v 5 h 7.5h 7.5 v -5 h -5 v -5 h 15 v 5 h -5 v 5 h 7.5h 7.5 v -5 h -5 v -5 h 15 v 5 h -5 v 5 h 7.5h 7.5 v -5 h -5 v -5 h 15 v 5 h -5 v 5 h 7.5h 7.5 v -5 h -5 v -5 h 15 v 5 h -5 v 5 h 7.5h 7.5 v -5 h -5 v -5 h 15 v 5 h -5 v 5 h 7.5h 7.5 v -5 h -5 v -5 h 15 v 5 h -5 v 5 h 7.5h 7.5 v -5 h -5 v -5 h 15 v 5 h -5 v 5 h 7.5 v 10" transform="translate(8 -18) rotate(45 110 100) scale(1.1 1)"/><path d="m 0,115 v -10 h 7.5 v -5 h -5 v -5 h 15 v 5 h -5 v 5 h 7.5h 7.5 v -5 h -5 v -5 h 15 v 5 h -5 v 5 h 7.5h 7.5 v -5 h -5 v -5 h 15 v 5 h -5 v 5 h 7.5h 7.5 v -5 h -5 v -5 h 15 v 5 h -5 v 5 h 7.5h 7.5 v -5 h -5 v -5 h 15 v 5 h -5 v 5 h 7.5h 7.5 v -5 h -5 v -5 h 15 v 5 h -5 v 5 h 7.5h 7.5 v -5 h -5 v -5 h 15 v 5 h -5 v 5 h 7.5h 7.5 v -5 h -5 v -5 h 15 v 5 h -5 v 5 h 7.5h 7.5 v -5 h -5 v -5 h 15 v 5 h -5 v 5 h 7.5h 7.5 v -5 h -5 v -5 h 15 v 5 h -5 v 5 h 7.5 v 10" transform="translate(-28 18) rotate(225 110 100) scale(1.1 1)"/><rect x="0" y="88" width="200" height="24" transform="translate(-10 0) rotate(45 110 100) scale(1.1 1)" stroke="none"/></g></g><path d="m25,25 h150 v50 a150,150,0,0,1,-75,125 a150,150,0,0,1,-75,-125 z" fill="url(#backlight)" stroke="#333"/></svg>