<svg id="coaworld_burg_439_gullbridge_outpost_s0" width="500" height="500" viewBox="0 10 200 200" xmlns="http://www.w3.org/2000/svg"><defs><clipPath id="heater_coaworld_burg_439_gullbridge_outpost_s0"><path d="m25,25 h150 v50 a150,150,0,0,1,-75,125 a150,150,0,0,1,-75,-125 z"/></clipPath><clipPath id="divisionClip_coaworld_burg_439_gullbridge_outpost_s0"><rect x="100" y="0" width="100" height="100"/><rect x="0" y="100" width="100" height="100"/></clipPath><pattern id="plumetty-gules-or" width="25" height="50" viewBox="0 0 50 100" patternUnits="userSpaceOnUse" stroke-width=".8"><rect width="50" height="100" fill="#ffe066" stroke="none"/><path fill="#d7374a" stroke="none" d="M 25,100 C 44,88 49.5,74 50,50 33.5,40 25,25 25,4e-7 25,25 16.5,40 0,50 0.5,74 6,88 25,100 Z"/><path fill="none" stroke="#ffe066" d="m17 40c5.363 2.692 10.7 2.641 16 0m-19 7c7.448 4.105 14.78 3.894 22 0m-27 7c6-2 10.75 3.003 16 3 5.412-0.0031 10-5 16-3m-35 9c4-7 12 3 19 2 7 1 15-9 19-2m-35 6c6-2 11 3 16 3s10-5 16-3m-30 7c8 0 8 3 14 3s7-3 14-3m-25 8c7.385 4.048 14.72 3.951 22 0m-19 8c5.455 2.766 10.78 2.566 16 0m-8 6v-78"/><g fill="none" stroke="#d7374a"><path d="m42 90c2.678 1.344 5.337 2.004 8 2m-11 5c3.686 2.032 7.344 3.006 10.97 3m0.0261-1.2e-4v-30"/><path d="m0 92c2.689 0.0045 5.328-0.6687 8-2m-8 10c3.709-0.0033 7.348-1.031 11-3m-11 3v-30"/><path d="m0 7c5.412-0.0031 10-5 16-3m-16 11c7 1 15-9 19-2m-19 9c5 0 10-5 16-3m-16 10c6 0 7-3 14-3m-14.02 11c3.685-0.002185 7.357-1.014 11.02-3m-11 10c2.694-0.01117 5.358-0.7036 7.996-2m-8 6v-48"/><path d="m34 4c6-2 10.75 3.003 16 3m-19 6c4-7 12 3 19 2m-16 4c6-2 11 3 16 3m-14 4c8 0 8 3 14 3m-11 5c3.641 1.996 7.383 2.985 11 3m-8 5c2.762 1.401 5.303 2.154 8.002 2.112m-0.00154 3.888v-48"/></g></pattern><radialGradient id="backlight" cx="100%" cy="100%" r="150%"><stop stop-color="#fff" stop-opacity=".3" offset="0"/><stop stop-color="#fff" stop-opacity=".15" offset=".25"/><stop stop-color="#000" stop-opacity="0" offset="1"/></radialGradient></defs><g clip-path="url(#heater_coaworld_burg_439_gullbridge_outpost_s0)"><rect x="0" y="0" width="200" height="200" fill="url(#plumetty-gules-or)"/><g clip-path="url(#divisionClip_coaworld_burg_439_gullbridge_outpost_s0)"><rect x="0" y="0" width="200" height="200" fill="#fafafa"/></g><g fill="#fafafa" stroke="none"><polygon points="0,0 30,0 100,70 170,0 200,0 200,30 122,109 122,200 78,200 78,109 0,30"/></g></g><path d="m25,25 h150 v50 a150,150,0,0,1,-75,125 a150,150,0,0,1,-75,-125 z" fill="url(#backlight)" stroke="#333"/></svg>