<svg id="coaworld_burg_440_burg_440_s0" width="500" height="500" viewBox="0 10 200 200" xmlns="http://www.w3.org/2000/svg" xmlns:x="http://www.w3.org/1999/xlink"><defs><clipPath id="heater_coaworld_burg_440_burg_440_s0"><path d="m25,25 h150 v50 a150,150,0,0,1,-75,125 a150,150,0,0,1,-75,-125 z"/></clipPath><clipPath id="divisionClip_coaworld_burg_440_burg_440_s0"><path d="m 0,115 v -15 l 5,-5 v 10 l 5,-5 5,5 V 95 l 5,5l 5,-5 v 10 l 5,-5 5,5 V 95 l 5,5l 5,-5 v 10 l 5,-5 5,5 V 95 l 5,5l 5,-5 v 10 l 5,-5 5,5 V 95 l 5,5l 5,-5 v 10 l 5,-5 5,5 V 95 l 5,5l 5,-5 v 10 l 5,-5 5,5 V 95 l 5,5l 5,-5 v 10 l 5,-5 5,5 V 95 l 5,5l 5,-5 v 10 l 5,-5 5,5 V 95 l 5,5l 5,-5 v 10 l 5,-5 5,5 V 95 l 5,5l 5,-5 v 10 l 5,-5 5,5 V 95 l 5,5 v 15 V200 H0 Z" transform="translate(-10 -10) rotate(45 110 110) scale(1.1)"/></clipPath><g id="grapeBunch2_coaworld_burg_440_burg_440_s0" stroke-width=".19"><g><path class="secondary" stroke-width=".56" stroke-linejoin="round" d="M116.24 82.42c-.4-.97-.74-2.44-1.26-3.4-1.32-2.46-1.75-4.76-4.1-6.56-1.26-.96-3.33-1.47-4.25-2.76-.83-1.17-.73-2.47-.81-3.45.02-1.44.28-2.35.55-3.6.07-.36.16-.74.13-1.1-.08-.75-1.24-1.39-3.48-1.39-2.86 0-3.54.98-3.33 1.71.17.53.43.93.81 1.34a6.79 6.79 0 0 1 1.75 3.72c.22 1.47.37 2.22.3 3.69-.23 1.39-1.34 2.72-2.16 3.76a8.39 8.39 0 0 0-1.75 4.11c-.08.6-.11 1.26-.58 1.66-.59 1.54-1.45 2.82-2.03 4.36 1.03.13 1.57-1.18 2.25-1.67.7-.51 1.66-.23 2.33-.77.42-.34-.24-.9-.13-1.43.43-1.88 1.97-3.67 3.16-5.25.07-.1.17-.2.3-.2.13 0 .23.09.32.18 2.2 2.4 1.17 6.79.92 9.8-.07.96-1.75 1.43-.32 2.63a.94.94 0 0 0 .85.23c.32-.08.49-.3.62-.55a14.63 14.63 0 0 0 1.28-3.25c.5-2.07 1.16-4.35 1.05-6.58a5.83 5.83 0 0 0-1.58-3.57c.04.03 1.3.28 1.5.39.45.23.8.73 1.08 1.07.71.89 1.39 1.56 2 2.5 1.29 1.92 2.1 3.95 2.98 6.06a1.41 1.41 0 0 0 .54-.51l-.52.11 1.48-.73.11-.04c.08-.13.06-.34-.01-.5z"/><g stroke="none" fill="#000"><path d="m105.1 61.55-.14.14-.2.13c-.07.05-.14.11-.26.15l-.32.15-.37.13-.42.1-.43.05h-.43l-.43-.04-.4-.07-.34-.11-.28-.12-.2-.11-.17-.11.18.03.51.1a1.7 1.7 0 0 0 .34.04l.38.03h.8l.42-.03.4-.06.35-.08.32-.09.49-.17.2-.06z"/><path d="m106.95 74.36-.04-.04-.15-.15a1.65 1.65 0 0 1-.3-.55l-.1-.37c-.01-.13-.05-.26-.05-.42-.04-.28-.02-.58-.08-.86a3.27 3.27 0 0 0-.24-.8c-.1-.27-.2-.5-.26-.72a2.07 2.07 0 0 1-.08-.53v-.2.05l.02.15c.02.13.06.3.15.5.08.22.2.44.34.67l.19.4.17.42.16.85.1.36.11.3c.08.19.17.3.25.35l.07.06.04.02-.3.5z"/><path d="m103.83 75.4-.04-.08-.1-.25a2.8 2.8 0 0 1-.14-.75 4.51 4.51 0 0 1 .01-.73l.06-.32.02.32c.02.18.07.45.17.67l.3.6.13.17.06.08-.47.28z"/></g></g><g stroke-width=".56"><path d="M95.72 93.8a33.39 33.39 0 0 0-4.88 7.39c-1.66 3.47-2.4 4.26.15 6.3 2.25 1.8 4.13 5.24 3.66 8.1 4.25-.64 8.65-.4 12.8.71 3.39.9 6.72 2.39 10.21 2.37.96 0 2.02-.17 2.67-.88.38-.4.57-.93.76-1.43.79-2.1 1.39-4.42 2.63-6.3 1.01-1.56 1.7-2.31 1.82-4.33A13.12 13.12 0 0 0 121 95.21c-.92-.77-1.97-1.43-2.61-2.45-.96-1.5-.83-3.44-.68-5.22-3.81.82-7.7 1.33-11.62 1.58-3.87.22-6-.23-8.66 2.76-.6.64-1.17 1.28-1.7 1.92z"/><ellipse cx="93.34" cy="112.78" rx="5.21" ry="5.62"/><ellipse cx="94.13" cy="122.15" rx="5.21" ry="5.62"/><ellipse cx="90.39" cy="103.42" rx="5.21" ry="5.62"/><ellipse cx="121.69" cy="98.89" rx="5.21" ry="5.62"/><ellipse cx="123.02" cy="109.04" rx="5.21" ry="5.62"/><ellipse cx="117.68" cy="118.14" rx="5.21" ry="5.62"/><ellipse cx="104.3" cy="134.46" rx="5.21" ry="5.62"/><ellipse cx="97.08" cy="128.03" rx="5.21" ry="5.62"/><ellipse cx="111.52" cy="126.7" rx="5.21" ry="5.62"/><ellipse cx="96.27" cy="117.88" rx="5.21" ry="5.62"/><ellipse cx="102.7" cy="114.78" rx="5.21" ry="5.62"/><ellipse cx="98.96" cy="107.18" rx="5.21" ry="5.62"/><ellipse cx="113.4" cy="117.07" rx="5.21" ry="5.62"/><ellipse cx="92" cy="93.01" rx="5.21" ry="5.62"/><ellipse cx="98.41" cy="96.75" rx="5.21" ry="5.62"/><ellipse cx="98.15" cy="85.51" rx="5.21" ry="5.62"/><ellipse cx="116.07" cy="87.91" rx="5.21" ry="5.62"/><ellipse cx="116.07" cy="97.54" rx="5.21" ry="5.62"/><ellipse cx="114.2" cy="107.45" rx="5.21" ry="5.62"/><ellipse cx="104.49" cy="124.7" rx="5.21" ry="5.62"/><ellipse cx="107.25" cy="90.86" rx="5.21" ry="5.62"/><ellipse cx="104.64" cy="99.62" rx="5.21" ry="5.62"/><ellipse cx="105.59" cy="119.03" rx="5.21" ry="5.62"/><ellipse cx="111.2" cy="100.92" rx="5.21" ry="5.62"/><ellipse cx="108.19" cy="109.31" rx="5.21" ry="5.62"/></g><g><path class="tertiary" stroke-width=".56" stroke-linejoin="round" d="M104.56 68.53c-.02-.68-.32-1.45-.98-1.58-.67-.13-.86-.23-1.5.04-4.95 2.12-9.93 12.33-9.93 12.33 1.06-5.77-3.87-7.97-5.52-8.5a7 7 0 0 0 .67 2.54c-2.07-2.01-5.1-2.86-7.14-2 .41.53 1.05 1 1.75 1.5a8.61 8.61 0 0 0-7 2c2.22.34 2.62 1.23 4.97 2.05-.55.4-1.02.42-1.6.83 1.54.49 2.76 2.09 5.83 1.37 1.67-.4 1.2 1.5.2 1.68-2.69.43-4.49-3.35-9.15-.13.26.43 1.1.37 1.84.67-3.38.06-4.96 2.16-6.35 3.76 1.14-.19 2.18-.05 3.04-.41-3.6 1.45-4.21 5.54-4.5 6.4 1.42.12 3.43.2 4.76-.72a13.16 13.16 0 0 0-1.01 1.93c5.71-.94 5.66-3.12 8.53-4.45 1.19-.55 3.07.37.51 1.8-2.27 1.28-2.95.32-5.6 3.87.77.29 1.9-.26 2.57-.16-1.6 1.05-3.9 3.4-4.02 5.13.68-.17 1.6-.43 2.61-1.11-.94 1.56-2.25 3.6-1.24 7.12a7.73 7.73 0 0 0 1.8-1.93c-.6 2.25-.07 4.68.67 5.05s3.02-.62 4.43-2.5a7.52 7.52 0 0 0-.47 2.62c3.43-1.3 4.29-3.6 4.97-5.27.05 1.23.41 2.1.67 2.77 1.32-1.13 1.8-4.4 1.7-6.3.48.49.73 1.71 1.4 2.16 1.25-4.25.1-4.23-.26-6.8-.4-2.9 1.49-1.96 1.75-.68.66 3.1-1.13 4.36 1.54 9.5.3-.5.62-1.15.94-1.98.06 1.62 1.34 3.18 2.28 4.23.5-.73 3.42-3.69 2.42-7.43.23.9.96 1.66 1.49 2.7.45-2.1 1.2-4.61-.8-7.36.68.41 1.15 1.13 1.66 1.07-.22-5.68-4.34-4.83-5.6-7.25-.47-.9.77-2.41 1.45-.85 1.26 2.88 3.29 2.9 4.58 3.83-.03-.71-.28-1.09-.3-1.76 2.07 1.37 3.01 1.18 4.61 2.74a8.58 8.58 0 0 0-2.58-6.8c.81.28 1.58.49 2.24.5-.52-2.16-3.03-4.08-5.88-4.53a7.14 7.14 0 0 0 2.44-.97c-1.4-1.02-6.13-3.63-10.11.67 0 0 5.24-9.87 11.1-11.24.12 0 .12-.1.12-.15"/><g stroke="none" fill="#000"><path d="m92.42 79.45-.5 1-.54 1.15-.7 1.48L89 86.82l-1.93 4.3a243.08 243.08 0 0 1-2.03 4.27l-.98 1.94c-.32.6-.62 1.19-.94 1.71l-.43.75-.42.66c-.26.42-.47.8-.67 1.07a166.68 166.68 0 0 0-.66.92c-.02 0-.02-.01 0-.03l.53-.96.6-1.11.75-1.45.88-1.73.94-1.95.98-2.1.98-2.19 1.9-4.32c.6-1.38 1.16-2.67 1.69-3.76l.7-1.49.54-1.15.49-1c.07-.12.24-.2.37-.12.15.05.21.22.14.37z"/><path d="m93.64 80.05-.27.53-.71 1.37-1.02 1.96-1.14 2.24-1.13 2.25-.5 1.05-.46.94-.4.8-.3.6a8.65 8.65 0 0 1-.28.52l-.03.02-.02-.04.19-.56a21 21 0 0 1 .54-1.47l.4-.96.47-1.05 1.07-2.3 1.1-2.27 1-1.95 1-1.9c.07-.13.24-.19.37-.11.14.03.2.2.12.33z"/><path d="m93.4 81.28-.06.2c-.06.13-.1.32-.13.59a2.82 2.82 0 0 0-.04.4v.25l.02.27c.02.35.07.73.17 1.16a19.18 19.18 0 0 0 .37 1.36l.53 1.46.62 1.56.66 1.62.65 1.62.6 1.6.51 1.5.21.71.17.66a13.82 13.82 0 0 1 .43 2.09l.08.58.02.2-.23-.76-.26-.89-.38-1.13-.47-1.33-.56-1.47-.64-1.56-.66-1.61-.66-1.62c-.2-.55-.41-1.07-.58-1.6a19.78 19.78 0 0 1-.77-2.93l-.08-.64v-.58c0-.36.08-.68.13-.94.02-.13.08-.25.12-.34l.1-.23.12-.2z"/><path d="m104.1 86.78-.39-.35-1.09-.89-.75-.54-.86-.57a21.62 21.62 0 0 0-1.96-1.1 26.13 26.13 0 0 0-1.01-.53l-1-.47-.96-.41a13.48 13.48 0 0 0-2.2-.72h-.37c-.1.02-.12.08-.12.08s.02-.06.1-.12.22-.1.4-.1c.35-.01.84.05 1.4.2a14.65 14.65 0 0 1 4 1.58l1.02.58.94.62.85.64.71.62a7.33 7.33 0 0 1 .96 1.05l.25.32.09.11z"/><path d="m73.92 86.93.18-.1.53-.29.83-.41 1.1-.5.65-.26.7-.26 1.5-.5 1.63-.5 1.7-.45 1.69-.43 1.63-.43 1.5-.45c.48-.17.9-.32 1.3-.51s.75-.36 1.04-.56l.2-.15.2-.15.31-.29c.17-.18.32-.34.38-.45l.11-.17-.1.2-.13.22c-.05.07-.1.18-.2.28-.17.2-.38.43-.68.66l-.47.33-.54.32a23.12 23.12 0 0 1-4.44 1.64l-1.7.45-1.69.43-1.63.44-1.52.43-1.36.41-1.13.38-.86.32c-.45.26-.73.35-.73.35z"/><path d="M91.1 80.13V80a1.23 1.23 0 0 0-.23-.3 5.62 5.62 0 0 0-1.1-.83l-.8-.49a19.36 19.36 0 0 0-1.87-1.01 53.4 53.4 0 0 0-1.04-.51l-1.03-.47c-.36-.15-.7-.3-1.04-.42a32.22 32.22 0 0 0-1.86-.63 10.8 10.8 0 0 0-1.88-.46h.53a13.48 13.48 0 0 1 3.36.64l1.08.38a26.5 26.5 0 0 1 2.12 1l.98.56c.32.19.6.4.88.58s.53.4.75.59c.45.37.81.73 1 1.03.1.15.15.28.17.38l-.02.09z"/></g></g></g><g id="arbalest_coaworld_burg_440_burg_440_s0" stroke-width="0.288"><g><g class="secondary"><path d="m98.208 75.564-2.418-6.052 4.758-.027 3.455-.03-2.333 6.085.062 2.138 3.348-8.536-.222-.732-4.317.03-5.62.04-.213.734 3.46 8.482z"/><path d="M96.452 109.952c-.756-.381-2.16-.107-3.021.945-.828 1.003-.915 2.199-.785 3.243.266 2.123 1.214 3.76 1.826 5.805.437 1.443.892 3.375.651 4.85-.097.604-.347 1.746-.7 1.749-.163 0-.077-.264-.127-.664-.029-.231-.281-.426-.451-.473-.225-.045-.347-.031-.536.106a.71.71 0 0 0-.282.45c-.059.333.066 1.683 1.302 1.674 1.94-.013 2.19-4.067 1.687-6.304-.47-2.094-1.5-4.687-1.839-6.613-.17-.949-.129-1.96.463-2.78.598-.811 1.885-1.323 2.98-.957z"/></g><path d="M98.369 139.469S97.2 117.944 96.813 115c-.43-3.256-1.727-7.218-1.736-8.467l.863-8.695s1.276-.993 1.252-5.413c-.024-4.419-1.323-5.686-1.323-5.686l.9-13.135c-.005-.57 1.397-1.048 3.135-1.06 1.738-.012 3.146.446 3.15 1.016l-1.346 65.87s-.146.49-1.652.501c-1.507.01-1.687-.463-1.687-.463z"/><g stroke="none" fill="#000"><path d="M98.986 139.458c-.69-16.227-1.147-33.14-1.417-49.383-.067-4.812-.163-11.716-.183-16.467l1.6 65.85z"/></g><path class="secondary" d="M101.456 78.012c.04 0 .068-.014.102-.035 2.747-2.198 6.975-2.424 10.333-.825 3.133 1.499 4.74 4.284 5.556 6.342s1.59 4.211 3.143 5.796c.807.822 1.877 1.446 2.896 1.643.89.177 1.752.028 2.379-.594.06-.061.17-.062.238.005.922.91 2.056.963 2.795.816.163-.029.273.174.145.29-1.35 1.218-3.346 2.027-5.725 1.582-2.175-.406-4.591-2.195-6.342-5.014-1.167-1.879-3.364-5.461-6.497-6.96-3.351-1.606-7.579-1.38-10.333.826-.027.027-.061.034-.102.034l-.122.001a.183.183 0 0 1-.102-.033c-2.778-2.16-7.008-2.327-10.343-.681-3.112 1.542-5.266 5.148-6.4 7.05-1.711 2.843-4.102 4.665-6.271 5.101-2.373.478-4.38-.302-5.747-1.5-.123-.108-.022-.32.14-.293.748.13 1.875.068 2.785-.855.06-.061.17-.076.237-.008.636.6 1.499.736 2.387.56 1.03-.21 2.085-.843 2.873-1.683 1.523-1.6 2.275-3.77 3.062-5.84s2.355-4.876 5.467-6.418c3.329-1.653 7.559-1.486 10.344.68.027.028.061.034.102.034z"/><g stroke="none" fill="#000"><path d="M102.007 79.19c3.333-2.054 8.05-2.066 11.07.574 1.85 1.677 3.102 3.895 4.339 6.032 1.476 2.4 3.275 6.276 6.467 6.458.631.03 1.268-.07 1.878-.278-1.185.477-2.603.493-3.735-.15-2.27-1.308-3.474-3.764-4.793-5.914-1.257-2.116-2.48-4.293-4.298-5.977-2.978-2.614-7.574-2.643-10.928-.746z"/><path d="M74.348 92.321c4.314 1.464 6.48-3.25 8.252-6.29 1.254-2.214 2.493-4.551 4.436-6.248 2.997-2.533 7.586-2.524 10.878-.558-3.311-1.796-7.785-1.772-10.74.733-1.91 1.704-3.123 4-4.39 6.188-1.771 3.054-4.127 7.808-8.436 6.175z"/></g><g><path class="secondary" d="M100.612 105.844c-.291.158-.637.153-.937.007l-27.3-14.086a.342.342 0 0 1-.145-.454.342.342 0 0 1 .454-.146l27.306 14.079c.095.053.21.046.312-.002l27.107-14.459a.338.338 0 0 1 .456.14.338.338 0 0 1-.14.456z"/></g><circle class="secondary" transform="rotate(44.6)" cx="145.48624" cy="4.90095" r="1.3248"/></g><g><path class="tertiary" stroke-width=".24" stroke-linejoin="round" d="M100.368 85.555c.004 2.484.76 6.695 1.893 10.468.326 1.077.687 2.147.844 3.286.157 1.14.105 2.382-.37 3.356-.475.974-1.435 1.606-2.28 1.259l-.895.006c-.846.338-1.801-.28-2.283-1.254-.475-.98-.538-2.216-.376-3.35.161-1.136.52-2.21.839-3.285 1.12-3.776 1.865-7.99 1.868-10.468z"/><g stroke="none" fill="#000"><path d="M100.627 92.416c.223 1.797.629 3.573 1.238 5.293a25.757 25.757 0 0 1-1.476-5.257z"/><path d="M100.46 95.649a25.256 25.256 0 0 0 1.583 5.202 25.473 25.473 0 0 1-1.814-5.147z"/><path d="M100.4 97.869c.223 1.797.63 3.573 1.238 5.293a25.757 25.757 0 0 1-1.475-5.258z"/><path d="M99.595 92.45c-.3 1.808-.79 3.577-1.457 5.265a24.887 24.887 0 0 0 1.22-5.297z"/><path d="M99.767 95.694a24.928 24.928 0 0 1-1.804 5.151 25.842 25.842 0 0 0 1.573-5.204z"/><path d="M99.83 97.9c-.3 1.808-.79 3.576-1.457 5.264a24.887 24.887 0 0 0 1.22-5.296z"/></g><path class="tertiary" stroke-width=".24" stroke-linejoin="round" d="m99.445 71.917.028 33.127s.15.175.557.172c.394-.003.515-.18.515-.18l-.027-33.113z"/><path class="tertiary" stroke-width=".24" stroke-linejoin="round" d="M99.947 60.142s-.513 3.472-2.244 5.379c.861.781 1.733 2.22 1.74 4.074l-.01 3.523s.15.176.558.173c.394-.003.514-.18.514-.18l.01-3.523c0-1.86.873-3.292 1.73-4.079-1.745-1.895-2.258-5.367-2.258-5.367z"/><g stroke="none" fill="#000"><path d="M99.965 61.832a37.49 37.49 0 0 1 .008 6.049 38.288 38.288 0 0 1-.008-6.049z"/></g></g></g><radialGradient id="backlight" cx="100%" cy="100%" r="150%"><stop stop-color="#fff" stop-opacity=".3" offset="0"/><stop stop-color="#fff" stop-opacity=".15" offset=".25"/><stop stop-color="#000" stop-opacity="0" offset="1"/></radialGradient></defs><g clip-path="url(#heater_coaworld_burg_440_burg_440_s0)"><rect x="0" y="0" width="200" height="200" fill="#26c061"/><g clip-path="url(#divisionClip_coaworld_burg_440_burg_440_s0)"><rect x="0" y="0" width="200" height="200" fill="#ffe066"/></g><g fill="#fafafa" stroke="#000"><style>
      g.secondary,path.secondary {fill: #fafafa;}
      g.tertiary,path.tertiary {fill: #fafafa;}
    </style><use x:href="#grapeBunch2_coaworld_burg_440_burg_440_s0" transform="translate(67.5 -7.5) scale(0.7)"/></g><g fill="#377cd7" stroke="#000"><style>
      g.secondary,path.secondary {fill: #377cd7;}
      g.tertiary,path.tertiary {fill: #377cd7;}
    </style><use x:href="#arbalest_coaworld_burg_440_burg_440_s0" transform="translate(0 60) scale(0.7)"/></g></g><path d="m25,25 h150 v50 a150,150,0,0,1,-75,125 a150,150,0,0,1,-75,-125 z" fill="url(#backlight)" stroke="#333"/></svg>