<svg id="coaworld_burg_453_burg_453_s0" width="500" height="500" viewBox="0 10 200 200" xmlns="http://www.w3.org/2000/svg" xmlns:x="http://www.w3.org/1999/xlink"><defs><clipPath id="heater_coaworld_burg_453_burg_453_s0"><path d="m25,25 h150 v50 a150,150,0,0,1,-75,125 a150,150,0,0,1,-75,-125 z"/></clipPath><g id="lanceHead_coaworld_burg_453_burg_453_s0" stroke-width=".5" transform="matrix(0.9,0,0,0.9,-4.7,-15.1)"><path d="M116.25 84.13v.59L98.5 140.56s4.21 0 8.13 3.9c3.9 3.92 4.25 8.16 4.25 8.16h10.93s.3-4.24 4.22-8.15c3.91-3.91 8.16-3.9 8.16-3.9l-17.75-55.85v-.6l-.1.29-.09-.28z"/><path d="M116.42 100.12v52.5"/><rect width="15.6" height="3.3" x="108.6" y="152.6" ry="1.7"/><path d="M111.22 155.88l-1.97 15.65h14.5l-1.94-15.5-10.6-.16z"/></g><radialGradient id="backlight" cx="100%" cy="100%" r="150%"><stop stop-color="#fff" stop-opacity=".3" offset="0"/><stop stop-color="#fff" stop-opacity=".15" offset=".25"/><stop stop-color="#000" stop-opacity="0" offset="1"/></radialGradient></defs><g clip-path="url(#heater_coaworld_burg_453_burg_453_s0)"><rect x="0" y="0" width="200" height="200" fill="#fafafa"/><g fill="#333333" stroke="#000"><style>
      g.secondary,path.secondary {fill: #333333;}
      g.tertiary,path.tertiary {fill: #333333;}
    </style><use x:href="#lanceHead_coaworld_burg_453_burg_453_s0" transform="translate(50 0) scale(0.5)"/><use x:href="#lanceHead_coaworld_burg_453_burg_453_s0" transform="translate(50 50) scale(0.5)"/><use x:href="#lanceHead_coaworld_burg_453_burg_453_s0" transform="translate(50 100) scale(0.5)"/></g></g><path d="m25,25 h150 v50 a150,150,0,0,1,-75,125 a150,150,0,0,1,-75,-125 z" fill="url(#backlight)" stroke="#333"/></svg>