<svg id="coaworld_burg_46_burg_46_s-1" width="500" height="500" viewBox="0 10 200 200" xmlns="http://www.w3.org/2000/svg" xmlns:x="http://www.w3.org/1999/xlink"><defs><clipPath id="heater_coaworld_burg_46_burg_46_s-1"><path d="m25,25 h150 v50 a150,150,0,0,1,-75,125 a150,150,0,0,1,-75,-125 z"/></clipPath><clipPath id="divisionClip_coaworld_burg_46_burg_46_s-1"><polygon points="0,0 200,200 0,200"/></clipPath><g id="lochaberAxe_coaworld_burg_46_burg_46_s-1" stroke-width=".5"><path d="M109.5 60.78c0-.72-2.56-.72-2.59-.03l-.03 94.23h0v.08c0 .72 2.73.72 2.73 0z"/><path class="secondary" d="M107.18 91.77a6.08 6.08 0 01-8.37-5.25c0-4.87 2.64-12 2.64-18.22 0-4.56-3.83-7.95-5.5-7.74 1.64 1.68 2.35 3.39 2.35 6.46 0 5.15-8.01 13.14-8.01 27.47 0 14.32 8.01 22.33 8.01 27.48 0 3.07-.72 4.78-2.35 6.46 1.69.21 5.5-3.18 5.5-7.74 0-6.22-2.64-13.35-2.64-18.22a6.08 6.08 0 018.37-5.25z"/><path class="secondary" d="M109.76 90.81c0-.57-3.14-.57-3.14 0 0 .1-.09 8.36-.01 8.44.43.44 2.8.36 3.16 0l-.01-8.44z"/><path fill="#000" stroke="none" d="M139-35.1c-.1 9.6-3.3 19.2-6.1 27.2-7.9 21.2-16 44.2-20.8 64.4-9.9 44.6-6.8 91.2 6.7 134.2 5.8 19.8 13.9 35.4 18.6 54.1.9 4.2 1.8 6.9 1.7 12.9-.3-4.5-1.3-9.1-2.3-12.8-6.8-17.8-14.2-36.3-20.1-53.6-17.6-51.7-17.2-109.8.1-160.3 4.8-14 9.6-25.6 15.2-39.5 3.4-8.8 6.5-17.5 7-26.6z" transform="matrix(.15 0 0 .15 77 77.775)"/></g><g id="key_coaworld_burg_46_burg_46_s-1" stroke-width=".425"><path d="M92.418 82.053h2.485v4.124h1.539v-6.015h6.552V69.767h-6.552v-5.915h-1.54v3.953h-2.484V63.85h-7.682v3.413h4.35v2.503h-4.35v3.953h6.482v-2.247h2.485v2.247h2.428v2.503h-2.428v2.232h-2.485v-2.232h-6.481v3.939h4.349v2.502h-4.35v3.513h7.682z"/><path d="M99.802 121.172V61.164c0-.74 1.06-1.351 2.358-1.351s2.359.612 2.359 1.35v60.01h-4.717z"/><path d="M99.802 116.181a.706.711 0 0 1 0-1.393h4.702a.706.711 0 0 1 0 1.393h-4.702zm0 5.39a.706.711 0 0 1 0-1.394h4.702a.706.711 0 0 1 0 1.393h-4.702zm0-1.792a1.638 1.65 0 0 1 0-3.3h4.702a1.638 1.65 0 0 1 0 3.3h-4.702z"/><ellipse cx="102.161" cy="137.909" rx="2.485" ry="1.991"/><path d="M100.17 136.857a.706.711 0 0 1 0-1.394h3.981a.706.711 0 0 1 0 1.394h-3.981z"/><ellipse cx="112.581" cy="129.107" rx="1.977" ry="2.503"/><path d="M111.55 131.112a.706.711 0 0 1-1.383 0v-4.01a.706.711 0 0 1 1.383 0v4.01z"/><ellipse cx="91.599" cy="129.107" rx="1.977" ry="2.503"/><path d="M92.644 127.102a.706.711 0 0 1 1.383 0v4.01a.706.711 0 0 1-1.383 0v-4.01zm15.433 2.034-5.959 4.251-5.845-4.308 5.958-5.887 5.846 5.944zm-3.53-7.565h-4.843l-5.592 5.63v3.712l5.93 4.536h4.166l5.987-4.593v-3.612l-5.648-5.674z"/><path d="m105.846 132.591-.226-1.863-2.57-.981.96 2.588 1.836.256zm-7.47-7.537.226 1.863 2.57.981-.96-2.588-1.836-.256zm.142 7.523 1.85-.228.974-2.588-2.57.967-.254 1.849zm7.497-7.508-1.85.227-.974 2.588 2.57-.967.254-1.848z"/><path d="M108.077 129.136h2.075m-8.034 4.251v2.076m.127-12.271v-1.622m-5.958 7.509h-2.26"/></g><radialGradient id="backlight" cx="100%" cy="100%" r="150%"><stop stop-color="#fff" stop-opacity=".3" offset="0"/><stop stop-color="#fff" stop-opacity=".15" offset=".25"/><stop stop-color="#000" stop-opacity="0" offset="1"/></radialGradient></defs><g clip-path="url(#heater_coaworld_burg_46_burg_46_s-1)"><rect x="0" y="0" width="200" height="200" fill="#26c061"/><g clip-path="url(#divisionClip_coaworld_burg_46_burg_46_s-1)"><rect x="0" y="0" width="200" height="200" fill="#fafafa"/></g><g fill="#ffe066" stroke="#000"><style>
      g.secondary,path.secondary {fill: #ffe066;}
      g.tertiary,path.tertiary {fill: #ffe066;}
    </style><use x:href="#lochaberAxe_coaworld_burg_46_burg_46_s-1" transform="translate(67.5 -7.5) scale(0.7)"/></g><g fill="#522d5b" stroke="#000"><style>
      g.secondary,path.secondary {fill: #522d5b;}
      g.tertiary,path.tertiary {fill: #522d5b;}
    </style><use x:href="#key_coaworld_burg_46_burg_46_s-1" transform="translate(0 60) scale(0.7)"/></g></g><path d="m25,25 h150 v50 a150,150,0,0,1,-75,125 a150,150,0,0,1,-75,-125 z" fill="url(#backlight)" stroke="#333"/></svg>