<svg id="coaworld_burg_470_burg_470_s0" width="500" height="500" viewBox="0 10 200 200" xmlns="http://www.w3.org/2000/svg" xmlns:x="http://www.w3.org/1999/xlink"><defs><clipPath id="heater_coaworld_burg_470_burg_470_s0"><path d="m25,25 h150 v50 a150,150,0,0,1,-75,125 a150,150,0,0,1,-75,-125 z"/></clipPath><g id="carreau_coaworld_burg_470_burg_470_s0"><path stroke-width=".5" d="M100 59.8C94.4 75.1 86.2 88.6 75 100c11.2 11.4 19.4 24.9 25 40.2 5.6-15.3 13.8-28.8 25-40.2-11.2-11.4-19.4-24.9-25-40.2z"/></g><radialGradient id="backlight" cx="100%" cy="100%" r="150%"><stop stop-color="#fff" stop-opacity=".3" offset="0"/><stop stop-color="#fff" stop-opacity=".15" offset=".25"/><stop stop-color="#000" stop-opacity="0" offset="1"/></radialGradient></defs><g clip-path="url(#heater_coaworld_burg_470_burg_470_s0)"><rect x="0" y="0" width="200" height="200" fill="#377cd7"/><g fill="#fafafa" stroke="#000"><style>
      g.secondary,path.secondary {fill: #fafafa;}
      g.tertiary,path.tertiary {fill: #fafafa;}
    </style><use x:href="#carreau_coaworld_burg_470_burg_470_s0" transform="translate(6.25 0) scale(0.5)"/><use x:href="#carreau_coaworld_burg_470_burg_470_s0" transform="translate(50 0) scale(0.5)"/><use x:href="#carreau_coaworld_burg_470_burg_470_s0" transform="translate(93.75 0) scale(0.5)"/><use x:href="#carreau_coaworld_burg_470_burg_470_s0" transform="translate(12.5 50) scale(0.5)"/><use x:href="#carreau_coaworld_burg_470_burg_470_s0" transform="translate(87.5 50) scale(0.5)"/><use x:href="#carreau_coaworld_burg_470_burg_470_s0" transform="translate(50 100) scale(0.5)"/></g></g><path d="m25,25 h150 v50 a150,150,0,0,1,-75,125 a150,150,0,0,1,-75,-125 z" fill="url(#backlight)" stroke="#333"/></svg>