<svg id="coaworld_burg_472_burg_472_s0" width="500" height="500" viewBox="0 10 200 200" xmlns="http://www.w3.org/2000/svg" xmlns:x="http://www.w3.org/1999/xlink"><defs><clipPath id="heater_coaworld_burg_472_burg_472_s0"><path d="m25,25 h150 v50 a150,150,0,0,1,-75,125 a150,150,0,0,1,-75,-125 z"/></clipPath><g id="crossMaltese_coaworld_burg_472_burg_472_s0" stroke-width=".5"><path d="M98 98L83 60l17 11 17-11-15 38 38-15-11 17 11 17-38-15 15 38-17-11-17 11 15-38-38 15 11-17-11-17z"/></g><pattern id="bendy-gules-argent" width="100" height="100" viewBox="0 0 100 100" patternUnits="userSpaceOnUse"><rect width="100" height="100" fill="#d7374a"/><polygon points="0,25 75,100 25,100 0,75" fill="#fafafa"/><polygon points="25,0 75,0 100,25 100,75" fill="#fafafa"/></pattern><radialGradient id="backlight" cx="100%" cy="100%" r="150%"><stop stop-color="#fff" stop-opacity=".3" offset="0"/><stop stop-color="#fff" stop-opacity=".15" offset=".25"/><stop stop-color="#000" stop-opacity="0" offset="1"/></radialGradient></defs><g clip-path="url(#heater_coaworld_burg_472_burg_472_s0)"><rect x="0" y="0" width="200" height="200" fill="url(#bendy-gules-argent)"/><g fill="#ffe066" stroke="none"><polygon points="85,0 85,85 0,85 0,115 85,115 85,200 115,200 115,115 200,115 200,85 115,85 115,0"/></g><g fill="#26c061" stroke="#000"><style>
      g.secondary,path.secondary {fill: #26c061;}
      g.tertiary,path.tertiary {fill: #26c061;}
    </style><use x:href="#crossMaltese_coaworld_burg_472_burg_472_s0" transform="translate(70 20) scale(0.3)"/><use x:href="#crossMaltese_coaworld_burg_472_burg_472_s0" transform="translate(70 70) scale(0.3)"/><use x:href="#crossMaltese_coaworld_burg_472_burg_472_s0" transform="translate(70 120) scale(0.3)"/><use x:href="#crossMaltese_coaworld_burg_472_burg_472_s0" transform="translate(26.25 70) scale(0.3)"/><use x:href="#crossMaltese_coaworld_burg_472_burg_472_s0" transform="translate(113.75 70) scale(0.3)"/></g></g><path d="m25,25 h150 v50 a150,150,0,0,1,-75,125 a150,150,0,0,1,-75,-125 z" fill="url(#backlight)" stroke="#333"/></svg>