<svg id="coaworld_burg_57_burg_57_s0" width="500" height="500" viewBox="0 10 200 200" xmlns="http://www.w3.org/2000/svg"><defs><clipPath id="heater_coaworld_burg_57_burg_57_s0"><path d="m25,25 h150 v50 a150,150,0,0,1,-75,125 a150,150,0,0,1,-75,-125 z"/></clipPath><clipPath id="divisionClip_coaworld_burg_57_burg_57_s0"><rect x="100" y="0" width="100" height="200"/></clipPath><pattern id="palyBendy-argent-sable" width="125.16" height="71.52" viewBox="0 0 175 100" patternUnits="userSpaceOnUse"><rect y="0" x="0" width="175" height="100" fill="#333333"/><g fill="#fafafa"><path d="m0 20 35 30v50l-35-30z"/><path d="m35 0 35 30v50l-35-30z"/><path d="m70 0h23l12 10v50l-35-30z"/><path d="m70 80 23 20h-23z"/><path d="m105 60 35 30v10h-35z"/><path d="m105 0h35v40l-35-30z"/><path d="m 140,40 35,30 v 30 h -23 l -12,-10z"/><path d="M 175,0 V 20 L 152,0 Z"/></g></pattern><radialGradient id="backlight" cx="100%" cy="100%" r="150%"><stop stop-color="#fff" stop-opacity=".3" offset="0"/><stop stop-color="#fff" stop-opacity=".15" offset=".25"/><stop stop-color="#000" stop-opacity="0" offset="1"/></radialGradient></defs><g clip-path="url(#heater_coaworld_burg_57_burg_57_s0)"><rect x="0" y="0" width="200" height="200" fill="url(#palyBendy-argent-sable)"/><g clip-path="url(#divisionClip_coaworld_burg_57_burg_57_s0)"><rect x="0" y="0" width="200" height="200" fill="#522d5b"/></g></g><path d="m25,25 h150 v50 a150,150,0,0,1,-75,125 a150,150,0,0,1,-75,-125 z" fill="url(#backlight)" stroke="#333"/></svg>