<svg id="coaworld_burg_6_burg_6_s0" width="500" height="500" viewBox="0 10 200 200" xmlns="http://www.w3.org/2000/svg" xmlns:x="http://www.w3.org/1999/xlink"><defs><clipPath id="heater_coaworld_burg_6_burg_6_s0"><path d="m25,25 h150 v50 a150,150,0,0,1,-75,125 a150,150,0,0,1,-75,-125 z"/></clipPath><g id="millstone_coaworld_burg_6_burg_6_s0" stroke-width="3" transform="matrix(0.18,0,0,0.18,63.25,73.1)"><path d="M202.46 20.64C90.96 20.64 6.2 46 6.2 142.04c0 27.21 4 50 12.46 68.85 14.13 46.83 91.04 82.61 183.8 82.61 92.4 0 169.07-35.52 183.61-82.1 8.64-18.94 12.73-41.88 12.73-69.36 0-96.05-84.85-121.4-196.34-121.4z"/><path d="M388.6 104.67a186.1 98.17 0 01-372.21 0 186.1 98.17 0 11372.21 0z"/><g fill="#000" stroke-width="2.5"><path fill-opacity="0.4" d="M255.15 101.26a52.95 27.93 0 11-105.9 0 52.95 27.93 0 11105.9 0z"/><path fill-opacity="0.3" d="M132.13 86.7l-3.84 29.1h28.76c-4.92-4.23-7.84-9.2-7.84-14.55 0-5.33 2.92-10.3 7.84-14.55h-24.92zm115.2 0c4.93 4.24 7.85 9.22 7.85 14.55 0 5.34-2.92 10.32-7.84 14.56h29.37l-3.84-29.1h-25.53z"/></g></g><radialGradient id="backlight" cx="100%" cy="100%" r="150%"><stop stop-color="#fff" stop-opacity=".3" offset="0"/><stop stop-color="#fff" stop-opacity=".15" offset=".25"/><stop stop-color="#000" stop-opacity="0" offset="1"/></radialGradient></defs><g clip-path="url(#heater_coaworld_burg_6_burg_6_s0)"><rect x="0" y="0" width="200" height="200" fill="#ffe066"/><g fill="#d7374a" stroke="#000"><style>
      g.secondary,path.secondary {fill: #d7374a;}
      g.tertiary,path.tertiary {fill: #d7374a;}
    </style><use x:href="#millstone_coaworld_burg_6_burg_6_s0" transform="translate(-50 -50) scale(1.5)"/></g></g><path d="m25,25 h150 v50 a150,150,0,0,1,-75,125 a150,150,0,0,1,-75,-125 z" fill="url(#backlight)" stroke="#333"/></svg>