<svg id="coaworld_burg_63_burg_63_s0" width="500" height="500" viewBox="0 10 200 200" xmlns="http://www.w3.org/2000/svg" xmlns:x="http://www.w3.org/1999/xlink"><defs><clipPath id="heater_coaworld_burg_63_burg_63_s0"><path d="m25,25 h150 v50 a150,150,0,0,1,-75,125 a150,150,0,0,1,-75,-125 z"/></clipPath><g id="crossVoided_coaworld_burg_63_burg_63_s0" stroke-width=".5"><path d="M90 60v30H60v20h30v30h20v-30h30V90h-30V60H90zm5 5h10v30h30v10h-30v30H95v-30H65V95h30V65z"/></g><radialGradient id="backlight" cx="100%" cy="100%" r="150%"><stop stop-color="#fff" stop-opacity=".3" offset="0"/><stop stop-color="#fff" stop-opacity=".15" offset=".25"/><stop stop-color="#000" stop-opacity="0" offset="1"/></radialGradient></defs><g clip-path="url(#heater_coaworld_burg_63_burg_63_s0)"><rect x="0" y="0" width="200" height="200" fill="#377cd7"/><g fill="#fafafa" stroke="none"><polygon points="35,0 200,165 200,200 165,200 0,35 0,0"/></g><g fill="#d7374a" stroke="#000"><style>
      g.secondary,path.secondary {fill: #d7374a;}
      g.tertiary,path.tertiary {fill: #d7374a;}
    </style><use x:href="#crossVoided_coaworld_burg_63_burg_63_s0" transform="translate(-7.5 -7.5) scale(0.7)"/><use x:href="#crossVoided_coaworld_burg_63_burg_63_s0" transform="translate(60 60) scale(0.7)"/></g></g><path d="m25,25 h150 v50 a150,150,0,0,1,-75,125 a150,150,0,0,1,-75,-125 z" fill="url(#backlight)" stroke="#333"/></svg>