<svg id="coaworld_burg_72_burg_72_s0" width="500" height="500" viewBox="0 10 200 200" xmlns="http://www.w3.org/2000/svg"><defs><clipPath id="heater_coaworld_burg_72_burg_72_s0"><path d="m25,25 h150 v50 a150,150,0,0,1,-75,125 a150,150,0,0,1,-75,-125 z"/></clipPath><clipPath id="divisionClip_coaworld_burg_72_burg_72_s0"><rect x="100" y="0" width="100" height="100"/><rect x="0" y="100" width="100" height="100"/></clipPath><pattern id="chainy-purpure-argent" width="33.4" height="33.4" viewBox="0 0 200 200" patternUnits="userSpaceOnUse" stroke="#000" stroke-width="2"><rect x="-6.691e-6" width="200" height="200" fill="#522d5b" stroke="none"/><path d="m155-5-20-20-160 160 20 20z" fill="#fafafa"/><path d="m45 205 160-160 20 20-160 160z" fill="#fafafa"/><path d="m45-5 20-20 160 160-20 20-160-160" fill="#fafafa"/><path d="m-5 45-20 20 160 160 20-20-160-160" fill="#fafafa"/></pattern><radialGradient id="backlight" cx="100%" cy="100%" r="150%"><stop stop-color="#fff" stop-opacity=".3" offset="0"/><stop stop-color="#fff" stop-opacity=".15" offset=".25"/><stop stop-color="#000" stop-opacity="0" offset="1"/></radialGradient></defs><g clip-path="url(#heater_coaworld_burg_72_burg_72_s0)"><rect x="0" y="0" width="200" height="200" fill="url(#chainy-purpure-argent)"/><g clip-path="url(#divisionClip_coaworld_burg_72_burg_72_s0)"><rect x="0" y="0" width="200" height="200" fill="#ffe066"/></g><g fill="#ffe066" stroke="none"><polygon points="0,0 30,0 100,70 170,0 200,0 200,30 122,109 122,200 78,200 78,109 0,30"/></g></g><path d="m25,25 h150 v50 a150,150,0,0,1,-75,125 a150,150,0,0,1,-75,-125 z" fill="url(#backlight)" stroke="#333"/></svg>