<svg id="coaworld_burg_75_burg_75_s0" width="500" height="500" viewBox="0 10 200 200" xmlns="http://www.w3.org/2000/svg" xmlns:x="http://www.w3.org/1999/xlink"><defs><clipPath id="heater_coaworld_burg_75_burg_75_s0"><path d="m25,25 h150 v50 a150,150,0,0,1,-75,125 a150,150,0,0,1,-75,-125 z"/></clipPath><clipPath id="divisionClip_coaworld_burg_75_burg_75_s0"><path d="m 0,115 v -15 l 7,-5 -4,10 7,-5 7,5 -4,-10 7,5l 7,-5 -4,10 7,-5 7,5 -4,-10 7,5l 7,-5 -4,10 7,-5 7,5 -4,-10 7,5l 7,-5 -4,10 7,-5 7,5 -4,-10 7,5l 7,-5 -4,10 7,-5 7,5 -4,-10 7,5l 7,-5 -4,10 7,-5 7,5 -4,-10 7,5l 7,-5 -4,10 7,-5 7,5 -4,-10 7,5l 7,-5 -4,10 7,-5 7,5 -4,-10 7,5l 7,-5 -4,10 7,-5 7,5 -4,-10 7,5l 7,-5 -4,10 7,-5 7,5 -4,-10 7,5 v 15 V400 H0 Z" transform="translate(0 50) scale(.5)"/><path d="m 0,115 v -15 l 7,-5 -4,10 7,-5 7,5 -4,-10 7,5l 7,-5 -4,10 7,-5 7,5 -4,-10 7,5l 7,-5 -4,10 7,-5 7,5 -4,-10 7,5l 7,-5 -4,10 7,-5 7,5 -4,-10 7,5l 7,-5 -4,10 7,-5 7,5 -4,-10 7,5l 7,-5 -4,10 7,-5 7,5 -4,-10 7,5l 7,-5 -4,10 7,-5 7,5 -4,-10 7,5l 7,-5 -4,10 7,-5 7,5 -4,-10 7,5l 7,-5 -4,10 7,-5 7,5 -4,-10 7,5l 7,-5 -4,10 7,-5 7,5 -4,-10 7,5 v 15 V400 H0 Z" transform="translate(200 150) scale(-.5)"/></clipPath><g id="crossMoline_coaworld_burg_75_burg_75_s0" stroke-width=".5"><path d="M104.3 74.9c0-6.4 2.7-11.4 5.1-14.8-4.1 0-7.2 2-9.4 4.9-2.2-2.9-5.3-4.9-9.4-4.9 2.5 3.4 5.1 8.4 5.1 14.8v20.8H74.9c-6.4 0-11.3-2.7-14.8-5.1 0 4.1 2 7.2 4.9 9.4-2.9 2.2-4.9 5.4-4.9 9.4 3.4-2.5 8.3-5.1 14.8-5.1h20.8v20.9c0 6.4-2.7 11.4-5.1 14.8 4.1 0 7.2-2 9.4-4.9 2.2 2.9 5.3 4.9 9.4 4.9-2.5-3.4-5.1-8.4-5.1-14.8v-20.9h20.8c6.4 0 11.3 2.7 14.8 5.1 0-4.1-2-7.2-4.9-9.4 2.9-2.2 4.9-5.4 4.9-9.4-3.4 2.5-8.3 5.1-14.8 5.1h-20.8z"/></g><g id="axe_coaworld_burg_75_burg_75_s0" stroke-width=".5"><path d="M102.25 84.98l.03 54.55c0 1.36-1.09 1.65-2.45 1.65-1.35 0-2.46-.27-2.46-1.65l.07-54.7c0-.2 1.06-.42 2.42-.42 1.33 0 2.39.38 2.39.57z"/><g class="secondary"><path d="M95.9 78.3c-10.6 0-12.89-9.37-13.47-10.87 0 0-4.77 4.83-4.77 15.01 0 11.7 6.15 16.4 6.15 16.4s-1.6-8.62 8.6-11.5v-.46l.02-.12.02-.07.03-.1.04-.1.05-.13.03-.08.04-.07.05-.09.07-.1.07-.09.05-.07.05-.05.05-.05.06-.03a.24.24 0 01.07-.06l.05-.03a.14.14 0 01.07-.04l.08-.05a.85.85 0 01.12-.05l.07-.02.07-.01.12-.04.05-.02.1-.01H96"/><path d="M102.92 84.5c5-.04 7.95.3 11.53 1.88 3.1 1.38 5.23 4.27 5.23 4.27.26-2.6-1.64-5.75-4.58-8.05-3.12-2.46-8.4-3.94-12.18-3.94"/><path d="M102.38 76.53C102.2 68.12 100 62 100 62s-2.14 6.36-2.38 14.53"/><path fill="#000" stroke="none" d="M82.37 71.3a23.97 23.97 0 00-1.52 5.8A34.7 34.7 0 0082 91.91c.3.95.63 1.9 1.02 2.84a17.92 17.92 0 01-1.8-4.17 26.18 26.18 0 01-1.15-7.48 30.84 30.84 0 011.2-8.99 20.08 20.08 0 011.11-2.81z"/><path d="M103.61 86.07h-7.53c-.1 0-.18-.07-.18-.17v-8.37c0-.1.07-.17.18-.17h7.53c.1 0 .17.07.17.17v8.37c0 .1-.06.17-.17.17z"/><circle cx="99.844" cy="81.716" r="2.644"/><rect width="6.359" height="2.177" x="96.82" y="75.185"/><line x1="96.803" x2="102.903" y1="76.273" y2="76.273"/></g></g><g id="hook_coaworld_burg_75_burg_75_s0" stroke-width=".4" transform="translate(-1.7, 0.1)"><path d="M87.94 60.4c-3.23.15-5.92 2.28-6.18 5.89-.33 4.55 4.1 6.35 4.1 6.35.67.26 1.5-.13 1.77-.8.26-.67-.1-1.51-.78-1.77 0 0-2.48-.8-2.34-3.67.1-1.9 1.78-3.4 4.09-3.26 1.9.12 3.52 1.07 3.75 3.2.21 2.04-.92 3.66-2.23 5.41-1.32 1.76-2.99 3.59-3.07 6.16v.05l.29 44.52c.07 10.43 8.96 17.01 17.68 16.83a15.6 15.6 0 0011.9-5.67c4.99-6.08 5.87-16.21 3.58-24.03-1.02 5.05-3.65 17.46-14.82 14.93 3.07 2.67 8.66 3.56 12.5.32a17.09 17.09 0 01-3.37 7 12.9 12.9 0 01-9.84 4.7c-7.33.16-14.83-5.22-14.88-14.1l-.29-44.47c0-1.29 1.14-2.76 2.52-4.6 1.38-1.85 2.97-4.14 2.77-7.19-.2-3.1-3.07-5.69-6.5-5.8-.21-.01-.43-.02-.65 0z"/></g><g id="castle2_coaworld_burg_75_burg_75_s0" stroke-width="3" transform="matrix(0.22,0,0,0.22,59.3,67)"><path class="tertiary" d="M160.64 175v35.5h-19.06v5.5h19.06v7.35l2.75 5.69 2.75-5.7V216h16.11v7.36l2.75 5.69 2.75-5.7V216h16.11v7.36l2.75 5.69 2.75-5.7V216h19.06v-5.5h-19.06V175h-5.5v35.5h-16.11V175h-5.5v35.5h-16.11V175h-5.5z"/><path d="M70.53 93.28v37.09h229.2v-37.1h-50.59v17.15h-32.42V93.28h-63.18v17.14h-32.42V93.28z"/><rect width="42.879" height="24.606" x="70.533" y="130.368"/><rect width="35.981" height="24.606" x="113.412" y="130.368"/><rect width="35.755" height="24.606" x="149.393" y="130.368"/><rect width="53.859" height="24.606" x="131.402" y="154.974"/><rect width="53.859" height="24.606" x="77.543" y="154.974"/><rect width="42.879" height="24.606" x="70.533" y="179.58"/><rect width="35.981" height="24.606" x="113.411" y="179.58"/><rect width="53.859" height="24.606" x="77.543" y="204.185"/><rect width="42.879" height="24.606" x="70.533" y="228.791"/><rect width="35.981" height="24.606" x="113.412" y="228.791"/><rect width="53.859" height="24.606" x="77.543" y="253.397"/><path d="M70.53 278.02v15.48h42.85v-15.48H70.53z"/><path d="M113.38 278.02v15.48h36v-15.48h-36z"/><rect width="42.879" height="24.606" x="-299.723" y="130.368" transform="scale(-1 1)"/><rect width="35.981" height="24.606" x="-256.844" y="130.368" transform="scale(-1 1)"/><rect width="35.755" height="24.606" x="-220.863" y="130.368" transform="scale(-1 1)"/><rect width="53.859" height="24.606" x="-238.854" y="154.974" transform="scale(-1 1)"/><rect width="53.859" height="24.606" x="-292.712" y="154.974" transform="scale(-1 1)"/><rect width="42.879" height="24.606" x="-299.723" y="179.58" transform="scale(-1 1)"/><rect width="35.981" height="24.606" x="-256.844" y="179.58" transform="scale(-1 1)"/><rect width="53.859" height="24.606" x="-292.712" y="204.185" transform="scale(-1 1)"/><rect width="42.879" height="24.606" x="-299.723" y="228.791" transform="scale(-1 1)"/><rect width="35.981" height="24.606" x="-256.844" y="228.791" transform="scale(-1 1)"/><rect width="53.859" height="24.606" x="-292.712" y="253.397" transform="scale(-1 1)"/><path d="M256.82 278.02v15.48h42.9v-15.48h-42.9z"/><path d="M220.88 278.02v15.48h35.94v-15.48h-35.94z"/><path d="M49.94 41.74l-31.2 5.37L7.16 293.5h85.56L81.22 47.1l-31.28-5.36z"/><path d="M9.91 6.5L7.16 41.29l10.87 13.3h63.82l10.87-13.3L89.97 6.5h-19.7v20.34H60.12V6.5H39.77v20.34H29.61V6.5H9.9z"/><path d="M6.52 116.36v27.25h86.84v-27.25H6.52z"/><path class="secondary" d="M62.3 165.73a12.36 12.36 0 01-24.7 0 12.36 12.36 0 1124.7 0z"/><path d="M320.06 41.74l-31.2 5.37-11.58 246.39h85.56l-11.5-246.4-31.28-5.36z"/><path d="M280.03 6.5l-2.75 34.79 10.87 13.3h63.82l10.87-13.3-2.75-34.79h-19.7v20.34h-10.16V6.5h-20.34v20.34h-10.17V6.5h-19.7z"/><path d="M276.64 116.36v27.25h86.84v-27.25h-86.84z"/><path class="secondary" d="M332.43 165.73a12.36 12.36 0 01-24.72 0 12.36 12.36 0 1124.72 0z"/><path d="M185.13 149.17c-5.72 0-11.27.79-16.56 2.17l7.86 29.36a36.24 36.24 0 018.7-1.1c3.05 0 5.97.4 8.76 1.1l7.86-29.36a65.44 65.44 0 00-16.62-2.17z"/><path d="M170.04 156.9a59.14 59.14 0 00-26.35 14.84l17.33 17.33a33.84 33.84 0 0115.41-8.37l-6.4-23.8z"/><path d="M143.69 171.74a57.99 57.99 0 00-15.6 26.16l24.04 6.46a32.64 32.64 0 018.89-15.29l-17.33-17.33z"/><path d="M128.09 197.9a57.7 57.7 0 00-2.05 15.34h24.88c0-3.09.46-6.07 1.21-8.88l-24.04-6.46z"/><path d="M200.22 156.9l-6.33 23.8a33.8 33.8 0 0115.35 8.44l17.33-17.33a59.1 59.1 0 00-26.35-14.9z"/><path d="M226.57 171.8l-17.33 17.34a32.58 32.58 0 018.89 15.22l24.04-6.46a57.94 57.94 0 00-15.6-26.1z"/><path d="M242.17 197.96l-24.04 6.4c.74 2.81 1.21 5.8 1.21 8.88h24.88c0-5.28-.71-10.41-2.05-15.28z"/><path d="M126.04 213.24v16.89h24.88v-16.89h-24.88z"/><path d="M126.04 230.13v16.94h24.88v-16.94h-24.88z"/><path d="M126.04 247.07v16.89h24.88v-16.89h-24.88z"/><path d="M126.04 263.96v16.94h24.88v-16.94h-24.88z"/><path d="M126.04 280.9v12.6h24.88v-12.6h-24.88z"/><path d="M219.34 213.24v16.89h24.88v-16.89h-24.88z"/><path d="M219.34 230.13v16.94h24.88v-16.94h-24.88z"/><path d="M219.34 247.07v16.89h24.88v-16.89h-24.88z"/><path d="M219.34 263.96v16.94h24.88v-16.94h-24.88z"/><path d="M219.34 280.9v12.6h24.88v-12.6h-24.88z"/><path fill="#000" stroke="none" d="M49.94 58.3v2.04h27.82l-.07-2.04H49.94zm0 8.18v2.05h28.2l-.06-2.05H49.94zm0 8.19v2.05h28.59l-.07-2.05H49.94zm0 8.18v2.05h29.03l-.12-2.05h-28.9zm0 8.19v2.05h29.42l-.13-2.05H49.94zm0 8.19v2.04h29.8l-.13-2.04H49.94zm0 8.18v2.05h30.18L80 107.4H49.94zm0 13.43v2.05H89.4v-2.05H49.94zm0 8.18v2.05H89.4v-2.05H49.94zm0 8.19v2.05H89.4v-2.05H49.94zm0 11.13v2.04h32.1l-.12-2.04H49.94zm11.51 8.18c.52.65 1 1.32 1.4 2.05h19.58l-.13-2.05H61.45zm3.2 8.19c.02.33.06.68.06 1.02 0 .34-.04.69-.06 1.02H82.8l-.13-2.04H64.65zm-1.8 8.18c-.4.73-.88 1.4-1.4 2.05H83.2l-.12-2.05H62.86zm-12.9 8.19v2.05h33.63l-.13-2.05h-33.5zm0 8.18v2.05h34.01l-.13-2.05H49.94zm0 8.19v2.05h34.4l-.13-2.05H49.94zm0 8.19v2.04h34.78l-.13-2.04H49.94zm0 8.18v2.05H85.1l-.06-2.05h-35.1zm0 8.19v2.04H85.5l-.07-2.04H49.94zm0 8.18v2.05h35.93l-.06-2.05H49.94zm0 8.19v2.04h36.31l-.06-2.04H49.94zm0 8.18v2.05h36.7l-.07-2.05H49.94zm0 8.19v2.04h37.08l-.06-2.04H49.94zm0 8.18v2.05H87.4l-.06-2.05h-37.4zm0 8.19v2.04H87.8l-.07-2.04H49.94zm0 8.18v2.05h38.23l-.06-2.05H49.94z"/><path fill="#000" stroke="none" d="M320.06 58.3v2.04h27.82l-.07-2.04h-27.75zm0 8.18v2.05h28.2l-.06-2.05h-28.14zm0 8.19v2.05h28.58l-.06-2.05h-28.52zm0 8.18v2.05h29.03l-.13-2.05h-28.9zm0 8.19v2.05h29.42l-.13-2.05h-29.3zm0 8.19v2.04h29.8l-.13-2.04h-29.67zm0 8.18v2.05h30.18l-.13-2.05h-30.05zm0 13.43v2.05h39.45v-2.05h-39.45zm0 8.18v2.05h39.45v-2.05h-39.45zm0 8.19v2.05h39.45v-2.05h-39.45zm0 11.13v2.04h32.1l-.13-2.04h-31.97zm11.51 8.18c.51.65 1 1.32 1.4 2.05h19.57l-.12-2.05h-20.85zm3.2 8.19c.02.33.06.68.06 1.02 0 .34-.04.69-.06 1.02h18.16l-.13-2.04h-18.03zm-1.8 8.18c-.4.73-.89 1.4-1.4 2.05h21.74l-.13-2.05h-20.2zm-12.91 8.19v2.05h33.64l-.13-2.05h-33.51zm0 8.18v2.05h34.02l-.13-2.05h-33.9zm0 8.19v2.05h34.4l-.12-2.05h-34.28zm0 8.19v2.04h34.79l-.13-2.04h-34.66zm0 8.18v2.05h35.17l-.06-2.05h-35.11zm0 8.19v2.04h35.55l-.06-2.04h-35.5zm0 8.18v2.05H356l-.07-2.05h-35.87zm0 8.19v2.04h36.32l-.06-2.04h-36.26zm0 8.18v2.05h36.7l-.06-2.05h-36.64zm0 8.19v2.04h37.09l-.07-2.04h-37.02zm0 8.18v2.05h37.47l-.06-2.05h-37.41zm0 8.19v2.04h37.86l-.07-2.04h-37.8zm0 8.18v2.05h38.24l-.06-2.05h-38.18z"/></g><radialGradient id="backlight" cx="100%" cy="100%" r="150%"><stop stop-color="#fff" stop-opacity=".3" offset="0"/><stop stop-color="#fff" stop-opacity=".15" offset=".25"/><stop stop-color="#000" stop-opacity="0" offset="1"/></radialGradient></defs><g clip-path="url(#heater_coaworld_burg_75_burg_75_s0)"><rect x="0" y="0" width="200" height="200" fill="#26c061"/><g clip-path="url(#divisionClip_coaworld_burg_75_burg_75_s0)"><rect x="0" y="0" width="200" height="200" fill="#fafafa"/></g><g fill="#ffe066" stroke="#000"><style>
      g.secondary,path.secondary {fill: #ffe066;}
      g.tertiary,path.tertiary {fill: #ffe066;}
    </style><use x:href="#crossMoline_coaworld_burg_75_burg_75_s0" transform="translate(2.5 2.5) scale(0.6)"/></g><g fill="#333333" stroke="#000"><style>
      g.secondary,path.secondary {fill: #333333;}
      g.tertiary,path.tertiary {fill: #333333;}
    </style><use x:href="#axe_coaworld_burg_75_burg_75_s0" transform="translate(77.5 2.5) scale(0.6)"/></g><g fill="#377cd7" stroke="#000"><style>
      g.secondary,path.secondary {fill: #377cd7;}
      g.tertiary,path.tertiary {fill: #377cd7;}
    </style><use x:href="#hook_coaworld_burg_75_burg_75_s0" transform="translate(10 70) scale(0.6)"/></g><g fill="#fafafa" stroke="#000"><style>
      g.secondary,path.secondary {fill: #fafafa;}
      g.tertiary,path.tertiary {fill: #fafafa;}
    </style><use x:href="#castle2_coaworld_burg_75_burg_75_s0" transform="translate(70 70) scale(0.6)"/></g></g><path d="m25,25 h150 v50 a150,150,0,0,1,-75,125 a150,150,0,0,1,-75,-125 z" fill="url(#backlight)" stroke="#333"/></svg>