<svg id="coaworld_burg_76_burg_76_s0" width="500" height="500" viewBox="0 10 200 200" xmlns="http://www.w3.org/2000/svg" xmlns:x="http://www.w3.org/1999/xlink"><defs><clipPath id="heater_coaworld_burg_76_burg_76_s0"><path d="m25,25 h150 v50 a150,150,0,0,1,-75,125 a150,150,0,0,1,-75,-125 z"/></clipPath><g id="annulet_coaworld_burg_76_burg_76_s0"><path d="M70 100c0 16.569 13.431 30 30 30 16.569 0 30-13.431 30-30 0-16.569-13.431-30-30-30-16.569 0-30 13.431-30 30m10 0c0-11.046 8.954-20 20-20s20 8.954 20 20-8.954 20-20 20-20-8.954-20-20"/></g><radialGradient id="backlight" cx="100%" cy="100%" r="150%"><stop stop-color="#fff" stop-opacity=".3" offset="0"/><stop stop-color="#fff" stop-opacity=".15" offset=".25"/><stop stop-color="#000" stop-opacity="0" offset="1"/></radialGradient></defs><g clip-path="url(#heater_coaworld_burg_76_burg_76_s0)"><rect x="0" y="0" width="200" height="200" fill="#522d5b"/><g fill="#ffe066" stroke="none"><path d="m 0,115 v -15 c 8.9,-3.5 16,-3.1 25,0 8.9,3.5 16,3.1 25,0 8.9,-3.5 16,-3.2 25,0 8.9,3.5 16,3.2 25,0c 8.9,-3.5 16,-3.1 25,0 8.9,3.5 16,3.1 25,0 8.9,-3.5 16,-3.2 25,0 8.9,3.5 16,3.2 25,0 v 15" transform="translate(2 -12) rotate(45 110 100) scale(1.1 1)"/><path d="m 0,115 v -15 c 8.9,-3.5 16,-3.1 25,0 8.9,3.5 16,3.1 25,0 8.9,-3.5 16,-3.2 25,0 8.9,3.5 16,3.2 25,0c 8.9,-3.5 16,-3.1 25,0 8.9,3.5 16,3.1 25,0 8.9,-3.5 16,-3.2 25,0 8.9,3.5 16,3.2 25,0 v 15" transform="translate(-22 12) rotate(225 110 100) scale(1.1 1)"/><rect x="0" y="94" width="200" height="12" transform="translate(-10 0) rotate(45 110 100) scale(1.1 1)" stroke="none"/></g><g fill="#522d5b" stroke="#000"><style>
      g.secondary,path.secondary {fill: #522d5b;}
      g.tertiary,path.tertiary {fill: #522d5b;}
    </style><use x:href="#annulet_coaworld_burg_76_burg_76_s0" transform="translate(32.5 32.5) scale(0.3)"/><use x:href="#annulet_coaworld_burg_76_burg_76_s0" transform="translate(100 100) scale(0.3)"/><use x:href="#annulet_coaworld_burg_76_burg_76_s0" transform="translate(70 70) scale(0.3)"/></g></g><path d="m25,25 h150 v50 a150,150,0,0,1,-75,125 a150,150,0,0,1,-75,-125 z" fill="url(#backlight)" stroke="#333"/></svg>